<?xml version="1.0" encoding="UTF-8" standalone="no"?>
<!DOCTYPE svg PUBLIC "-//W3C//DTD SVG 1.1//EN"
 "http://www.w3.org/Graphics/SVG/1.1/DTD/svg11.dtd">
<!-- Generated by graphviz version 2.40.1 (20161225.0304)
 -->
<!-- Title: dependencies Pages: 1 -->
<svg width="1469pt" height="211pt"
 viewBox="0.00 0.00 1469.00 211.00" xmlns="http://www.w3.org/2000/svg" xmlns:xlink="http://www.w3.org/1999/xlink">
<g id="graph0" class="graph" transform="scale(1 1) rotate(0) translate(4 207)">
<title>dependencies</title>
<polygon fill="#ffffff" stroke="transparent" points="-4,4 -4,-207 1465,-207 1465,4 -4,4"/>
<text text-anchor="start" x="709.5091" y="-42.4" font-family="sans-serif" font-weight="bold" font-size="14.00" fill="#000000">Legend</text>
<polygon fill="#ffffb3" stroke="transparent" points="496.5,-10 496.5,-30 516.5,-30 516.5,-10 496.5,-10"/>
<text text-anchor="start" x="520.129" y="-15.4" font-family="sans-serif" font-size="14.00" fill="#000000"> &#160;Declarations</text>
<polygon fill="#8dd3c7" stroke="transparent" points="609.5,-10 609.5,-30 629.5,-30 629.5,-10 609.5,-10"/>
<text text-anchor="start" x="633.2251" y="-15.4" font-family="sans-serif" font-size="14.00" fill="#000000"> &#160;Module</text>
<polygon fill="#80b1d3" stroke="transparent" points="695.5,-10 695.5,-30 715.5,-30 715.5,-10 695.5,-10"/>
<text text-anchor="start" x="719.2812" y="-15.4" font-family="sans-serif" font-size="14.00" fill="#000000"> &#160;Bootstrap</text>
<polygon fill="#fdb462" stroke="transparent" points="792.5,-10 792.5,-30 812.5,-30 812.5,-10 792.5,-10"/>
<text text-anchor="start" x="816.1732" y="-15.4" font-family="sans-serif" font-size="14.00" fill="#000000"> &#160;Providers</text>
<polygon fill="#fb8072" stroke="transparent" points="888.5,-10 888.5,-30 908.5,-30 908.5,-10 888.5,-10"/>
<text text-anchor="start" x="912.2258" y="-15.4" font-family="sans-serif" font-size="14.00" fill="#000000"> &#160;Exports</text>
<g id="clust1" class="cluster">
<title>cluster_HomePageModule</title>
<polygon fill="none" stroke="#000000" stroke-dasharray="1,5" points="8,-70 8,-195 1453,-195 1453,-70 8,-70"/>
</g>
<g id="clust2" class="cluster">
<title>cluster_HomePageModule_declarations</title>
<polygon fill="none" stroke="#000000" points="1351,-78 1351,-130 1445,-130 1445,-78 1351,-78"/>
</g>
<g id="clust4" class="cluster">
<title>cluster_HomePageModule_imports</title>
<polygon fill="none" stroke="#000000" points="16,-78 16,-130 1343,-130 1343,-78 16,-78"/>
</g>
<!-- HomePage -->
<g id="node1" class="node">
<title>HomePage</title>
<polygon fill="#ffffb3" stroke="#000000" points="1436.9248,-122 1359.0752,-122 1359.0752,-86 1436.9248,-86 1436.9248,-122"/>
<text text-anchor="middle" x="1398" y="-99.8" font-family="Times,serif" font-size="14.00" fill="#000000">HomePage</text>
</g>
<!-- HomePageModule -->
<g id="node2" class="node">
<title>HomePageModule</title>
<polygon fill="#8dd3c7" stroke="#000000" points="869.4734,-187 866.4734,-191 845.4734,-191 842.4734,-187 748.5266,-187 748.5266,-151 869.4734,-151 869.4734,-187"/>
<text text-anchor="middle" x="809" y="-164.8" font-family="Times,serif" font-size="14.00" fill="#000000">HomePageModule</text>
</g>
<!-- HomePage&#45;&gt;HomePageModule -->
<g id="edge1" class="edge">
<title>HomePage&#45;&gt;HomePageModule</title>
<path fill="none" stroke="#000000" d="M1398,-122.0109C1398,-144.4852 1398,-180 1398,-180 1398,-180 879.5399,-180 879.5399,-180"/>
<polygon fill="#000000" stroke="#000000" points="879.5399,-176.5001 869.5399,-180 879.5398,-183.5001 879.5399,-176.5001"/>
</g>
<!-- CommonModule -->
<g id="node3" class="node">
<title>CommonModule</title>
<polygon fill="#8dd3c7" stroke="#000000" points="1334.6681,-122 1331.6681,-126 1310.6681,-126 1307.6681,-122 1223.3319,-122 1223.3319,-86 1334.6681,-86 1334.6681,-122"/>
<text text-anchor="middle" x="1279" y="-99.8" font-family="Times,serif" font-size="14.00" fill="#000000">CommonModule</text>
</g>
<!-- CommonModule&#45;&gt;HomePageModule -->
<g id="edge2" class="edge">
<title>CommonModule&#45;&gt;HomePageModule</title>
<path fill="none" stroke="#000000" d="M1279,-122.1289C1279,-142.5724 1279,-173 1279,-173 1279,-173 879.4821,-173 879.4821,-173"/>
<polygon fill="#000000" stroke="#000000" points="879.4821,-169.5001 869.4821,-173 879.4821,-176.5001 879.4821,-169.5001"/>
</g>
<!-- FormsModule -->
<g id="node4" class="node">
<title>FormsModule</title>
<polygon fill="#8dd3c7" stroke="#000000" points="1205.8288,-122 1202.8288,-126 1181.8288,-126 1178.8288,-122 1110.1712,-122 1110.1712,-86 1205.8288,-86 1205.8288,-122"/>
<text text-anchor="middle" x="1158" y="-99.8" font-family="Times,serif" font-size="14.00" fill="#000000">FormsModule</text>
</g>
<!-- FormsModule&#45;&gt;HomePageModule -->
<g id="edge3" class="edge">
<title>FormsModule&#45;&gt;HomePageModule</title>
<path fill="none" stroke="#000000" d="M1158,-122.2667C1158,-140.5552 1158,-166 1158,-166 1158,-166 879.7912,-166 879.7912,-166"/>
<polygon fill="#000000" stroke="#000000" points="879.7912,-162.5001 869.7912,-166 879.7911,-169.5001 879.7912,-162.5001"/>
</g>
<!-- IonicModule -->
<g id="node5" class="node">
<title>IonicModule</title>
<polygon fill="#8dd3c7" stroke="#000000" points="1092.3162,-122 1089.3162,-126 1068.3162,-126 1065.3162,-122 1003.6838,-122 1003.6838,-86 1092.3162,-86 1092.3162,-122"/>
<text text-anchor="middle" x="1048" y="-99.8" font-family="Times,serif" font-size="14.00" fill="#000000">IonicModule</text>
</g>
<!-- IonicModule&#45;&gt;HomePageModule -->
<g id="edge4" class="edge">
<title>IonicModule&#45;&gt;HomePageModule</title>
<path fill="none" stroke="#000000" d="M1048,-122.0091C1048,-138.0494 1048,-159 1048,-159 1048,-159 879.6188,-159 879.6188,-159"/>
<polygon fill="#000000" stroke="#000000" points="879.6188,-155.5001 869.6188,-159 879.6187,-162.5001 879.6188,-155.5001"/>
</g>
<!-- NgZorroAntdMobileModule -->
<g id="node6" class="node">
<title>NgZorroAntdMobileModule</title>
<polygon fill="#8dd3c7" stroke="#000000" points="985.4678,-122 982.4678,-126 961.4678,-126 958.4678,-122 808.5322,-122 808.5322,-86 985.4678,-86 985.4678,-122"/>
<text text-anchor="middle" x="897" y="-99.8" font-family="Times,serif" font-size="14.00" fill="#000000">NgZorroAntdMobileModule</text>
</g>
<!-- NgZorroAntdMobileModule&#45;&gt;HomePageModule -->
<g id="edge5" class="edge">
<title>NgZorroAntdMobileModule&#45;&gt;HomePageModule</title>
<path fill="none" stroke="#000000" d="M839.0014,-122.1061C839.0014,-122.1061 839.0014,-140.991 839.0014,-140.991"/>
<polygon fill="#000000" stroke="#000000" points="835.5015,-140.9909 839.0014,-150.991 842.5015,-140.991 835.5015,-140.9909"/>
</g>
<!-- NgZorroAntdModule -->
<g id="node7" class="node">
<title>NgZorroAntdModule</title>
<polygon fill="#8dd3c7" stroke="#000000" points="790.0282,-122 787.0282,-126 766.0282,-126 763.0282,-122 653.9718,-122 653.9718,-86 790.0282,-86 790.0282,-122"/>
<text text-anchor="middle" x="722" y="-99.8" font-family="Times,serif" font-size="14.00" fill="#000000">NgZorroAntdModule</text>
</g>
<!-- NgZorroAntdModule&#45;&gt;HomePageModule -->
<g id="edge6" class="edge">
<title>NgZorroAntdModule&#45;&gt;HomePageModule</title>
<path fill="none" stroke="#000000" d="M769.3885,-122.1061C769.3885,-122.1061 769.3885,-140.991 769.3885,-140.991"/>
<polygon fill="#000000" stroke="#000000" points="765.8886,-140.9909 769.3885,-150.991 772.8886,-140.991 765.8886,-140.9909"/>
</g>
<!-- MainNavModule -->
<g id="node8" class="node">
<title>MainNavModule</title>
<polygon fill="#8dd3c7" stroke="#000000" points="636.4216,-122 633.4216,-126 612.4216,-126 609.4216,-122 523.5784,-122 523.5784,-86 636.4216,-86 636.4216,-122"/>
<text text-anchor="middle" x="580" y="-99.8" font-family="Times,serif" font-size="14.00" fill="#000000">MainNavModule</text>
</g>
<!-- MainNavModule&#45;&gt;HomePageModule -->
<g id="edge7" class="edge">
<title>MainNavModule&#45;&gt;HomePageModule</title>
<path fill="none" stroke="#000000" d="M580,-122.0091C580,-138.0494 580,-159 580,-159 580,-159 738.2334,-159 738.2334,-159"/>
<polygon fill="#000000" stroke="#000000" points="738.2335,-162.5001 748.2334,-159 738.2334,-155.5001 738.2335,-162.5001"/>
</g>
<!-- SharedModule -->
<g id="node9" class="node">
<title>SharedModule</title>
<polygon fill="#8dd3c7" stroke="#000000" points="506.4231,-122 503.4231,-126 482.4231,-126 479.4231,-122 407.5769,-122 407.5769,-86 506.4231,-86 506.4231,-122"/>
<text text-anchor="middle" x="457" y="-99.8" font-family="Times,serif" font-size="14.00" fill="#000000">SharedModule</text>
</g>
<!-- SharedModule&#45;&gt;HomePageModule -->
<g id="edge8" class="edge">
<title>SharedModule&#45;&gt;HomePageModule</title>
<path fill="none" stroke="#000000" d="M457,-122.2667C457,-140.5552 457,-166 457,-166 457,-166 738.489,-166 738.489,-166"/>
<polygon fill="#000000" stroke="#000000" points="738.4891,-169.5001 748.489,-166 738.489,-162.5001 738.4891,-169.5001"/>
</g>
<!-- RouterModule.forChild(args) -->
<g id="node10" class="node">
<title>RouterModule.forChild(args)</title>
<polygon fill="#8dd3c7" stroke="#000000" points="389.7323,-122 386.7323,-126 365.7323,-126 362.7323,-122 208.2677,-122 208.2677,-86 389.7323,-86 389.7323,-122"/>
<text text-anchor="middle" x="299" y="-99.8" font-family="Times,serif" font-size="14.00" fill="#000000">RouterModule.forChild(args)</text>
</g>
<!-- RouterModule.forChild(args)&#45;&gt;HomePageModule -->
<g id="edge9" class="edge">
<title>RouterModule.forChild(args)&#45;&gt;HomePageModule</title>
<path fill="none" stroke="#000000" d="M299,-122.1289C299,-142.5724 299,-173 299,-173 299,-173 738.4936,-173 738.4936,-173"/>
<polygon fill="#000000" stroke="#000000" points="738.4936,-176.5001 748.4936,-173 738.4935,-169.5001 738.4936,-176.5001"/>
</g>
<!-- StyledComponentsModule -->
<g id="node11" class="node">
<title>StyledComponentsModule</title>
<polygon fill="#8dd3c7" stroke="#000000" points="190.1052,-122 187.1052,-126 166.1052,-126 163.1052,-122 23.8948,-122 23.8948,-86 190.1052,-86 190.1052,-122"/>
<text text-anchor="middle" x="107" y="-99.8" font-family="Times,serif" font-size="14.00" fill="#000000">StyledComponentsModule</text>
</g>
<!-- StyledComponentsModule&#45;&gt;HomePageModule -->
<g id="edge10" class="edge">
<title>StyledComponentsModule&#45;&gt;HomePageModule</title>
<path fill="none" stroke="#000000" d="M107,-122.0109C107,-144.4852 107,-180 107,-180 107,-180 738.2355,-180 738.2355,-180"/>
<polygon fill="#000000" stroke="#000000" points="738.2356,-183.5001 748.2355,-180 738.2355,-176.5001 738.2356,-183.5001"/>
</g>
</g>
</svg>
