<?xml version="1.0" encoding="UTF-8" standalone="no"?>
<!DOCTYPE svg PUBLIC "-//W3C//DTD SVG 1.1//EN"
 "http://www.w3.org/Graphics/SVG/1.1/DTD/svg11.dtd">
<!-- Generated by graphviz version 2.40.1 (20161225.0304)
 -->
<!-- Title: dependencies Pages: 1 -->
<svg width="2826pt" height="284pt"
 viewBox="0.00 0.00 2826.00 284.00" xmlns="http://www.w3.org/2000/svg" xmlns:xlink="http://www.w3.org/1999/xlink">
<g id="graph0" class="graph" transform="scale(1 1) rotate(0) translate(4 280)">
<title>dependencies</title>
<polygon fill="#ffffff" stroke="transparent" points="-4,4 -4,-280 2822,-280 2822,4 -4,4"/>
<text text-anchor="start" x="1388.0091" y="-42.4" font-family="sans-serif" font-weight="bold" font-size="14.00" fill="#000000">Legend</text>
<polygon fill="#ffffb3" stroke="transparent" points="1175,-10 1175,-30 1195,-30 1195,-10 1175,-10"/>
<text text-anchor="start" x="1198.629" y="-15.4" font-family="sans-serif" font-size="14.00" fill="#000000"> &#160;Declarations</text>
<polygon fill="#8dd3c7" stroke="transparent" points="1288,-10 1288,-30 1308,-30 1308,-10 1288,-10"/>
<text text-anchor="start" x="1311.7251" y="-15.4" font-family="sans-serif" font-size="14.00" fill="#000000"> &#160;Module</text>
<polygon fill="#80b1d3" stroke="transparent" points="1374,-10 1374,-30 1394,-30 1394,-10 1374,-10"/>
<text text-anchor="start" x="1397.7812" y="-15.4" font-family="sans-serif" font-size="14.00" fill="#000000"> &#160;Bootstrap</text>
<polygon fill="#fdb462" stroke="transparent" points="1471,-10 1471,-30 1491,-30 1491,-10 1471,-10"/>
<text text-anchor="start" x="1494.6732" y="-15.4" font-family="sans-serif" font-size="14.00" fill="#000000"> &#160;Providers</text>
<polygon fill="#fb8072" stroke="transparent" points="1567,-10 1567,-30 1587,-30 1587,-10 1567,-10"/>
<text text-anchor="start" x="1590.7258" y="-15.4" font-family="sans-serif" font-size="14.00" fill="#000000"> &#160;Exports</text>
<g id="clust1" class="cluster">
<title>cluster_SharedModule</title>
<polygon fill="none" stroke="#000000" stroke-dasharray="1,5" points="8,-70 8,-268 2810,-268 2810,-70 8,-70"/>
</g>
<g id="clust2" class="cluster">
<title>cluster_SharedModule_declarations</title>
<polygon fill="none" stroke="#000000" points="1618,-78 1618,-130 2802,-130 2802,-78 1618,-78"/>
</g>
<g id="clust11" class="cluster">
<title>cluster_SharedModule_imports</title>
<polygon fill="none" stroke="#000000" points="112,-78 112,-130 1610,-130 1610,-78 112,-78"/>
</g>
<g id="clust12" class="cluster">
<title>cluster_SharedModule_exports</title>
<polygon fill="none" stroke="#000000" points="793,-208 793,-260 2006,-260 2006,-208 793,-208"/>
</g>
<g id="clust14" class="cluster">
<title>cluster_SharedModule_providers</title>
<polygon fill="none" stroke="#000000" points="16,-78 16,-130 104,-130 104,-78 16,-78"/>
</g>
<!-- LogoComponent -->
<g id="node1" class="node">
<title>LogoComponent</title>
<polygon fill="#ffffb3" stroke="#000000" points="2794.3851,-122 2683.6149,-122 2683.6149,-86 2794.3851,-86 2794.3851,-122"/>
<text text-anchor="middle" x="2739" y="-99.8" font-family="Times,serif" font-size="14.00" fill="#000000">LogoComponent</text>
</g>
<!-- SharedModule -->
<g id="node9" class="node">
<title>SharedModule</title>
<polygon fill="#8dd3c7" stroke="#000000" points="1477.4231,-187 1474.4231,-191 1453.4231,-191 1450.4231,-187 1378.5769,-187 1378.5769,-151 1477.4231,-151 1477.4231,-187"/>
<text text-anchor="middle" x="1428" y="-164.8" font-family="Times,serif" font-size="14.00" fill="#000000">SharedModule</text>
</g>
<!-- LogoComponent&#45;&gt;SharedModule -->
<g id="edge1" class="edge">
<title>LogoComponent&#45;&gt;SharedModule</title>
<path fill="none" stroke="#000000" d="M2739,-122.0449C2739,-143.6623 2739,-177 2739,-177 2739,-177 1487.3953,-177 1487.3953,-177"/>
<polygon fill="#000000" stroke="#000000" points="1487.3953,-173.5001 1477.3953,-177 1487.3952,-180.5001 1487.3953,-173.5001"/>
</g>
<!-- ShortNumberPipe -->
<g id="node2" class="node">
<title>ShortNumberPipe</title>
<polygon fill="#ffffb3" stroke="#000000" points="2665.594,-122 2548.406,-122 2548.406,-86 2665.594,-86 2665.594,-122"/>
<text text-anchor="middle" x="2607" y="-99.8" font-family="Times,serif" font-size="14.00" fill="#000000">ShortNumberPipe</text>
</g>
<!-- ShortNumberPipe&#45;&gt;SharedModule -->
<g id="edge2" class="edge">
<title>ShortNumberPipe&#45;&gt;SharedModule</title>
<path fill="none" stroke="#000000" d="M2607,-122.2843C2607,-143.3211 2607,-175 2607,-175 2607,-175 1487.5325,-175 1487.5325,-175"/>
<polygon fill="#000000" stroke="#000000" points="1487.5325,-171.5001 1477.5325,-175 1487.5324,-178.5001 1487.5325,-171.5001"/>
</g>
<!-- AvatarComponent -->
<g id="node3" class="node">
<title>AvatarComponent</title>
<polygon fill="#ffffb3" stroke="#000000" points="2530.9201,-122 2411.0799,-122 2411.0799,-86 2530.9201,-86 2530.9201,-122"/>
<text text-anchor="middle" x="2471" y="-99.8" font-family="Times,serif" font-size="14.00" fill="#000000">AvatarComponent</text>
</g>
<!-- AvatarComponent&#45;&gt;SharedModule -->
<g id="edge3" class="edge">
<title>AvatarComponent&#45;&gt;SharedModule</title>
<path fill="none" stroke="#000000" d="M2471,-122.2228C2471,-142.3652 2471,-172 2471,-172 2471,-172 1487.2552,-172 1487.2552,-172"/>
<polygon fill="#000000" stroke="#000000" points="1487.2552,-168.5001 1477.2552,-172 1487.2552,-175.5001 1487.2552,-168.5001"/>
</g>
<!-- MusicPlayerComponent -->
<g id="node4" class="node">
<title>MusicPlayerComponent</title>
<polygon fill="#ffffb3" stroke="#000000" points="2393.0898,-122 2240.9102,-122 2240.9102,-86 2393.0898,-86 2393.0898,-122"/>
<text text-anchor="middle" x="2317" y="-99.8" font-family="Times,serif" font-size="14.00" fill="#000000">MusicPlayerComponent</text>
</g>
<!-- MusicPlayerComponent&#45;&gt;SharedModule -->
<g id="edge4" class="edge">
<title>MusicPlayerComponent&#45;&gt;SharedModule</title>
<path fill="none" stroke="#000000" d="M2317,-122.1061C2317,-141.3391 2317,-169 2317,-169 2317,-169 1487.3817,-169 1487.3817,-169"/>
<polygon fill="#000000" stroke="#000000" points="1487.3817,-165.5001 1477.3817,-169 1487.3816,-172.5001 1487.3817,-165.5001"/>
</g>
<!-- MinuteSecondsPipe -->
<g id="node5" class="node">
<title>MinuteSecondsPipe</title>
<polygon fill="#ffffb3" stroke="#000000" points="2222.9846,-122 2095.0154,-122 2095.0154,-86 2222.9846,-86 2222.9846,-122"/>
<text text-anchor="middle" x="2159" y="-99.8" font-family="Times,serif" font-size="14.00" fill="#000000">MinuteSecondsPipe</text>
</g>
<!-- MinuteSecondsPipe&#45;&gt;SharedModule -->
<g id="edge5" class="edge">
<title>MinuteSecondsPipe&#45;&gt;SharedModule</title>
<path fill="none" stroke="#000000" d="M2159,-122.2222C2159,-140.8285 2159,-167 2159,-167 2159,-167 1487.3836,-167 1487.3836,-167"/>
<polygon fill="#000000" stroke="#000000" points="1487.3837,-163.5001 1477.3836,-167 1487.3836,-170.5001 1487.3837,-163.5001"/>
</g>
<!-- GraphqlErrorComponent -->
<g id="node6" class="node">
<title>GraphqlErrorComponent</title>
<polygon fill="#ffffb3" stroke="#000000" points="2077.2394,-122 1920.7606,-122 1920.7606,-86 2077.2394,-86 2077.2394,-122"/>
<text text-anchor="middle" x="1999" y="-99.8" font-family="Times,serif" font-size="14.00" fill="#000000">GraphqlErrorComponent</text>
</g>
<!-- GraphqlErrorComponent&#45;&gt;SharedModule -->
<g id="edge6" class="edge">
<title>GraphqlErrorComponent&#45;&gt;SharedModule</title>
<path fill="none" stroke="#000000" d="M1959.4115,-122.002C1959.4115,-139.6754 1959.4115,-164 1959.4115,-164 1959.4115,-164 1487.5167,-164 1487.5167,-164"/>
<polygon fill="#000000" stroke="#000000" points="1487.5167,-160.5001 1477.5167,-164 1487.5167,-167.5001 1487.5167,-160.5001"/>
</g>
<!-- PartyItemComponent -->
<g id="node7" class="node">
<title>PartyItemComponent</title>
<polygon fill="#ffffb3" stroke="#000000" points="1902.038,-122 1765.962,-122 1765.962,-86 1902.038,-86 1902.038,-122"/>
<text text-anchor="middle" x="1834" y="-99.8" font-family="Times,serif" font-size="14.00" fill="#000000">PartyItemComponent</text>
</g>
<!-- PartyItemComponent&#45;&gt;SharedModule -->
<g id="edge7" class="edge">
<title>PartyItemComponent&#45;&gt;SharedModule</title>
<path fill="none" stroke="#000000" d="M1816.0142,-122.0336C1816.0142,-139.0597 1816.0142,-162 1816.0142,-162 1816.0142,-162 1487.5364,-162 1487.5364,-162"/>
<polygon fill="#000000" stroke="#000000" points="1487.5364,-158.5001 1477.5364,-162 1487.5363,-165.5001 1487.5364,-158.5001"/>
</g>
<!-- HeaderComponent -->
<g id="node8" class="node">
<title>HeaderComponent</title>
<polygon fill="#ffffb3" stroke="#000000" points="1747.7437,-122 1626.2563,-122 1626.2563,-86 1747.7437,-86 1747.7437,-122"/>
<text text-anchor="middle" x="1687" y="-99.8" font-family="Times,serif" font-size="14.00" fill="#000000">HeaderComponent</text>
</g>
<!-- HeaderComponent&#45;&gt;SharedModule -->
<g id="edge8" class="edge">
<title>HeaderComponent&#45;&gt;SharedModule</title>
<path fill="none" stroke="#000000" d="M1676.794,-122.0091C1676.794,-138.0494 1676.794,-159 1676.794,-159 1676.794,-159 1487.4512,-159 1487.4512,-159"/>
<polygon fill="#000000" stroke="#000000" points="1487.4512,-155.5001 1477.4512,-159 1487.4511,-162.5001 1487.4512,-155.5001"/>
</g>
<!-- LogoComponent  -->
<g id="node21" class="node">
<title>LogoComponent </title>
<polygon fill="#fb8072" stroke="#000000" points="1998.3857,-252 1883.6143,-252 1883.6143,-216 1998.3857,-216 1998.3857,-252"/>
<text text-anchor="middle" x="1941" y="-229.8" font-family="Times,serif" font-size="14.00" fill="#000000">LogoComponent </text>
</g>
<!-- SharedModule&#45;&gt;LogoComponent  -->
<g id="edge23" class="edge">
<title>SharedModule&#45;&gt;LogoComponent </title>
<path fill="none" stroke="#000000" stroke-dasharray="5,2" d="M1477.327,-180C1597.0101,-180 1893.0381,-180 1893.0381,-180 1893.0381,-180 1893.0381,-205.7181 1893.0381,-205.7181"/>
<polygon fill="#000000" stroke="#000000" points="1889.5381,-205.718 1893.0381,-215.7181 1896.5381,-205.7181 1889.5381,-205.718"/>
</g>
<!-- ShortNumberPipe  -->
<g id="node22" class="node">
<title>ShortNumberPipe </title>
<polygon fill="#fb8072" stroke="#000000" points="1866.0947,-252 1745.9053,-252 1745.9053,-216 1866.0947,-216 1866.0947,-252"/>
<text text-anchor="middle" x="1806" y="-229.8" font-family="Times,serif" font-size="14.00" fill="#000000">ShortNumberPipe </text>
</g>
<!-- SharedModule&#45;&gt;ShortNumberPipe  -->
<g id="edge24" class="edge">
<title>SharedModule&#45;&gt;ShortNumberPipe </title>
<path fill="none" stroke="#000000" stroke-dasharray="5,2" d="M1477.2249,-182C1568.9495,-182 1756.8016,-182 1756.8016,-182 1756.8016,-182 1756.8016,-205.8129 1756.8016,-205.8129"/>
<polygon fill="#000000" stroke="#000000" points="1753.3016,-205.8129 1756.8016,-215.8129 1760.3016,-205.813 1753.3016,-205.8129"/>
</g>
<!-- AvatarComponent  -->
<g id="node23" class="node">
<title>AvatarComponent </title>
<polygon fill="#fb8072" stroke="#000000" points="1727.4194,-252 1604.5806,-252 1604.5806,-216 1727.4194,-216 1727.4194,-252"/>
<text text-anchor="middle" x="1666" y="-229.8" font-family="Times,serif" font-size="14.00" fill="#000000">AvatarComponent </text>
</g>
<!-- SharedModule&#45;&gt;AvatarComponent  -->
<g id="edge25" class="edge">
<title>SharedModule&#45;&gt;AvatarComponent </title>
<path fill="none" stroke="#000000" stroke-dasharray="5,2" d="M1477.2199,-185C1532.7238,-185 1615.3343,-185 1615.3343,-185 1615.3343,-185 1615.3343,-205.7542 1615.3343,-205.7542"/>
<polygon fill="#000000" stroke="#000000" points="1611.8344,-205.7542 1615.3343,-215.7542 1618.8344,-205.7542 1611.8344,-205.7542"/>
</g>
<!-- MusicPlayerComponent  -->
<g id="node24" class="node">
<title>MusicPlayerComponent </title>
<polygon fill="#fb8072" stroke="#000000" points="1586.5903,-252 1431.4097,-252 1431.4097,-216 1586.5903,-216 1586.5903,-252"/>
<text text-anchor="middle" x="1509" y="-229.8" font-family="Times,serif" font-size="14.00" fill="#000000">MusicPlayerComponent </text>
</g>
<!-- SharedModule&#45;&gt;MusicPlayerComponent  -->
<g id="edge26" class="edge">
<title>SharedModule&#45;&gt;MusicPlayerComponent </title>
<path fill="none" stroke="#000000" stroke-dasharray="5,2" d="M1454.2081,-187.1061C1454.2081,-187.1061 1454.2081,-205.991 1454.2081,-205.991"/>
<polygon fill="#000000" stroke="#000000" points="1450.7082,-205.9909 1454.2081,-215.991 1457.7082,-205.991 1450.7082,-205.9909"/>
</g>
<!-- MinuteSecondsPipe  -->
<g id="node25" class="node">
<title>MinuteSecondsPipe </title>
<polygon fill="#fb8072" stroke="#000000" points="1412.9855,-252 1281.0145,-252 1281.0145,-216 1412.9855,-216 1412.9855,-252"/>
<text text-anchor="middle" x="1347" y="-229.8" font-family="Times,serif" font-size="14.00" fill="#000000">MinuteSecondsPipe </text>
</g>
<!-- SharedModule&#45;&gt;MinuteSecondsPipe  -->
<g id="edge27" class="edge">
<title>SharedModule&#45;&gt;MinuteSecondsPipe </title>
<path fill="none" stroke="#000000" stroke-dasharray="5,2" d="M1395.7656,-187.1061C1395.7656,-187.1061 1395.7656,-205.991 1395.7656,-205.991"/>
<polygon fill="#000000" stroke="#000000" points="1392.2657,-205.9909 1395.7656,-215.991 1399.2657,-205.991 1392.2657,-205.9909"/>
</g>
<!-- GraphqlErrorComponent  -->
<g id="node26" class="node">
<title>GraphqlErrorComponent </title>
<polygon fill="#fb8072" stroke="#000000" points="1263.2394,-252 1102.7606,-252 1102.7606,-216 1263.2394,-216 1263.2394,-252"/>
<text text-anchor="middle" x="1183" y="-229.8" font-family="Times,serif" font-size="14.00" fill="#000000">GraphqlErrorComponent </text>
</g>
<!-- SharedModule&#45;&gt;GraphqlErrorComponent  -->
<g id="edge28" class="edge">
<title>SharedModule&#45;&gt;GraphqlErrorComponent </title>
<path fill="none" stroke="#000000" stroke-dasharray="5,2" d="M1378.6768,-185C1320.4796,-185 1231.5335,-185 1231.5335,-185 1231.5335,-185 1231.5335,-205.7542 1231.5335,-205.7542"/>
<polygon fill="#000000" stroke="#000000" points="1228.0336,-205.7542 1231.5335,-215.7542 1235.0336,-205.7542 1228.0336,-205.7542"/>
</g>
<!-- PartyItemComponent  -->
<g id="node27" class="node">
<title>PartyItemComponent </title>
<polygon fill="#fb8072" stroke="#000000" points="1085.0372,-252 944.9628,-252 944.9628,-216 1085.0372,-216 1085.0372,-252"/>
<text text-anchor="middle" x="1015" y="-229.8" font-family="Times,serif" font-size="14.00" fill="#000000">PartyItemComponent </text>
</g>
<!-- SharedModule&#45;&gt;PartyItemComponent  -->
<g id="edge29" class="edge">
<title>SharedModule&#45;&gt;PartyItemComponent </title>
<path fill="none" stroke="#000000" stroke-dasharray="5,2" d="M1378.4317,-183C1281.6333,-183 1076.8368,-183 1076.8368,-183 1076.8368,-183 1076.8368,-205.8757 1076.8368,-205.8757"/>
<polygon fill="#000000" stroke="#000000" points="1073.3369,-205.8757 1076.8368,-215.8757 1080.3369,-205.8757 1073.3369,-205.8757"/>
</g>
<!-- HeaderComponent  -->
<g id="node28" class="node">
<title>HeaderComponent </title>
<polygon fill="#fb8072" stroke="#000000" points="926.7436,-252 801.2564,-252 801.2564,-216 926.7436,-216 926.7436,-252"/>
<text text-anchor="middle" x="864" y="-229.8" font-family="Times,serif" font-size="14.00" fill="#000000">HeaderComponent </text>
</g>
<!-- SharedModule&#45;&gt;HeaderComponent  -->
<g id="edge30" class="edge">
<title>SharedModule&#45;&gt;HeaderComponent </title>
<path fill="none" stroke="#000000" stroke-dasharray="5,2" d="M1378.4092,-180C1244.4616,-180 885.3978,-180 885.3978,-180 885.3978,-180 885.3978,-205.7181 885.3978,-205.7181"/>
<polygon fill="#000000" stroke="#000000" points="881.8979,-205.718 885.3978,-215.7181 888.8979,-205.7181 881.8979,-205.718"/>
</g>
<!-- CommonModule -->
<g id="node10" class="node">
<title>CommonModule</title>
<polygon fill="#8dd3c7" stroke="#000000" points="1601.6681,-122 1598.6681,-126 1577.6681,-126 1574.6681,-122 1490.3319,-122 1490.3319,-86 1601.6681,-86 1601.6681,-122"/>
<text text-anchor="middle" x="1546" y="-99.8" font-family="Times,serif" font-size="14.00" fill="#000000">CommonModule</text>
</g>
<!-- CommonModule&#45;&gt;SharedModule -->
<g id="edge9" class="edge">
<title>CommonModule&#45;&gt;SharedModule</title>
<path fill="none" stroke="#000000" d="M1522.3758,-122.0511C1522.3758,-136.373 1522.3758,-154 1522.3758,-154 1522.3758,-154 1487.3991,-154 1487.3991,-154"/>
<polygon fill="#000000" stroke="#000000" points="1487.3991,-150.5001 1477.3991,-154 1487.3991,-157.5001 1487.3991,-150.5001"/>
</g>
<!-- CommonModule&#45;&gt;SharedModule -->
<g id="edge14" class="edge">
<title>CommonModule&#45;&gt;SharedModule</title>
<path fill="none" stroke="#000000" d="M1554.5853,-122.2396C1554.5853,-137.5706 1554.5853,-157 1554.5853,-157 1554.5853,-157 1487.3037,-157 1487.3037,-157"/>
<polygon fill="#000000" stroke="#000000" points="1487.3037,-153.5001 1477.3037,-157 1487.3036,-160.5001 1487.3037,-153.5001"/>
</g>
<!-- IonicModule -->
<g id="node11" class="node">
<title>IonicModule</title>
<polygon fill="#8dd3c7" stroke="#000000" points="1472.3162,-122 1469.3162,-126 1448.3162,-126 1445.3162,-122 1383.6838,-122 1383.6838,-86 1472.3162,-86 1472.3162,-122"/>
<text text-anchor="middle" x="1428" y="-99.8" font-family="Times,serif" font-size="14.00" fill="#000000">IonicModule</text>
</g>
<!-- IonicModule&#45;&gt;SharedModule -->
<g id="edge10" class="edge">
<title>IonicModule&#45;&gt;SharedModule</title>
<path fill="none" stroke="#000000" d="M1413.2807,-122.1061C1413.2807,-122.1061 1413.2807,-140.991 1413.2807,-140.991"/>
<polygon fill="#000000" stroke="#000000" points="1409.7808,-140.9909 1413.2807,-150.991 1416.7808,-140.991 1409.7808,-140.9909"/>
</g>
<!-- IonicModule&#45;&gt;SharedModule -->
<g id="edge17" class="edge">
<title>IonicModule&#45;&gt;SharedModule</title>
<path fill="none" stroke="#000000" d="M1442.7193,-122.1061C1442.7193,-122.1061 1442.7193,-140.991 1442.7193,-140.991"/>
<polygon fill="#000000" stroke="#000000" points="1439.2194,-140.9909 1442.7193,-150.991 1446.2194,-140.991 1439.2194,-140.9909"/>
</g>
<!-- StyledComponentsModule -->
<g id="node12" class="node">
<title>StyledComponentsModule</title>
<polygon fill="#8dd3c7" stroke="#000000" points="1366.1052,-122 1363.1052,-126 1342.1052,-126 1339.1052,-122 1199.8948,-122 1199.8948,-86 1366.1052,-86 1366.1052,-122"/>
<text text-anchor="middle" x="1283" y="-99.8" font-family="Times,serif" font-size="14.00" fill="#000000">StyledComponentsModule</text>
</g>
<!-- StyledComponentsModule&#45;&gt;SharedModule -->
<g id="edge11" class="edge">
<title>StyledComponentsModule&#45;&gt;SharedModule</title>
<path fill="none" stroke="#000000" d="M1323.6552,-122.0511C1323.6552,-136.373 1323.6552,-154 1323.6552,-154 1323.6552,-154 1368.5777,-154 1368.5777,-154"/>
<polygon fill="#000000" stroke="#000000" points="1368.5778,-157.5001 1378.5777,-154 1368.5777,-150.5001 1368.5778,-157.5001"/>
</g>
<!-- FormsModule -->
<g id="node13" class="node">
<title>FormsModule</title>
<polygon fill="#8dd3c7" stroke="#000000" points="1181.8288,-122 1178.8288,-126 1157.8288,-126 1154.8288,-122 1086.1712,-122 1086.1712,-86 1181.8288,-86 1181.8288,-122"/>
<text text-anchor="middle" x="1134" y="-99.8" font-family="Times,serif" font-size="14.00" fill="#000000">FormsModule</text>
</g>
<!-- FormsModule&#45;&gt;SharedModule -->
<g id="edge12" class="edge">
<title>FormsModule&#45;&gt;SharedModule</title>
<path fill="none" stroke="#000000" d="M1129.1416,-122.0091C1129.1416,-138.0494 1129.1416,-159 1129.1416,-159 1129.1416,-159 1368.6496,-159 1368.6496,-159"/>
<polygon fill="#000000" stroke="#000000" points="1368.6497,-162.5001 1378.6496,-159 1368.6496,-155.5001 1368.6497,-162.5001"/>
</g>
<!-- FormsModule&#45;&gt;SharedModule -->
<g id="edge15" class="edge">
<title>FormsModule&#45;&gt;SharedModule</title>
<path fill="none" stroke="#000000" d="M1155.4029,-122.1871C1155.4029,-137.1824 1155.4029,-156 1155.4029,-156 1155.4029,-156 1368.6347,-156 1368.6347,-156"/>
<polygon fill="#000000" stroke="#000000" points="1368.6348,-159.5001 1378.6347,-156 1368.6347,-152.5001 1368.6348,-159.5001"/>
</g>
<!-- NzSliderModule -->
<g id="node14" class="node">
<title>NzSliderModule</title>
<polygon fill="#8dd3c7" stroke="#000000" points="1068.8104,-122 1065.8104,-126 1044.8104,-126 1041.8104,-122 959.1896,-122 959.1896,-86 1068.8104,-86 1068.8104,-122"/>
<text text-anchor="middle" x="1014" y="-99.8" font-family="Times,serif" font-size="14.00" fill="#000000">NzSliderModule</text>
</g>
<!-- NzSliderModule&#45;&gt;SharedModule -->
<g id="edge13" class="edge">
<title>NzSliderModule&#45;&gt;SharedModule</title>
<path fill="none" stroke="#000000" d="M1014,-122.0352C1014,-138.7344 1014,-161 1014,-161 1014,-161 1368.4731,-161 1368.4731,-161"/>
<polygon fill="#000000" stroke="#000000" points="1368.4732,-164.5001 1378.4731,-161 1368.4731,-157.5001 1368.4732,-164.5001"/>
</g>
<!-- RouterModule -->
<g id="node15" class="node">
<title>RouterModule</title>
<polygon fill="#8dd3c7" stroke="#000000" points="941.6528,-122 938.6528,-126 917.6528,-126 914.6528,-122 844.3472,-122 844.3472,-86 941.6528,-86 941.6528,-122"/>
<text text-anchor="middle" x="893" y="-99.8" font-family="Times,serif" font-size="14.00" fill="#000000">RouterModule</text>
</g>
<!-- RouterModule&#45;&gt;SharedModule -->
<g id="edge16" class="edge">
<title>RouterModule&#45;&gt;SharedModule</title>
<path fill="none" stroke="#000000" d="M934.2239,-122.0225C934.2239,-139.3734 934.2239,-163 934.2239,-163 934.2239,-163 1368.3941,-163 1368.3941,-163"/>
<polygon fill="#000000" stroke="#000000" points="1368.3941,-166.5001 1378.3941,-163 1368.394,-159.5001 1368.3941,-166.5001"/>
</g>
<!-- NgZorroAntdMobileModule -->
<g id="node16" class="node">
<title>NgZorroAntdMobileModule</title>
<polygon fill="#8dd3c7" stroke="#000000" points="826.4678,-122 823.4678,-126 802.4678,-126 799.4678,-122 649.5322,-122 649.5322,-86 826.4678,-86 826.4678,-122"/>
<text text-anchor="middle" x="738" y="-99.8" font-family="Times,serif" font-size="14.00" fill="#000000">NgZorroAntdMobileModule</text>
</g>
<!-- NgZorroAntdMobileModule&#45;&gt;SharedModule -->
<g id="edge18" class="edge">
<title>NgZorroAntdMobileModule&#45;&gt;SharedModule</title>
<path fill="none" stroke="#000000" d="M813.9311,-122.2667C813.9311,-140.5552 813.9311,-166 813.9311,-166 813.9311,-166 1368.7862,-166 1368.7862,-166"/>
<polygon fill="#000000" stroke="#000000" points="1368.7862,-169.5001 1378.7862,-166 1368.7862,-162.5001 1368.7862,-169.5001"/>
</g>
<!-- NzButtonModule -->
<g id="node17" class="node">
<title>NzButtonModule</title>
<polygon fill="#8dd3c7" stroke="#000000" points="631.9888,-122 628.9888,-126 607.9888,-126 604.9888,-122 518.0112,-122 518.0112,-86 631.9888,-86 631.9888,-122"/>
<text text-anchor="middle" x="575" y="-99.8" font-family="Times,serif" font-size="14.00" fill="#000000">NzButtonModule</text>
</g>
<!-- NzButtonModule&#45;&gt;SharedModule -->
<g id="edge19" class="edge">
<title>NzButtonModule&#45;&gt;SharedModule</title>
<path fill="none" stroke="#000000" d="M575,-122.1686C575,-141.0898 575,-168 575,-168 575,-168 1368.7642,-168 1368.7642,-168"/>
<polygon fill="#000000" stroke="#000000" points="1368.7642,-171.5001 1378.7642,-168 1368.7641,-164.5001 1368.7642,-171.5001"/>
</g>
<!-- NzIconModule -->
<g id="node18" class="node">
<title>NzIconModule</title>
<polygon fill="#8dd3c7" stroke="#000000" points="500.2465,-122 497.2465,-126 476.2465,-126 473.2465,-122 399.7535,-122 399.7535,-86 500.2465,-86 500.2465,-122"/>
<text text-anchor="middle" x="450" y="-99.8" font-family="Times,serif" font-size="14.00" fill="#000000">NzIconModule</text>
</g>
<!-- NzIconModule&#45;&gt;SharedModule -->
<g id="edge20" class="edge">
<title>NzIconModule&#45;&gt;SharedModule</title>
<path fill="none" stroke="#000000" d="M450,-122.308C450,-142.1455 450,-171 450,-171 450,-171 1368.4939,-171 1368.4939,-171"/>
<polygon fill="#000000" stroke="#000000" points="1368.494,-174.5001 1378.4939,-171 1368.4939,-167.5001 1368.494,-174.5001"/>
</g>
<!-- NgZorroAntdModule -->
<g id="node19" class="node">
<title>NgZorroAntdModule</title>
<polygon fill="#8dd3c7" stroke="#000000" points="381.0282,-122 378.0282,-126 357.0282,-126 354.0282,-122 244.9718,-122 244.9718,-86 381.0282,-86 381.0282,-122"/>
<text text-anchor="middle" x="313" y="-99.8" font-family="Times,serif" font-size="14.00" fill="#000000">NgZorroAntdModule</text>
</g>
<!-- NgZorroAntdModule&#45;&gt;SharedModule -->
<g id="edge21" class="edge">
<title>NgZorroAntdModule&#45;&gt;SharedModule</title>
<path fill="none" stroke="#000000" d="M313,-122.1289C313,-142.5724 313,-173 313,-173 313,-173 1368.6512,-173 1368.6512,-173"/>
<polygon fill="#000000" stroke="#000000" points="1368.6512,-176.5001 1378.6512,-173 1368.6511,-169.5001 1368.6512,-176.5001"/>
</g>
<!-- MomentModule -->
<g id="node20" class="node">
<title>MomentModule</title>
<polygon fill="#8dd3c7" stroke="#000000" points="226.4902,-122 223.4902,-126 202.4902,-126 199.4902,-122 119.5098,-122 119.5098,-86 226.4902,-86 226.4902,-122"/>
<text text-anchor="middle" x="173" y="-99.8" font-family="Times,serif" font-size="14.00" fill="#000000">MomentModule</text>
</g>
<!-- MomentModule&#45;&gt;SharedModule -->
<g id="edge22" class="edge">
<title>MomentModule&#45;&gt;SharedModule</title>
<path fill="none" stroke="#000000" d="M173,-122.2843C173,-143.3211 173,-175 173,-175 173,-175 1368.416,-175 1368.416,-175"/>
<polygon fill="#000000" stroke="#000000" points="1368.416,-178.5001 1378.416,-175 1368.4159,-171.5001 1368.416,-178.5001"/>
</g>
<!-- Media -->
<g id="node29" class="node">
<title>Media</title>
<ellipse fill="#fdb462" stroke="#000000" cx="60" cy="-104" rx="35.9135" ry="18"/>
<text text-anchor="middle" x="60" y="-99.8" font-family="Times,serif" font-size="14.00" fill="#000000">Media</text>
</g>
<!-- Media&#45;&gt;SharedModule -->
<g id="edge31" class="edge">
<title>Media&#45;&gt;SharedModule</title>
<path fill="none" stroke="#000000" d="M60,-122.2921C60,-144.2057 60,-178 60,-178 60,-178 1368.504,-178 1368.504,-178"/>
<polygon fill="#000000" stroke="#000000" points="1368.504,-181.5001 1378.504,-178 1368.5039,-174.5001 1368.504,-181.5001"/>
</g>
</g>
</svg>
