<?xml version="1.0" encoding="UTF-8" standalone="no"?>
<!DOCTYPE svg PUBLIC "-//W3C//DTD SVG 1.1//EN"
 "http://www.w3.org/Graphics/SVG/1.1/DTD/svg11.dtd">
<!-- Generated by graphviz version 2.40.1 (20161225.0304)
 -->
<!-- Title: dependencies Pages: 1 -->
<svg width="685pt" height="211pt"
 viewBox="0.00 0.00 685.00 211.00" xmlns="http://www.w3.org/2000/svg" xmlns:xlink="http://www.w3.org/1999/xlink">
<g id="graph0" class="graph" transform="scale(1 1) rotate(0) translate(4 207)">
<title>dependencies</title>
<polygon fill="#ffffff" stroke="transparent" points="-4,4 -4,-207 681,-207 681,4 -4,4"/>
<text text-anchor="start" x="317.5091" y="-42.4" font-family="sans-serif" font-weight="bold" font-size="14.00" fill="#000000">Legend</text>
<polygon fill="#ffffb3" stroke="transparent" points="104.5,-10 104.5,-30 124.5,-30 124.5,-10 104.5,-10"/>
<text text-anchor="start" x="128.129" y="-15.4" font-family="sans-serif" font-size="14.00" fill="#000000"> &#160;Declarations</text>
<polygon fill="#8dd3c7" stroke="transparent" points="217.5,-10 217.5,-30 237.5,-30 237.5,-10 217.5,-10"/>
<text text-anchor="start" x="241.2251" y="-15.4" font-family="sans-serif" font-size="14.00" fill="#000000"> &#160;Module</text>
<polygon fill="#80b1d3" stroke="transparent" points="303.5,-10 303.5,-30 323.5,-30 323.5,-10 303.5,-10"/>
<text text-anchor="start" x="327.2812" y="-15.4" font-family="sans-serif" font-size="14.00" fill="#000000"> &#160;Bootstrap</text>
<polygon fill="#fdb462" stroke="transparent" points="400.5,-10 400.5,-30 420.5,-30 420.5,-10 400.5,-10"/>
<text text-anchor="start" x="424.1732" y="-15.4" font-family="sans-serif" font-size="14.00" fill="#000000"> &#160;Providers</text>
<polygon fill="#fb8072" stroke="transparent" points="496.5,-10 496.5,-30 516.5,-30 516.5,-10 496.5,-10"/>
<text text-anchor="start" x="520.2258" y="-15.4" font-family="sans-serif" font-size="14.00" fill="#000000"> &#160;Exports</text>
<g id="clust1" class="cluster">
<title>cluster_MorePageModule</title>
<polygon fill="none" stroke="#000000" stroke-dasharray="1,5" points="8,-70 8,-195 669,-195 669,-70 8,-70"/>
</g>
<g id="clust2" class="cluster">
<title>cluster_MorePageModule_declarations</title>
<polygon fill="none" stroke="#000000" points="571,-78 571,-130 661,-130 661,-78 571,-78"/>
</g>
<g id="clust4" class="cluster">
<title>cluster_MorePageModule_imports</title>
<polygon fill="none" stroke="#000000" points="16,-78 16,-130 563,-130 563,-78 16,-78"/>
</g>
<!-- MorePage -->
<g id="node1" class="node">
<title>MorePage</title>
<polygon fill="#ffffb3" stroke="#000000" points="652.5331,-122 579.4669,-122 579.4669,-86 652.5331,-86 652.5331,-122"/>
<text text-anchor="middle" x="616" y="-99.8" font-family="Times,serif" font-size="14.00" fill="#000000">MorePage</text>
</g>
<!-- MorePageModule -->
<g id="node2" class="node">
<title>MorePageModule</title>
<polygon fill="#8dd3c7" stroke="#000000" points="436.5814,-187 433.5814,-191 412.5814,-191 409.5814,-187 319.4186,-187 319.4186,-151 436.5814,-151 436.5814,-187"/>
<text text-anchor="middle" x="378" y="-164.8" font-family="Times,serif" font-size="14.00" fill="#000000">MorePageModule</text>
</g>
<!-- MorePage&#45;&gt;MorePageModule -->
<g id="edge1" class="edge">
<title>MorePage&#45;&gt;MorePageModule</title>
<path fill="none" stroke="#000000" d="M616,-122.1061C616,-141.3391 616,-169 616,-169 616,-169 446.8315,-169 446.8315,-169"/>
<polygon fill="#000000" stroke="#000000" points="446.8315,-165.5001 436.8315,-169 446.8314,-172.5001 446.8315,-165.5001"/>
</g>
<!-- CommonModule -->
<g id="node3" class="node">
<title>CommonModule</title>
<polygon fill="#8dd3c7" stroke="#000000" points="554.6681,-122 551.6681,-126 530.6681,-126 527.6681,-122 443.3319,-122 443.3319,-86 554.6681,-86 554.6681,-122"/>
<text text-anchor="middle" x="499" y="-99.8" font-family="Times,serif" font-size="14.00" fill="#000000">CommonModule</text>
</g>
<!-- CommonModule&#45;&gt;MorePageModule -->
<g id="edge2" class="edge">
<title>CommonModule&#45;&gt;MorePageModule</title>
<path fill="none" stroke="#000000" d="M443.2411,-104C436.035,-104 431.1024,-104 431.1024,-104 431.1024,-104 431.1024,-140.8939 431.1024,-140.8939"/>
<polygon fill="#000000" stroke="#000000" points="427.6025,-140.8938 431.1024,-150.8939 434.6025,-140.8939 427.6025,-140.8938"/>
</g>
<!-- FormsModule -->
<g id="node4" class="node">
<title>FormsModule</title>
<polygon fill="#8dd3c7" stroke="#000000" points="425.8288,-122 422.8288,-126 401.8288,-126 398.8288,-122 330.1712,-122 330.1712,-86 425.8288,-86 425.8288,-122"/>
<text text-anchor="middle" x="378" y="-99.8" font-family="Times,serif" font-size="14.00" fill="#000000">FormsModule</text>
</g>
<!-- FormsModule&#45;&gt;MorePageModule -->
<g id="edge3" class="edge">
<title>FormsModule&#45;&gt;MorePageModule</title>
<path fill="none" stroke="#000000" d="M378,-122.1061C378,-122.1061 378,-140.991 378,-140.991"/>
<polygon fill="#000000" stroke="#000000" points="374.5001,-140.9909 378,-150.991 381.5001,-140.991 374.5001,-140.9909"/>
</g>
<!-- IonicModule -->
<g id="node5" class="node">
<title>IonicModule</title>
<polygon fill="#8dd3c7" stroke="#000000" points="312.3162,-122 309.3162,-126 288.3162,-126 285.3162,-122 223.6838,-122 223.6838,-86 312.3162,-86 312.3162,-122"/>
<text text-anchor="middle" x="268" y="-99.8" font-family="Times,serif" font-size="14.00" fill="#000000">IonicModule</text>
</g>
<!-- IonicModule&#45;&gt;MorePageModule -->
<g id="edge4" class="edge">
<title>IonicModule&#45;&gt;MorePageModule</title>
<path fill="none" stroke="#000000" d="M312.2702,-104C319.6155,-104 324.8976,-104 324.8976,-104 324.8976,-104 324.8976,-140.8939 324.8976,-140.8939"/>
<polygon fill="#000000" stroke="#000000" points="321.3977,-140.8938 324.8976,-150.8939 328.3977,-140.8939 321.3977,-140.8938"/>
</g>
<!-- RouterModule.forChild(args) -->
<g id="node6" class="node">
<title>RouterModule.forChild(args)</title>
<polygon fill="#8dd3c7" stroke="#000000" points="205.7323,-122 202.7323,-126 181.7323,-126 178.7323,-122 24.2677,-122 24.2677,-86 205.7323,-86 205.7323,-122"/>
<text text-anchor="middle" x="115" y="-99.8" font-family="Times,serif" font-size="14.00" fill="#000000">RouterModule.forChild(args)</text>
</g>
<!-- RouterModule.forChild(args)&#45;&gt;MorePageModule -->
<g id="edge5" class="edge">
<title>RouterModule.forChild(args)&#45;&gt;MorePageModule</title>
<path fill="none" stroke="#000000" d="M115,-122.1061C115,-141.3391 115,-169 115,-169 115,-169 309.305,-169 309.305,-169"/>
<polygon fill="#000000" stroke="#000000" points="309.305,-172.5001 319.305,-169 309.305,-165.5001 309.305,-172.5001"/>
</g>
</g>
</svg>
