<svg height="512pt" viewBox="0 -26 512 512" width="512pt" xmlns="http://www.w3.org/2000/svg"><path d="m502 165.890625h-84.921875c-14.769531 0-22.570313 18.597656-25.707031 40.246094-3.132813-21.648438-10.9375-40.246094-25.707032-40.246094h-219.363281c-14.742187 0-22.542969 18.53125-25.6875 40.132813-3.144531-21.601563-10.945312-40.132813-25.691406-40.132813h-84.921875c-5.523438 0-10 4.476563-10 10v109.304687c0 5.523438 4.476562 10 10 10h84.921875c14.746094 0 22.546875-18.53125 25.691406-40.132812 3.09375 21.257812 10.707031 39.523438 25 40.097656.1875.007813.367188.035156.554688.035156h219.496093c14.773438 0 22.574219-18.597656 25.707032-40.246093 3.136718 21.648437 10.9375 40.246093 25.707031 40.246093h84.921875c5.523438 0 10-4.476562 10-10v-109.304687c0-5.523437-4.476562-10-10-10zm-427.5 74.652344h27.503906c-1.203125 19.328125-5.683594 31.496093-8.492187 34.652343h-73.511719v-89.304687h73.511719c2.808593 3.15625 7.289062 15.324219 8.492187 34.652344h-27.503906c-5.523438 0-10 4.476562-10 10 0 5.523437 4.476562 10 10 10zm70.007812 28.492187c-2.792968-7.441406-5.59375-20.613281-5.59375-38.488281 0-25.136719 5.535157-40.984375 8.800782-44.65625h48.984375zm19.742188 6.160156 56.0625-89.304687h23.277344l-55.03125 89.304687zm47.800781 0 55.03125-89.304687h33.53125l-56.0625 89.304687zm56.113281 0 56.066407-89.304687h23.277343l-55.035156 89.304687zm96.089844 0h-48.289062l51.398437-83.40625c2.824219 7.394532 5.6875 20.671876 5.6875 38.757813.003907 25.128906-5.53125 40.980469-8.796875 44.648437zm127.746094 0h-73.511719c-2.808593-3.15625-7.289062-15.324218-8.492187-34.648437h24.316406c5.523438 0 10-4.480469 10-10 0-5.523437-4.476562-10-10-10h-24.316406c1.203125-19.328125 5.683594-31.5 8.492187-34.65625h73.511719zm0 0"/><path d="m502 0h-84.921875c-14.769531 0-22.570313 18.597656-25.707031 40.246094-3.132813-21.648438-10.9375-40.246094-25.707032-40.246094h-120.164062c-5.523438 0-10 4.476562-10 10s4.476562 10 10 10h16.441406l-98.328125 89.304688h-15.898437c-3.269532-3.667969-8.800782-19.519532-8.800782-44.652344 0-25.132813 5.53125-40.980469 8.800782-44.652344h17.46875c5.523437 0 10-4.476562 10-10 0-5.519531-4.476563-10-10-10h-18.882813c-14.742187 0-22.542969 18.53125-25.6875 40.132812-3.144531-21.601562-10.945312-40.132812-25.691406-40.132812h-84.921875c-5.523438 0-10 4.480469-10 10v109.308594c0 5.519531 4.476562 10 10 10h84.921875c14.746094 0 22.546875-18.535156 25.691406-40.132813 3.144531 21.597657 10.945313 40.132813 25.6875 40.132813h219.363281c14.773438 0 22.574219-18.597656 25.707032-40.246094 3.136718 21.648438 10.9375 40.246094 25.707031 40.246094h84.921875c5.523438 0 10-4.480469 10-10v-109.308594c0-5.523438-4.476562-10-10-10zm-408.488281 109.304688h-73.511719v-89.304688h73.511719c2.808593 3.15625 7.289062 15.324219 8.492187 34.652344h-27.503906c-5.523438 0-10 4.476562-10 10 0 5.523437 4.476562 10 10 10h27.503906c-1.203125 19.328125-5.683594 31.496094-8.492187 34.652344zm99.847656 0 98.328125-89.304688h41.476562l-98.324218 89.304688zm170.894531 0h-99.667968l98.324218-89.304688h1.339844c3.269531 3.671875 8.800781 19.519531 8.800781 44.652344.003907 25.132812-5.53125 40.980468-8.796875 44.652344zm127.746094 0h-73.511719c-2.808593-3.15625-7.289062-15.324219-8.492187-34.652344h27.503906c5.523438 0 10-4.476563 10-10 0-5.523438-4.476562-10-10-10h-27.503906c1.203125-19.328125 5.683594-31.496094 8.492187-34.652344h73.511719zm0 0"/><path d="m196.269531 13.820312c1.578125 3.851563 5.558594 6.382813 9.71875 6.164063 4.121094-.214844 7.757813-3.003906 9.023438-6.929687 1.277343-3.976563-.113281-8.4375-3.425781-10.988282-3.355469-2.585937-8.113282-2.726562-11.636719-.386718-3.917969 2.605468-5.488281 7.804687-3.679688 12.140624zm0 0"/><path d="m502 331.113281h-84.921875c-14.746094 0-22.546875 18.53125-25.691406 40.132813-3.144531-21.601563-10.945313-40.132813-25.6875-40.132813h-219.363281c-14.773438 0-22.574219 18.597657-25.707032 40.246094-3.136718-21.648437-10.9375-40.246094-25.707031-40.246094h-84.921875c-5.523438 0-10 4.476563-10 10v109.304688c0 5.523437 4.476562 10 10 10h84.921875c14.769531 0 22.570313-18.597657 25.707031-40.246094 3.132813 21.648437 10.9375 40.246094 25.707032 40.246094h120.164062c5.523438 0 10-4.476563 10-10 0-5.519531-4.476562-10-10-10h-16.441406l98.328125-89.304688h15.898437c3.269532 3.667969 8.800782 19.519531 8.800782 44.652344s-5.53125 40.980469-8.800782 44.652344h-17.46875c-5.523437 0-10 4.476562-10 10 0 5.523437 4.476563 10 10 10h18.882813c14.742187 0 22.542969-18.53125 25.6875-40.132813 3.144531 21.601563 10.945312 40.132813 25.691406 40.132813h84.921875c5.523438 0 10-4.476563 10-10v-109.304688c0-5.523437-4.476562-10-10-10zm-430.5 74.652344h30.503906c-1.203125 19.328125-5.683594 31.496094-8.492187 34.652344h-73.511719v-89.308594h73.511719c2.808593 3.160156 7.289062 15.328125 8.492187 34.65625h-30.503906c-5.523438 0-10 4.476563-10 10 0 5.519531 4.476562 10 10 10zm77.589844 34.652344h-1.34375c-3.265625-3.671875-8.800782-19.519531-8.800782-44.652344s5.535157-40.984375 8.800782-44.652344h99.667968zm71.222656 0h-41.476562l98.324218-89.308594h41.480469zm271.6875 0h-73.511719c-2.808593-3.15625-7.289062-15.324219-8.492187-34.652344h24.316406c5.523438 0 10-4.480469 10-10 0-5.523437-4.476562-10-10-10h-24.316406c1.203125-19.328125 5.683594-31.496094 8.492187-34.652344h73.511719zm0 0"/><path d="m315.730469 446.589844c-1.636719-3.921875-5.695313-6.457032-9.941407-6.148438-4.15625.300782-7.746093 3.238282-8.898437 7.230469-1.15625 3.996094.394531 8.460937 3.785156 10.871094 3.371094 2.394531 7.925781 2.464843 11.375.1875 3.949219-2.609375 5.460938-7.789063 3.679688-12.140625zm0 0"/></svg>