<?xml version="1.0" encoding="iso-8859-1"?>
<!-- Generator: Adobe Illustrator 19.0.0, SVG Export Plug-In . SVG Version: 6.00 Build 0)  -->
<svg version="1.1" id="Capa_1" xmlns="http://www.w3.org/2000/svg" xmlns:xlink="http://www.w3.org/1999/xlink" x="0px" y="0px"
	 viewBox="0 0 471.012 471.012" style="enable-background:new 0 0 471.012 471.012;" xml:space="preserve">
<g>
	<g>
		<path d="M432.357,224.544c-0.155-0.309-0.315-0.616-0.48-0.919l-31.656-58.04l1.6-1.6c11.594-11.612,11.594-30.42,0-42.032
			L288.549,8.689c-11.616-11.585-30.416-11.585-42.032,0l-30.296,30.296H63.613c-15.499,0.022-28.058,12.581-28.08,28.08v263.84
			c0.022,15.499,12.581,28.058,28.08,28.08h3.92v12.8c0.047,34.968,11.945,68.888,33.752,96.224
			c2.761,3.451,7.797,4.009,11.248,1.248s4.009-7.797,1.248-11.248c-19.546-24.492-30.209-54.889-30.248-86.224v-12.8h32v56
			c0,4.418,3.582,8,8,8s8-3.582,8-8v-94.056c0-8.837,7.163-16,16-16s16,7.163,16,16v70.056c0,2.122,0.844,4.156,2.344,5.656
			l3.712,3.712c16.665,16.575,26.007,39.128,25.944,62.632c0,4.418,3.582,8,8,8s8-3.582,8-8
			c0.028-17.411-4.315-34.551-12.632-49.848c11.717-15.787,18.753-34.553,20.304-54.152h12.248
			c11.599-0.031,21.984-7.193,26.136-18.024l161.6-76.872C433.745,256.805,439.641,239.101,432.357,224.544z M189.389,398.761
			c-2.629-3.41-5.463-6.656-8.488-9.72l-1.368-1.368v-28.688h23.6C201.805,373.153,197.091,386.795,189.389,398.761z
			 M243.533,330.905c-0.013,6.666-5.414,12.067-12.08,12.08h-51.92v-22.056c0-17.673-14.327-32-32-32s-32,14.327-32,32v22.056
			h-51.92c-6.666-0.013-12.067-5.414-12.08-12.08V67.065c0.013-6.666,5.414-12.067,12.08-12.08h167.84
			c6.666,0.013,12.067,5.414,12.08,12.08V330.905z M237.997,39.865l19.864-19.864c5.362-5.352,14.046-5.352,19.408,0l113.28,113.28
			c5.353,5.362,5.353,14.046,0,19.408L259.533,283.673v-109.2l51.84,0.512h0.32c18.053,0,32.688-14.635,32.688-32.688
			c0-16.144-11.786-29.871-27.744-32.312l-6.552-1l-0.872-6.568c-2.325-17.867-18.693-30.467-36.561-28.142
			c-4.661,0.607-9.137,2.213-13.119,4.71v-11.92C259.483,54.118,250.588,42.882,237.997,39.865z M259.645,158.473l0.512-51.92
			c0.064-7.661,5.346-14.291,12.8-16.064c8.974-2.14,17.983,3.399,20.124,12.372c0.131,0.548,0.233,1.102,0.308,1.66l1.656,12.512
			c0.467,3.525,3.205,6.318,6.72,6.856l12.488,1.92c9.101,1.397,15.346,9.908,13.949,19.009c-0.087,0.568-0.204,1.131-0.349,1.687
			c-2.031,7.345-8.699,12.444-16.32,12.48L259.645,158.473z M412.433,249.564c-0.078,0.043-0.157,0.084-0.237,0.125l-152.664,72.632
			v-16l128.92-128.936l29.408,53.904C421.408,237.834,418.979,246.016,412.433,249.564z"/>
	</g>
</g>
<g>
	<g>
		<path d="M197.245,178.185l-48-64c-2.908-3.535-8.131-4.042-11.666-1.134c-0.414,0.34-0.794,0.72-1.134,1.134l-48,64
			c-2.133,2.844-2.133,6.756,0,9.6l48,64c2.651,3.535,7.665,4.251,11.2,1.6c0.606-0.455,1.145-0.994,1.6-1.6l48-64
			C199.378,184.941,199.378,181.029,197.245,178.185z M142.845,233.649l-38-50.664l38-50.664l38,50.664L142.845,233.649z"/>
	</g>
</g>
<g>
	<g>
		<rect x="73.189" y="76.638" transform="matrix(0.7071 -0.7071 0.7071 0.7071 -36.0686 82.1994)" width="16" height="16"/>
	</g>
</g>
<g>
	<g>
		<rect x="205.88" y="305.329" transform="matrix(0.7071 -0.7071 0.7071 0.7071 -158.9133 243.0087)" width="16" height="16"/>
	</g>
</g>
<g>
</g>
<g>
</g>
<g>
</g>
<g>
</g>
<g>
</g>
<g>
</g>
<g>
</g>
<g>
</g>
<g>
</g>
<g>
</g>
<g>
</g>
<g>
</g>
<g>
</g>
<g>
</g>
<g>
</g>
</svg>
