<svg height="512pt" viewBox="-4 0 512 512" width="512pt" xmlns="http://www.w3.org/2000/svg"><path d="m489.9375 142.113281c-15.847656-30.722656-42.714844-53.4375-75.652344-63.953125-16.714844-5.339844-33.867187-7.214844-51.097656-5.621094-18.777344-42.667968-61.457031-72.539062-110.988281-72.539062s-92.210938 29.871094-110.988281 72.542969c-17.246094-1.601563-34.410157.277343-51.140626 5.617187-67.984374 21.710938-105.632812 94.683594-83.925781 162.667969 10.515625 32.933594 33.230469 59.800781 63.953125 75.652344 18.621094 9.605469 38.832032 14.46875 59.199219 14.46875 1.226563 0 2.453125-.035157 3.679687-.070313l3.734376 28.808594c.820312 6.332031 7.550781 10.390625 13.546874 8.128906l14-5.28125c12.382813 28.335938 2.765626 63.976563-22.5 80.078125-4.269531 2.722657-5.867187 8.390625-3.628906 12.9375 2.617188 5.308594 9.457032 7.238281 14.457032 4.050781 33.6875-21.472656 46.445312-66.808593 30.558593-104.195312l11.722657-4.421875c2.878906-1.085937 5.105468-3.429687 6.039062-6.363281.9375-2.933594.480469-6.136719-1.242188-8.6875l-12.527343-18.605469c14.21875-7.054687 26.972656-16.648437 37.71875-28.398437l-6.320313 26.757812c-.707031 2.996094-.003906 6.152344 1.90625 8.566406 1.910156 2.414063 4.820313 3.824219 7.898438 3.824219h13.785156v173.847656c0 5.488281 4.585938 10.074219 10.074219 10.074219 5.492187 0 10.074219-4.582031 10.074219-10.074219v-173.847656h13.746093c3.078125 0 5.988281-1.410156 7.898438-3.824219 1.914062-2.414062 2.613281-5.570312 1.90625-8.566406l-6.320313-26.761719c8.289063 9.0625 17.78125 16.832031 28.207032 23.15625l-16.0625 23.851563c-3.640626 5.398437-1.109376 12.75 4.851562 15.070312 3.046875 1.1875 6.117188 2.308594 9.171875 3.460938 1.203125.453125 2.402344.90625 3.605469 1.363281-2.546875 19.734375 2.121094 39.539063 13.316406 56.171875 11.960938 17.765625 30.09375 29.988281 51.054688 34.414062 5.480468 1.160157 10.988281-2.550781 11.992187-8.058593.960937-5.292969-2.570313-10.542969-7.832031-11.652344-30.25-6.386719-50.546875-33.453125-48.972656-63.496094l12.21875 4.609375c5.992187 2.261719 12.726562-1.792968 13.546874-8.128906l3.871094-29.855469c5.46875.703125 10.933594 1.066407 16.359375 1.066407 54.8125 0 105.839844-35.128907 123.382813-90.070313 10.515625-32.933594 7.578125-67.992187-8.277344-98.714844zm-237.738281-121.96875c43.570312 0 80.789062 27.722657 94.945312 66.449219 2.539063 7.773438 4.601563 15.511719 5.480469 23.667969.855469 7.933593.707031 15.933593-.125 23.863281-.484375 4.621094-1.191406 9.21875-2.078125 13.78125-4.636719 23.6875-14.714844 49.679688-28.21875 71.574219-18.457031 29.921875-40.761719 48.445312-62.273437 52.082031-5.167969.859375-10.371094.851562-15.539063-.011719-21.488281-3.671875-43.761719-22.183593-62.195313-52.070312-17.636718-28.597657-29.433593-64.1875-30.890624-92.496094-.660157-13.074219 1.050781-26.164063 5.300781-38.558594 13.644531-39.683593 51.339843-68.28125 95.59375-68.28125zm-99.1875 308.585938c5.0625-.9375 10.089843-2.191407 15.003906-3.726563l7.828125 11.625-20.789062 7.84375zm15.808593-25.332031c-4.613281 1.550781-9.195312 3.203124-13.9375 4.339843-4.71875 1.128907-9.515624 1.890625-14.332031 2.464844-20.9375 2.179687-42.074219-1.75-61.214843-11.628906-25.941407-13.382813-45.121094-36.066407-54-63.875-18.328126-57.402344 13.460937-119.015625 70.863281-137.347657 10.882812-3.476562 21.980469-5.21875 33.15625-5.21875 1.710937 0 3.421875.042969 5.128906.125-3.125 12.726563-4.058594 25.898438-3.101563 38.957032 2.269532 31.222656 14.734376 68.144531 33.664063 98.839844 12.894531 20.90625 27.457031 36.914062 42.878906 47.476562-10.976562 11.355469-24.265625 20.148438-39.105469 25.867188zm72.246094 4.53125 3.769532-15.957032c4.875.542969 9.8125.542969 14.6875.003906l3.765624 15.953126zm97.621094 17.78125-2.429688 18.761718-20.792968-7.84375 10.378906-15.410156c4.207031 1.707031 8.484375 3.222656 12.84375 4.492188zm140.332031-91.011719c-17.289062 54.148437-73.09375 85.492187-127.546875 73.492187-8.628906-1.902344-16.894531-4.894531-24.859375-8.699218-11.257812-5.527344-21.441406-12.925782-30.164062-21.945313 15.429687-10.5625 30-26.574219 42.902343-47.492187 15.429688-25.019532 26.558594-54.175782 31.378907-81.011719 5.910156-2.496094 12.128906-3.773438 18.511719-3.773438 5.5625 0 10.074218-4.511719 10.074218-10.074219s-4.511718-10.070312-10.074218-10.070312c-5.429688 0-10.769532.660156-15.980469 1.933594.515625-11.699219-.566407-23.425782-3.367188-34.804688 12.894531-.613281 25.722657 1.09375 38.265625 5.097656 27.808594 8.878907 50.492188 28.058594 63.875 54 13.382813 25.941407 15.867188 55.539063 6.984375 83.347657zm0 0"/><path d="m252.199219 53.84375c25.8125 0 48.972656 14.421875 60.441406 37.644531 1.753906 3.550781 5.328125 5.613281 9.039063 5.613281 1.496093 0 3.019531-.335937 4.453124-1.042968 4.988282-2.464844 7.035157-8.503906 4.570313-13.492188-14.886719-30.144531-44.96875-48.871094-78.503906-48.871094-5.5625 0-10.074219 4.507813-10.074219 10.074219 0 5.5625 4.511719 10.074219 10.074219 10.074219zm0 0"/><path d="m328.203125 116.839844c-4.765625.964844-8.265625 5.320312-8.105469 10.199218.160156 4.851563 3.933594 9.03125 8.753906 9.660157 4.234376.554687 8.546876-1.742188 10.375-5.609375 1.382813-2.917969 1.1875-6.40625-.34375-9.226563-2.066406-3.800781-6.414062-5.886719-10.679687-5.023437zm0 0"/></svg>