<?xml version="1.0" encoding="iso-8859-1"?>
<!-- Generator: Adobe Illustrator 19.0.0, SVG Export Plug-In . SVG Version: 6.00 Build 0)  -->
<svg version="1.1" id="Capa_1" xmlns="http://www.w3.org/2000/svg" xmlns:xlink="http://www.w3.org/1999/xlink" x="0px" y="0px"
	 viewBox="0 0 480 480" style="enable-background:new 0 0 480 480;" xml:space="preserve">
<g>
	<g>
		<path d="M479.352,156.848l-24-56c-0.482-1.126-1.219-2.126-2.152-2.92l-56-48c-3.172-2.716-7.901-2.535-10.856,0.416l-48,48
			c-0.216,0.286-0.413,0.585-0.592,0.896c-0.45,0.509-0.832,1.073-1.136,1.68l-24.8,59.616
			c-1.138-52.748-10.219-105.023-26.936-155.064c-1.4-4.191-5.932-6.453-10.122-5.053c-1.893,0.632-3.482,1.95-4.454,3.693
			c-26.867,48.433-40.979,102.902-41.008,158.288V224h-23.32l-25.272-85.272c-3.986-10.401-11.114-19.301-20.392-25.464
			l-4.608-3.072c-24.75-16.489-58.18-9.792-74.669,14.957c-5.889,8.839-9.032,19.222-9.035,29.843v3.472l-15.432,38.56
			c-1.644,4.101,0.349,8.758,4.45,10.402c0.948,0.38,1.961,0.575,2.982,0.574h32v16H40c-4.418,0-8,3.582-8,8v32c0,4.418,3.582,8,8,8
			h72v200c0,4.418,3.582,8,8,8h240c4.418,0,8-3.582,8-8V272h72c4.418,0,8-3.582,8-8v-32c0-4.418-3.582-8-8-8h-76.584l25.488-70.08
			l13.832,12.096c1.457,1.277,3.327,1.982,5.264,1.984h64c4.418,0,8-3.583,7.999-8.001
			C479.999,158.916,479.779,157.844,479.352,156.848z M245.296,162.4c0.025-46.162,10.336-91.739,30.184-133.416
			c16.679,56.921,23.285,116.318,19.52,175.512L293.784,224h-48.488V162.4z M75.816,192l11.616-29.024
			C87.807,162.029,88,161.019,88,160v-5.008c-0.026-10.043,3.967-19.679,11.088-26.76c12.774-12.711,32.725-14.687,47.744-4.728
			l4.608,3.072c6.372,4.187,11.313,10.222,14.16,17.296L189.288,224H112v-24c0-4.418-3.582-8-8-8H75.816z M352,304H176
			c-4.418,0-8,3.582-8,8s3.582,8,8,8h176v144H128V320h16c4.418,0,8-3.582,8-8s-3.582-8-8-8h-16v-32h224V304z M432,240v16H48v-16H432
			z M346.4,224h-36.584l1.152-18.504c0-0.616,0-1.232,0.072-1.856c0.104-0.2,0.256-0.352,0.344-0.56l35.72-85.736L376,142.624
			L346.4,224z M411.008,152l-55.304-48.392l36.72-36.712l48.96,41.968L459.864,152H411.008z"/>
	</g>
</g>
<g>
	<g>
		<circle cx="360" cy="16" r="16"/>
	</g>
</g>
<g>
	<g>
		<path d="M151.004,36.156c-0.733-1.338-1.834-2.439-3.172-3.172l-18.624-10.192L119.016,4.16c-2.47-3.875-7.613-5.014-11.488-2.544
			c-1.023,0.652-1.892,1.521-2.544,2.544L94.792,22.792L76.168,32.984c-3.875,2.123-5.295,6.985-3.172,10.86
			c0.733,1.338,1.834,2.439,3.172,3.172l18.624,10.192l10.192,18.632c2.123,3.875,6.985,5.295,10.86,3.172
			c1.338-0.733,2.439-1.834,3.172-3.172l10.192-18.632l18.624-10.192C151.707,44.893,153.127,40.031,151.004,36.156z M119.48,44.296
			c-1.352,0.736-2.464,1.848-3.2,3.2L112,55.328l-4.296-7.856c-0.736-1.352-1.848-2.464-3.2-3.2L96.672,40l7.848-4.296
			c1.352-0.736,2.464-1.848,3.2-3.2l4.28-7.832l4.296,7.856c0.736,1.352,1.848,2.464,3.2,3.2L127.328,40L119.48,44.296z"/>
	</g>
</g>
<g>
	<g>
		<path d="M472,24h-16V8c0-4.418-3.582-8-8-8s-8,3.582-8,8v16h-16c-4.418,0-8,3.582-8,8s3.582,8,8,8h16v16c0,4.418,3.582,8,8,8
			s8-3.582,8-8V40h16c4.418,0,8-3.582,8-8S476.418,24,472,24z"/>
	</g>
</g>
<g>
	<g>
		<path d="M56,88H40V72c0-4.418-3.582-8-8-8s-8,3.582-8,8v16H8c-4.418,0-8,3.582-8,8s3.582,8,8,8h16v16c0,4.418,3.582,8,8,8
			s8-3.582,8-8v-16h16c4.418,0,8-3.582,8-8S60.418,88,56,88z"/>
	</g>
</g>
<g>
	<g>
		<path d="M88,344H72v-16c0-4.418-3.582-8-8-8s-8,3.582-8,8v16H40c-4.418,0-8,3.582-8,8s3.582,8,8,8h16v16c0,4.418,3.582,8,8,8
			s8-3.582,8-8v-16h16c4.418,0,8-3.582,8-8S92.418,344,88,344z"/>
	</g>
</g>
<g>
	<g>
		<circle cx="400" cy="416" r="16"/>
	</g>
</g>
<g>
	<g>
		<circle cx="16" cy="304" r="16"/>
	</g>
</g>
<g>
	<g>
		<path d="M479.004,340.124c-0.733-1.338-1.834-2.439-3.172-3.172v0.032L452.04,324l-13.024-23.84
			c-2.47-3.875-7.613-5.014-11.488-2.544c-1.023,0.652-1.892,1.521-2.544,2.544L412,324l-23.792,13.016
			c-3.875,2.123-5.295,6.985-3.172,10.86c0.733,1.338,1.834,2.439,3.172,3.172L412,364l13.024,23.808
			c2.123,3.875,6.985,5.295,10.86,3.172c1.338-0.733,2.439-1.834,3.172-3.172L452.04,364l23.792-13.016
			C479.707,348.861,481.127,343.999,479.004,340.124z M442.304,351.12c-1.354,0.734-2.466,1.846-3.2,3.2L432,367.328l-7.128-13.024
			c-0.734-1.354-1.846-2.466-3.2-3.2l-13-7.104l13.024-7.12c1.354-0.734,2.466-1.846,3.2-3.2L432,320.672l7.128,13.024
			c0.734,1.354,1.846,2.466,3.2,3.2l13.024,7.12L442.304,351.12z"/>
	</g>
</g>
<g>
	<g>
		<path d="M149.656,154.344c-11.967-11.944-31.345-11.944-43.312,0c-3.069,3.178-2.981,8.243,0.197,11.312
			c3.1,2.994,8.015,2.994,11.115,0c5.717-5.702,14.971-5.702,20.688,0c3.178,3.069,8.243,2.981,11.312-0.197
			C152.65,162.359,152.65,157.444,149.656,154.344z"/>
	</g>
</g>
<g>
</g>
<g>
</g>
<g>
</g>
<g>
</g>
<g>
</g>
<g>
</g>
<g>
</g>
<g>
</g>
<g>
</g>
<g>
</g>
<g>
</g>
<g>
</g>
<g>
</g>
<g>
</g>
<g>
</g>
</svg>
