<svg height="511pt" viewBox="-26 1 511 511.99975" width="511pt" xmlns="http://www.w3.org/2000/svg"><path d="m11.398438 217.328125v283.671875h437.605468v-283.671875h-103.613281v-49.894531h-230.382813v49.894531zm0 0" fill="#f5c86e"/><path d="m45.917969 217.328125 111.132812 119.351563h146.296875l111.132813-119.351563h-69.089844v-49.894531h-230.382813v49.894531zm0 0" fill="#ff6e37"/><path d="m115.007812 217.328125v-49.894531h230.382813v49.894531h103.613281v-49.871094l-218.804687-156.457031-218.800781 156.457031v49.871094zm0 0" fill="#ffe192"/><path d="m229.507812 58.238281 86.71875 62.007813 29.074219-26.941406-115.101562-82.304688-114.882813 82.148438 28.859375 26.105468zm0 0" fill="#ff6e37"/><path d="m345.390625 291.542969-42.042969 45.136719h-146.296875l-42.042969-45.152344v-124.09375h230.382813zm0 0" fill="#fff"/><path d="m211.53125 230.886719h77.621094c5.542968 0 10.039062-4.496094 10.039062-10.039063 0-5.546875-4.496094-10.039062-10.039062-10.039062h-77.621094c-5.542969 0-10.039062 4.496094-10.039062 10.039062 0 5.542969 4.496093 10.039063 10.039062 10.039063zm0 0"/><path d="m171.25 268.707031h117.902344c5.542968 0 10.039062-4.496093 10.039062-10.039062 0-5.546875-4.496094-10.039063-10.039062-10.039063h-117.902344c-5.546875 0-10.039062 4.496094-10.039062 10.039063s4.492187 10.039062 10.039062 10.039062zm0 0"/><path d="m171.25 306.527344h117.902344c5.542968 0 10.039062-4.496094 10.039062-10.039063s-4.496094-10.039062-10.039062-10.039062h-117.902344c-5.546875 0-10.039062 4.496093-10.039062 10.039062s4.492187 10.039063 10.039062 10.039063zm0 0"/><path d="m455.699219 158.945312-219.660157-157.074218c-3.492187-2.496094-8.1875-2.496094-11.679687 0l-219.660156 157.074218c-2.636719 1.882813-4.199219 4.925782-4.199219 8.164063v334.851563c0 5.457031 4.585938 10.039062 10.039062 10.039062h439.320313c5.457031 0 10.039063-4.582031 10.039063-10.039062v-334.851563c0-3.238281-1.5625-6.28125-4.199219-8.164063zm-225.5-136.566406 99.699219 71.292969-14.15625 13.113281-80.398438-57.488281c-1.746094-1.25-3.792969-1.875-5.839844-1.875s-4.09375.625-5.839844 1.875l-79.089843 56.554687-13.730469-12.421874zm-197.347657 469.542969 19.175782-21.632813c3.675781-4.148437 3.296875-10.492187-.851563-14.171874-4.152343-3.675782-10.496093-3.292969-14.175781.855468l-16.421875 18.527344v-248.285156h20.246094l102.375 109.945312-52.652344 59.402344c-3.679687 4.148438-3.296875 10.496094.851563 14.171875 1.910156 1.695313 4.289062 2.527344 6.65625 2.527344 2.773437 0 5.53125-1.140625 7.515624-3.378907l55.710938-62.847656h137.835938l128.425781 144.882813h-394.691407zm35.410157-264.707031h36.257812v38.9375zm56.335937 60.5v-110.589844h211.207032v110.589844l-36.539063 39.242187h-138.132813zm315.222656 187.785156-122.621093-138.335938 102.375-109.949218h20.246093zm-83.9375-209.347656v-38.9375h36.257813zm83.9375-59.015625h-83.9375v-40.050781c0-5.542969-4.496093-10.039063-10.039062-10.039063h-231.285156c-5.546875 0-10.039063 4.496094-10.039063 10.039063v40.050781h-83.941406v-34.863281l93.546875-66.894532 22.976562 20.785156c3.5 3.167969 8.734376 3.464844 12.574219.71875l79.828125-57.078124 81.21875 58.074218c1.753906 1.253906 3.800782 1.875 5.835938 1.875 2.464844 0 4.914062-.902344 6.828125-2.675781l23.183593-21.484375 93.25 66.679688zm0 0"/><path d="m181.289062 220.84375c0 5.542969-4.496093 10.039062-10.039062 10.039062-5.546875 0-10.039062-4.496093-10.039062-10.039062 0-5.546875 4.492187-10.039062 10.039062-10.039062 5.542969 0 10.039062 4.492187 10.039062 10.039062zm0 0"/><path d="m81.257812 433.503906c0 5.542969-4.496093 10.039063-10.039062 10.039063s-10.039062-4.496094-10.039062-10.039063c0-5.546875 4.496093-10.039062 10.039062-10.039062s10.039062 4.492187 10.039062 10.039062zm0 0"/></svg>