<svg height="512pt" viewBox="-71 0 511 512" width="512pt" xmlns="http://www.w3.org/2000/svg"><path d="m370.050781 501.308594-16.660156-239.738282-4.113281-59.214843-5.195313-74.796875c-.363281-5.242188-4.722656-9.308594-9.976562-9.308594h-64.1875v-33.617188c0-46.667968-37.964844-84.632812-84.632813-84.632812-46.664062 0-84.628906 37.964844-84.628906 84.632812v33.617188h-64.1875c-5.253906 0-9.613281 4.066406-9.976562 9.308594l-5.195313 74.796875-4.113281 59.214843-16.660156 239.738282c-.191407 2.765625.773437 5.484375 2.664062 7.511718 1.890625 2.03125 4.539062 3.179688 7.3125 3.179688h349.574219c2.773437 0 5.421875-1.152344 7.3125-3.179688 1.890625-2.027343 2.855469-4.75 2.664062-7.511718zm-329.449219-288.257813h289.371094l2.726563 39.210938h-294.820313zm5.199219-74.800781h99.386719c5.523438 0 10-4.476562 10-10 0-5.519531-4.476562-10-10-10h-24.53125v-33.617188c0-35.640624 28.992188-64.632812 64.628906-64.632812 35.640625 0 64.632813 28.992188 64.632813 64.632812v33.617188h-24.730469c-5.519531 0-10 4.480469-10 10 0 5.523438 4.480469 10 10 10h99.589844l3.808594 54.800781h-286.59375zm-24.582031 353.75 15.269531-219.738281h297.597657l15.269531 219.738281zm0 0"/><path d="m318.484375 358.652344c-.382813-5.507813-5.140625-9.667969-10.667969-9.28125-5.511718.382812-9.664062 5.15625-9.28125 10.667968l7.023438 101.101563c.367187 5.273437 4.757812 9.308594 9.964844 9.308594.234374 0 .46875-.007813.703124-.023438 5.511719-.386719 9.667969-5.160156 9.285157-10.671875zm0 0"/><path d="m257.417969 376.964844-34.769531-23.617188-.253907-42.03125c-.023437-3.804687-2.203125-7.269531-5.628906-8.933594-3.421875-1.664062-7.492187-1.238281-10.5 1.09375l-33.207031 25.769532-40.050782-12.746094c-3.625-1.152344-7.597656-.148438-10.234374 2.59375-2.640626 2.742188-3.496094 6.746094-2.207032 10.324219l14.246094 39.542969-24.496094 34.152343c-2.21875 3.09375-2.492187 7.179688-.699218 10.535157 1.792968 3.359374 5.363281 5.40625 9.140624 5.289062l42.007813-1.328125 24.914063 33.851563c1.902343 2.589843 4.90625 4.074218 8.050781 4.074218.582031 0 1.167969-.050781 1.75-.15625 3.75-.664062 6.792969-3.402344 7.855469-7.058594l11.71875-40.363281 39.890624-13.230469c3.613282-1.199218 6.234376-4.34375 6.757813-8.113281.527344-3.769531-1.136719-7.511719-4.285156-9.648437zm-53.648438 13.664062c-3.125 1.035156-5.539062 3.542969-6.457031 6.703125l-7.535156 25.953125-16.015625-21.765625c-1.890625-2.566406-4.882813-4.074219-8.054688-4.074219-.105469 0-.210937.003907-.316406.007813l-27.011719.855469 15.753906-21.964844c1.917969-2.671875 2.394532-6.121094 1.28125-9.214844l-9.160156-25.429687 25.75 8.195312c3.136719 1 6.5625.390625 9.164063-1.628906l21.351562-16.566406.164063 27.023437c.019531 3.292969 1.65625 6.363282 4.378906 8.210938l22.355469 15.1875zm0 0"/><path d="m300.175781 327.65625c3.488281 2.324219 8.132813 2.191406 11.503907-.285156 3.316406-2.433594 4.792968-6.820313 3.664062-10.769532-1.160156-4.054687-4.863281-7.007812-9.078125-7.238281-4.1875-.226562-8.160156 2.28125-9.769531 6.152344-1.796875 4.324219-.253906 9.558594 3.679687 12.140625zm0 0"/><path d="m194.417969 124.425781c-1.636719-3.929687-5.6875-6.457031-9.941407-6.148437-4.152343.300781-7.746093 3.226562-8.898437 7.226562-1.121094 3.886719.300781 8.226563 3.523437 10.683594 3.285157 2.5 7.847657 2.722656 11.363282.554688 4.101562-2.53125 5.804687-7.871094 3.953125-12.316407zm0 0"/></svg>