<?xml version="1.0" encoding="iso-8859-1"?>
<!-- Generator: Adobe Illustrator 19.0.0, SVG Export Plug-In . SVG Version: 6.00 Build 0)  -->
<svg version="1.1" id="Capa_1" xmlns="http://www.w3.org/2000/svg" xmlns:xlink="http://www.w3.org/1999/xlink" x="0px" y="0px"
	 viewBox="0 0 480.002 480.002" style="enable-background:new 0 0 480.002 480.002;" xml:space="preserve">
<g>
	<g>
		<path d="M265.141,304h-48c-4.418,0-8,3.582-8,8s3.582,8,8,8h48c4.418,0,8-3.582,8-8S269.559,304,265.141,304z"/>
	</g>
</g>
<g>
	<g>
		<path d="M265.141,336h-48c-4.418,0-8,3.582-8,8s3.582,8,8,8h48c4.418,0,8-3.582,8-8S269.559,336,265.141,336z"/>
	</g>
</g>
<g>
	<g>
		<path d="M265.141,368h-48c-4.418,0-8,3.582-8,8s3.582,8,8,8h48c4.418,0,8-3.582,8-8S269.559,368,265.141,368z"/>
	</g>
</g>
<g>
	<g>
		<path d="M470.485,77.392c-0.94-2.897-3.442-5.009-6.456-5.448l-33.752-4.904l-15.088-30.576c-1.953-3.963-6.749-5.593-10.712-3.64
			c-1.581,0.779-2.861,2.059-3.64,3.64L385.741,67.04l-33.752,4.904c-4.374,0.623-7.415,4.674-6.791,9.049
			c0.25,1.753,1.074,3.373,2.343,4.607l18.576,18.104l-42.648,42.648c-3.178,3.07-3.266,8.134-0.196,11.312
			c3.07,3.178,8.134,3.266,11.312,0.196c0.067-0.064,0.132-0.13,0.196-0.196l34.888-34.888l-3.472,20.24
			c-0.746,4.355,2.179,8.49,6.534,9.236c1.734,0.297,3.517,0.014,5.074-0.804l30.192-15.864l30.184,15.864
			c3.911,2.056,8.748,0.553,10.804-3.358c0.819-1.557,1.101-3.34,0.804-5.074l-5.768-33.6L468.453,85.6
			C470.639,83.475,471.427,80.292,470.485,77.392z M429.861,100.872c-1.889,1.835-2.754,4.483-2.312,7.08l3.744,21.784l-19.56-10.28
			c-2.331-1.226-5.117-1.226-7.448,0l-19.56,10.28l3.736-21.784c0.444-2.595-0.418-5.243-2.304-7.08l-15.824-15.424l21.872-3.2
			c2.603-0.381,4.852-2.017,6.016-4.376l9.792-19.824l9.776,19.816c1.163,2.364,3.417,4.004,6.024,4.384l21.872,3.2L429.861,100.872
			z"/>
	</g>
</g>
<g>
	<g>
		<path d="M451.197,288.272l-114.192-30.456c7.959-13.201,13.089-27.912,15.064-43.2l98.872-22.816c4.308-0.994,6.994-5.292,6-9.6
			c-0.994-4.308-5.292-6.994-9.6-6l-95.496,22.04c-0.868-3.029-2.198-5.905-3.944-8.528c-9.136-13.696-27.642-17.399-41.344-8.272
			l-1.032,0.688c-4.317,2.877-7.808,6.832-10.128,11.472l-8.56,17.128c-3.415,6.818-11.711,9.577-18.53,6.162
			c-1.113-0.558-2.146-1.263-3.07-2.098l-0.096-0.064V104c1.241,0.001,2.465-0.286,3.576-0.84l16-8
			c2.973-1.485,4.718-4.654,4.384-7.96l-8-80c-0.411-4.088-3.852-7.2-7.96-7.2h-40c-3.609-0.001-6.771,2.414-7.72,5.896L220.485,24
			h-19.344c-4.418,0-8,3.582-8,8s3.582,8,8,8h14.984l-4.368,16h-18.616c-4.418,0-8,3.582-8,8s3.582,8,8,8h14.256l-5.976,21.896
			c-1.162,4.263,1.352,8.66,5.614,9.822c0.686,0.187,1.394,0.282,2.106,0.282h8v112.952l-1.296,1.04
			c-5.345,4.275-13.143,3.407-17.417-1.937c-0.545-0.681-1.016-1.418-1.406-2.199c-2.542-5.094-3.87-10.707-3.88-16.4v-19.512
			c0-17.673-14.327-32-32-32s-32,14.327-32,32V196.8c0,1.008,0.136,2,0.16,3.008L35.085,176.24
			c-4.278-1.104-8.641,1.469-9.745,5.747c-1.104,4.278,1.469,8.641,5.747,9.745c0.037,0.009,0.073,0.019,0.11,0.028l99.816,24.952
			c2.482,14.428,7.637,28.265,15.2,40.8L97.853,269.6l-21.512-3.152l-10.856-21.992c-2.338-3.961-7.444-5.277-11.405-2.939
			c-1.212,0.716-2.224,1.727-2.939,2.939l-10.888,21.992l-24.256,3.52c-4.374,0.623-7.415,4.675-6.791,9.049
			c0.249,1.749,1.07,3.366,2.335,4.599l17.6,17.112l-4.144,24.16c-0.751,4.354,2.17,8.492,6.524,9.243
			c1.737,0.3,3.524,0.017,5.084-0.803l21.672-11.408l21.704,11.408c3.91,2.057,8.748,0.555,10.805-3.356
			c0.821-1.56,1.103-3.347,0.803-5.084l-4.144-24.16l16.632-16.216l51.008-12.752c0.339-0.13,0.668-0.285,0.984-0.464
			c3.555,4.389,7.43,8.51,11.592,12.328c-15.865,13.886-27.507,31.952-33.6,52.136l-82.576,82.584
			c-3.178,3.07-3.266,8.134-0.196,11.312c3.07,3.178,8.134,3.266,11.312,0.196c0.067-0.064,0.132-0.13,0.196-0.196l66.616-66.616
			c-0.072,1.656-0.272,3.296-0.272,4.96c0.019,31.473,13.325,61.475,36.64,82.616l-11.296,16.944
			c-2.452,3.676-1.46,8.644,2.216,11.096s8.644,1.46,11.096-2.216l10.52-15.776c37.915,25.781,87.733,25.781,125.648,0l10.52,15.776
			c2.452,3.676,7.42,4.668,11.096,2.216s4.668-7.42,2.216-11.096l-11.296-16.944c23.315-21.141,36.621-51.143,36.64-82.616
			c0-1.664-0.192-3.304-0.272-4.96l66.616,66.616c3.178,3.07,8.242,2.982,11.312-0.196c2.995-3.1,2.995-8.016,0-11.116
			l-82.584-82.584c-6.036-19.969-17.496-37.871-33.104-51.712c4.273-3.809,8.248-7.942,11.888-12.36l0.08,0.04l120,32
			c0.673,0.179,1.367,0.27,2.064,0.272c4.418-0.007,7.995-3.594,7.988-8.012C457.123,292.371,454.691,289.207,451.197,288.272z
			 M73.261,292.2c-1.889,1.839-2.751,4.49-2.304,7.088l2.12,12.336l-11.08-5.824c-2.331-1.226-5.117-1.226-7.448,0l-11.072,5.816
			l2.12-12.328c0.447-2.598-0.415-5.249-2.304-7.088l-8.96-8.728l12.408-1.8c2.609-0.376,4.865-2.013,6.032-4.376l5.536-11.2
			l5.544,11.2c1.167,2.358,3.42,3.991,6.024,4.368l12.2,1.776l0.056,0.136L73.261,292.2z M239.253,16h26.688l6.736,67.312
			L263.253,88h-43.64L239.253,16z M249.141,104v160h-16V104H249.141z M297.629,277.6c-3.57,2.603-4.354,7.607-1.751,11.177
			c0.489,0.671,1.08,1.261,1.751,1.751c42.835,31.162,52.299,91.148,21.137,133.983c-18.063,24.829-46.921,39.51-77.625,39.489
			c-52.975,0.046-95.957-42.862-96.003-95.837c-0.027-30.897,14.831-59.915,39.915-77.955c3.575-2.597,4.367-7.6,1.771-11.174
			c-0.472-0.65-1.039-1.225-1.683-1.706c-25.208-19.098-40.013-48.902-40-80.528v-18.856c0-8.837,7.163-16,16-16s16,7.163,16,16
			v19.512c0.022,8.178,1.939,16.239,5.6,23.552c6.257,12.716,21.029,18.751,34.4,14.056V272c0,4.418,3.582,8,8,8h32
			c4.418,0,8-3.582,8-8v-39.2c14.033,4.766,29.427-1.597,36-14.88l8.56-17.128c1.073-2.147,2.689-3.975,4.688-5.304l1.032-0.688
			c6.343-4.234,14.917-2.525,19.151,3.818c0.003,0.005,0.006,0.009,0.009,0.014c1.621,2.309,2.441,5.085,2.336,7.904
			C335.013,234.88,320.62,260.914,297.629,277.6z"/>
	</g>
</g>
<g>
	<g>
		<path d="M102.797,90.344l-72-72c-3.178-3.07-8.242-2.982-11.312,0.196c-2.994,3.1-2.994,8.015,0,11.116l72,72
			c3.178,3.069,8.242,2.982,11.312-0.196C105.792,98.359,105.792,93.444,102.797,90.344z"/>
	</g>
</g>
<g>
	<g>
		<path d="M134.797,122.344l-8-8c-3.178-3.069-8.243-2.981-11.312,0.197c-2.994,3.1-2.994,8.015,0,11.115l8,8
			c3.178,3.069,8.243,2.981,11.312-0.197C137.791,130.359,137.791,125.444,134.797,122.344z"/>
	</g>
</g>
<g>
	<g>
		<path d="M462.797,450.344l-8-8c-3.178-3.07-8.242-2.982-11.312,0.196c-2.995,3.1-2.995,8.016,0,11.116l8,8
			c3.178,3.07,8.242,2.982,11.312-0.196C465.792,458.36,465.792,453.444,462.797,450.344z"/>
	</g>
</g>
<g>
	<g>
		<path d="M38.601,442.344c-3.1-2.995-8.016-2.995-11.116,0l-8,8c-3.178,3.07-3.266,8.134-0.196,11.312
			c3.07,3.178,8.134,3.266,11.312,0.196c0.067-0.064,0.132-0.13,0.196-0.196l8-8C41.867,450.478,41.779,445.414,38.601,442.344z"/>
	</g>
</g>
<g>
	<g>
		<path d="M462.993,18.344c-3.07-3.178-8.134-3.266-11.312-0.196c-0.067,0.064-0.132,0.13-0.196,0.196l-8,8
			c-3.124,3.125-3.123,8.19,0.002,11.314c1.5,1.499,3.534,2.342,5.654,2.342c2.122,0,4.156-0.844,5.656-2.344l8-8
			C465.975,26.586,466.063,21.522,462.993,18.344z"/>
	</g>
</g>
<g>
</g>
<g>
</g>
<g>
</g>
<g>
</g>
<g>
</g>
<g>
</g>
<g>
</g>
<g>
</g>
<g>
</g>
<g>
</g>
<g>
</g>
<g>
</g>
<g>
</g>
<g>
</g>
<g>
</g>
</svg>
