<svg height="512pt" viewBox="0 -1 512 512" width="512pt" xmlns="http://www.w3.org/2000/svg"><path d="m404.207031 193.6875c-5.523437 0-10 4.476562-10 10v249.1875h-276.574219v-432.875h276.570313v101.96875c0 5.523438 4.480469 10 10 10 5.523437 0 10-4.476562 10-10v-111.96875c0-5.523438-4.476563-10-10-10h-296.570313c-5.523437 0-10 4.476562-10 10v452.875c0 5.519531 4.476563 10 10 10h27.105469v27.777344c0 5.523437 4.476563 10 10 10h47.085938c5.523437 0 10-4.476563 10-10v-27.777344h108.191406v27.777344c0 5.523437 4.476563 10 10 10h47.085937c5.523438 0 10-4.476563 10-10v-27.777344h27.105469c5.523438 0 10-4.480469 10-10v-259.1875c0-5.523438-4.476562-10-10-10zm-222.382812 296.964844h-27.089844v-17.777344h27.089844zm175.277343 0h-27.085937v-17.777344h27.085937zm0 0"/><path d="m379.570312 45.15625c0-4.183594-2.691406-7.992188-6.628906-9.40625-4.023437-1.441406-8.703125-.09375-11.304687 3.320312-2.449219 3.214844-2.714844 7.6875-.667969 11.171876 2.121094 3.617187 6.449219 5.550781 10.558594 4.726562 4.625-.929688 8.042968-5.101562 8.042968-9.8125zm0 0"/><path d="m363.488281 436.644531c3.535157 2.359375 8.261719 2.191407 11.636719-.378906 3.183594-2.417969 4.601562-6.667969 3.566406-10.515625-1.113281-4.136719-4.839844-7.167969-9.121094-7.398438-4.238281-.230468-8.277343 2.359376-9.832031 6.304688-1.691406 4.304688-.144531 9.449219 3.75 11.988281zm0 0"/><path d="m255.921875 433.261719c64.332031 0 116.671875-52.339844 116.671875-116.671875 0-64.335938-52.339844-116.675782-116.671875-116.675782-64.335937 0-116.675781 52.339844-116.675781 116.675782 0 64.332031 52.339844 116.671875 116.675781 116.671875zm0-213.347657c53.304687 0 96.671875 43.367188 96.671875 96.675782 0 53.304687-43.367188 96.671875-96.671875 96.671875-53.308594 0-96.675781-43.367188-96.675781-96.671875 0-53.308594 43.367187-96.675782 96.675781-96.675782zm0 0"/><path d="m131.960938 426.046875c-.84375 4.214844 1.199218 8.605469 4.953124 10.691406 3.597657 2 8.183594 1.546875 11.324219-1.117187 3.140625-2.664063 4.332031-7.136719 2.933594-11.007813-1.398437-3.867187-5.113281-6.53125-9.226563-6.609375-4.785156-.09375-9.039062 3.371094-9.984374 8.042969zm0 0"/><path d="m152.050781 40.664062c-1.613281-3.929687-5.714843-6.453124-9.949219-6.144531-4.15625.296875-7.75 3.222657-8.898437 7.222657-1.148437 4.015624.394531 8.4375 3.785156 10.875 3.339844 2.402343 7.953125 2.46875 11.371094.1875 3.914063-2.609376 5.503906-7.789063 3.691406-12.140626zm0 0"/><path d="m255.921875 383.34375c36.808594 0 66.753906-29.945312 66.753906-66.753906 0-36.8125-29.945312-66.757813-66.753906-66.757813-36.8125 0-66.761719 29.945313-66.761719 66.757813 0 36.808594 29.949219 66.753906 66.761719 66.753906zm0-113.511719c25.78125 0 46.753906 20.972657 46.753906 46.757813 0 25.78125-20.972656 46.753906-46.753906 46.753906-25.785156 0-46.761719-20.972656-46.761719-46.753906 0-25.785156 20.976563-46.757813 46.761719-46.757813zm0 0"/><path d="m413.4375 159.367188c-1.550781-3.792969-5.414062-6.269532-9.5-6.171876-4.257812.105469-8.0625 3.027344-9.296875 7.089844-1.195313 3.925782.210937 8.34375 3.480469 10.832032 3.363281 2.554687 8.03125 2.730468 11.566406.421874 3.96875-2.589843 5.574219-7.800781 3.75-12.171874zm0 0"/><path d="m217.371094 189.886719c43.078125 0 78.125-35.046875 78.125-78.125s-35.046875-78.125-78.125-78.125-78.125 35.046875-78.125 78.125 35.046875 78.125 78.125 78.125zm0-136.25c32.050781 0 58.125 26.074219 58.125 58.125s-26.074219 58.125-58.125 58.125c-32.050782 0-58.125-26.074219-58.125-58.125s26.074218-58.125 58.125-58.125zm0 0"/><path d="m217.371094 154.386719c23.503906 0 42.625-19.121094 42.625-42.625 0-23.5-19.121094-42.621094-42.625-42.621094s-42.625 19.121094-42.625 42.621094c0 23.503906 19.121094 42.625 42.625 42.625zm0-65.246094c12.476562 0 22.625 10.144531 22.625 22.621094 0 12.476562-10.148438 22.625-22.625 22.625-12.472656 0-22.625-10.148438-22.625-22.625 0-12.476563 10.152344-22.621094 22.625-22.621094zm0 0"/><path d="m454.566406 216.441406c-2.507812-4.921875-8.527344-6.875-13.449218-4.371094-4.921876 2.507813-6.878907 8.53125-4.371094 13.449219 19.667968 38.601563 19.667968 101.40625 0 140.003907-2.507813 4.921874-.550782 10.945312 4.371094 13.453124 1.453124.738282 3.003906 1.089844 4.53125 1.089844 3.640624 0 7.152343-1.996094 8.917968-5.460937 10.847656-21.292969 16.824219-49.375 16.824219-79.082031 0-29.707032-5.976563-57.792969-16.824219-79.082032zm0 0"/><path d="m488.320312 183.960938c-2.507812-4.921876-8.53125-6.875-13.449218-4.371094-4.921875 2.507812-6.878906 8.527344-4.371094 13.449218 28.796875 56.511719 28.796875 148.457032 0 204.96875-2.507812 4.921876-.550781 10.941407 4.371094 13.449219 1.453125.742188 3.003906 1.09375 4.53125 1.09375 3.640625 0 7.152344-1.996093 8.917968-5.464843 15.269532-29.964844 23.679688-69.585938 23.679688-111.5625 0-41.976563-8.410156-81.597657-23.679688-111.5625zm0 0"/><path d="m70.882812 212.070312c-4.921874-2.507812-10.941406-.550781-13.449218 4.371094-10.847656 21.289063-16.824219 49.375-16.824219 79.082032 0 29.707031 5.976563 57.789062 16.824219 79.082031 1.765625 3.464843 5.277344 5.460937 8.917968 5.460937 1.527344 0 3.078126-.351562 4.53125-1.089844 4.921876-2.507812 6.878907-8.53125 4.371094-13.453124-19.667968-38.597657-19.667968-101.402344 0-140.003907 2.507813-4.917969.550782-10.941406-4.371094-13.449219zm0 0"/><path d="m41.5 193.039062c2.507812-4.921874.550781-10.941406-4.371094-13.449218-4.921875-2.507813-10.941406-.550782-13.449218 4.371094-15.269532 29.964843-23.679688 69.585937-23.679688 111.5625 0 41.976562 8.410156 81.597656 23.679688 111.5625 1.765624 3.46875 5.273437 5.460937 8.917968 5.460937 1.527344 0 3.078125-.351563 4.53125-1.089844 4.921875-2.507812 6.878906-8.53125 4.371094-13.449219-28.796875-56.511718-28.796875-148.457031 0-204.96875zm0 0"/></svg>