<svg height="512pt" viewBox="0 -17 512.00038 512" width="512pt" xmlns="http://www.w3.org/2000/svg"><path d="m105.816406 51.449219 14.265625-8.777344-11.671875 48.996094c-.011718.046875-.015625.09375-.023437.140625-1.710938 7.5-.4375 15.230468 3.605469 21.800781 4.09375 6.652344 10.523437 11.3125 18.113281 13.121094 2.257812.539062 4.542969.804687 6.8125.804687 5.339843 0 10.597656-1.476562 15.269531-4.351562 6.652344-4.09375 11.3125-10.523438 13.121094-18.113282 3.734375-15.675781-5.980469-31.46875-21.65625-35.203124-3.136719-.75-6.277344-.949219-9.328125-.675782l10.808593-45.367187c.9375-3.9375-.589843-8.046875-3.863281-10.417969-3.277343-2.371094-7.65625-2.539062-11.105469-.417969l-34.828124 21.429688c-4.703126 2.894531-6.171876 9.050781-3.277344 13.757812 2.894531 4.703125 9.050781 6.167969 13.757812 3.273438zm31.0625 37.621093c.703125 0 1.421875.082032 2.136719.25 4.949219 1.179688 8.019531 6.167969 6.839844 11.117188-.570313 2.390625-2.042969 4.417969-4.144531 5.714844-2.105469 1.292968-4.578126 1.695312-6.972657 1.125-2.386719-.570313-4.417969-2.042969-5.710937-4.148438-1.296875-2.101562-1.695313-4.578125-1.125-6.96875 1.007812-4.234375 4.800781-7.089844 8.976562-7.089844zm0 0"/><path d="m15.964844 166.75c4.671875 2.871094 9.929687 4.347656 15.273437 4.347656 2.269531 0 4.550781-.265625 6.8125-.804687 7.585938-1.804688 14.019531-6.464844 18.113281-13.121094 4.046876-6.578125 5.320313-14.320313 3.597657-21.828125-.007813-.035156-.011719-.074219-.019531-.113281l-.027344-.121094c-.003906-.003906-.003906-.011719-.003906-.019531-.003907-.007813-.003907-.015625-.007813-.019532l-11.632813-48.832031 14.269532 8.777344c4.703125 2.894531 10.863281 1.425781 13.757812-3.277344 2.894532-4.703125 1.425782-10.863281-3.277344-13.757812l-34.832031-21.425781c-3.441406-2.121094-7.824219-1.957032-11.101562.414062-3.277344 2.375-4.800781 6.484375-3.863281 10.417969l10.804687 45.355469c-3.085937-.265626-6.226563-.050782-9.324219.6875-7.585937 1.808593-14.019531 6.46875-18.113281 13.121093-4.09375 6.65625-5.355469 14.5-3.546875 22.085938 1.808594 7.585937 6.46875 14.019531 13.121094 18.113281zm7.460937-29.71875c1.292969-2.101562 3.324219-3.574219 5.710938-4.144531.710937-.167969 1.429687-.253907 2.144531-.253907 1.6875 0 3.347656.46875 4.828125 1.378907 2.101563 1.292969 3.570313 3.320312 4.144531 5.703125l.003906.019531c.566407 2.386719.164063 4.859375-1.128906 6.960937-1.292968 2.101563-3.324218 3.574219-5.710937 4.144532-4.949219 1.175781-9.941407-1.890625-11.117188-6.839844-.570312-2.386719-.171875-4.863281 1.125-6.96875zm0 0"/><path d="m152.386719 209.285156c1.628906.996094 3.429687 1.46875 5.207031 1.46875 3.367188 0 6.65625-1.699218 8.539062-4.785156l24.25-39.660156c2.878907-4.710938 1.394532-10.867188-3.316406-13.746094-4.710937-2.882812-10.867187-1.398438-13.746094 3.316406l-24.25 39.660156c-2.878906 4.710938-1.394531 10.867188 3.316407 13.746094zm0 0"/><path d="m77.621094 148.570312 10.898437 45.1875c1.105469 4.582032 5.199219 7.660157 9.714844 7.660157.773437 0 1.5625-.09375 2.351563-.28125 5.367187-1.296875 8.671874-6.699219 7.378906-12.066407l-10.902344-45.191406c-1.292969-5.367187-6.691406-8.671875-12.0625-7.378906-5.371094 1.296875-8.671875 6.699219-7.378906 12.070312zm0 0"/><path d="m49.652344 236.785156c3.367187 0 6.65625-1.699218 8.539062-4.78125 2.882813-4.714844 1.398438-10.867187-3.3125-13.75l-39.660156-24.25c-4.714844-2.882812-10.871094-1.394531-13.75 3.316406-2.878906 4.710938-1.3945312 10.867188 3.316406 13.746094l39.660156 24.25c1.628907.996094 3.429688 1.46875 5.207032 1.46875zm0 0"/><path d="m58.082031 188.765625c-4.4375 3.289063-5.367187 9.554687-2.074219 13.988281l6.210938 8.375c1.960938 2.648438 4.980469 4.046875 8.039062 4.046875 2.070313 0 4.15625-.640625 5.949219-1.96875 4.433594-3.289062 5.363281-9.554687 2.074219-13.988281l-6.210938-8.375c-3.289062-4.4375-9.554687-5.367188-13.988281-2.078125zm0 0"/><path d="m120.398438 178.867188-1.890626 10.257812c-1 5.429688 2.589844 10.644531 8.019532 11.644531.613281.113281 1.222656.167969 1.824218.167969 4.730469 0 8.933594-3.371094 9.824219-8.1875l1.886719-10.257812c1.003906-5.429688-2.589844-10.644532-8.019531-11.644532-5.433594-1.003906-10.644531 2.589844-11.644531 8.019532zm0 0"/><path d="m160.769531 420.582031c-4.996093-2.359375-10.953125-.226562-13.316406 4.769531-2.355469 4.992188-.222656 10.953126 4.773437 13.3125 15.390626 7.269532 33.296876 10.957032 53.21875 10.957032 27.5625 0 54.238282-11.539063 73.1875-31.65625 3.789063-4.023438 3.597657-10.351563-.421874-14.136719-4.023438-3.789063-10.351563-3.597656-14.136719.421875-15.410157 16.363281-36.230469 25.371094-58.628907 25.371094-16.945312 0-31.980468-3.039063-44.675781-9.039063zm0 0"/><path d="m502 21.519531h-27.519531v-11.519531c0-5.523438-4.476563-10-10-10h-105.269531c-24.917969 0-49.253907 10.164062-66.769532 27.882812-13.121094 13.269532-21.917968 29.96875-25.4375 48.296876l-50.753906 264.234374c-.03125.171876-.058594.34375-.085938.519532-.589843 4.277344-4.273437 7.480468-8.589843 7.480468-.027344 0-.058594 0-.085938 0-4.257812-.039062-7.941406-3.445312-8.5625-7.914062l-4.03125-28.929688c-.003906-.011718-.003906-.027343-.007812-.042968l-5.382813-38.632813c6.191406-4.316406 10.421875-11.199219 11.25-18.847656.925782-8.535156-2.269531-16.71875-8.761718-22.449219-6.507813-5.75-15.402344-8-23.789063-6.019531-1.601563.378906-3.203125.769531-4.804687 1.164063l-112.378907 27.398437c-5.65625 1.378906-12.105469 3.609375-17.039062 9.707031-6.40625 7.914063-7.6875 18.949219-3.257813 28.109375 3.695313 7.636719 10.914063 12.980469 19.113282 14.46875 1.226562 15.753907 5.335937 47.503907 19.121093 79.597657 25.84375 60.171874 73.039063 91.972656 136.488281 91.972656 70.992188 0 128.769532-57.679688 128.929688-128.632813l14.890625-257.34375c.941406-16.253906 14.429687-28.984375 30.710937-28.984375h84.503907c5.523437 0 10-4.476562 10-10v-11.515625h27.519531c5.523438 0 10-4.480469 10-10 0-5.523437-4.480469-10-10-10zm-452.476562 254.910157c.996093-1.230469 2.628906-1.980469 6.234374-2.859376l110.144532-26.847656c1.914062-.46875 3.828125-.945312 5.742187-1.40625 2.53125-.609375 4.910157-.589844 7 1.175782 1.730469 1.460937 2.597657 3.714843 2.140625 5.957031-.546875 2.679687-2.628906 4.433593-5.191406 5.070312l-118.644531 28.921875c-2.832031.691406-5.632813.355469-7.539063-2.097656-1.773437-2.289062-1.703125-5.667969.113282-7.914062zm279.777343-185.566407-1.746093 30.179688h-24.207032c-5.523437 0-10 4.480469-10 10 0 5.523437 4.476563 10 10 10h23.046875l-2.367187 40.898437h-6.179688c-3.867187-8.804687-12.664062-14.976562-22.882812-14.976562-13.773438 0-24.980469 11.203125-24.980469 24.976562 0 13.773438 11.207031 24.980469 24.980469 24.980469 10.21875 0 19.015625-6.171875 22.882812-14.980469h5.023438l-2.621094 45.3125h-8.828125c-3.984375-9.976562-13.738281-17.042968-25.113281-17.042968-14.910156 0-27.039063 12.132812-27.039063 27.042968 0 14.90625 12.128907 27.039063 27.039063 27.039063 11.375 0 21.128906-7.070313 25.113281-17.039063h7.671875l-2.625 45.308594h-11.488281c-4.085938-11.136719-14.796875-19.101562-27.332031-19.101562-16.042969 0-29.097657 13.054687-29.097657 29.101562s13.054688 29.101562 29.097657 29.101562c12.535156 0 23.246093-7.96875 27.332031-19.101562h10.332031l-.921875 15.929688c-.011719.191406-.015625.386718-.015625.578124 0 60.0625-48.867188 108.929688-108.929688 108.929688-55.425781 0-95.09375-26.703125-117.894531-79.363281-13.046875-30.125-16.769531-60.734375-17.820312-74.722657l100.488281-24.496093 3.613281 25.921875-61.6875 15.035156c-5.367187 1.308594-8.65625 6.71875-7.347656 12.085938 1.113281 4.570312 5.203125 7.632812 9.707031 7.632812.78125 0 1.578125-.09375 2.375-.285156l59.726563-14.558594 2.511719 18.011719c1.980468 14.203125 14.09375 25.019531 28.179687 25.15625h.277344c14.164062 0 26.28125-10.449219 28.359375-24.457031l50.710937-264.003907c2.769531-14.425781 9.691407-27.566406 20.019531-38.011719 13.785157-13.945312 32.9375-21.941406 52.542969-21.941406h52.394531v23.035156h-31.628906c-26.863281-.003906-49.121094 21.007813-50.671875 47.824219zm-29.359375 101.078125c0 2.746094-2.230468 4.980469-4.976562 4.980469s-4.976563-2.234375-4.976563-4.980469c0-2.742187 2.230469-4.976562 4.976563-4.976562s4.976562 2.234375 4.976562 4.976562zm-6.59375 65.308594c0 3.882812-3.15625 7.039062-7.039062 7.039062-3.882813 0-7.039063-3.15625-7.039063-7.039062 0-3.878906 3.15625-7.039062 7.039063-7.039062 3.882812 0 7.039062 3.160156 7.039062 7.039062zm-6.59375 65.308594c0 5.019531-4.085937 9.101562-9.105468 9.101562-5.015626 0-9.097657-4.082031-9.097657-9.101562 0-5.019532 4.082031-9.101563 9.097657-9.101563 5.019531 0 9.105468 4.082031 9.105468 9.101563zm167.726563-279.523438h-22.878907v-23.035156h22.878907zm0 0"/><path d="m134.199219 401.421875c-1.542969-3.859375-5.59375-6.367187-9.722657-6.148437-4.050781.21875-7.664062 2.914062-8.964843 6.765624-1.332031 3.945313-.035157 8.457032 3.246093 11.042969 3.285157 2.59375 7.929688 2.859375 11.488282.65625 4.121094-2.550781 5.789062-7.847656 3.953125-12.316406zm0 0"/></svg>