<svg height="511pt" viewBox="0 -3 511.99977 511" width="511pt" xmlns="http://www.w3.org/2000/svg"><path d="m508.757812 175.78125-74.914062-68.679688 39.984375-60.273437c2.328125-3.507813 2.207031-8.101563-.300781-11.484375-2.507813-3.382812-6.867188-4.832031-10.898438-3.625l-31.746094 9.496094.042969-30.699219c.007813-4.277344-2.707031-8.085937-6.753906-9.472656-4.046875-1.390625-8.527344-.050781-11.148437 3.328125l-44.566407 57.46875c-.050781.066406-.09375.140625-.148437.207031-.039063.054687-.085938.105469-.125.160156l-106.828125 151.710938v-203.417969c0-5.523438-4.476563-10-10-10-5.523438 0-10 4.476562-10 10v224.988281h-130.621094c-42.824219 0-77.777344 34.238281-78.976563 76.777344l-30.890624 69.328125c-1.378907 3.09375-1.097657 6.675781.746093 9.515625s5 4.554687 8.386719 4.554687h63.402344c3.386718 0 6.542968-1.710937 8.386718-4.554687 1.84375-2.839844 2.125-6.421875.746094-9.515625l-30.78125-69.085938c.953125-28.238281 21.820313-51.5 48.980469-56.15625v240.09375c0 5.523438 4.476563 10 10 10h69.15625c5.523437 0 10-4.476562 10-10v-73.6875h121.847656v73.6875c0 5.523438 4.476563 10 10 10h69.15625c5.523438 0 10-4.476562 10-10v-280.148437l64.835938 24.070313c4.300781 1.601562 9.136719.066406 11.730469-3.71875l32.789062-47.839844c2.8125-4.109375 2.175781-9.660156-1.492188-13.027344zm-483.355468 199.882812 16.296875-36.574218 16.296875 36.574218zm416.480468-316.863281-11.046874 16.660157.015624-13.359376zm-31.0625 27.191407-20.914062-19.171876 20.976562-27.054687zm-29.929687 233.183593h-129.535156c-5.523438 0-10 4.476563-10 10 0 5.523438 4.476562 10 10 10h129.535156v63.582031h-260.15625v-63.582031h50.621094c5.523437 0 10-4.476562 10-10 0-5.523437-4.476563-10-10-10h-50.621094v-63.6875h260.15625zm-211 167.269531h-49.15625v-63.6875h49.15625zm211 0h-49.15625v-63.6875h49.15625zm84.484375-267.542968-71-26.363282c-3.070312-1.140624-6.503906-.703124-9.191406 1.167969-2.6875 1.867188-4.292969 4.933594-4.292969 8.207031v33.574219h-110.261719l107.359375-152.460937 36.039063 33.042968c.003906 0 .003906 0 .007812.003907l74.808594 68.585937zm0 0"/><path d="m388.539062 124.574219c-.25-.601563-.558593-1.179688-.917968-1.730469-.371094-.539062-.792969-1.050781-1.25-1.519531-.460938-.460938-.972656-.871094-1.523438-1.242188-.539062-.359375-1.117187-.667969-1.726562-.917969-.601563-.25-1.230469-.441406-1.871094-.570312-1.289062-.261719-2.609375-.261719-3.902344 0-.636718.128906-1.269531.320312-1.867187.570312-.609375.25-1.191407.558594-1.730469.917969-.550781.371094-1.0625.78125-1.519531 1.242188-.460938.46875-.882813.980469-1.242188 1.519531-.359375.550781-.667969 1.128906-.917969 1.730469-.25.597656-.449218 1.230469-.570312 1.871093-.128906.648438-.199219 1.296876-.199219 1.957032 0 .652344.070313 1.3125.199219 1.953125.121094.636719.320312 1.269531.570312 1.867187.25.601563.558594 1.191406.917969 1.730469s.78125 1.058594 1.242188 1.519531c.457031.460938.96875.882813 1.519531 1.242188.539062.359375 1.121094.667968 1.730469.917968.597656.25 1.230469.441407 1.867187.570313.640625.128906 1.300782.199219 1.953125.199219.648438 0 1.308594-.070313 1.949219-.199219s1.269531-.320313 1.871094-.570313c.609375-.25 1.1875-.558593 1.726562-.917968.550782-.359375 1.0625-.78125 1.523438-1.242188.457031-.460937.878906-.980468 1.25-1.519531.359375-.539063.667968-1.128906.917968-1.730469.242188-.597656.441407-1.230468.558594-1.867187.132813-.640625.203125-1.300781.203125-1.953125 0-.660156-.070312-1.308594-.203125-1.957032-.117187-.640624-.316406-1.273437-.558594-1.871093zm0 0"/><path d="m220.589844 325.355469c-1.617188-3.941407-5.707032-6.457031-9.949219-6.148438-4.144531.296875-7.753906 3.230469-8.894531 7.222657-1.152344 4.015624.390625 8.441406 3.792968 10.867187 3.355469 2.398437 7.9375 2.472656 11.371094.1875 3.914063-2.609375 5.488282-7.785156 3.679688-12.128906zm0 0"/></svg>