<svg height="512pt" viewBox="0 -67 512.00011 512" width="512pt" xmlns="http://www.w3.org/2000/svg"><path d="m511.46875 327.867188c-5.324219-19.398438-30.535156-37.816407-77.074219-56.304688-27.65625-10.988281-53.964843-18.40625-61.957031-20.570312l-271.804688-248.375c-1.824218-1.667969-4.277343-2.617188-6.746093-2.617188-25.542969 0-49.402344 12.476562-67.179688 35.125-17.222656 21.9375-26.707031 50.964844-26.707031 81.738281 0 9.289063.878906 18.410157 2.558594 27.234375l35.992187 222.765625c.78125 4.84375 4.964844 8.402344 9.871094 8.402344h34.03125c5.210937 0 9.546875-4 9.964844-9.191406l10.671875-132.101563c41.820312 2.351563 63.175781 22.523438 104.863281 94.359375 23.453125 40.40625 85.691406 49.066407 134.695313 49.066407.753906 0 1.507812-.003907 2.253906-.007813 57.605468-.308594 116.167968-12.386719 144.25-24.15625 7.183594-3.007813 26.261718-11.003906 22.316406-25.367187zm-438.238281 27.402343h-16.296875l-24.148438-149.46875c10.433594 11.09375 23.5 19.910157 38.109375 24.4375 3.992188 1.234375 8.078125 2.132813 12.214844 2.734375zm357.464843-6.46875c-38.71875 7.449219-80.453124 10.230469-114.507812 7.636719-32.839844-2.503906-75.273438-11.152344-90.9375-38.144531-44.785156-77.167969-71.363281-104.566407-131.363281-104.566407-8.832031 0-17.511719-2.128906-25.460938-5.925781-17.480469-8.4375-31.875-25.300781-40.308593-46.816406-5.40625-14.070313-8.121094-29.046875-8.121094-44.121094 0-51.117187 30.363281-93.109375 68.683594-96.621093 10.113281 15.210937 43.511718 65.1875 83.363281 121.976562 3.171875 4.519531 9.410156 5.617188 13.929687 2.441406 4.519532-3.171875 5.613282-9.40625 2.441406-13.929687-14.167968-20.1875-27.519531-39.515625-39.289062-56.710938l203.578125 186.027344c-11.894531 10.015625-22.375 14.367187-32.480469 13.574219-20.792968-1.613282-46.316406-24.902344-85.339844-77.882813-3.273437-4.445312-9.535156-5.394531-13.980468-2.121093-4.445313 3.273437-5.394532 9.535156-2.121094 13.980468 43.972656 59.695313 71.980469 83.796875 99.898438 85.960938 1.339843.105468 2.675781.15625 4.007812.15625 15.722656 0 31.058594-7.277344 47.625-22.5625 10.09375 2.828125 33.132812 9.628906 56.703125 18.992187 46.207031 18.359375 59.878906 32.539063 63.867187 39.882813-6.039062 4.085937-24.746093 11.957031-60.1875 18.773437zm0 0"/><path d="m213.277344 169.339844c0 5.519531-4.476563 9.996094-9.996094 9.996094-5.523438 0-10-4.476563-10-9.996094 0-5.523438 4.476562-10 10-10 5.519531 0 9.996094 4.476562 9.996094 10zm0 0"/></svg>