<?xml version="1.0" encoding="iso-8859-1"?>
<!-- Generator: Adobe Illustrator 19.0.0, SVG Export Plug-In . SVG Version: 6.00 Build 0)  -->
<svg version="1.1" id="Capa_1" xmlns="http://www.w3.org/2000/svg" xmlns:xlink="http://www.w3.org/1999/xlink" x="0px" y="0px"
	 viewBox="0 0 488.098 488.098" style="enable-background:new 0 0 488.098 488.098;" xml:space="preserve">
<g>
	<g>
		<path d="M156.049,263.032c-0.018-6.618-2.645-12.963-7.312-17.656l-70.064-70.064c-4.672-4.698-11.03-7.331-17.656-7.312
			c-0.168,0-0.32,0.048-0.48,0.048c-0.16,0-0.32-0.048-0.488-0.048c-13.255,0-24,10.745-24,24c0,0.168,0.048,0.32,0.048,0.488
			c0,0.168-0.048,0.312-0.048,0.48v70.064c0.013,13.784,11.184,24.955,24.968,24.968h70.064c0.168,0,0.32-0.048,0.48-0.048
			s0.32,0.048,0.488,0.048c13.255,0,24-10.745,24-24c0-0.168-0.048-0.32-0.048-0.488C156.001,263.344,156.049,263.2,156.049,263.032
			z M60.537,184.096c4.389,0.245,7.749,4.003,7.503,8.392c-0.245,4.389-4.003,7.749-8.392,7.503
			c-4.046-0.226-7.277-3.457-7.503-7.503C52.388,187.958,56.007,184.339,60.537,184.096z M108.049,264
			c0.026,2.732,0.524,5.438,1.472,8H61.017c-4.951-0.004-8.964-4.017-8.968-8.968v-48.504c2.562,0.947,5.268,1.445,8,1.472
			c9.623-0.002,18.314-5.752,22.08-14.608l40.528,40.528C113.801,245.686,108.051,254.377,108.049,264z M131.561,271.904
			c-4.387-0.279-7.718-4.061-7.44-8.448c0.266-4.186,3.734-7.447,7.928-7.456c4.207,0.019,7.671,3.311,7.904,7.512
			C139.71,268.042,136.091,271.661,131.561,271.904z"/>
	</g>
</g>
<g>
	<g>
		<path d="M283.905,232.72c0.06-0.237,0.108-0.478,0.144-0.72v-16c0-4.418-3.582-8-8-8s-8,3.582-8,8v5.48
			c-5.058-2.412-10.453-4.044-16-4.84V152c0-4.418-3.582-8-8-8s-8,3.582-8,8v64.64c-5.547,0.796-10.942,2.428-16,4.84V184
			c0-4.418-3.582-8-8-8s-8,3.582-8,8v48c0.036,0.242,0.084,0.483,0.144,0.72c-21.726,22.012-21.494,57.468,0.518,79.194
			s57.468,21.494,79.194-0.518c10.358-10.495,16.159-24.651,16.144-39.396C300.052,257.291,294.25,243.176,283.905,232.72z
			 M244.049,312c-22.08-0.026-39.974-17.92-40-40c0-22.091,17.909-40,40-40c22.091,0,40,17.909,40,40
			C284.049,294.091,266.141,312,244.049,312z"/>
	</g>
</g>
<g>
	<g>
		<path d="M244.049,248c-4.418,0-8,3.582-8,8s3.582,8,8,8s8,3.582,8,8s3.582,8,8,8c4.418,0,8-3.582,8-8
			C268.049,258.745,257.304,248,244.049,248z"/>
	</g>
</g>
<g>
	<g>
		<path d="M449.497,392.552c-4.059-12.07-12.779-22.015-24.216-27.616l-6.664-3.288c-0.443-0.221-0.907-0.398-1.384-0.528
			l-109.984-30.784c-14.513-4.046-29.558,4.44-33.603,18.953c-3.013,10.808,0.899,22.358,9.859,29.111l91.368,68.552
			c0.396,0.305,0.819,0.573,1.264,0.8l6.656,3.288c6.594,3.263,13.851,4.96,21.208,4.96c26.536-0.01,48.04-21.529,48.031-48.065
			C452.03,402.703,451.174,397.507,449.497,392.552z M432.218,422.32c-7.878,15.482-26.668,21.852-42.337,14.352l-6-2.96
			L293.105,365.6c-4.327-3.258-5.731-9.13-3.344-13.992v-0.024c2.418-4.852,7.935-7.31,13.16-5.864l109.28,30.6l6.008,2.968
			C433.961,387.302,440.233,406.568,432.218,422.32z"/>
	</g>
</g>
<g>
	<g>
		<path d="M404.587,392.256c-8.837-0.014-16.011,7.138-16.025,15.975c-0.01,6.09,3.439,11.657,8.895,14.361
			c2.199,1.095,4.623,1.665,7.08,1.664c8.837,0.014,16.011-7.138,16.025-15.975C420.576,399.444,413.423,392.27,404.587,392.256z"/>
	</g>
</g>
<g>
	<g>
		<path d="M227.498,402.921c-2.092-11.005-10.7-19.613-21.705-21.705L93.521,360.144c-0.485-0.096-0.978-0.144-1.472-0.144h-7.432
			c-26.51,0-48,21.49-48,48c0,26.51,21.49,48,48,48h7.432c0.494,0,0.987-0.048,1.472-0.144l112.272-21.04
			C220.594,432.002,230.312,417.722,227.498,402.921z M211.847,410.098c-0.862,4.561-4.429,8.129-8.99,8.99L91.305,440h-6.688
			c-17.673-0.004-31.997-14.334-31.993-32.007c0.002-8.483,3.372-16.618,9.369-22.617c5.984-6.025,14.132-9.402,22.624-9.376h6.688
			l111.552,20.92C208.979,398.076,213.004,403.976,211.847,410.098z"/>
	</g>
</g>
<g>
	<g>
		<circle cx="84.049" cy="408" r="16"/>
	</g>
</g>
<g>
	<g>
		<path d="M324.049,8c-4.418,0-8,3.582-8,8c0,39.765-32.235,72-72,72c-39.764,0-72-32.235-72-72c0-4.418-3.582-8-8-8s-8,3.582-8,8
			c0,48.601,39.399,88,88,88s88-39.399,88-88C332.049,11.582,328.467,8,324.049,8z"/>
	</g>
</g>
<g>
	<g>
		<path d="M276.049,160c-4.418,0-8,3.582-8,8v16c0,4.418,3.582,8,8,8s8-3.582,8-8v-16C284.049,163.582,280.467,160,276.049,160z"/>
	</g>
</g>
<g>
	<g>
		<path d="M100.049,48c-17.673,0-32,14.327-32,32s14.327,32,32,32s32-14.327,32-32S117.722,48,100.049,48z M100.049,96
			c-8.837,0-16-7.163-16-16s7.163-16,16-16s16,7.163,16,16S108.886,96,100.049,96z"/>
	</g>
</g>
<g>
	<g>
		<path d="M388.049,48c-17.673,0-32,14.327-32,32s14.327,32,32,32c17.673,0,32-14.327,32-32S405.722,48,388.049,48z M388.049,96
			c-8.837,0-16-7.163-16-16s7.163-16,16-16s16,7.163,16,16S396.886,96,388.049,96z"/>
	</g>
</g>
<g>
	<g>
		<path d="M452.049,192c0-13.255-10.745-24-24-24c-0.168,0-0.32,0.048-0.488,0.048c-0.168,0-0.312-0.048-0.48-0.048
			c-6.626-0.019-12.984,2.614-17.656,7.312l-70.064,70.064c-4.667,4.693-7.294,11.038-7.312,17.656c0,0.168,0.048,0.32,0.048,0.48
			c0,0.16-0.048,0.32-0.048,0.488c0,13.255,10.745,24,24,24c0.168,0,0.32-0.048,0.488-0.048c0.168,0,0.312,0.048,0.48,0.048h70.064
			c13.784-0.013,24.955-11.184,24.968-24.968v-70.064c0-0.168-0.048-0.32-0.048-0.48C452.001,192.328,452.049,192.168,452.049,192z
			 M420.058,191.599c0.226-4.046,3.457-7.277,7.503-7.503c4.53,0.243,8.149,3.862,8.392,8.392c-0.245,4.389-4.003,7.749-8.392,7.503
			C423.172,199.746,419.812,195.989,420.058,191.599z M364.04,264.401c-0.226,4.046-3.457,7.277-7.503,7.503
			c-4.53-0.243-8.149-3.862-8.392-8.392c0.245-4.389,4.003-7.749,8.392-7.503C360.926,256.254,364.286,260.011,364.04,264.401z
			 M436.049,263.032c-0.004,4.951-4.017,8.964-8.968,8.968h-48.504c0.948-2.562,1.445-5.268,1.472-8
			c-0.002-9.623-5.752-18.314-14.608-22.08l40.528-40.528c3.766,8.856,12.457,14.606,22.08,14.608c2.732-0.027,5.438-0.524,8-1.472
			V263.032z"/>
	</g>
</g>
<g>
	<g>
		<path d="M41.901,474.54c-0.064-0.067-0.13-0.132-0.196-0.196l-21.656-21.656V8c0-4.418-3.582-8-8-8s-8,3.582-8,8v448
			c0,2.122,0.844,4.156,2.344,5.656l24,24c3.07,3.178,8.134,3.266,11.312,0.196S44.971,477.718,41.901,474.54z"/>
	</g>
</g>
<g>
	<g>
		<path d="M476.049,0c-4.418,0-8,3.582-8,8v444.688l-21.656,21.656c-3.178,3.07-3.266,8.134-0.196,11.312
			c3.07,3.178,8.134,3.266,11.312,0.196c0.066-0.064,0.132-0.13,0.196-0.196l24-24c1.5-1.5,2.344-3.534,2.344-5.656V8
			C484.049,3.582,480.467,0,476.049,0z"/>
	</g>
</g>
<g>
	<g>
		<path d="M276.049,8c-4.418,0-8,3.582-8,8c0,13.255-10.745,24-24,24c-13.255,0-24-10.745-24-24c0-4.418-3.582-8-8-8s-8,3.582-8,8
			c0,22.091,17.909,40,40,40c22.091,0,40-17.909,40-40C284.049,11.582,280.467,8,276.049,8z"/>
	</g>
</g>
<g>
</g>
<g>
</g>
<g>
</g>
<g>
</g>
<g>
</g>
<g>
</g>
<g>
</g>
<g>
</g>
<g>
</g>
<g>
</g>
<g>
</g>
<g>
</g>
<g>
</g>
<g>
</g>
<g>
</g>
</svg>
