<svg height="512pt" viewBox="-32 0 512 512.00139" width="512pt" xmlns="http://www.w3.org/2000/svg"><path d="m437.535156 113.511719h-60.292968c13.039062-11.847657 21.953124-28.125 24.171874-46.632813 1.238282-10.304687.195313-19.933594-3.015624-27.84375-11.597657-28.578125-49.078126-44.859375-85.328126-37.074218-.292968.0625-.582031.140624-.871093.226562-21.425781 6.660156-44.445313 28.652344-68.421875 65.363281-8.164063 12.496094-15 24.507813-19.992188 33.816407-4.992187-9.308594-11.828125-21.320313-19.988281-33.816407-23.976563-36.710937-47-58.703125-68.421875-65.363281-.289062-.085938-.578125-.164062-.871094-.226562-18.378906-3.949219-37.535156-1.8906255-53.941406 5.789062-5.019531 2.351562-7.183594 8.328125-4.832031 13.347656 2.351562 5.023438 8.324219 7.1875 13.347656 4.835938 12.140625-5.6875 26.96875-7.296875 40.753906-4.4375 29.070313 9.433594 61.3125 60.890625 77.730469 92.015625h-85.140625c-22.242187 0-42.542969-12.835938-51.714844-32.707031-2.324219-5.03125-8.285156-7.230469-13.320312-4.90625-5.035157 2.324218-7.230469 8.289062-4.90625 13.324218 4.316406 9.355469 10.449219 17.5625 17.871093 24.289063h-60.3125c-5.542968 0-10.039062 4.496093-10.039062 10.039062v103.308594c0 5.546875 4.496094 10.039063 10.039062 10.039063h11.117188v265.0625c0 5.546874 4.496094 10.039062 10.039062 10.039062h385.179688c5.546875 0 10.039062-4.492188 10.039062-10.039062v-265.0625h11.121094c5.542969 0 10.039063-4.492188 10.039063-10.039063v-103.308594c0-5.542969-4.496094-10.039062-10.039063-10.039062zm-119.796875-92.015625c26.425781-5.484375 54.191407 5.710937 62.054688 25.085937 1.9375 4.773438 2.519531 10.964844 1.6875 17.90625-3.355469 27.949219-27.570313 49.023438-56.328125 49.023438h-85.144532c16.398438-31.125 48.625-82.566407 77.730469-92.015625zm-297.660156 195.324218v-83.230468h122.253906v83.230468zm245.324219 275.101563h-224.167969v-255.023437h120.859375v184.75c0 5.546874 4.492188 10.039062 10.039062 10.039062 5.542969 0 10.039063-4.492188 10.039063-10.039062v-184.75h83.230469zm19.761718-275.101563h-122.753906v-83.230468h122.753906zm121.175782 275.101563h-120.859375v-255.023437h120.855469v255.023437zm21.15625-275.101563h-122.253906v-83.230468h122.253906zm0 0"/><path d="m182.175781 461.796875c0 5.566406-4.511719 10.078125-10.078125 10.078125s-10.078125-4.511719-10.078125-10.078125 4.511719-10.078125 10.078125-10.078125 10.078125 4.511719 10.078125 10.078125zm0 0"/><path d="m68.617188 45.757812c0 5.566407-4.511719 10.078126-10.078126 10.078126-5.566406 0-10.078124-4.511719-10.078124-10.078126 0-5.566406 4.511718-10.078124 10.078124-10.078124 5.566407 0 10.078126 4.511718 10.078126 10.078124zm0 0"/></svg>