<svg height="512pt" viewBox="0 -51 512 512" width="512pt" xmlns="http://www.w3.org/2000/svg"><path d="m470.363281 49.683594h-59.035156l-13.363281-42.671875c-1.308594-4.171875-5.175782-7.011719-9.542969-7.011719h-264.84375c-4.371094 0-8.234375 2.839844-9.542969 7.011719l-13.363281 42.671875h-59.035156c-22.957031 0-41.636719 18.675781-41.636719 41.632812v277.285156c0 22.957032 18.679688 41.636719 41.636719 41.636719h428.726562c22.957031 0 41.636719-18.679687 41.636719-41.636719v-277.285156c0-22.957031-18.679688-41.632812-41.636719-41.632812zm-339.4375-29.683594h250.148438l9.296875 29.683594h-268.742188zm361.074219 348.601562c0 11.929688-9.703125 21.636719-21.636719 21.636719h-428.726562c-11.933594 0-21.636719-9.707031-21.636719-21.636719v-44.035156h123.273438c24.015624 28.628906 57.351562 46.726563 93.9375 51.359375 12.464843 1.585938 25.113281 1.574219 37.578124 0 36.585938-4.636719 69.921876-22.730469 93.9375-51.359375h123.273438zm-362.367188-124.457031c-.515624-4.710937-.792968-9.445312-.792968-14.183593 0-70.117188 57.042968-127.164063 127.160156-127.164063s127.160156 57.046875 127.160156 127.164063c0 6.476562-.496094 12.960937-1.46875 19.363281-8.539062 55.636719-53.261718 99.503906-109.308594 106.746093-.132812.015626-.269531.035157-.402343.050782-10.734375 1.355468-21.632813 1.316406-32.359375-.050782-57.777344-7.464843-103.511719-53.855468-109.988282-111.925781zm362.367188 60.421875h-109.101562c11.203124-18.933594 17.882812-39.96875 19.722656-62.050781.355468-4.171875.539062-8.367187.539062-12.554687 0-81.148438-66.015625-147.164063-147.160156-147.164063-12.378906 0-24.75 1.550781-36.734375 4.640625-63.429687 16.359375-110.429687 74.054688-110.429687 142.523438 0 4.140624.183593 8.285156.527343 12.410156 1.824219 22.132812 8.511719 43.21875 19.734375 62.195312h-109.097656v-213.25c0-11.929687 9.703125-21.632812 21.636719-21.632812h428.730469c11.929687 0 21.632812 9.703125 21.632812 21.632812zm0 0"/><path d="m256 116.25c-62.699219 0-113.710938 51.011719-113.710938 113.710938 0 62.699218 51.011719 113.707031 113.710938 113.707031s113.710938-51.007813 113.710938-113.707031c0-62.699219-51.011719-113.710938-113.710938-113.710938zm0 207.417969c-51.671875 0-93.710938-42.035157-93.710938-93.707031 0-51.675782 42.039063-93.710938 93.710938-93.710938s93.710938 42.035156 93.710938 93.710938c0 51.671874-42.039063 93.707031-93.710938 93.707031zm0 0"/><path d="m299.417969 162.480469c-4.640625-2.992188-10.832031-1.660157-13.824219 2.980469-2.996094 4.640624-1.664062 10.828124 2.976562 13.824218 17.335938 11.1875 27.6875 30.132813 27.6875 50.675782 0 5.519531 4.476563 10 10 10 5.523438 0 10-4.480469 10-10 0-27.363282-13.773437-52.589844-36.839843-67.480469zm0 0"/><path d="m408.488281 162.695312h57.242188c5.519531 0 10-4.476562 10-10v-57.242187c0-5.519531-4.480469-10-10-10h-57.242188c-5.519531 0-10 4.480469-10 10v57.242187c0 5.523438 4.480469 10 10 10zm10-57.242187h37.242188v37.242187h-37.242188zm0 0"/><path d="m75.066406 82.796875c-19.707031 0-35.742187 16.035156-35.742187 35.742187 0 19.707032 16.035156 35.742188 35.742187 35.742188 19.707032 0 35.742188-16.035156 35.742188-35.742188 0-19.707031-16.035156-35.742187-35.742188-35.742187zm0 51.484375c-8.679687 0-15.742187-7.0625-15.742187-15.742188 0-8.679687 7.0625-15.742187 15.742187-15.742187 8.679688 0 15.742188 7.0625 15.742188 15.742187 0 8.679688-7.0625 15.742188-15.742188 15.742188zm0 0"/><path d="m265.300781 155.945312c-1.636719-3.925781-5.6875-6.457031-9.941406-6.148437-4.152344.300781-7.75 3.234375-8.898437 7.234375-1.148438 3.996094.390624 8.453125 3.785156 10.867188 3.375 2.394531 7.925781 2.464843 11.375.1875 3.945312-2.609376 5.460937-7.789063 3.679687-12.140626zm0 0"/></svg>