<svg height="512pt" viewBox="0 -2 512.00071 512" width="512pt" xmlns="http://www.w3.org/2000/svg"><path d="m492.546875 249.269531-35.742187-160.488281c-1.082032-5.746094-5.484376-10.683594-11.851563-13.257812-6.367187-2.574219-12.964844-2.089844-17.734375 1.285156l-81.179688 53.507812-84.039062-121.890625c-3.375-5.285156-9.796875-8.425781-17.261719-8.425781-7.46875 0-13.890625 3.140625-17.265625 8.425781l-76.011718 110.25-52.304688-50.382812c-4.125-4.25-10.625-5.957031-17.464844-4.566407-6.84375 1.390626-12.160156 5.5-14.296875 11.023438l-66.59375 156.175781c-.79687475 1.859375-1.003906 3.917969-.601562 5.898438 2.464843 12.113281 16.507812 18.5 42.929687 19.515625 1.507813.058594 3.054688.089844 4.617188.113281l34.46875 169.5625c1.289062 6.332031 6.789062 17.613281 29.175781 22.023437 5.84375 1.152344 12.324219 1.722657 19.191406 1.722657.488281 0 .988281-.011719 1.480469-.019531l9.058594 44.578124c.582031 2.851563 3.097656 9.71875 13.921875 11.847657 5.414062 1.070312 11.121093.710937 16.503906-.382813 16.140625-3.28125 25.597656-12.296875 23.535156-22.433594l-9.0625-44.59375c4.019531-1.648437 7.824219-3.445312 11.339844-5.371093 5.371094 1.828125 11.253906 3.332031 17.496094 4.480469v52.695312c0 10.933594 12.007812 18.277344 29.882812 18.277344s29.882813-7.34375 29.882813-18.277344v-52.6875c3.394531-.617188 6.707031-1.34375 9.90625-2.179688 9.855468 42.925782 41.6875 73.144532 78.546875 73.144532 5.511719 0 9.976562-4.464844 9.976562-9.976563s-4.464843-9.976562-9.976562-9.976562c-28.097657 0-52.5-24.96875-59.632813-60.140625.550782-.277344 1.09375-.5625 1.625-.851563 15.007813 5.789063 30.082032 8.882813 42.691406 8.882813 4.386719 0 8.476563-.375 12.160157-1.136719 13.109375-2.71875 18.40625-9.574219 20.539062-14.847656l62.753907-155.105469c1.414062.238281 2.8125.464844 4.179687.664062 6.425781.941407 12.15625 1.414063 17.210937 1.414063 15.015626 0 24.050782-4.164063 27.457032-12.585937.757812-1.875.929687-3.933594.488281-5.910157zm-451.300781-12.996093c-6.492188-.367188-13.5-.898438-19.601563-3.363282l63.78125-149.574218c.15625-.039063.324219-.074219.484375-.097657l54.074219 52.085938-21.796875 31.617187c-2.59375 3.757813-2.027344 8.832032-.28125 12.828125 4.613281 10.648438 20.089844 18.667969 46.917969 24.316407v11.605468c-.132813.046875-.265625.09375-.398438.140625-19.984375 7.085938-40.730469 12.117188-61.617187 15.703125-10.503906 1.800782-21.085938 3.203125-31.710938 4.078125-9.914062.8125-19.910156 1.222657-29.851562.660157zm131.804687 248.300781c-1.757812.746093-3.605469 1.273437-5.476562 1.65625-1.703125.34375-3.4375.570312-5.175781.605469-.429688.007812-2.164063.203124-2.457032-.125l-7.859375-38.660157c4.992188-.765625 9.953125-1.773437 14.851563-3.019531l7.84375 38.589844c-.121094.421875-1.300782.769531-1.726563.953125zm-1.832031-61.585938c-10.695312 3.570313-21.882812 5.792969-33.132812 6.542969-5.488282.367188-11.015626.386719-16.492188-.152344-4.742188-.46875-9.570312-1.304687-14-3.121094-1.511719-.621093-3.019531-1.359374-4.304688-2.375-.570312-.449218-1.363281-1.082031-1.515624-1.84375l-33.78125-166.171874c12.625-.847657 25.191406-2.453126 37.660156-4.574219 12.640625-2.148438 25.195312-4.851563 37.59375-8.121094 7.25-1.914063 14.457031-4.027344 21.578125-6.382813v164.566407c0 8.050781 4.453125 15.105469 10.402343 20.226562-1.328124.496094-2.667968.957031-4.007812 1.40625zm83.449219 64.363281c-1.898438.722657-5.328125 1.53125-9.929688 1.53125-4.601562 0-8.03125-.808593-9.929687-1.53125 0-5.308593 0-10.617187 0-15.925781 0-8.460937 0-16.921875 0-25.382812 0-1.945313 0-3.886719 0-5.828125 6.613281.371094 13.246094.371094 19.859375 0zm50.027343-85.996093c0 2.457031-2.894531 4.730469-4.652343 6.0625-2.449219 1.859375-5.15625 3.332031-7.953125 4.59375-5.847656 2.644531-12.074219 4.40625-18.347656 5.699219-14.246094 2.929687-29.039063 3.511718-43.503907 2.144531-7.796875-.734375-15.574219-2.039063-23.09375-4.257813l97.550781-57.101562zm0-65.980469-118.296874 69.246094c-.746094-.875-1.617188-2.050782-1.617188-3.261719v-21.625l119.914062-70.070313zm0-48.824219-119.917968 70.074219v-32.335938l119.917968-70.195312zm0-55.578125-119.914062 70.195313v-25.832031l114.875-67.128907c.140625-.019531.273438-.039062.410156-.054687 1.402344-.175782 2.792969-.359375 4.167969-.550782.152344-.019531.308594-.039062.460937-.058593zm-119.914062 21.25v-44.675781c12.402344 1.726563 24.90625 2.777344 37.414062 3.351563 10.851563.5 21.726563.632812 32.589844.417968zm101.839844-62.671875c-12.472656 1.191407-25 1.765625-37.527344 1.886719-12.90625.125-25.820312-.269531-38.6875-1.242188-11.710938-.882812-23.410156-2.230468-34.960938-4.359374-1.445312-.265626-2.886718-.542969-4.324218-.835938-.308594-.0625-.617188-.125-.925782-.1875-19.28125-3.996094-28.628906-8.65625-32.238281-11.394531l11.984375-17.382813 93.75-135.980468c.597656-.132813 1.496094-.132813 2.089844 0l89.367188 129.625c.003906 0 .003906.003906.007812.003906l16.367188 23.746094c-3.273438 2.5-7.273438 4.128906-11.101563 5.558593-5.589844 2.085938-11.371094 3.648438-17.183594 4.972657-12.046875 2.742187-24.324219 4.414062-36.617187 5.589843zm75.339844 223.757813c-.175782.433594-1.671876 1.875-6.09375 2.792968-6.894532 1.429688-18.910157 1.015626-34.046876-3.527343 1.832032-3.433594 2.828126-7.171875 2.828126-11.214844v-161.152344l6.523437-16.117187c11.417969 6.492187 23.25 12.25 35.300781 17.472656 11.769532 5.105469 23.773438 9.6875 35.964844 13.683594 6.929688 2.265625 13.921875 4.332031 20.980469 6.160156zm82.917968-167.585938c-15.460937-2.785156-30.621094-7.316406-45.402344-12.582031-15-5.339844-29.710937-11.558594-43.949218-18.699219-7.597656-3.804687-15.070313-7.878906-22.304688-12.34375 5.140625-1.320312 9.78125-2.757812 13.929688-4.3125.40625-.148437.800781-.300781 1.195312-.453125.140625-.054687.28125-.109375.421875-.164062 16.296875-6.351563 24.285157-14.457031 24.285157-24.566407 0-2.023437-.617188-3.996093-1.765626-5.664062l-13.921874-20.191406 80.039062-52.75c.042969.015625.085938.035156.128906.050781l34.128906 153.246094c-4.023437.746093-12.328124 1.035156-26.785156-1.570313zm0 0"/><path d="m441.746094 54.761719c5.511718 0 9.980468-4.464844 9.980468-9.976563v-15.503906c0-5.507812-4.46875-9.976562-9.980468-9.976562-5.507813 0-9.976563 4.46875-9.976563 9.976562v15.503906c0 5.511719 4.46875 9.976563 9.976563 9.976563zm0 0"/><path d="m502.023438 79.582031h-15.503907c-5.511719 0-9.976562 4.464844-9.976562 9.976563 0 5.507812 4.464843 9.976562 9.976562 9.976562h15.503907c5.511718 0 9.976562-4.46875 9.976562-9.976562 0-5.511719-4.464844-9.976563-9.976562-9.976563zm0 0"/><path d="m473.40625 67.875c2.550781 0 5.105469-.972656 7.054688-2.921875l10.960937-10.960937c3.898437-3.898438 3.898437-10.214844 0-14.109376-3.894531-3.898437-10.210937-3.898437-14.109375 0l-10.960938 10.960938c-3.898437 3.894531-3.898437 10.214844 0 14.109375 1.945313 1.949219 4.5 2.921875 7.054688 2.921875zm0 0"/><path d="m403.03125 64.953125c1.949219 1.949219 4.503906 2.921875 7.054688 2.921875 2.554687 0 5.109374-.972656 7.058593-2.921875 3.894531-3.894531 3.894531-10.210937 0-14.109375l-10.964843-10.960938c-3.894532-3.898437-10.214844-3.898437-14.109376 0-3.894531 3.894532-3.898437 10.210938 0 14.109376zm0 0"/><path d="m118.71875 373.894531c5.398438-1.097656 8.886719-6.363281 7.789062-11.765625l-17.273437-84.972656c-1.097656-5.402344-6.363281-8.886719-11.765625-7.792969-5.398438 1.097657-8.886719 6.367188-7.789062 11.765625l17.273437 84.976563c.960937 4.730469 5.121094 7.992187 9.769531 7.992187.65625 0 1.324219-.066406 1.996094-.203125zm0 0"/><path d="m377.089844 305.0625c-5.109375-2.058594-10.921875.414062-12.980469 5.527344l-20.609375 51.144531c-2.058594 5.109375.414062 10.921875 5.523438 12.980469 1.222656.496094 2.484374.726562 3.726562.726562 3.949219 0 7.691406-2.363281 9.257812-6.25l20.609376-51.144531c2.058593-5.113281-.414063-10.921875-5.527344-12.984375zm0 0"/><path d="m134.796875 403.578125c0 5.546875-4.496094 10.042969-10.042969 10.042969s-10.042968-4.496094-10.042968-10.042969c0-5.542969 4.496093-10.039063 10.042968-10.039063s10.042969 4.496094 10.042969 10.039063zm0 0"/><path d="m398.457031 276.957031c0 5.546875-4.496093 10.042969-10.039062 10.042969-5.546875 0-10.042969-4.496094-10.042969-10.042969 0-5.542969 4.496094-10.039062 10.042969-10.039062 5.542969 0 10.039062 4.496093 10.039062 10.039062zm0 0"/></svg>