<svg height="512pt" viewBox="0 -4 512.00185 512" width="512pt" xmlns="http://www.w3.org/2000/svg"><path d="m44.664062 105.542969 32.042969 10.628906 9.410157 32.421875c1.066406 3.671875 4.121093 6.417969 7.886718 7.085938.585938.105468 1.171875.15625 1.757813.15625 3.15625 0 6.171875-1.492188 8.085937-4.089844l20.007813-27.195313 33.746093 1.070313c3.839844.121094 7.375-1.9375 9.171876-5.308594 1.800781-3.371094 1.527343-7.46875-.699219-10.574219l-19.679688-27.433593 11.445313-31.761719c1.292968-3.597657.4375-7.617188-2.214844-10.367188-2.648438-2.753906-6.632812-3.761719-10.273438-2.601562l-32.171874 10.234375-26.671876-20.695313c-3.019531-2.34375-7.109374-2.769531-10.542968-1.101562-3.4375 1.671875-5.628906 5.148437-5.652344 8.96875l-.203125 33.761719-27.925781 18.96875c-3.160156 2.148437-4.828125 5.902343-4.304688 9.6875.527344 3.785156 3.15625 6.941406 6.785156 8.144531zm41.089844-23.160157c2.734375-1.855468 4.378906-4.9375 4.398438-8.242187l.113281-18.695313 14.773437 11.460938c2.609376 2.027344 6.046876 2.640625 9.199219 1.636719l17.816407-5.671875-6.335938 17.59375c-1.121094 3.109375-.640625 6.566406 1.285156 9.253906l10.898438 15.191406-18.6875-.589844c-3.328125-.105468-6.445313 1.421876-8.402344 4.082032l-11.082031 15.0625-5.214844-17.957032c-.921875-3.175781-3.34375-5.691406-6.480469-6.730468l-17.746094-5.886719zm0 0"/><path d="m507.601562 258.171875-28.234374-19.179687-.207032-34.132813c-.023437-3.820313-2.214844-7.296875-5.652344-8.96875-3.433593-1.667969-7.523437-1.242187-10.539062 1.101563l-26.964844 20.925781-32.527344-10.351563c-3.640624-1.15625-7.625-.152344-10.277343 2.601563-2.648438 2.753906-3.507813 6.769531-2.210938 10.367187l11.566407 32.113282-19.894532 27.734374c-2.226562 3.105469-2.496094 7.207032-.699218 10.578126 1.800781 3.371093 5.339843 5.433593 9.175781 5.304687l34.117187-1.078125 20.230469 27.492188c1.910156 2.597656 4.925781 4.089843 8.085937 4.089843.582032 0 1.167969-.050781 1.757813-.15625 3.761719-.667969 6.816406-3.414062 7.882813-7.085937l9.515624-32.777344 32.398438-10.746094c3.625-1.203125 6.253906-4.359375 6.78125-8.144531.523438-3.785156-1.144531-7.539063-4.304688-9.6875zm-46.207031 11.179687c-3.136719 1.042969-5.558593 3.558594-6.480469 6.730469l-5.316406 18.316407-11.300781-15.359376c-1.898437-2.578124-4.902344-4.089843-8.085937-4.089843-.105469 0-.214844 0-.320313.003906l-19.0625.601563 11.117187-15.496094c1.925782-2.683594 2.40625-6.144532 1.289063-9.25l-6.464844-17.945313 18.171875 5.785157c3.152344 1 6.589844.386718 9.199219-1.636719l15.066406-11.691407.113281 19.070313c.023438 3.304687 1.667969 6.386719 4.398438 8.242187l15.777344 10.714844zm0 0"/><path d="m372.703125 485.222656-53.59375-464.808594c-1.105469-9.496093-7.796875-17.203124-17.039063-19.640624-9.242187-2.429688-18.863281.976562-24.507812 8.695312l-275.550781 378.042969c-1.246094 1.710937-1.9687502 3.757812-2.00781275 5.871093-.25390625 13.039063 15.83984375 25.996094 52.28515575 42.460938 32.351563 14.617188 76.421876 29.578125 124.089844 42.132812 47.671875 12.558594 93.394532 21.242188 128.746094 24.460938 10.140625.921875 19.015625 1.390625 26.722656 1.390625 23.164063 0 35.726563-4.253906 40.046875-13.273437.789063-1.648438 1.015625-3.511719.808594-5.332032zm-22.945313-29.3125c-13.902343-8.460937-28.9375-15.109375-43.96875-21.28125-15.800781-6.488281-31.886718-12.273437-48.105468-17.625-10.0625-3.320312-20.179688-6.464844-30.34375-9.457031l109.324218-63.742187zm-55.988281-434.589844c.996094-1.363281 2.28125-1.371093 3.183594-1.132812s2.019531.875 2.21875 2.554688l6.960937 59.632812-99.359374 57.929688zm-116.613281 159.492188 131.519531-76.679688 11.453125 98.078126-110.199218 64.25c-4.789063 2.789062-6.40625 8.9375-3.613282 13.726562 2.792969 4.789062 8.9375 6.410156 13.726563 3.617188l102.628906-59.835938 11.453125 98.074219-133.707031 77.957031c-3.839844-1.023438-7.6875-2.027344-11.539063-3.007812-40.863281-10.433594-79.914062-17.914063-111.769531-21.433594-4.089844-.457032-8.183594-.851563-12.285156-1.191406l85.75-49.832032c4.792969-2.785156 6.417969-8.929687 3.632812-13.722656-2.785156-4.792969-8.925781-6.421875-13.722656-3.632812l-96.882813 56.296874zm121.871094 300.832031c-33.074219-3.632812-74.8125-11.828125-117.535156-23.082031-42.71875-11.25-83.082032-24.679688-113.65625-37.808594-29.898438-12.839844-41.296876-21.386718-45.511719-25.496094 6.0625-1.59375 12.539062-1.785156 18.769531-1.828124 13.863281-.105469 27.738281 1.265624 41.480469 2.996093 15.847656 1.996094 31.605469 4.683594 47.277343 7.765625 15.796876 3.105469 31.511719 6.628906 47.132813 10.511719 15.746094 3.917969 31.40625 8.160156 46.960937 12.78125 18.71875 5.5625 37.296876 11.640625 55.601563 18.457031 16.441406 6.121094 32.789063 12.753906 48.378906 20.832032 4.460938 2.3125 8.863281 4.757812 13.109375 7.453124 3.554688 2.257813 7.152344 4.679688 10.160156 7.652344-5.691406 1.5-19.824218 3.320313-52.167968-.234375zm0 0"/><path d="m190.242188 295.375c0 5.5625-4.511719 10.078125-10.078126 10.078125-5.566406 0-10.078124-4.515625-10.078124-10.078125 0-5.566406 4.511718-10.078125 10.078124-10.078125 5.566407 0 10.078126 4.511719 10.078126 10.078125zm0 0"/></svg>