<svg height="511pt" viewBox="-29 0 511 511.99998" width="511pt" xmlns="http://www.w3.org/2000/svg"><path d="m215.75 399.511719-8.933594-34.867188c-1.371094-5.351562-6.816406-8.574219-12.164062-7.207031-5.351563 1.371094-8.578125 6.816406-7.207032 12.167969l8.929688 34.867187c1.15625 4.515625 5.222656 7.519532 9.679688 7.519532.820312 0 1.65625-.101563 2.488281-.3125 5.351562-1.371094 8.578125-6.820313 7.207031-12.167969zm0 0"/><path d="m190.898438 337.347656c3.917968-1.628906 6.414062-5.648437 6.148437-9.878906-.265625-4.238281-3.296875-7.902344-7.386719-9.007812-3.792968-1.023438-7.984375.359374-10.417968 3.441406-2.601563 3.289062-2.855469 7.929687-.660157 11.492187 2.53125 4.105469 7.871094 5.808594 12.316407 3.953125zm0 0"/><path d="m439.667969 245.46875-12.484375-36.175781c-12.226563-35.414063-49-55.886719-85.546875-47.625-19.90625 4.5-36.59375 16.65625-46.980469 34.226562-10.386719 17.570313-12.992188 38.050781-7.339844 57.664063l45.207032 156.839844c9.320312 32.335937-8.207032 66.523437-39.902344 77.832031-16.515625 5.890625-34.25 4.828125-49.945313-2.996094-13.136719-6.546875-23.339843-17.105469-29.390625-30.1875 25.175782-6.847656 40.3125-32.753906 33.796875-58.097656l-34.277343-133.339844c-.007813-.035156-.015626-.070313-.023438-.105469l-17.609375-68.492187c6.742187-6.746094 12.6875-14.378907 17.667969-22.804688 15.503906-26.238281 19.867187-56.945312 12.277344-86.464843 0-.007813-.003907-.015626-.003907-.019532-.011719-.046875-.023437-.09375-.039062-.136718-7.613281-29.449219-26.222657-54.1875-52.414063-69.667969-26.234375-15.503907-56.941406-19.867188-86.460937-12.277344-56.539063 14.535156-92.320313 69.238281-84.671875 125.734375.007812.066406.015625.140625.027344.210938.59375 4.320312 1.429687 8.652343 2.542968 12.976562 10.40625 40.484375 41.40625 70.3125 78.910156 81.191406l51.929688 202.023438c5.550781 21.585937 25.046875 35.957031 46.375 35.957031 3.929688 0 7.929688-.488281 11.910156-1.511719l.453125-.117187c7.699219 18.746093 21.707031 33.867187 40.078125 43.027343 11.828125 5.894532 24.539063 8.867188 37.324219 8.867188 9.488281 0 19.023437-1.640625 28.261719-4.933594 41.625-14.847656 64.640625-59.742187 52.402344-102.207031l-45.210938-156.839844c-4.113281-14.269531-2.214844-29.164062 5.339844-41.949219 7.554687-12.78125 19.695312-21.625 34.175781-24.898437 26.585937-6.007813 53.339844 8.882813 62.230469 34.648437l12.484375 36.171876c1.800781 5.222656 7.496093 7.988281 12.714843 6.191406 5.222657-1.804688 7.992188-7.496094 6.191407-12.714844zm-348.492188-222.457031c7.828125-2.015625 15.683594-2.976563 23.417969-2.976563 39.558594 0 75.914062 25.179688 89.046875 63.675782-49.175781 29.179687-96.875 37.3125-128.792969 38.890624-25.101562 1.238282-44.511718-1.253906-54.1875-2.929687-2.601562-44.027344 26.238282-85.28125 70.515625-96.660156zm-66.910156 117.476562c8.996094 1.25 21.597656 2.449219 36.902344 2.449219 4.398437 0 9.023437-.097656 13.84375-.324219 33.1875-1.546875 82.203125-9.652343 133.1875-38.4375 2.179687 20.050781-2.132813 40.183594-12.574219 57.855469-4.964844 8.398438-11.09375 15.835938-18.140625 22.175781-5.285156 4.566407-10.832031 8.703125-16.941406 12.113281-6.261719 3.496094-12.929688 6.238282-19.8125 8.25-3.980469 1.164063-8.039063 2.070313-12.148438 2.648438-46.117187 6.964844-91.097656-21.320312-104.316406-66.730469zm90.359375 87.78125c17.632812-.003906 35.261719-4.183593 51.046875-12.042969 4.296875-2.136718 8.457031-4.550781 12.449219-7.21875l13.40625 52.148438c-10.605469 5.808594-20.972656 9.679688-35.667969 13.457031-12.398437 3.1875-25.09375 4.917969-37.796875 5.195313l-13.359375-51.972656c3.300781.277343 6.609375.433593 9.921875.433593zm39.683594 192.527344-31.148438-121.164063c12.675782-.59375 25.3125-2.472656 37.675782-5.648437 14.25-3.664063 25.199218-7.574219 35.808593-12.925781l31.070313 120.871094v-.003907c3.828125 14.886719-5.167969 30.113281-20.054688 33.9375l-19.414062 4.992188c-14.886719 3.824219-30.113282-5.171875-33.9375-20.058594zm0 0"/><path d="m453.175781 284.886719c-.84375-4.105469-4.21875-7.335938-8.378906-7.941407-4.183594-.605468-8.382813 1.582032-10.3125 5.332032-1.910156 3.710937-1.265625 8.351562 1.589844 11.402344 2.816406 3.007812 7.3125 3.960937 11.113281 2.394531 4.355469-1.792969 6.910156-6.570313 5.988281-11.1875zm0 0"/></svg>