<svg height="511pt" viewBox="-81 1 511 511.99997" width="511pt" xmlns="http://www.w3.org/2000/svg"><path d="m180.230469 319.914062c1.601562 3.847657 5.542969 6.386719 9.722656 6.167969 4.117187-.214843 7.761719-3.011719 9.027344-6.9375 1.277343-3.960937-.109375-8.46875-3.433594-10.992187-3.386719-2.570313-8.089844-2.71875-11.636719-.378906-3.945312 2.605468-5.457031 7.796874-3.679687 12.140624zm0 0"/><path d="m348.9375 204c-.648438-18.261719-15.734375-32.566406-34.339844-32.566406-.640625 0-1.277344 0-1.917968 0 .652343-5.480469.980468-10.996094.980468-16.515625 0-28.234375-8.425781-55.402344-24.371094-78.601563-13.207031-23.066406-31.632812-41.238281-54.773437-54.011718-18.851563-10.410157-40.886719-17.265626-65.496094-20.378907-42.757812-5.410156-81.433593 2.050781-92.265625 4.464844-4.53125 1.011719-7.773437 5.003906-7.824218 9.648437-.054688 4.640626 3.097656 8.710938 7.605468 9.820313 4.875 1.203125 8.003906 3.519531 9.839844 7.285156 2.886719 5.917969 1.210938 13.339844-4.070312 18.050781-29.554688 26.351563-46.503907 64.15625-46.503907 103.722657 0 5.515625.328125 11.035156.980469 16.515625-.640625 0-1.277344 0-1.917969 0-18.605469 0-33.691406 14.304687-34.339843 32.566406-.332032 9.265625 3.027343 18.03125 9.453124 24.691406 6.425782 6.660156 15.0625 10.328125 24.316407 10.328125h8.925781l16.710938 79.136719c.976562 4.625 5.058593 7.933594 9.78125 7.933594h16.675781l9.640625 152.195312c1.195312 18.90625 16.972656 33.714844 35.917968 33.714844h86.164063c18.941406 0 34.71875-14.808594 35.917969-33.714844l9.640625-152.195312h16.671875c4.726562 0 8.808594-3.308594 9.785156-7.933594l16.707031-79.136719h8.335938c9.253906 0 17.890625-3.667969 24.316406-10.328125s9.78125-15.425781 9.453125-24.691406zm-76.707031 102.089844h-42.765625c-5.523438 0-10 4.476562-10 10 0 5.523437 4.476562 10 10 10h14.160156l-9.558594 150.929687c-.53125 8.398438-7.542968 14.980469-15.957031 14.980469h-86.164063c-8.417968 0-15.425781-6.578125-15.957031-14.980469l-9.5625-150.929687h43.035157c5.523437 0 10-4.476563 10-10 0-5.523438-4.476563-10-10-10h-71.640626l-14.15625-67.046875h26.800782v8.367187c0 5.105469.832031 10.035156 3.066406 14.664063 5.027344 10.414062 15.691406 17.613281 28.003906 17.613281 14.457032 0 26.640625-9.921875 30.09375-23.316406 1.445313-5.597656.980469-11.59375.980469-17.328125h133.777344zm52.863281-91.289063c-2.625 2.71875-6.148438 4.21875-9.925781 4.21875h-172.558594c-5.523437 0-10 4.476563-10 10v19.597657c0 1.527343-.308594 2.980468-.871094 4.304687-.28125.664063-.625 1.292969-1.023437 1.882813-.195313.292968-.410156.578124-.636719.851562-2.03125 2.460938-5.105469 4.035156-8.539063 4.035156-3.4375 0-6.507812-1.574218-8.542968-4.035156-.226563-.273438-.4375-.558594-.636719-.851562-.398437-.589844-.742187-1.21875-1.023437-1.882813-.5625-1.324219-.871094-2.777344-.871094-4.304687v-19.597657c0-5.523437-4.476563-10-10-10h-66.171875c-3.777344 0-7.300781-1.5-9.925781-4.21875-2.621094-2.714843-3.992188-6.300781-3.855469-10.085937.257812-7.324219 6.699219-13.28125 14.351562-13.28125h13.675781c3.007813 0 5.859376-1.355469 7.757813-3.695313 1.902344-2.335937 2.644531-5.402343 2.03125-8.351562-1.675781-8.011719-2.523437-16.242188-2.523437-24.46875 0-33.871094 14.511718-66.234375 39.8125-88.792969 11.9375-10.648438 15.53125-27.8125 8.738281-41.746094-.378907-.777344-.785157-1.535156-1.214844-2.269531 43.140625-5.566406 128.691406-6.363281 168.984375 64.480469.144531.253906.300781.503906.46875.746094 13.78125 19.914062 21.066406 43.285156 21.066406 67.582031 0 8.226562-.847656 16.460937-2.523437 24.46875-.617188 2.945312.128906 6.015625 2.027343 8.351562 1.898438 2.339844 4.75 3.695313 7.761719 3.695313h13.671875c7.65625 0 14.09375 5.957031 14.355469 13.28125.132813 3.785156-1.238281 7.371094-3.859375 10.085937zm0 0"/><path d="m241.75 117.179688c-5.519531 0-10 4.480468-10 10v19.980468c0 4.628906-3.765625 8.394532-8.394531 8.394532-4.628907 0-8.394531-3.765626-8.394531-8.394532v-19.980468c0-5.519532-4.480469-10-10-10-5.523438 0-10 4.480468-10 10v19.980468c0 15.65625 12.738281 28.394532 28.394531 28.394532s28.398437-12.738282 28.398437-28.394532v-19.980468c0-5.519532-4.480468-10-10.003906-10zm0 0"/></svg>