<?xml version="1.0" encoding="iso-8859-1"?>
<!-- Generator: Adobe Illustrator 19.0.0, SVG Export Plug-In . SVG Version: 6.00 Build 0)  -->
<svg version="1.1" id="Capa_1" xmlns="http://www.w3.org/2000/svg" xmlns:xlink="http://www.w3.org/1999/xlink" x="0px" y="0px"
	 viewBox="0 0 480 480" style="enable-background:new 0 0 480 480;" xml:space="preserve">
<g>
	<g>
		<path d="M77.652,34.344L52.284,8.976c-11.96-11.96-31.352-11.96-43.312,0s-11.96,31.352,0,43.312L34.34,77.656
			c3.124,3.123,8.188,3.123,11.312,0l32-32C80.717,42.542,80.672,37.502,77.652,34.344z M39.996,60.688L20.284,40.976
			c-5.836-5.59-6.034-14.852-0.444-20.688s14.852-6.034,20.688-0.444c0.151,0.145,0.299,0.293,0.444,0.444L60.684,40L39.996,60.688z
			"/>
	</g>
</g>
<g>
	<g>
		<path d="M471.039,8.979C465.292,3.228,457.494-0.003,449.364,0c-8.128-0.024-15.928,3.209-21.656,8.976L402.34,34.344
			c-3.123,3.124-3.123,8.188,0,11.312l32,32c3.124,3.123,8.188,3.123,11.312,0l25.368-25.368
			C482.984,40.334,482.993,20.944,471.039,8.979z M460.152,40.531c-0.145,0.151-0.293,0.3-0.445,0.445l-19.712,19.712L419.308,40
			l19.712-19.712c5.59-5.836,14.852-6.035,20.688-0.445S465.742,34.696,460.152,40.531z"/>
	</g>
</g>
<g>
	<g>
		<path d="M389.508,66.2c-3.203-3.044-8.268-2.915-11.312,0.288L243.54,208.232L93.652,58.344c-3.178-3.07-8.242-2.982-11.312,0.196
			c-2.994,3.1-2.994,8.015,0,11.116l150.176,150.176l-6.32,6.656c-3.044,3.203-2.915,8.268,0.288,11.312
			c3.203,3.044,8.268,2.915,11.312-0.288l152-160C392.84,74.309,392.711,69.244,389.508,66.2z"/>
	</g>
</g>
<g>
	<g>
		<path d="M424.417,88.001c-0.004,0-0.009,0-0.013-0.001c-4.412-0.227-8.173,3.167-8.4,7.579c0,0.002,0,0.003,0,0.005L401.5,378.48
			c-4.054-3.843-8.484-7.269-13.224-10.224c-3.733-2.364-8.676-1.253-11.04,2.48c-2.364,3.733-1.253,8.676,2.48,11.04
			c9.256,5.848,20.28,15.144,20.28,26.224c0,26.488-65.712,56-160,56s-160-29.512-160-56c0-11.08,11.024-20.376,20.28-26.224
			c3.733-2.364,4.844-7.307,2.48-11.04c-2.364-3.733-7.307-4.844-11.04-2.48c-4.74,2.955-9.17,6.381-13.224,10.224L63.996,95.592
			c-0.221-4.418-3.982-7.821-8.4-7.6c-4.418,0.221-7.821,3.982-7.6,8.4l16,312c0,0.096,0.064,0.176,0.072,0.272
			C64.916,449.384,140.22,480,239.996,480s175.08-30.616,175.92-71.32c0-0.096,0.064-0.176,0.072-0.272l16-312
			C432.219,91.996,428.829,88.232,424.417,88.001z"/>
	</g>
</g>
<g>
	<g>
		<path d="M351.998,255.998c-0.843,0-1.681,0.133-2.482,0.394c-45.196,14.608-93.844,14.608-139.04,0
			c-4.201-1.37-8.716,0.925-10.086,5.126c-0.261,0.801-0.394,1.639-0.394,2.482v0.504c-23.447,2.281-47.11-0.471-69.408-8.072
			c-4.18-1.432-8.729,0.797-10.16,4.976c-0.286,0.834-0.432,1.71-0.432,2.592v68.6c0.008,12.893,2.929,25.618,8.544,37.224
			c7.783,16.021,20.519,29.109,36.32,37.328l15.472,8c2.299,1.185,5.029,1.185,7.328,0l15.472-8
			c4.084-2.154,7.978-4.651,11.64-7.464c10.122,16.258,24.609,29.345,41.808,37.768l19.904,9.744c2.216,1.083,4.808,1.083,7.024,0
			l19.896-9.728c19.67-9.611,35.717-25.307,45.76-44.76c7.099-13.894,10.811-29.27,10.832-44.872V264
			C359.997,259.582,356.416,255.999,351.998,255.998z M195.812,392.928L183.996,399l-11.816-6.072
			c-12.729-6.633-22.984-17.189-29.248-30.104c-4.558-9.424-6.929-19.756-6.936-30.224v-57.768c20.819,5.722,42.492,7.683,64,5.792
			v63.856c-14.982-1.538-30.093,1.209-43.576,7.92c-3.95,1.98-5.547,6.787-3.567,10.737c1.355,2.704,4.119,4.412,7.143,4.415
			c1.239,0.003,2.461-0.285,3.568-0.84c11.542-5.763,24.562-7.883,37.336-6.08c1.133,8.386,3.338,16.591,6.56,24.416
			C203.873,388.088,199.968,390.73,195.812,392.928z M343.996,347.84c-0.017,13.073-3.126,25.957-9.072,37.6
			c-8.464,16.372-21.981,29.58-38.544,37.664l-16.384,8l-16.384-8c-16.563-8.084-30.08-21.292-38.544-37.664
			c-5.946-11.643-9.055-24.527-9.072-37.6v-73.088c41.897,11.464,86.103,11.464,128,0V347.84z"/>
	</g>
</g>
<g>
	<g>
		<path d="M319.234,380.896c-1.945-3.967-6.737-5.607-10.705-3.662c-0.037,0.018-0.073,0.036-0.11,0.055
			c-17.905,8.896-38.943,8.896-56.848,0c-3.937-2.005-8.754-0.439-10.76,3.498c-2.005,3.937-0.439,8.754,3.498,10.76
			c0.036,0.019,0.073,0.037,0.11,0.055c22.408,11.146,48.744,11.146,71.152,0C319.539,389.656,321.179,384.863,319.234,380.896z"/>
	</g>
</g>
<g>
	<g>
		<path d="M319.996,312h-24c-4.418,0-8,3.582-8,8s3.582,8,8,8h24c4.418,0,8-3.582,8-8S324.414,312,319.996,312z"/>
	</g>
</g>
<g>
	<g>
		<path d="M263.996,312h-24c-4.418,0-8,3.582-8,8s3.582,8,8,8h24c4.418,0,8-3.582,8-8S268.414,312,263.996,312z"/>
	</g>
</g>
<g>
	<g>
		<path d="M175.996,304h-16c-4.418,0-8,3.582-8,8s3.582,8,8,8h16c4.418,0,8-3.582,8-8S180.414,304,175.996,304z"/>
	</g>
</g>
<g>
</g>
<g>
</g>
<g>
</g>
<g>
</g>
<g>
</g>
<g>
</g>
<g>
</g>
<g>
</g>
<g>
</g>
<g>
</g>
<g>
</g>
<g>
</g>
<g>
</g>
<g>
</g>
<g>
</g>
</svg>
