<?xml version="1.0" encoding="iso-8859-1"?>
<!-- Generator: Adobe Illustrator 19.0.0, SVG Export Plug-In . SVG Version: 6.00 Build 0)  -->
<svg version="1.1" id="Capa_1" xmlns="http://www.w3.org/2000/svg" xmlns:xlink="http://www.w3.org/1999/xlink" x="0px" y="0px"
	 viewBox="0 0 480.002 480.002" style="enable-background:new 0 0 480.002 480.002;" xml:space="preserve">
<g>
	<g>
		<path d="M475.465,414.559L269.441,65.151c-9.828-16.259-30.975-21.473-47.235-11.645c-4.767,2.882-8.764,6.878-11.645,11.645
			L4.537,414.559c-5.965,9.974-6.054,22.398-0.232,32.456c6.07,10.632,17.43,17.135,29.672,16.984h412.048
			c12.242,0.151,23.602-6.352,29.672-16.984C481.519,436.957,481.43,424.533,475.465,414.559z M461.801,439.079
			c-3.248,5.618-9.287,9.033-15.776,8.92H33.977c-6.489,0.113-12.528-3.302-15.776-8.92c-2.987-5.068-2.941-11.368,0.12-16.392
			L224.345,73.271c5.339-8.647,16.676-11.328,25.323-5.989c2.435,1.503,4.486,3.554,5.989,5.989l206.024,349.416
			C464.742,427.71,464.788,434.011,461.801,439.079z"/>
	</g>
</g>
<g>
	<g>
		<path d="M396.739,342.244c-10.584-14.038-27.157-22.279-44.738-22.245c-7.733,0.002-15.381,1.615-22.456,4.736
			c24.751-18.479,29.835-53.524,11.357-78.275c-15.584-20.874-43.516-28.224-67.357-17.725
			c24.766-18.526,29.824-53.62,11.298-78.386c-18.526-24.765-53.62-29.824-78.386-11.298c-24.766,18.526-29.824,53.62-11.298,78.386
			c3.207,4.287,7.011,8.091,11.298,11.298c-28.268-12.449-61.276,0.375-73.725,28.643c-10.499,23.84-3.148,51.772,17.725,67.357
			c-28.497-12.654-61.856,0.189-74.51,28.686s0.189,61.856,28.685,74.51c28.497,12.654,61.856-0.189,74.51-28.685
			c3.295-7.42,4.869-15.238,4.858-22.968c0.027,11.627,3.659,23.346,11.159,33.372c18.526,24.766,53.62,29.824,78.386,11.298
			c24.766-18.526,29.824-53.62,11.298-78.386c-3.207-4.287-7.011-8.091-11.298-11.298c14.305,6.314,30.607,6.314,44.912,0
			c-24.65,18.585-29.566,53.633-10.981,78.282c18.585,24.649,53.633,29.566,78.282,10.981
			C410.408,401.942,415.324,366.894,396.739,342.244z M200.001,183.999c0-22.091,17.909-40,40-40c22.091,0,40,17.909,40,40
			s-17.909,40-40,40C217.921,223.972,200.027,206.079,200.001,183.999z M251.059,313.337c3.228,4.331,7.067,8.17,11.398,11.398
			c-14.305-6.314-30.607-6.314-44.912,0c24.707-18.412,29.81-53.367,11.398-78.074c-3.228-4.331-7.067-8.17-11.398-11.398
			c14.305,6.314,30.607,6.314,44.912,0C237.75,253.675,232.647,288.63,251.059,313.337z M144.001,279.999c0-22.091,17.909-40,40-40
			s40,17.909,40,40c-0.026,22.08-17.92,39.974-40,40C161.91,319.999,144.001,302.09,144.001,279.999z M128.001,415.999
			c-22.091,0-40-17.909-40-40c0-22.091,17.909-40,40-40c22.08,0.026,39.974,17.92,40,40
			C168.001,398.09,150.092,415.999,128.001,415.999z M184.002,375.957c-0.121-17.156-8.068-33.838-22.457-44.694
			c14.305,6.314,30.607,6.314,44.912,0C191.81,342.22,184.06,358.973,184.002,375.957z M280.001,375.999c0,22.091-17.909,40-40,40
			c-22.091,0-40-17.909-40-40c0-22.091,17.909-40,40-40C262.081,336.025,279.975,353.918,280.001,375.999z M296.001,319.999
			c-22.091,0-40-17.909-40-40c0-22.091,17.909-40,40-40c22.091,0,40,17.909,40,40C335.975,302.079,318.081,319.972,296.001,319.999z
			 M352.001,415.999c-22.091,0-40-17.909-40-40c0-22.091,17.909-40,40-40c22.091,0,40,17.909,40,40
			C391.975,398.079,374.081,415.972,352.001,415.999z"/>
	</g>
</g>
<g>
	<g>
		<path d="M240.001,159.999c-4.418,0-8,3.582-8,8s3.582,8,8,8s8,3.582,8,8s3.582,8,8,8c4.418,0,8-3.582,8-8
			C264.001,170.744,253.256,159.999,240.001,159.999z"/>
	</g>
</g>
<g>
	<g>
		<path d="M296.001,255.999c-4.418,0-8,3.582-8,8s3.582,8,8,8s8,3.582,8,8s3.582,8,8,8s8-3.582,8-8
			C320.001,266.744,309.256,255.999,296.001,255.999z"/>
	</g>
</g>
<g>
	<g>
		<path d="M352.001,351.999c-4.418,0-8,3.582-8,8s3.582,8,8,8s8,3.582,8,8s3.582,8,8,8s8-3.582,8-8
			C376.001,362.744,365.256,351.999,352.001,351.999z"/>
	</g>
</g>
<g>
	<g>
		<path d="M197.657,42.343l-24-24c-3.009-3.008-7.846-3.134-11.008-0.288l-160,144c-1.685,1.517-2.647,3.677-2.648,5.944v64
			c-0.001,3.235,1.947,6.153,4.936,7.392c2.99,1.239,6.432,0.553,8.72-1.736l184-184C200.78,50.531,200.78,45.467,197.657,42.343z
			 M16.001,212.687v-41.128l126.448-113.8l14.24,14.24L16.001,212.687z M168.001,60.687l-13.648-13.648l13.36-12.016l12.976,12.976
			L168.001,60.687z"/>
	</g>
</g>
<g>
</g>
<g>
</g>
<g>
</g>
<g>
</g>
<g>
</g>
<g>
</g>
<g>
</g>
<g>
</g>
<g>
</g>
<g>
</g>
<g>
</g>
<g>
</g>
<g>
</g>
<g>
</g>
<g>
</g>
</svg>
