<svg height="511pt" viewBox="0 1 511 511.9995" width="511pt" xmlns="http://www.w3.org/2000/svg"><path d="m408.902344 320.921875c-2.40625-3.269531-6.542969-4.765625-10.480469-3.792969-3.941406.972656-6.90625 4.21875-7.515625 8.230469l-13.414062 88.144531c-5.808594-4.96875-13.023438-8.4375-21.121094-9.667968-23.109375-3.527344-44.777344 12.421874-48.296875 35.539062-3.515625 23.109375 12.425781 44.777344 35.539062 48.292969 2.152344.328125 4.289063.484375 6.40625.484375 20.4375 0 38.4375-14.855469 41.8125-35.585938.011719-.066406.027344-.128906.039063-.191406l.027344-.191406c.003906-.019532.007812-.035156.011718-.054688 0-.015625.003906-.03125.003906-.046875l15.179688-99.761719 26.445312 35.9375c3.285157 4.464844 9.566407 5.417969 14.027344 2.136719 4.460938-3.285156 5.414063-9.5625 2.132813-14.023437zm-62.269532 146.910156c-12.179687-1.851562-20.578124-13.265625-18.722656-25.441406 1.851563-12.175781 13.261719-20.574219 25.441406-18.722656 12.175782 1.851562 20.574219 13.265625 18.726563 25.4375l-.003906.007812c-1.855469 12.175781-13.261719 20.578125-25.441407 18.71875zm0 0"/><path d="m44.921875 85.523438 32.511719-20.003907-20.667969 86.773438c-.003906.011719-.007813.023437-.011719.03125 0 .011719-.003906.023437-.003906.035156l-.046875.183594c-.015625.0625-.019531.125-.035156.191406-4.765625 20.980469 8.28125 42.011719 29.261719 47.011719 3.054687.726562 6.109374 1.074218 9.121093 1.074218 17.804688 0 33.992188-12.1875 38.292969-30.25 5.035156-21.113281-8.054688-42.386718-29.167969-47.417968-6.824219-1.621094-13.65625-1.347656-19.957031.46875l18.34375-77.007813c.941406-3.945312-.589844-8.070312-3.875-10.449219-3.285156-2.378906-7.683594-2.546874-11.140625-.417968l-53.136719 32.691406c-4.71875 2.902344-6.191406 9.082031-3.289062 13.800781 2.90625 4.714844 9.082031 6.1875 13.800781 3.285157zm54.601563 57.144531c10.355468 2.46875 16.773437 12.898437 14.308593 23.253906-2.46875 10.355469-12.902343 16.773437-23.253906 14.308594-10.351563-2.46875-16.765625-12.886719-14.3125-23.238281l.007813-.03125c2.476562-10.347657 12.898437-16.761719 23.25-14.292969zm0 0"/><path d="m169.402344 409.769531c-3.917969-3.914062-10.269532-3.914062-14.1875 0-3.917969 3.917969-3.917969 10.269531 0 14.1875l11.347656 11.347657-8.191406 8.191406-89.371094-89.371094 8.191406-8.1875 21.277344 21.277344c3.917969 3.914062 10.269531 3.914062 14.1875 0 3.917969-3.917969 3.917969-10.269532 0-14.1875l-28.371094-28.371094c-3.917968-3.914062-10.265625-3.914062-14.1875 0l-22.375 22.378906c-1.882812 1.878906-2.9375 4.429688-2.9375 7.089844s1.054688 5.210938 2.9375 7.09375l103.554688 103.554688c1.882812 1.882812 4.433594 2.9375 7.09375 2.9375s5.210937-1.054688 7.09375-2.9375l22.375-22.375c3.917968-3.917969 3.917968-10.269532 0-14.1875zm0 0"/><path d="m124.671875 392.324219c1.628906 3.96875 5.800781 6.53125 10.082031 6.160156 4.1875-.359375 7.773438-3.339844 8.867188-7.398437 1.042968-3.859376-.398438-8.125-3.578125-10.550782-3.480469-2.652344-8.382813-2.726562-11.949219-.195312-3.742188 2.660156-5.183594 7.75-3.421875 11.984375zm0 0"/><path d="m508.710938 73.28125-3.792969-3.796875.480469-.332031c3.535156-2.464844 5.105468-6.914063 3.894531-11.046875l-11.082031-37.859375c-.960938-3.28125-3.527344-5.847656-6.808594-6.808594l-37.855469-11.078125c-4.179687-1.222656-8.679687.390625-11.125 4l-.253906.375-3.796875-3.796875c-3.917969-3.914062-10.265625-3.917969-14.1875 0-3.917969 3.917969-3.917969 10.265625 0 14.183594l6.527344 6.527344-3.503907 5.171874-7.359375-7.359374c-3.917968-3.917969-10.269531-3.917969-14.1875 0-3.917968 3.917968-3.917968 10.269531 0 14.1875l10.089844 10.089843-3.503906 5.167969-10.921875-10.921875c-3.917969-3.914063-10.265625-3.914063-14.1875 0-3.914063 3.917969-3.914063 10.269531 0 14.1875l13.652343 13.652344-8.085937 11.933593-27.695313 27.699219c-.003906 0-.007812.003907-.011718.007813l-28.359375 28.363281-30.21875 30.21875-10.199219-10.203125c-25.398438-25.394531-66.722656-25.394531-92.117188 0-.160156.160156-.316406.324219-.464843.496094l-10.289063 11.785156c-9.84375 11.273438-18.964844 22.78125-27.46875 33.605469-13.140625 16.726562-33.175781 27.894531-54.972656 30.640625-28.480469 3.589844-53.957031 15.914062-73.683594 35.636718-25.410156 25.410157-38.390625 60.128907-36.550781 97.761719 1.820313 37.261719 18 72.953125 45.550781 100.507813 27.554688 27.550781 63.246094 43.726562 100.507813 45.550781 2.351562.113281 4.683593.171875 7.011719.171875 34.914062 0 66.925781-12.898438 90.75-36.722656 19.875-19.878906 32.226562-45.574219 35.714843-74.308594 2.625-21.632812 13.898438-41.480469 30.929688-54.445312 8.167969-6.21875 16.898437-13.003907 25.425781-20.476563l19.613281-17.195313c.167969-.144531.324219-.292968.480469-.449218 12.304688-12.304688 19.078125-28.660156 19.078125-46.058594s-6.773437-33.753906-19.078125-46.058594l-10.203125-10.203125 1.847656-1.84375 84.488281-84.488281 11.746094-8.183594 12.945313 12.945313c1.957031 1.957031 4.523437 2.9375 7.089843 2.9375 2.570313 0 5.136719-.980469 7.09375-2.9375 3.917969-3.917969 3.917969-10.269531 0-14.1875l-10.410156-10.410157 5.109375-3.5625 9.636719 9.636719c1.960938 1.957031 4.527344 2.9375 7.09375 2.9375s5.132812-.980469 7.09375-2.9375c3.914062-3.917969 3.914062-10.269531 0-14.1875l-7.105469-7.101562 5.113281-3.5625 6.328126 6.328125c1.957031 1.957031 4.523437 2.9375 7.089843 2.9375 2.570313 0 5.136719-.980469 7.09375-2.9375 3.921875-3.917969 3.921875-10.265625.003907-14.183594zm-28.214844-42.132812 7.515625 25.667968-25.949219 18.082032c-.085938.054687-.164062.113281-.246094.171874l-34.335937 23.925782-14.058594-14.054688 8.679687-12.808594c.007813-.015624.019532-.03125.027344-.042968l14.921875-22.03125c.015625-.019532.03125-.042969.042969-.0625l14.929688-22.039063c.007812-.011719.015624-.023437.023437-.035156l2.882813-4.253906zm-80.027344 69.214843 11.667969 11.664063-14.1875 14.1875-11.664063-11.667969zm-56.742188 56.742188 11.667969 11.667969-14.1875 14.183593-11.664062-11.664062zm-78.023437 146.53125c-10.953125 13.324219-29.683594 18.289062-45.792969 12.0625-14.714844-5.6875-24.9375-19.890625-25.738281-35.621094-.796875-15.707031 7.84375-30.792969 21.847656-37.992187 8.152344-4.1875 17.671875-5.460938 26.648438-3.617188 8.664062 1.785156 16.585937 6.453125 22.375 13.140625 11.234375 12.96875 12.929687 32.285156 4.171875 47.03125-1.039063 1.753906-2.214844 3.421875-3.511719 4.996094zm32.949219-78.121094-15.980469 15.976563c-3.332031-4.390626-7.277344-8.332032-11.667969-11.664063l15.980469-15.980469zm14.183594-14.1875-11.664063-11.664063 14.183594-14.1875 11.667969 11.667969-1.847657 1.84375zm29.636718 19.144531c8.511719 8.511719 13.203125 19.832032 13.203125 31.871094 0 11.933594-4.609375 23.160156-12.984375 31.648438l-19.355468 16.96875c-8.066407 7.070312-16.472657 13.601562-24.351563 19.601562-21.316406 16.226562-35.417969 41.007812-38.691406 67.988281-2.941407 24.238281-13.3125 45.863281-29.988281 62.542969-21.355469 21.355469-50.695313 32.242188-82.59375 30.695312-32.273438-1.578124-63.277344-15.675781-87.300782-39.699218-24.023437-24.019532-38.121094-55.027344-39.699218-87.300782-1.558594-31.90625 9.339843-61.238281 30.699218-82.59375 16.542969-16.546874 37.988282-26.894531 62.007813-29.921874 26.988281-3.402344 51.859375-17.308594 68.234375-38.152344 8.339844-10.613282 17.28125-21.886719 26.808594-32.804688l10.050781-11.515625c17.59375-17.34375 46.019531-17.269531 63.519531.226563l10.199219 10.203125-12.339844 12.339843-27.644531 27.648438c-20.238282-6.273438-42.101563-1.554688-58.023438 12.710938-.144531.132812-.292968.261718-.4375.394531-.691406.632812-1.375 1.273437-2.039062 1.941406-23.570313 23.570313-23.570313 61.917969 0 85.492187 11.417968 11.417969 26.597656 17.703126 42.742187 17.703126 16.148438 0 31.328125-6.289063 42.746094-17.703126.667969-.667968 1.308594-1.351562 1.941406-2.039062.132813-.148438.265625-.296875.394531-.441406 14.269532-15.925782 18.984376-37.789063 12.714844-58.019532l27.644532-27.648437 12.339843-12.339844zm27.109375-75.886718-11.667969-11.667969 14.183594-14.183594 11.667969 11.667969zm0 0"/></svg>