<svg height="511pt" viewBox="-39 1 511 511.999" width="511pt" xmlns="http://www.w3.org/2000/svg"><path d="m413.542969 275.152344h-12.511719s0 0 0-.003906v-145.789063c0-10.855469-8.835938-19.6875-19.691406-19.6875h-70.046875v-20.4375c7.011719-2.304687 13.070312-7.015625 17.097656-13.53125 5.859375-9.476563 6.378906-21.078125 1.398437-31.039063l-19.558593-39.117187c-1.699219-3.398437-5.171875-5.546875-8.976563-5.546875-3.796875 0-7.273437 2.148438-8.972656 5.546875l-19.558594 39.117187c-4.980468 9.960938-4.460937 21.5625 1.394532 31.035157 4.03125 6.519531 10.089843 11.230469 17.101562 13.535156v20.433594h-64.128906v-20.433594c7.019531-2.304687 13.074218-7.015625 17.105468-13.535156 5.855469-9.472657 6.375-21.074219 1.394532-31.035157l-19.558594-39.117187c-1.699219-3.398437-5.171875-5.546875-8.976562-5.546875-3.800782 0-7.273438 2.148438-8.972657 5.546875l-19.558593 39.117187c-4.980469 9.960938-4.460938 21.5625 1.394531 31.035157 4.027343 6.519531 10.085937 11.230469 17.101562 13.535156v20.433594h-64.128906v-20.433594c7.015625-2.304687 13.074219-7.015625 17.101563-13.535156 5.855468-9.472657 6.378906-21.074219 1.398437-31.035157l-19.558594-39.117187c-1.699219-3.398437-5.171875-5.546875-8.972656-5.546875-3.804687 0-7.277344 2.148438-8.976563 5.546875l-19.558593 39.117187c-4.980469 9.960938-4.457031 21.5625 1.398437 31.035157 4.027344 6.519531 10.085938 11.230469 17.101563 13.535156v20.433594h-70.050781c-10.855469 0-19.6875 8.832031-19.6875 19.6875v145.792969.003906h-12.515626c-11.066406 0-20.070312 9.003906-20.070312 20.070312v196.707032c0 11.066406 9.003906 20.070312 20.070312 20.070312h392.972657c11.066406 0 20.070312-9.003906 20.070312-20.070312v-196.707032c0-11.066406-9.003906-20.070312-20.070312-20.070312zm-122.351563-210.003906c-2.203125-3.5625-2.390625-7.757813-.515625-11.507813l10.582031-21.164063 10.578126 21.164063c1.875 3.75 1.6875 7.945313-.515626 11.507813-2.203124 3.566406-5.871093 5.613281-10.0625 5.613281-4.195312 0-7.863281-2.046875-10.066406-5.613281zm-84.199218 0c-2.203126-3.5625-2.394532-7.757813-.519532-11.507813l10.582032-21.164063 10.582031 21.164063c1.875 3.75 1.6875 7.945313-.515625 11.507813-2.203125 3.566406-5.871094 5.613281-10.066406 5.613281-4.191407 0-7.859376-2.046875-10.0625-5.613281zm-84.199219 0c-2.203125-3.5625-2.390625-7.757813-.515625-11.507813l10.582031-21.164063 10.582031 21.164063c1.875 3.75 1.683594 7.945313-.519531 11.507813-2.203125 3.566406-5.871094 5.613281-10.0625 5.613281-4.195313 0-7.863281-2.046875-10.066406-5.613281zm-69.636719 64.589843h327.804688v14.277344h-1.824219c-12.691407 0-22.265625 13.796875-22.265625 32.089844 0 6.625-2.09375 10.753906-3.183594 12.015625h-1.1875c-1.089844-1.261719-3.1875-5.390625-3.1875-12.015625 0-18.292969-9.570312-32.089844-22.265625-32.089844h-2.617187c-12.695313 0-22.265626 13.796875-22.265626 32.089844 0 6.625-2.097656 10.753906-3.1875 12.015625h-1.1875c-1.089843-1.261719-3.1875-5.390625-3.1875-12.015625 0-18.292969-9.570312-32.089844-22.261718-32.089844h-2.621094c-12.691406 0-22.265625 13.796875-22.265625 32.089844 0 6.621093-2.09375 10.753906-3.183594 12.015625h-1.191406c-1.089844-1.261719-3.183594-5.390625-3.183594-12.015625 0-18.292969-9.570312-32.089844-22.265625-32.089844-12.695312 0-22.265625 13.796875-22.265625 32.089844 0 6.625-2.097656 10.753906-3.1875 12.015625h-1.1875c-1.089843-1.261719-3.183593-5.390625-3.183593-12.015625 0-18.292969-9.574219-32.089844-22.265626-32.089844h-2.621093c-12.691407 0-22.265625 13.796875-22.265625 32.089844 0 6.621093-2.09375 10.753906-3.183594 12.015625h-1.1875c-1.089844-1.261719-3.1875-5.390625-3.1875-12.015625 0-18.292969-9.570312-32.089844-22.265625-32.089844h-2.617187c-12.695313 0-22.265626 13.796875-22.265626 32.089844 0 6.625-2.097656 10.753906-3.1875 12.015625h-1.1875c-1.089843-1.261719-3.1875-5.390625-3.1875-12.015625 0-18.292969-9.570312-32.089844-22.261718-32.089844h-2.972656v-14.277344zm0 124.671875h200.863281c5.347657 0 10.011719-4.035156 10.359375-9.371094.378906-5.84375-4.25-10.699218-10.015625-10.699218h-201.207031v-70.257813c1.347656.003907 2.605469.757813 3.183594 1.976563.976562 2.074218 1.980468 5.460937 1.980468 10.042968 0 18.292969 9.570313 32.089844 22.265626 32.089844h3.167968c12.695313 0 22.265625-13.796875 22.265625-32.089844 0-6.625 2.097657-10.753906 3.1875-12.015624h.636719c1.089844 1.261718 3.183594 5.390624 3.183594 12.015624 0 18.292969 9.574218 32.089844 22.265625 32.089844h3.171875c12.691406 0 22.261718-13.796875 22.261718-32.089844 0-6.625 2.097657-10.753906 3.1875-12.015624h.636719c1.089844 1.261718 3.1875 5.390624 3.1875 12.015624 0 18.292969 9.570313 32.089844 22.265625 32.089844h3.167969c12.695313 0 22.265625-13.796875 22.265625-32.089844 0-4.914062 1.152344-8.457031 2.195312-10.472656 1.039063 2.015625 2.195313 5.558594 2.195313 10.472656 0 18.292969 9.570313 32.089844 22.261719 32.089844h3.171875c12.691406 0 22.265625-13.796875 22.265625-32.089844 0-6.625 2.09375-10.753906 3.183594-12.015624h.636718c1.09375 1.261718 3.1875 5.394531 3.1875 12.015624 0 18.292969 9.570313 32.089844 22.265625 32.089844h3.167969c12.695312 0 22.265625-13.796875 22.265625-32.089844 0-6.625 2.097656-10.753906 3.1875-12.015624h.632813c1.09375 1.261718 3.1875 5.390624 3.1875 12.015624 0 18.292969 9.574218 32.089844 22.265624 32.089844h3.167969c12.695313 0 22.265625-13.796875 22.265625-32.089844 0-6.625 2.097656-10.753906 3.1875-12.015624h.832032l.007812 70.253906h-46.003906c-5.34375 0-10.011719 4.03125-10.359375 9.367187-.378907 5.84375 4.253906 10.703125 10.015625 10.703125h46.347656v20.738282s-.003906 0-.011719 0h-327.800781zm360.386719 61.523438h-4.042969c-14 0-24.554688 15.570312-24.554688 36.21875 0 9.371094-3.316406 15.050781-4.902343 16.148437h-2.933594c-1.585937-1.097656-4.902344-6.777343-4.902344-16.148437 0-20.648438-10.554687-36.21875-24.554687-36.21875h-3.109375c-14 0-24.554688 15.570312-24.554688 36.21875 0 9.371094-3.316406 15.050781-4.902343 16.148437h-2.929688c-1.585938-1.097656-4.90625-6.777343-4.90625-16.148437 0-20.648438-10.554688-36.21875-24.554688-36.21875h-3.109374c-14 0-24.554688 15.570312-24.554688 36.21875 0 9.371094-3.316406 15.050781-4.902344 16.148437h-2.929687c-1.585938-1.097656-4.902344-6.777343-4.902344-16.148437 0-20.648438-10.558594-36.21875-24.558594-36.21875s-24.554687 15.570312-24.554687 36.21875c0 9.371094-3.316406 15.050781-4.902344 16.148437h-2.933594c-1.585937-1.097656-4.898437-6.777343-4.898437-16.148437 0-20.648438-10.558594-36.21875-24.558594-36.21875h-3.109375c-14 0-24.554688 15.570312-24.554688 36.21875 0 9.371094-3.316406 15.050781-4.902343 16.148437h-2.933594c-1.585937-1.097656-4.898437-6.777343-4.898437-16.148437 0-20.648438-10.558594-36.21875-24.558594-36.21875h-3.109375c-14 0-24.554688 15.570312-24.554688 36.21875 0 9.371094-3.316406 15.050781-4.902343 16.148437h-2.933594c-1.585938-1.097656-4.898438-6.777343-4.898438-16.148437 0-20.648438-10.558594-36.21875-24.558594-36.21875h-5.40625v-20.710938h392.972657zm-391.640625 20.070312c2.757812 0 5.296875 1.601563 6.375 4.140625 1.171875 2.773438 2.1875 6.828125 2.1875 12.007813 0 20.648437 10.554687 36.21875 24.554687 36.21875h3.765625c13.996094 0 24.554688-15.570313 24.554688-36.21875 0-9.375 3.316406-15.050782 4.902344-16.148438h2.273437c1.585937 1.09375 4.90625 6.773438 4.90625 16.148438 0 20.648437 10.554687 36.21875 24.554687 36.21875h3.761719c14 0 24.558594-15.570313 24.558594-36.21875 0-9.375 3.316406-15.050782 4.902344-16.148438h2.273437c1.585938 1.09375 4.90625 6.773438 4.90625 16.148438 0 20.648437 10.554688 36.21875 24.554688 36.21875h3.761718c14 0 24.558594-15.570313 24.558594-36.21875 0-8.613282 2.800782-14.109375 4.484375-15.792969 1.6875 1.683594 4.488281 7.179687 4.488281 15.792969 0 20.648437 10.554688 36.21875 24.554688 36.21875h3.761719c14 0 24.558593-15.570313 24.558593-36.21875 0-9.375 3.316407-15.050782 4.902344-16.148438h2.277344c1.585938 1.097656 4.898438 6.773438 4.898438 16.148438 0 20.648437 10.558593 36.21875 24.558593 36.21875h3.761719c14 0 24.558594-15.570313 24.558594-36.21875 0-9.375 3.316406-15.050782 4.902344-16.148438h2.277343c1.585938 1.097656 4.898438 6.773438 4.898438 16.148438 0 20.648437 10.558593 36.21875 24.558593 36.21875h3.761719c14 0 24.558594-15.570313 24.558594-36.21875 0-9.375 3.316406-15.050782 4.902344-16.148438h3.019531c.203125 0 .402344-.019531.605469-.023437l.007812 94.546875h-277.402343c-5.347657 0-10.011719 4.03125-10.359376 9.367187-.375 5.84375 4.253907 10.703125 10.015626 10.703125h277.746093l.003907 41.332032s-.003907 0-.011719 0h-392.972657v-41.332032h34.671876c5.34375 0 10.011718-4.035156 10.355468-9.371094.378906-5.84375-4.25-10.703124-10.015625-10.703124h-35.011719v-94.519532zm0 0"/><path d="m304.59375 244.277344c0 5.589844-4.527344 10.117187-10.117188 10.117187-5.585937 0-10.113281-4.527343-10.113281-10.117187 0-5.585938 4.527344-10.113282 10.113281-10.113282 5.589844 0 10.117188 4.527344 10.117188 10.113282zm0 0"/><path d="m105.683594 440.46875c0 5.585938-4.527344 10.117188-10.113282 10.117188-5.585937 0-10.117187-4.53125-10.117187-10.117188s4.53125-10.113281 10.117187-10.113281c5.585938 0 10.113282 4.527343 10.113282 10.113281zm0 0"/></svg>