<svg height="512pt" viewBox="-39 0 512 512" width="512pt" xmlns="http://www.w3.org/2000/svg"><path d="m432.746094 282.558594c-.320313-5.511719-5.042969-9.710938-10.566406-9.394532-5.515626.320313-9.722657 5.054688-9.398438 10.566407.074219 1.261719.117188 2.535156.167969 3.804687-29.394531 6.765625-59.140625 11.988282-89.082031 15.664063.164062-28.039063-1.546876-56.433594-5.148438-84.84375-.074219-.585938-.148438-1.167969-.226562-1.753907 24.152343-3.195312 48.152343-7.542968 71.898437-12.996093 1.457031 2.75 2.855469 5.539062 4.1875 8.371093 2.351563 5 8.304687 7.144532 13.304687 4.800782 5-2.347656 7.148438-8.300782 4.800782-13.300782-17.242188-36.707031-44.386719-67.796874-78.496094-89.902343-21.351562-13.835938-44.804688-23.6875-69.359375-29.28125-3.109375-20.226563-18.617187-36.421875-38.496094-40.554688v-33.738281c0-5.523438-4.476562-10-10-10-5.523437 0-10 4.476562-10 10v33.738281c-19.914062 4.140625-35.441406 20.382813-38.511719 40.664063-24.222656 5.574218-47.371093 15.296875-68.472656 28.90625-29.058594 18.738281-53.09375 44.003906-70.292968 73.710937-.007813.015625-.015626.03125-.027344.046875-2.917969 5.050782-5.648438 10.222656-8.167969 15.519532-13.839844 29.125-20.859375 60.367187-20.859375 92.851562 0 57.847656 22.527344 112.230469 63.429688 153.132812 40.90625 40.90625 95.285156 63.429688 153.128906 63.429688 57.847656 0 112.230468-22.527344 153.132812-63.429688 40.90625-40.90625 63.429688-95.289062 63.429688-153.132812 0-4.28125-.125-8.613281-.375-12.878906zm-20.042969 25.5625c-1.890625 29.527344-10.320313 57.296875-23.867187 81.875-24.414063 5.707031-49.113282 10.191406-73.976563 13.425781 3.414063-19.167969 5.871094-38.667969 7.347656-58.425781.53125-7.144532.929688-14.324219 1.207031-21.53125 29.996094-3.609375 59.8125-8.722656 89.289063-15.34375zm-186.144531 183.625v-61.925782c21.09375-.269531 42.175781-1.417968 63.175781-3.40625-4.3125 18.820313-9.785156 37.980469-16.636719 57.285157-14.855468 4.46875-30.441406 7.238281-46.539062 8.046875zm-66.535156-8.046875c-6.851563-19.304688-12.328126-38.46875-16.636719-57.285157 21 1.988282 42.082031 3.132813 63.171875 3.40625v61.925782c-16.09375-.808594-31.679688-3.578125-46.535156-8.046875zm-139.605469-175.578125c29.476562 6.621094 59.292969 11.734375 89.285156 15.34375.28125 7.207031.679687 14.386718 1.210937 21.53125 1.472657 19.757812 3.933594 39.257812 7.347657 58.425781-24.867188-3.234375-49.5625-7.71875-73.976563-13.425781-13.546875-24.578125-21.976562-52.347656-23.867187-81.875zm109.488281 17.527344c25.476562 2.480468 51.058594 3.875 76.652344 4.164062v79.910156c-22.53125-.292968-45.046875-1.582031-67.460938-3.871094-5.257812-27.921874-8.070312-54.886718-9.191406-80.203124zm4.257812-104.15625c.105469-.847657.214844-1.6875.324219-2.527344 23.941407 2.546875 48 3.984375 72.070313 4.292968v86.441407c-25.78125-.292969-51.550782-1.714844-77.210938-4.265625-.335937-31.578125 1.816406-60.066406 4.816406-83.941406zm64.640626-121.800782c2.582031-.230468 5.167968-.414062 7.753906-.546875v104.015625c-23.101563-.300781-46.191406-1.652344-69.171875-4.054687 7.753906-47.785157 18.820312-81.382813 22.496093-91.78125 12.59375-3.824219 25.625-6.410157 38.921876-7.632813zm31.644531-.316406c1.273437.085938 2.539062.195312 3.808593.308594 13.320313 1.214844 26.371094 3.800781 38.976563 7.625 3.671875 10.359375 14.734375 43.886718 22.5 91.796875-22.980469 2.402343-46.070313 3.753906-69.175781 4.054687v-104.011718c1.300781.066406 2.597656.132812 3.890625.226562zm-3.890625 310.347656v-79.910156c25.597656-.289062 51.179687-1.683594 76.65625-4.164062-1.121094 25.324218-3.933594 52.285156-9.191406 80.203124-22.414063 2.289063-44.933594 3.578126-67.464844 3.871094zm72.320312-188.851562c3.042969 24.035156 5.234375 52.742187 4.890625 84.5625-25.65625 2.550781-51.425781 3.972656-77.210937 4.265625v-86.441407c24.074218-.308593 48.132812-1.75 72.074218-4.292968.082032.632812.164063 1.265625.246094 1.90625zm80.65625-35.320313c-21.128906 4.65625-42.460937 8.398438-63.914062 11.214844-5.679688-35.449219-13.082032-63.207031-18.355469-80.421875 32.992187 14.921875 61.667969 38.789062 82.269531 69.207031zm-163.203125-122.839843c12.027344 0 22.371094 7.34375 26.785157 17.785156-13.890626-1.695313-27.933594-2.050782-41.894532-1.074219-3.910156.273437-7.816406.648437-11.703125 1.132813 4.394531-10.472657 14.757813-17.84375 26.8125-17.84375zm-80.484375 53.65625c-5.273437 17.214843-12.671875 44.964843-18.347656 80.398437-21.453125-2.816406-42.78125-6.558594-63.910156-11.214844 20.597656-30.394531 49.28125-54.257812 82.257812-69.183593zm-96.925781 94.804687c1.214844-2.558594 2.492187-5.078125 3.808594-7.566406 23.746093 5.453125 47.746093 9.800781 71.898437 12.996093-.078125.585938-.152344 1.167969-.226562 1.753907-3.601563 28.410156-5.3125 56.804687-5.148438 84.84375-29.941406-3.675781-59.6875-8.898438-89.085937-15.667969 1.039062-26.652344 7.324219-52.308594 18.753906-76.359375zm20.886719 202.722656c20.699218 4.261719 41.574218 7.679688 62.550781 10.242188 3.726563 17.160156 8.230469 34.023437 13.515625 50.53125-30.164062-13.632813-56.292969-34.671875-76.066406-60.773438zm237.4375 60.773438c5.285156-16.507813 9.789062-33.371094 13.515625-50.53125 20.976562-2.5625 41.851562-5.980469 62.550781-10.242188-19.773438 26.101563-45.902344 47.140625-76.066406 60.773438zm0 0"/><path d="m411.5 236.402344c-3.488281 2.285156-5.152344 6.71875-4.144531 10.742187 1 3.988281 4.464843 7.039063 8.550781 7.503907 4.160156.472656 8.25-1.761719 10.105469-5.511719 1.824219-3.695313 1.144531-8.246094-1.664063-11.257813-3.296875-3.53125-8.839844-4.144531-12.847656-1.476562zm0 0"/></svg>