<svg height="512pt" viewBox="-43 0 512 512" width="512pt" xmlns="http://www.w3.org/2000/svg"><path d="m416.800781 115.171875v-105.171875h-406.800781v105.171875" fill="#c8f5ff"/><path d="m10 449.921875c0 28.761719 23.316406 52.078125 52.078125 52.078125h302.644531c28.761719 0 52.078125-23.316406 52.078125-52.078125zm0 0" fill="#c8f5ff"/><path d="m50.140625 115.171875h-40.140625v334.75h406.800781v-334.75h-286.902343" fill="#f5c86e"/><path d="m416.796875 0h-406.796875c-5.523438 0-10 4.476562-10 10v439.921875c0 34.230469 27.847656 62.078125 62.078125 62.078125h302.644531c34.226563 0 62.078125-27.847656 62.078125-62.078125v-439.921875c-.003906-5.523438-4.480469-10-10.003906-10zm-10 20v85.171875h-34.925781l-32.386719-32.386719c-10.878906-10.878906-28.582031-10.878906-39.460937 0l-32.382813 32.386719h-137.742187c-5.523438 0-10 4.476563-10 10s4.476562 10 10 10h117.742187l-.863281.863281c-5.269532 5.269532-8.171875 12.277344-8.171875 19.730469s2.902343 14.460937 8.171875 19.730469l53.246094 53.246094c5.273437 5.269531 12.277343 8.171874 19.734374 8.171874 7.453126 0 14.460938-2.898437 19.726563-8.171874l53.25-53.246094c5.269531-5.269532 8.171875-12.277344 8.171875-19.730469s-2.902344-14.460937-8.171875-19.730469l-.863281-.863281h14.925781v314.75h-386.796875v-314.75h30.144531c5.519531 0 10-4.476563 10-10s-4.480469-10-10-10h-30.144531v-85.171875zm-28.203125 120.179688c1.492188 1.492187 2.3125 3.476562 2.3125 5.585937 0 2.113281-.820312 4.097656-2.3125 5.589844l-53.25 53.246093c-1.492188 1.492188-3.476562 2.316407-5.585938 2.316407-2.113281 0-4.097656-.824219-5.589843-2.316407l-53.246094-53.246093c-1.492187-1.492188-2.316406-3.476563-2.316406-5.589844 0-2.109375.824219-4.09375 2.316406-5.589844l15.003906-15.003906h87.664063zm-82.667969-35.007813 18.242188-18.242187c3.082031-3.082032 8.09375-3.082032 11.175781 0l18.242188 18.242187zm68.796875 386.828125h-302.644531c-19.757813 0-36.378906-13.6875-40.878906-32.078125h384.398437c-4.5 18.390625-21.117187 32.078125-40.875 32.078125zm0 0"/><path d="m80.6875 118.996094c1.574219 3.832031 5.5 6.320312 9.632812 6.160156 4.214844-.160156 7.941407-3.050781 9.167969-7.082031 1.195313-3.925781-.203125-8.339844-3.472656-10.835938-3.367187-2.570312-8.109375-2.734375-11.636719-.382812-3.917968 2.613281-5.5 7.789062-3.691406 12.140625zm0 0"/><path d="m294.613281 170.90625 18.070313 18.070312c1.875 1.875 4.421875 2.929688 7.074218 2.929688 2.648438 0 5.195313-1.054688 7.070313-2.929688l15.859375-15.863281c3.90625-3.902343 3.90625-10.234375 0-14.140625-3.902344-3.90625-10.234375-3.90625-14.140625 0l-8.792969 8.789063-10.996094-10.996094c-3.90625-3.90625-10.238281-3.90625-14.144531 0-3.902343 3.90625-3.902343 10.238281 0 14.140625zm0 0"/><path d="m59.441406 290.417969c2.496094 7.023437 7.578125 12.652343 14.3125 15.851562l96.984375 46.09375c3.855469 1.832031 7.921875 2.699219 11.933594 2.699219 10.441406 0 20.472656-5.886719 25.246094-15.925781l46.089843-96.984375c6.605469-13.894532.671876-30.574219-13.226562-37.179688l-96.980469-46.089844c-6.730469-3.199218-14.304687-3.585937-21.332031-1.089843-7.019531 2.496093-12.648438 7.582031-15.851562 14.3125l-46.089844 96.984375c-3.199219 6.730468-3.585938 14.304687-1.085938 21.328125zm19.148438-12.742188 46.09375-96.984375c.90625-1.90625 2.5-3.347656 4.488281-4.054687 1.988281-.710938 4.132813-.597657 6.042969.308593l96.980468 46.089844c3.9375 1.871094 5.617188 6.597656 3.746094 10.53125l-46.089844 96.984375c-.90625 1.90625-2.5 3.347657-4.488281 4.054688-1.992187.707031-4.136719.597656-6.042969-.308594l-96.984374-46.09375c-1.90625-.902344-3.347657-2.5-4.054688-4.488281-.707031-1.988282-.597656-4.132813.308594-6.039063zm0 0"/><path d="m172.6875 320.074219c1.386719.65625 2.847656.96875 4.289062.96875 3.738282 0 7.324219-2.105469 9.039063-5.710938l10.871094-22.875c2.371093-4.988281.25-10.953125-4.738281-13.324219-4.988282-2.367187-10.953126-.246093-13.324219 4.738282l-10.875 22.878906c-2.371094 4.988281-.25 10.953125 4.738281 13.324219zm0 0"/><path d="m120.832031 235.390625c1.386719.65625 2.847657.96875 4.285157.96875 3.742187 0 7.328124-2.105469 9.039062-5.710937l8.140625-17.121094 14.058594 6.683594c4.988281 2.367187 10.953125.246093 13.324219-4.742188 2.371093-4.988281.25-10.953125-4.738282-13.324219l-23.09375-10.972656c-2.394531-1.140625-5.144531-1.277344-7.644531-.390625s-4.542969 2.734375-5.679687 5.128906l-12.429688 26.15625c-2.371094 4.988282-.25 10.953125 4.738281 13.324219zm0 0"/><path d="m248.9375 318.1875c-3.199219 6.730469-3.585938 14.304688-1.089844 21.328125l19.976563 56.160156c4.0625 11.417969 14.839843 18.554688 26.320312 18.554688 3.09375 0 6.242188-.519531 9.324219-1.613281l56.160156-19.980469c7.023438-2.496094 12.652344-7.578125 15.851563-14.3125 3.199219-6.730469 3.585937-14.304688 1.085937-21.328125l-19.976562-56.160156c-2.496094-7.023438-7.578125-12.652344-14.3125-15.851563-6.730469-3.199219-14.304688-3.585937-21.328125-1.089844l-56.164063 19.976563c-7.019531 2.5-12.648437 7.582031-15.847656 14.316406zm18.0625 8.582031c.90625-1.90625 2.5-3.34375 4.488281-4.050781l56.164063-19.980469c1.988281-.707031 4.136718-.597656 6.042968.308594s3.34375 2.503906 4.050782 4.492187l19.980468 56.160157c.707032 1.988281.597657 4.136719-.308593 6.039062-.90625 1.90625-2.5 3.347657-4.492188 4.054688l-56.160156 19.980469c-4.105469 1.460937-8.632813-.695313-10.09375-4.800782l-19.980469-56.160156c-.707031-1.988281-.597656-4.132812.308594-6.042969zm0 0"/><path d="m301.460938 380.878906c1.109374 0 2.242187-.191406 3.351562-.582031l13.3125-4.734375c5.203125-1.851562 7.921875-7.570312 6.070312-12.773438-1.851562-5.203124-7.570312-7.921874-12.773437-6.070312l-13.3125 4.734375c-5.203125 1.851563-7.921875 7.570313-6.070313 12.773437 1.457032 4.09375 5.308594 6.652344 9.421876 6.652344zm0 0"/></svg>