<?xml version="1.0" encoding="iso-8859-1"?>
<!-- Generator: Adobe Illustrator 19.0.0, SVG Export Plug-In . SVG Version: 6.00 Build 0)  -->
<svg version="1.1" id="Capa_1" xmlns="http://www.w3.org/2000/svg" xmlns:xlink="http://www.w3.org/1999/xlink" x="0px" y="0px"
	 viewBox="0 0 480.029 480.029" style="enable-background:new 0 0 480.029 480.029;" xml:space="preserve">
<g>
	<g>
		<path d="M440.006,0.031c-0.652,0-1.301,0.08-1.934,0.238l-96,24c-3.563,0.889-6.063,4.088-6.064,7.76v62.56
			c-7.254-4.331-15.552-6.599-24-6.56c-22.056,0-40,14.352-40,32s17.944,32,40,32c22.056,0,40-14.352,40-32V38.277l80-20v76.312
			c-7.254-4.331-15.552-6.599-24-6.56c-22.056,0-40,14.352-40,32s17.944,32,40,32c22.056,0,40-14.352,40-32v-112
			C448.007,3.611,444.425,0.03,440.006,0.031z M312.009,136.029c-13.008,0-24-7.328-24-16s10.992-16,24-16s24,7.328,24,16
			S325.017,136.029,312.009,136.029z M408.009,136.029c-13.008,0-24-7.328-24-16s10.992-16,24-16s24,7.328,24,16
			S421.017,136.029,408.009,136.029z"/>
	</g>
</g>
<g>
	<g>
		<path d="M471.609,165.485c-1.396-4.197-5.931-6.468-10.128-5.072l-24,8c-3.277,1.091-5.483,4.162-5.472,7.616v63.504
			c-5.014-2.32-10.475-3.516-16-3.504c-17.944,0-32,11.424-32,26s14.056,26,32,26c14.063,1.073,27.035-7.613,31.4-21.024
			c0.388-0.945,0.592-1.955,0.6-2.976v-82.232l18.528-6.184C470.734,174.217,473.005,169.682,471.609,165.485z M416.009,272.029
			c-9.432,0-16-5.272-16-10c0-4.728,6.568-10,16-10s16,5.272,16,10C432.009,266.757,425.441,272.029,416.009,272.029z"/>
	</g>
</g>
<g>
	<g>
		<path d="M133.665,330.373c-3.124-3.123-8.188-3.123-11.312,0l-24,24c-3.178,3.069-3.266,8.134-0.196,11.312
			c3.069,3.178,8.134,3.266,11.312,0.196c0.067-0.064,0.132-0.13,0.196-0.196l24-24
			C136.788,338.561,136.788,333.497,133.665,330.373z"/>
	</g>
</g>
<g>
	<g>
		<path d="M173.468,330.373c-3.1-2.994-8.015-2.994-11.116,0l-24,24c-3.178,3.069-3.266,8.134-0.196,11.312
			c3.069,3.178,8.134,3.266,11.312,0.196c0.067-0.064,0.132-0.13,0.196-0.196l24-24
			C176.734,338.507,176.646,333.442,173.468,330.373z"/>
	</g>
</g>
<g>
	<g>
		<path d="M469.665,386.373L358.809,275.517c6.38-30.231-12.956-59.91-43.187-66.29c-18.756-3.958-38.233,1.963-51.613,15.69
			v-46.816c0-0.56-0.072-1.112-0.08-1.672c0-0.136,0.08-0.256,0.08-0.4c-0.033-0.221-0.078-0.44-0.136-0.656
			c-1.066-54.266-36.3-101.937-87.864-118.88V8.029c-0.001-4.418-3.584-7.999-8.003-7.997c-2.807,0.001-5.407,1.472-6.854,3.878
			l-27.792,46.32c-11.227,0.207-22.378,1.885-33.168,4.992L70.953,4.029c-2.194-3.835-7.081-5.166-10.917-2.972
			c-2.499,1.43-4.037,4.092-4.028,6.972v70.216c-3.739,2.978-7.31,6.162-10.696,9.536c-23.27,23.279-36.595,54.682-37.168,87.592
			c-0.058,0.216-0.103,0.435-0.136,0.656c0,0.144,0.072,0.264,0.08,0.4c0,0.56-0.08,1.112-0.08,1.672v293.928c0,4.418,3.582,8,8,8
			s8-3.582,8-8v-28.8c6.663,6.249,15.003,10.419,24,12v16.8c0,4.418,3.582,8,8,8h56c4.418,0,8-3.582,8-8v-16h24v16
			c0,4.418,3.582,8,8,8h56c4.418,0,8-3.582,8-8v-16.536c11.648-1.397,22.703-5.91,32-13.064v29.6c0,4.418,3.582,8,8,8
			c4.418,0,8-3.582,8-8V303.141c13.336,13.714,32.771,19.635,51.488,15.688l60.512,60.512v92.688c0,4.418,3.582,8,8,8s8-3.582,8-8
			v-76.688l34.344,34.344c3.124,3.123,8.188,3.123,11.312,0l32-32C472.788,394.561,472.788,389.497,469.665,386.373z
			 M160.009,36.909v79.808l-29.928-29.928L160.009,36.909z M72.009,38.157l12.912,22.592c-4.425,1.952-8.736,4.153-12.912,6.592
			V38.157z M56.649,99.069c17.902-18.054,41.455-29.423,66.728-32.208l-10.224,17.048c-1.891,3.148-1.396,7.179,1.2,9.776l48,48
			c1.5,1.5,3.534,2.344,5.656,2.344c1.052,0.003,2.093-0.203,3.064-0.608c2.989-1.239,4.937-4.157,4.936-7.392v-62.4
			c39.991,15.118,67.786,51.809,71.512,94.4H24.497C26.772,141.977,38.156,117.56,56.649,99.069z M164.697,232.029h-9.376
			l-11.312-11.312v-36.688h64v4.688L164.697,232.029z M208.009,211.341v20.688h-20.688L208.009,211.341z M64.009,188.717v-4.688h64
			v36.688l-11.312,11.312h-9.376L64.009,188.717z M84.697,232.029H64.009v-20.688L84.697,232.029z M104.009,464.029h-40v-32h40
			V464.029z M200.009,464.029h-40v-32h40V464.029z M248.009,420.717l-4.688,4.688c-7.404,7.413-16.965,12.292-27.312,13.936v-15.312
			c0-4.418-3.582-8-8-8h-56c-4.418,0-8,3.582-8,8v16h-24v-16c0-4.418-3.582-8-8-8h-56c-4.418,0-8,3.582-8,8v14.784
			c-5.147-1.357-9.853-4.028-13.656-7.752l-4.688-4.688c-1.5-1.5-3.534-2.344-5.656-2.344v-240h24v56c0,4.418,3.582,8,8,8h64
			c2.122,0,4.156-0.844,5.656-2.344l10.344-10.344l10.344,10.344c1.5,1.5,3.534,2.344,5.656,2.344h64c4.418,0,8-3.582,8-8v-56h24
			V420.717z M264.009,264.029c0.026-22.08,17.92-39.974,40-40c9.544,1.048,18.637,4.618,26.344,10.344l-56,56
			C268.627,282.666,265.056,273.573,264.009,264.029z M304.009,304.029c-5.815-0.031-11.551-1.345-16.8-3.848l52.952-52.952
			c2.503,5.249,3.817,10.985,3.848,16.8C343.982,286.109,326.089,304.002,304.009,304.029z M432.009,412.717L331.841,312.549
			c8.599-4.951,15.737-12.089,20.688-20.688l100.168,100.168L432.009,412.717z"/>
	</g>
</g>
<g>
</g>
<g>
</g>
<g>
</g>
<g>
</g>
<g>
</g>
<g>
</g>
<g>
</g>
<g>
</g>
<g>
</g>
<g>
</g>
<g>
</g>
<g>
</g>
<g>
</g>
<g>
</g>
<g>
</g>
</svg>
