<svg height="512pt" viewBox="0 -8 512 511" width="512pt" xmlns="http://www.w3.org/2000/svg"><path d="m439.789062 103.390625-40.328124-12.25c-27.175782-8.257813-56.410157-2.234375-78.199219 16.105469-21.390625 18.007812-32.117188 45.195312-28.695313 72.738281.105469.851563.226563 1.703125.355469 2.558594.707031 4.574219 4.453125 8.066406 9.0625 8.445312.457031.035157 4.847656.382813 11.859375.382813 11.519531 0 30.109375-.933594 49.945312-5.683594 43.902344-10.511719 72.5-34.699219 82.699219-69.949219 1.519531-5.257812-1.464843-10.757812-6.699219-12.347656zm-80.195312 62.738281c-19.175781 4.648438-37.464844 5.296875-47.648438 5.214844-.519531-18.796875 7.378907-36.320312 22.195313-48.796875 16.585937-13.964844 38.832031-18.550781 59.507813-12.269531l30.261718 9.191406c-10.175781 23.085938-31.765625 38.761719-64.316406 46.660156zm0 0"/><path d="m190.738281 107.246094c-21.789062-18.339844-51.023437-24.359375-78.199219-16.105469l-40.328124 12.25c-5.234376 1.589844-8.21875 7.089844-6.699219 12.347656 10.199219 35.25 38.796875 59.4375 82.699219 69.953125 19.839843 4.75 38.425781 5.679688 49.945312 5.679688 7.007812 0 11.402344-.34375 11.859375-.382813 4.609375-.378906 8.355469-3.871093 9.0625-8.441406.132813-.855469.25-1.710937.355469-2.5625 0-.003906 0-.003906 0-.007813 3.421875-27.535156-7.304688-54.722656-28.695313-72.730468zm-102.636719 12.21875 30.25-9.1875c20.671876-6.28125 42.917969-1.691406 59.507813 12.269531 14.820313 12.476563 22.714844 30 22.199219 48.796875-23.558594.214844-90.539063-3.648438-111.957032-51.878906zm0 0"/><path d="m256 118.996094c-5.523438 0-10 4.476562-10 10v79.253906c0 5.523438 4.476562 10 10 10s10-4.476562 10-10v-79.253906c0-5.523438-4.476562-10-10-10zm0 0"/><path d="m511.964844 105.308594c.082031-7.113282-.261719-14.167969-1.054688-21.117188-1.414062-12.351562-7.851562-23.851562-17.667968-31.542968-10.378907-8.132813-19.078126-16.484376-28.289063-25.332032-5.226563-5.015625-10.628906-10.203125-16.402344-15.390625-9.242187-8.304687-21.632812-12.394531-33.984375-11.230469-.207031.019532-.417968.042969-.625.078126-104.800781 16.597656-211.078125 16.597656-315.878906 0-.210938-.035157-.417969-.058594-.628906-.078126-12.351563-1.164062-24.742188 2.929688-33.980469 11.230469-5.773437 5.1875-11.179687 10.375-16.402344 15.390625-9.214843 8.847656-17.914062 17.199219-28.289062 25.332032-9.820313 7.691406-16.257813 19.191406-17.671875 31.542968-.792969 6.953125-1.136719 14.003906-1.0546878 21.117188l-.0351562 134.890625c0 15.808593 5.65625 29.894531 11.125 43.515625 2.8125 7.015625 5.476562 13.644531 7.21875 20.164062 1.839844 6.878906 2.898438 14.164063 4.023438 21.875 2.105468 14.402344 4.277343 29.300782 11.898437 42.472656 7.726563 13.355469 19.589844 22.679688 31.0625 31.699219 6.070313 4.769531 11.804687 9.277344 16.734375 14.210938 4.933594 4.929687 9.441406 10.664062 14.210938 16.734375 9.019531 11.472656 18.34375 23.335937 31.699218 31.0625 13.171875 7.621094 28.066406 9.792968 42.472656 11.894531 7.710938 1.125 14.996094 2.1875 21.875 4.027344 6.523438 1.742187 13.148438 4.402343 20.164063 7.21875 13.625 5.472656 27.710937 11.125 43.515625 11.125s29.890625-5.652344 43.515625-11.125c7.015625-2.8125 13.644531-5.476563 20.164063-7.21875 5.335937-1.425781 8.503906-6.90625 7.078124-12.242188-1.425781-5.335937-6.90625-8.503906-12.242187-7.078125-7.6875 2.054688-15.191406 5.066406-22.453125 7.980469-12.402344 4.976563-24.121094 9.683594-36.0625 9.683594s-23.65625-4.703125-36.0625-9.683594c-7.257812-2.914063-14.761719-5.925781-22.449219-7.980469-8.003906-2.140625-16.214843-3.339844-24.152343-4.496094-13.113282-1.914062-25.496094-3.722656-35.347657-9.417968-10.023437-5.800782-17.777343-15.667969-25.988281-26.109375-4.921875-6.265625-10.015625-12.742188-15.789062-18.519531-5.777344-5.777344-12.257813-10.871094-18.523438-15.792969-10.441406-8.210938-20.308594-15.964844-26.105469-25.988281-5.699219-9.847657-7.507812-22.234376-9.421875-35.347657-1.15625-7.9375-2.355468-16.144531-4.492187-24.148437-2.054688-7.6875-5.066407-15.191406-7.980469-22.449219-4.984375-12.40625-9.6875-24.125-9.6875-36.066406v-52.195313c1.992188 4.148438 4.117188 8.253906 6.394531 12.304688 21.886719 38.917968 55.59375 71.464844 97.476563 94.128906 16.796875 9.089844 37.128906 8.292969 53.058594-2.078125l53.601562-34.894531c15.472656-10.074219 35.464844-10.074219 50.9375 0l53.605469 34.894531c8.554687 5.570313 18.371093 8.375 28.234375 8.375 8.503906 0 17.042968-2.089844 24.820312-6.296875 41.882813-22.664062 75.589844-55.210938 97.476563-94.128906 2.277343-4.050782 4.402343-8.15625 6.394531-12.304688v52.195313c0 11.941406-4.703125 23.660156-9.683594 36.066406-2.914062 7.257813-5.925781 14.761719-7.980468 22.449219-2.140626 8.003906-3.339844 16.210937-4.496094 24.148437-1.914063 13.113281-3.722656 25.5-9.417969 35.347657-5.800781 10.023437-15.664063 17.777343-26.109375 25.988281-6.265625 4.925781-12.742188 10.015625-18.519531 15.792969-5.773438 5.773437-10.867188 12.25-15.789063 18.515624-3.527344 4.488282-6.859375 8.726563-10.402344 12.699219-3.675781 4.121094-3.316406 10.445313.804688 14.121094 1.90625 1.699219 4.285156 2.535156 6.652344 2.535156 2.753906 0 5.492187-1.128906 7.46875-3.34375 3.957031-4.4375 7.640625-9.121093 11.199218-13.652343 4.773438-6.070313 9.277344-11.804688 14.207032-16.734376 4.933594-4.933593 10.667968-9.4375 16.738281-14.207031 11.472656-9.019531 23.335937-18.34375 31.0625-31.699219 7.621094-13.171874 9.792969-28.070312 11.898437-42.476562 1.125-7.710938 2.1875-14.992188 4.023438-21.871094 1.742188-6.519531 4.402344-13.148437 7.21875-20.160156 5.46875-13.625 11.125-27.710938 11.125-43.519531zm-19.964844.695312v.035156c-.933594 66.761719-44.546875 133.558594-113.390625 170.808594-10.34375 5.597656-22.84375 5.121094-32.625-1.246094l-53.601563-34.898437c-11.054687-7.195313-23.71875-10.792969-36.382812-10.792969s-25.335938 3.601563-36.382812 10.792969l-53.601563 34.898437c-9.78125 6.367188-22.28125 6.84375-32.628906 1.246094-68.839844-37.25-112.453125-104.046875-113.386719-170.808594v-.035156c0-.003906 0-.007812 0-.007812-.089844-6.519532.222656-13.039063.960938-19.53125.820312-7.175782 4.421874-13.597656 10.136718-18.074219 11.164063-8.75 20.640625-17.847656 29.800782-26.644531 5.109374-4.90625 10.390624-9.976563 15.917968-14.941406 5.027344-4.515626 11.738282-6.773438 18.457032-6.222657 106.65625 16.855469 214.796874 16.855469 321.453124 0 6.71875-.550781 13.433594 1.707031 18.457032 6.222657 5.527344 4.964843 10.808594 10.035156 15.917968 14.941406 9.160157 8.796875 18.636719 17.894531 29.804688 26.644531 5.714844 4.480469 9.3125 10.898437 10.132812 18.074219.742188 6.488281 1.050782 13.011718.960938 19.53125zm0 0"/><path d="m265.230469 85.167969c-1.554688-3.734375-5.300781-6.199219-9.34375-6.167969-4.195313.03125-8.003907 2.820312-9.359375 6.777344-1.328125 3.882812-.046875 8.351562 3.128906 10.949218 3.285156 2.683594 8.015625 2.988282 11.621094.757813 4.101562-2.539063 5.808594-7.863281 3.953125-12.316406zm0 0"/><path d="m366.300781 457.277344c-1.613281-3.867188-5.578125-6.386719-9.773437-6.160156-4.160156.226562-7.8125 3.097656-9.027344 7.082031-1.210938 3.976562.246094 8.46875 3.605469 10.9375 3.28125 2.410156 7.765625 2.601562 11.230469.457031 4.097656-2.53125 5.816406-7.863281 3.964843-12.316406zm0 0"/></svg>