<svg height="512pt" viewBox="0 0 512.00066 512" width="512pt" xmlns="http://www.w3.org/2000/svg"><g fill="#f0f0fa"><path d="m255.964844 255.601562c.855468 2.988282 1.65625 5.988282 2.398437 9.003907.722657 2.945312 1.222657 5.949219 2.300781 8.785156 1.933594 5.097656 4.078126 10.121094 6.425782 15.042969 4.726562 9.917968 10.269531 19.441406 16.511718 28.480468 12.449219 18.019532 27.675782 34.078126 44.828126 47.683594 8.667968 6.878906 17.832031 13.136719 27.390624 18.714844 4.742188 2.765625 9.578126 5.367188 14.503907 7.796875 1.257812.617187 2.523437 1.226563 3.789062 1.828125.1875.085938.753907.46875.953125.445312.1875-.023437.582032-.507812.734375-.644531.636719-.558593 1.269531-1.121093 1.898438-1.6875 2.339843-2.105469 4.625-4.273437 6.851562-6.5 14.753907-14.75 26.976563-31.992187 35.925781-50.839843 8.683594-18.273438 14.269532-37.988282 16.511719-58.09375.269531-2.410157.492188-4.832032.664063-7.253907-11.5 4.242188-23.339844 7.578125-35.363282 9.96875-12.023437 2.386719-24.238281 3.828125-36.488281 4.261719-12.214843.433594-24.46875-.132812-36.582031-1.765625-12.097656-1.632813-24.050781-4.324219-35.648438-8.128906-11.675781-3.824219-22.984374-8.773438-33.683593-14.816407-1.316407-.742187-2.625-1.503906-3.921875-2.28125zm0 0"/><path d="m117.785156 375.785156c-1.738281-2.003906-3.425781-4.050781-5.074218-6.128906-.3125-.390625-.441407-.824219-.851563-.835938-.375-.011718-1.007813.398438-1.351563.53125-2.1875.863282-4.375 1.722657-6.566406 2.582032-7.972656 3.136718-15.953125 6.277344-23.925781 9.414062-10.0625 3.953125-20.117187 7.910156-30.179687 11.867188-8.851563 3.484375-17.703126 6.964844-26.558594 10.449218-2.960938 1.164063-5.917969 2.328126-8.878906 3.492188-.917969.359375-1.832032.71875-2.746094 1.078125-.371094.144531-1.183594.292969-1.472656.578125-.03125.035156-.128907.050781-.175782.070312 6.671875 16.964844 16.285156 32.742188 28.296875 46.453126 12.105469 13.816406 26.613281 25.492187 42.699219 34.359374 9.101562 5.019532 18.691406 9.140626 28.597656 12.28125 1.320313-4.160156 2.640625-8.320312 3.960938-12.480468 3.0625-9.652344 6.128906-19.308594 9.191406-28.96875 3.464844-10.917969 6.929688-21.835938 10.394531-32.753906 2.523438-7.949219 5.046875-15.898438 7.570313-23.847657.324218-1.027343.648437-2.050781.976562-3.078125.121094-.390625.523438-1.117187.484375-1.53125-.046875-.527344-.945312-.925781-1.378906-1.277344-2.074219-1.683593-4.113281-3.414062-6.109375-5.183593-4-3.542969-7.84375-7.257813-11.515625-11.136719-1.839844-1.9375-3.636719-3.917969-5.386719-5.933594zm0 0"/><path d="m394.097656 136.027344c1.777344 2.042968 3.5 4.128906 5.183594 6.25.308594.390625.445312.84375.863281.855468.375.007813 1.007813-.398437 1.351563-.53125 2.1875-.863281 4.378906-1.722656 6.566406-2.582031 7.976562-3.140625 15.953125-6.277343 23.929688-9.414062 10.058593-3.957031 20.117187-7.914063 30.175781-11.867188 8.855469-3.484375 17.707031-6.964843 26.5625-10.449219 2.960937-1.164062 5.921875-2.328124 8.882812-3.492187.914063-.363281 1.828125-.71875 2.742188-1.082031.371093-.144532 1.1875-.292969 1.472656-.578125.035156-.035157.128906-.050781.175781-.070313-6.671875-16.960937-16.285156-32.742187-28.296875-46.453125-12.105469-13.816406-26.613281-25.488281-42.699219-34.359375-9.097656-5.015625-18.691406-9.136718-28.597656-12.28125-1.320312 4.160156-2.640625 8.320313-3.960937 12.480469-3.0625 9.65625-6.128907 19.3125-9.191407 28.96875-3.464843 10.917969-6.929687 21.839844-10.394531 32.757813-2.523437 7.949218-5.046875 15.898437-7.566406 23.847656-.324219 1.015625-.648437 2.035156-.972656 3.050781-.125.394531-.527344 1.132813-.488281 1.550781.046874.507813.820312.835938 1.238281 1.175782 2.085937 1.691406 4.140625 3.425781 6.152343 5.207031 3.972657 3.519531 7.796876 7.207031 11.453126 11.054687 1.851562 1.949219 3.65625 3.933594 5.417968 5.960938zm0 0"/><path d="m264.132812 240.363281c-1.902343 2.9375-3.734374 5.917969-5.503906 8.933594-.882812 1.507813-1.75 3.023437-2.597656 4.550781-.191406.34375-.398438.6875-.148438 1.074219.261719.402344.527344.257813 1 .191406.859376-.128906 1.71875-.257812 2.574219-.425781 3.074219-.609375 5.898438-2.226562 8.871094-3.222656 3.011719-1.011719 6.074219-1.863282 9.078125-2.886719 5.519531-1.875 10.839844-4.550781 16.03125-7.191406 4.980469-2.539063 9.859375-5.28125 14.621094-8.214844 9.417968-5.808594 18.367187-12.371094 26.769531-19.566406 8.417969-7.214844 16.285156-15.066407 23.550781-23.4375 7.265625-8.375 13.929688-17.265625 19.949219-26.574219 2.980469-4.613281 5.808594-9.324219 8.46875-14.128906 1.34375-2.421875 2.648437-4.871094 3.910156-7.335938.628907-1.234375 1.25-2.472656 1.855469-3.71875.292969-.597656.585938-1.199218.875-1.796875.148438-.316406.359375-.640625.460938-.972656.15625-.496094.15625-.46875-.203126-.882813-7.277343-8.3125-15.308593-15.972656-23.960937-22.847656-8.683594-6.90625-17.996094-13.019531-27.789063-18.242187-9.902343-5.277344-20.292968-9.640625-30.996093-13.007813-10.886719-3.421875-22.097657-5.816406-33.433594-7.144531-2.847656-.332031-5.703125-.597656-8.5625-.800781 7.703125 21.132812 12.371094 43.375 13.722656 65.832031 1.339844 22.289063-.597656 44.800781-6.058593 66.464844-3.0625 12.132812-7.226563 23.992187-12.484376 35.351562zm0 0"/><path d="m255.191406 255.359375c-5.445312.796875-10.703125 2.882813-15.851562 4.773437-5.003906 1.839844-9.945313 3.847657-14.808594 6.03125-9.546875 4.285157-18.785156 9.253907-27.582031 14.921876-8.824219 5.683593-17.195313 12.074218-24.984375 19.105468-7.980469 7.203125-15.277344 15.085938-22.003906 23.464844-7.625 9.5-14.730469 19.339844-20.941407 29.828125-3.019531 5.097656-5.839843 10.3125-8.453125 15.632813-.644531 1.308593-1.277344 2.628906-1.894531 3.953124-.195313.414063-.9375 1.464844-.886719 1.90625.050782.441407 1.113282 1.269532 1.421875 1.617188 1.699219 1.914062 3.4375 3.789062 5.214844 5.632812 7.1875 7.441407 15.003906 14.273438 23.339844 20.402344 8.332031 6.125 17.1875 11.546875 26.4375 16.179688 9.40625 4.710937 19.21875 8.601562 29.300781 11.617187 10.289062 3.078125 20.851562 5.238281 31.527344 6.457031 2.636718.300782 5.277344.542969 7.925781.730469-4.457031-11.890625-7.933594-24.144531-10.382813-36.601562-2.433593-12.355469-3.910156-24.941407-4.292968-37.527344-.367188-12.085937.394531-24.203125 2.21875-36.152344 1.8125-11.863281 4.675781-23.558593 8.476562-34.9375 3.804688-11.394531 8.550782-22.46875 14.117188-33.113281.6875-1.316406 1.386718-2.621094 2.101562-3.921875zm0 0"/><path d="m168.140625 227.792969c4.328125.617187 8.65625 1.238281 12.984375 1.855469 4.167969.597656 8.410156 1.019531 12.53125 1.886718 8.105469 1.703125 16.046875 4.082032 23.964844 6.5 4 1.222656 7.984375 2.378906 11.859375 3.960938 3.742187 1.53125 7.414062 3.222656 11.039062 5.011718 3.605469 1.777344 7.164063 3.652344 10.703125 5.558594.871094.464844 1.742188.9375 2.613282 1.410156.398437.214844.867187.585938 1.304687.707032.363281.097656.1875.316406.464844-.074219.1875-.261719.078125-.394531.027343-.691406-.265624-1.617188-.847656-3.246094-1.292968-4.820313-3.542969-12.488281-8.421875-24.585937-14.460938-36.070312-6.027344-11.460938-13.199218-22.3125-21.304687-32.410156-8.121094-10.121094-17.171875-19.488282-26.957031-28.011719-9.773438-8.515625-20.273438-16.1875-31.335938-22.945313-5.527344-3.375-11.199219-6.523437-16.988281-9.429687-1.472657-.738281-2.945313-1.460938-4.429688-2.167969-.675781-.320312-1.351562-.636719-2.027343-.953125-.53125-.246094-.5625-.230469-1.003907.152344-.386719.335937-.769531.671875-1.152343 1.015625-2.449219 2.167968-4.835938 4.402344-7.164063 6.699218-9.503906 9.382813-17.980469 19.796876-25.230469 31.011719-7.316406 11.324219-13.378906 23.453125-18.023437 36.105469-4.734375 12.894531-7.996094 26.320312-9.714844 39.949219-.433594 3.429687-.769531 6.871093-1.007813 10.316406 11.679688-4.417969 23.683594-8 35.910157-10.570313 12.214843-2.566406 24.648437-4.117187 37.128906-4.503906 7.191406-.222656 14.390625-.058594 21.5625.507813zm0 0"/></g><path d="m375.703125 393.480469c-14.0625-6.5-27.46875-14.414063-39.957031-23.578125-12.472656-9.15625-24.03125-19.570313-34.375-31.078125-10.289063-11.453125-19.375-23.996094-26.929688-37.414063-3.8125-6.773437-7.234375-13.765625-10.226562-20.9375-3.082032-7.390625-5.839844-14.96875-7.660156-22.769531-.132813-.570313-.269532-1.136719-.40625-1.703125-.097657-.40625-.046876-.625-.378907-.726562-.402343-.125-.546875.167968-.75.398437-.714843.8125-1.175781 2.175781-1.679687 3.136719-1.050782 1.992187-2.070313 4-3.058594 6.023437-2.03125 4.148438-3.9375 8.355469-5.710938 12.621094-3.496093 8.402344-6.484374 17.015625-8.910156 25.789063-4.871094 17.609374-7.460937 35.851562-7.472656 54.125-.015625 19.105468 2.597656 38.304687 7.367188 56.796874 1.203124 4.660157 2.550781 9.285157 4.042968 13.863282.738282 2.261718 1.511719 4.515625 2.316406 6.757812.214844.589844.429688 1.179688.644532 1.769532.0625.160156.148437.546874.261718.703124.324219.453126.304688.367188.917969.40625 1.308594.089844 2.621094.164063 3.933594.222657 9.074219.417969 18.179687.15625 27.214844-.769531 16.722656-1.714844 33.1875-5.746094 48.804687-11.96875 15.265625-6.082032 29.691406-14.25 42.785156-24.183594 3.15625-2.394532 6.234376-4.890625 9.226563-7.484375zm0 0" fill="#ff5a5a"/><path d="m255.746094 254.359375c1.507812-2.71875 3.0625-5.40625 4.671875-8.0625 1.570312-2.59375 3.339843-5.074219 4.582031-7.835937 2.242188-4.976563 4.273438-10.042969 6.09375-15.1875 3.671875-10.355469 6.488281-21.007813 8.464844-31.8125 3.9375-21.546876 4.523437-43.667969 2.019531-65.417969-1.265625-10.992188-3.324219-21.894531-6.136719-32.597657-1.394531-5.308593-2.976562-10.570312-4.742187-15.769531-.449219-1.328125-.914063-2.652343-1.386719-3.972656-.070312-.195313-.203125-.867187-.359375-.988281-.148437-.117188-.765625-.054688-.972656-.066406-.847657-.054688-1.691407-.105469-2.535157-.148438-3.144531-.164062-6.292968-.25-9.441406-.25-20.863281 0-41.699218 3.546875-61.355468 10.546875-19.058594 6.785156-36.949219 16.773437-52.753907 29.402344-1.894531 1.515625-3.761719 3.070312-5.597656 4.660156 11.132813 5.132813 21.859375 11.144531 32.054687 17.957031 10.191407 6.8125 19.847657 14.429688 28.816407 22.785156 8.945312 8.332032 17.210937 17.394532 24.621093 27.117188 7.398438 9.703125 13.945313 20.0625 19.457032 30.953125 5.550781 10.964844 10.046875 22.457031 13.339844 34.296875.40625 1.460938.792968 2.921875 1.160156 4.390625zm0 0" fill="#ff5a5a"/><path d="m250.417969 256.363281c.863281-.289062 1.753906-.488281 2.644531-.65625.46875-.089843.941406-.167969 1.410156-.238281.601563-.09375.703125-.078125.996094-.609375-5.003906-2.714844-10.007812-5.421875-15.113281-7.933594-5.097657-2.511719-10.382813-5.144531-15.835938-6.789062-5.570312-1.675781-11.121093-3.429688-16.714843-5.03125-5.515626-1.578125-11.15625-3.238281-16.84375-4.050781-6.03125-.859376-12.066407-1.722657-18.097657-2.582032-5.816406-.832031-11.621093-1.1875-17.5-1.261718-11.28125-.148438-22.570312.671874-33.726562 2.371093-11.140625 1.699219-22.140625 4.265625-32.910157 7.574219-2.644531.816406-5.277343 1.671875-7.894531 2.574219-1.28125.441406-2.558593.890625-3.828125 1.351562-.695312.25-1.386718.507813-2.078125.761719-.289062.109375-.578125.214844-.867187.324219-.605469.226562-.527344.328125-.570313.964843-.371093 5.703126-.488281 11.421876-.332031 17.136719.550781 20.089844 4.40625 40.066407 11.441406 58.898438 6.804688 18.214843 16.550782 35.308593 28.726563 50.46875 1.453125 1.808593 2.941406 3.589843 4.460937 5.34375 5.34375-11.6875 11.667969-22.917969 18.886719-33.546875 7.054687-10.398438 14.894531-20.40625 23.46875-29.601563 7.785156-8.347656 16.308594-16.003906 25.449219-22.847656 9.097656-6.8125 18.789062-12.816406 28.902344-17.996094 10.234374-5.242187 20.890624-9.644531 31.796874-13.285156 1.371094-.460937 2.75-.90625 4.128907-1.339844zm0 0" fill="#ff5a5a"/><path d="m260.839844 255.515625c-.863282.285156-1.753906.488281-2.644532.65625-.46875.089844-.941406.167969-1.410156.238281-.597656.09375-.703125.078125-.996094.609375 5.003907 2.710938 10.007813 5.417969 15.113282 7.933594 5.097656 2.511719 10.382812 5.144531 15.835937 6.789063 5.570313 1.675781 11.121094 3.429687 16.714844 5.03125 5.515625 1.578124 11.15625 3.238281 16.84375 4.046874 6.03125.863282 12.066406 1.726563 18.097656 2.585938 5.816407.832031 11.621094 1.183594 17.5 1.261719 11.28125.148437 22.570313-.671875 33.726563-2.371094 11.140625-1.699219 22.140625-4.265625 32.910156-7.578125 2.644531-.8125 5.277344-1.667969 7.894531-2.570312 1.28125-.441407 2.558594-.890626 3.828125-1.351563.695313-.25 1.386719-.507813 2.082032-.765625.285156-.105469.574218-.214844.863281-.320312.605469-.230469.527343-.328126.570312-.964844.371094-5.703125.488281-11.421875.332031-17.136719-.550781-20.09375-4.40625-40.066406-11.441406-58.898437-6.804687-18.21875-16.550781-35.308594-28.726562-50.46875-1.453125-1.808594-2.941406-3.589844-4.460938-5.34375-5.34375 11.6875-11.667968 22.914062-18.882812 33.546874-7.058594 10.398438-14.898438 20.40625-23.472656 29.597657-7.785157 8.351562-16.308594 16.007812-25.449219 22.851562-9.097657 6.808594-18.789063 12.8125-28.902344 17.996094-10.234375 5.242187-20.890625 9.644531-31.796875 13.28125-1.371094.460937-2.75.910156-4.128906 1.34375zm0 0" fill="#ff5a5a"/><path d="m511.308594 99.40625c-4.835938-12.296875-11.152344-24.011719-18.71875-34.84375-7.574219-10.839844-16.40625-20.800781-26.304688-29.570312-9.988281-8.847657-21.035156-16.484376-32.8125-22.746094-5.914062-3.144532-12.015625-5.9375-18.257812-8.359375-3.117188-1.207031-6.269532-2.328125-9.457032-3.339844-2.566406-.816406-5.261718-.753906-7.710937.429687-2.675781 1.296876-4.421875 3.632813-5.308594 6.414063l-28.238281 88.988281c-14.746094-10.066406-30.898438-18.046875-47.859375-23.632812-17.203125-5.667969-35.191406-8.84375-53.285156-9.542969-17.59375-.679687-35.269531 1.074219-52.390625 5.183594-16.765625 4.023437-32.980469 10.300781-48.082032 18.625-14.984374 8.257812-28.832031 18.523437-41.132812 30.414062-11.757812 11.367188-22.082031 24.207031-30.609375 38.164063-8.445313 13.824218-15.113281 28.726562-19.792969 44.234375-4.828125 15.988281-7.527344 32.589843-8.136718 49.28125-.660157 18.261719 1.308593 36.617187 5.804687 54.328125 4.414063 17.394531 11.265625 34.15625 20.300781 49.65625 2.199219 3.78125 4.53125 7.484375 6.984375 11.105468-5.277343 2.074219-10.558593 4.152344-15.839843 6.226563-11.257813 4.429687-22.519532 8.859375-33.78125 13.289063-10.375 4.078124-20.75 8.160156-31.125 12.242187-2.710938 1.066406-5.421876 2.132813-8.132813 3.199219-.445313.175781-.898437.339844-1.339844.53125-4.070312 1.742187-6.570312 6.078125-5.9999998 10.476562.3164068 2.441406 1.5742188 4.816406 2.5351568 7.054688 1.0625 2.476562 2.183593 4.929687 3.367187 7.355468 2.417969 4.953126 5.078125 9.789063 7.964844 14.484376 5.71875 9.300781 12.332031 18.050781 19.722656 26.082031 14.894531 16.175781 33.011719 29.320312 52.941406 38.589843 4.9375 2.296876 9.984375 4.355469 15.121094 6.164063 2.5.875 5.171875 2.085937 7.863281 2.085937 2.226563 0 4.421875-.765624 6.171875-2.136718 2.550781-2 3.335938-4.777344 4.253907-7.667969 2.789062-8.789063 5.578124-17.578125 8.367187-26.363281 3.804687-11.992188 7.609375-23.980469 11.414063-35.972656 2.445312-7.707032 4.890624-15.414063 7.335937-23.121094.121094-.382813.242187-.761719.363281-1.144532 14.730469 10.054688 30.863282 18.03125 47.804688 23.613282 17.203125 5.671875 35.191406 8.855468 53.289062 9.558594 17.609375.683593 35.300782-1.070313 52.433594-5.179688 16.765625-4.023438 32.980469-10.300781 48.078125-18.621094 14.988281-8.257812 28.832031-18.519531 41.132813-30.410156 11.753906-11.363281 22.078124-24.199219 30.605468-38.152344 8.445313-13.820312 15.113282-28.714844 19.796875-44.21875 4.832031-15.992187 7.535157-32.601562 8.144531-49.292968.664063-18.269532-1.304687-36.632813-5.804687-54.355469-4.414063-17.390625-11.265625-34.152344-20.300781-49.65625-2.203125-3.777344-4.53125-7.480469-6.984375-11.101563l88.96875-34.992187c3.269531-1.289063 5.96875-3.453125 6.964843-7 .585938-2.082031.46875-4.339844-.324218-6.355469zm-220.636719 19.828125c-1.636719-11.492187-4.101563-22.886719-7.363281-34.027344 11.3125 1.78125 22.445312 4.6875 33.183594 8.679688 10.65625 3.960937 20.914062 8.996093 30.570312 14.996093 5.476562 3.40625 10.757812 7.117188 15.820312 11.113282 2.085938 1.992187 4.5 3.695312 6.679688 5.597656 2.242188 1.949219 4.429688 3.960938 6.570312 6.023438.980469.945312 1.945313 1.902343 2.902344 2.867187.519532.527344 1.039063 1.058594 1.554688 1.59375.371094.382813 1.085937.921875 1.335937 1.410156.210938.421875.113281.40625-.125.875-.164062.328125-.332031.652344-.5.976563-.332031.648437-.664062 1.292968-1.003906 1.9375-.699219 1.328125-1.417969 2.648437-2.140625 3.964844-5.589844 10.164062-11.949219 19.984374-19.082031 29.136718-13.964844 17.921875-30.394531 33.878906-49.285157 46.578125-5.398437 3.632813-10.957031 6.988281-16.671874 10.101563-5.539063 3.019531-11.300782 6.011718-17.210938 8.234375 7.964844-18.792969 13.105469-38.742188 15.527344-58.996094 2.421875-20.269531 2.109375-40.851563-.761719-61.0625zm-98.96875-23.78125c12.949219-5.1875 26.527344-8.796875 40.347656-10.726563 7.933594-1.109374 15.941407-1.667968 23.953125-1.667968 1.261719 0 2.523438.015625 3.789063.042968.328125.011719 1.65625-.132812 1.914062.054688.332031.246094.609375 1.859375.730469 2.242188.730469 2.265624 1.421875 4.539062 2.082031 6.824218 1.421875 4.9375 2.667969 9.9375 3.71875 14.96875 2.011719 9.59375 3.445313 19.300782 4.191407 29.078125 1.566406 20.558594.183593 41.222657-4.183594 61.375-2.386719 11.019531-5.796875 21.832031-10.105469 32.25-7.441406-19.0625-17.875-36.933593-30.515625-53.011719-12.535156-15.9375-27.261719-30.394531-43.613281-42.414062-9.332031-6.859375-19.03125-13.175781-29.214844-18.707031 11.410156-8.242188 23.835937-15.074219 36.90625-20.308594zm-93.910156 90.480469c5.988281-13.542969 13.753906-26.289063 23.015625-37.839844 5.269531-6.578125 11.027344-12.765625 17.191406-18.515625 17.347656 8.621094 33.589844 19.488281 48.101562 32.320313 14.691407 12.996093 27.621094 28.039062 38.015626 44.679687 5.84375 9.351563 10.867187 19.230469 14.941406 29.476563-2.820313-1.28125-5.6875-2.488282-8.582032-3.609376-3.125-1.207031-6.375-2.078124-9.578124-3.054687-6.1875-1.894531-12.382813-3.769531-18.660157-5.332031-3.375-.839844-6.769531-1.652344-10.214843-2.144532-2.800782-.402343-5.601563-.800781-8.402344-1.199218-5.0625-.726563-10.167969-1.742188-15.269532-2.125-13.242187-.996094-26.582031-.722656-39.773437.789062-13.121094 1.503906-26.097656 4.160156-38.785156 7.832032-1.519531.4375-3.035157.890624-4.542969 1.359374 2.320312-14.675781 6.53125-29.046874 12.542969-42.636718zm-2.976563 132.652344c-5.324218-13.710938-8.890625-28.097657-10.582031-42.710938-.980469-8.480469-1.335937-17.035156-1.050781-25.566406 23.804687-8.300782 49.195312-13.03125 74.457031-12.238282 3.550781.113282 7.136719.152344 10.65625.65625 2.507813.355469 5.011719.714844 7.515625 1.074219 4.863281.691407 9.753906 1.277344 14.597656 2.085938 6.589844 1.09375 13.109375 3.148437 19.496094 5.066406 3.460938 1.039063 6.910156 2.105469 10.367188 3.152344 3.296874 1 6.46875 2.355469 9.613281 3.753906-19.136719 7.628906-37.226563 17.785156-53.503907 30.429687-16.167968 12.554688-30.019531 27.679688-42.160156 44.109376-6.78125 9.179687-12.953125 18.8125-18.375 28.855468-8.621094-11.921875-15.707031-24.949218-21.03125-38.667968zm35.515625 85.230468-27.140625 85.277344c-13.617187-5.371094-26.441406-12.761719-37.921875-21.84375-11.378906-9-21.386719-19.695312-29.667969-31.609375-4.675781-6.726563-8.800781-13.835937-12.316406-21.238281l85.765625-33.480469 3.140625 3.59375c.042969.382813-.511718.867187-.792968 1.195313-.867188 1.019531-1.890626 1.894531-2.804688 2.875-1.988281 2.125-3.976562 4.25-5.960938 6.375-4.457031 4.769531-8.917968 9.539062-13.375 14.3125-2.78125 2.972656-6.773437 6.191406-7.542968 10.375-.929688 5.078124 2.292968 10.179687 7.300781 11.488281 3.773437.984375 7.507813-.363281 10.121094-3.148438 3.15625-3.359375 6.292969-6.734375 9.441406-10.097656 4.417969-4.730469 8.835937-9.457031 13.257813-14.183594 1.339843-1.433593 2.722656-2.835937 4.015624-4.3125.414063-.46875.46875-.65625.984376-.226562l3.261718 3c.65625.539062.535156.890625.234375 1.648437zm90.597657-10.640625c1.699218 11.335938 4.226562 22.558594 7.527343 33.53125-11.269531-1.792969-22.359375-4.699219-33.050781-8.683593-10.617188-3.957032-20.832031-8.972657-30.453125-14.953126-5.484375-3.40625-10.773437-7.121093-15.835937-11.121093-2.097657-1.996094-4.515626-3.707031-6.699219-5.613281-2.160157-1.882813-4.269531-3.816407-6.332031-5.800782-2.03125-1.953125-4.023438-3.945312-5.945313-6.007812-.289063-.308594-.398437-.324219-.351563-.691406.023438-.167969.242188-.492188.328126-.664063.332031-.660156.664062-1.320313 1-1.976563.671874-1.308593 1.355468-2.609374 2.050781-3.90625 5.414062-10.082031 11.636719-19.710937 18.523437-28.847656 6.808594-9.03125 14.128906-17.714844 22.277344-25.566406 8.367188-8.066406 17.457031-15.328125 27.175781-21.703125 10.96875-7.1875 22.636719-13.207031 34.78125-18.144531-7.902343 18.679687-13.367187 38.375-15.988281 58.492187-2.671875 20.507813-2.070312 41.230469.992188 61.65625zm99.386718 23.316407c-12.957031 5.1875-26.535156 8.800781-40.355468 10.730468-7.933594 1.109375-15.945313 1.667969-23.957032 1.667969-1.300781 0-2.597656-.015625-3.898437-.046875-.34375-.007812-1.675781.167969-1.972657-.058594-.269531-.203125-.488281-1.433594-.589843-1.730468-.75-2.273438-1.46875-4.558594-2.152344-6.851563-1.433594-4.808594-2.699219-9.667969-3.792969-14.566406-2.171875-9.699219-3.648437-19.527344-4.570312-29.425781-1.894532-20.328126-.511719-40.953126 4.097656-60.847657 2.625-11.328125 6.183594-22.425781 10.648438-33.167969 7.585937 19.089844 18.101562 36.933594 30.824218 53.042969 12.664063 16.027344 27.5 30.289063 43.878906 42.488281 9.136719 6.808594 18.746094 12.984376 28.75 18.449219-11.414062 8.246094-23.839843 15.082031-36.910156 20.316407zm96.820313-223.265626c5.339843 13.71875 8.917969 28.113282 10.621093 42.738282.988282 8.5 1.347657 17.074218 1.0625 25.628906-5.144531 1.707031-10.34375 3.253906-15.597656 4.601562-2.628906.675782-5.324218 1.183594-7.9375 1.917969-1.917968.539063-3.652344 1.660157-4.933594 3.1875-2.621093 3.117188-3.078124 7.636719-1.132812 11.21875 1.929688 3.542969 5.9375 5.621094 9.945312 5.148438 2.960938-.347657 5.949219-1.304688 8.832032-2.042969 2.941406-.753906 5.875-1.5625 8.789062-2.425781-2.46875 15.714843-7.105468 31.074219-13.785156 45.503906-6.695312 14.453125-15.425781 27.945313-25.832031 40-2.644531 3.0625-5.398438 6.03125-8.246094 8.902344-1.378906 1.386719-2.777344 2.753906-4.199219 4.09375-.613281.578125-.597656.726562-1.378906.335937-.445312-.222656-.890625-.449218-1.332031-.671875-1.09375-.558593-2.183594-1.121093-3.269531-1.703125-8.285157-4.421875-16.292969-9.378906-23.953126-14.816406-14.875-10.558594-28.445312-22.992188-40.195312-36.949219-11.726562-13.921875-21.621094-29.367187-29.140625-45.953125-.914063-2.019531-1.78125-4.058594-2.621094-6.109375 8.71875 3.980469 17.789063 7.109375 27.023438 9.652344 4.6875 1.289063 9.417969 2.417969 14.183593 3.386719 2.359376.476562 4.726563.917968 7.101563 1.320312 2.40625.40625 4.890625.957032 7.332031 1.058594 3.804688.15625 7.417969-1.894531 9.238282-5.242188 1.785156-3.289062 1.539062-7.402343-.597657-10.464843-.949219-1.359375-2.238281-2.480469-3.722656-3.222657-1.859375-.929687-3.914063-1.0625-5.9375-1.371093-4.808594-.734375-9.59375-1.648438-14.335937-2.738281-10.484376-2.414063-20.847657-5.613282-30.683594-9.992188 4.625-1.707031 9.097656-3.925781 13.515625-6.105469 4.46875-2.203125 8.847656-4.585937 13.148437-7.097656 8.953125-5.238281 17.515625-11.128906 25.652344-17.558594 16.226562-12.820312 30.585938-27.933593 42.921875-44.515625 6.738281-9.0625 12.851563-18.632812 18.277344-28.539062 8.6875 11.964844 15.824219 25.042968 21.1875 38.824218zm-13.855469-62.074218c-.046875.015625-.09375.035156-.144531.054687l-3.097657-4.230469 22.65625-24.238281c3.574219-3.894531 3.753907-9.945312.039063-13.839843-3.980469-4.167969-10.65625-4.003907-14.585937.113281l-22.449219 24-4.078125-3.445313 27.023437-86.171875c.054688-.179687.113281-.359375.167969-.539062 13.621094 5.371093 26.441406 12.761719 37.925781 21.84375 11.378907 9 21.386719 19.699219 29.667969 31.613281 4.675781 6.726562 8.800781 13.832031 12.3125 21.234375zm0 0"/><path d="m377.054688 279.394531c-1.578126-3.851562-5.617188-6.394531-9.773438-6.171875-3.980469.214844-7.570312 2.929688-8.894531 6.6875-1.371094 3.894532-.097657 8.449219 3.113281 11.050782 3.429688 2.78125 8.496094 2.945312 12.101562.398437 3.726563-2.632813 5.210938-7.75 3.453126-11.964844zm0 0"/></svg>