<?xml version="1.0" encoding="iso-8859-1"?>
<!-- Generator: Adobe Illustrator 19.0.0, SVG Export Plug-In . SVG Version: 6.00 Build 0)  -->
<svg version="1.1" id="Capa_1" xmlns="http://www.w3.org/2000/svg" xmlns:xlink="http://www.w3.org/1999/xlink" x="0px" y="0px"
	 viewBox="0 0 480 480" style="enable-background:new 0 0 480 480;" xml:space="preserve">
<g>
	<g>
		<path d="M400,0H80c-4.418,0-8,3.582-8,8v464c0,4.418,3.582,8,8,8h320c4.418,0,8-3.582,8-8V8C408,3.582,404.418,0,400,0z M144,464
			H88v-65.928c0-3.353,2.719-6.072,6.072-6.072h43.856c3.354,0,6.072,2.719,6.072,6.072V464z M144,369.928
			c0,3.353-2.719,6.072-6.072,6.072H94.072c-3.353,0-6.072-2.719-6.072-6.072v-67.856c0-3.353,2.719-6.072,6.072-6.072h43.856
			c3.354,0,6.072,2.719,6.072,6.072V369.928z M144,206.072v67.856c0,3.354-2.719,6.072-6.072,6.072H94.072
			c-3.354,0-6.072-2.719-6.072-6.072v-67.856c0-3.353,2.719-6.072,6.072-6.072h43.856C141.281,200,144,202.719,144,206.072
			L144,206.072z M144,110.072v67.856c0,3.354-2.719,6.072-6.072,6.072h0H94.072c-3.354,0-6.072-2.719-6.072-6.072v-67.856
			c0-3.354,2.719-6.072,6.072-6.072h43.856C141.281,104,144,106.719,144,110.072C144,110.072,144,110.072,144,110.072z M144,81.928
			c0,3.354-2.719,6.072-6.072,6.072H94.072C90.719,88,88,85.281,88,81.928V16h56V81.928z M320,464H160v-16h160V464z M320,432H160
			v-33.928V248h160V432z M320,232H160v-25.928V48h160V232z M320,32H160V16h160V32z M392,464h-56v-65.928
			c0.004-3.352,2.72-6.068,6.072-6.072h43.856c3.353,0,6.072,2.719,6.072,6.072V464z M392,369.928c0,3.353-2.719,6.072-6.072,6.072
			h-43.856c-3.352-0.004-6.068-2.72-6.072-6.072v-67.856c0.004-3.352,2.72-6.068,6.072-6.072h43.856
			c3.353,0,6.072,2.719,6.072,6.072V369.928z M392,273.928c0,3.353-2.719,6.072-6.072,6.072h-43.856
			c-3.352-0.004-6.068-2.72-6.072-6.072v-67.856c0.004-3.352,2.72-6.068,6.072-6.072h43.856c3.354,0,6.072,2.719,6.072,6.072
			V273.928z M392,177.928c0,3.354-2.719,6.072-6.072,6.072h-43.856c-3.352-0.004-6.068-2.72-6.072-6.072v-67.856
			c0.004-3.352,2.72-6.068,6.072-6.072h43.856c3.353,0,6.072,2.719,6.072,6.072V177.928z M392,81.928
			c0,3.354-2.719,6.072-6.072,6.072h-43.856c-3.353,0-6.072-2.719-6.072-6.072V16h56V81.928z"/>
	</g>
</g>
<g>
</g>
<g>
</g>
<g>
</g>
<g>
</g>
<g>
</g>
<g>
</g>
<g>
</g>
<g>
</g>
<g>
</g>
<g>
</g>
<g>
</g>
<g>
</g>
<g>
</g>
<g>
</g>
<g>
</g>
</svg>
