<?xml version="1.0" encoding="iso-8859-1"?>
<!-- Generator: Adobe Illustrator 19.0.0, SVG Export Plug-In . SVG Version: 6.00 Build 0)  -->
<svg version="1.1" id="Capa_1" xmlns="http://www.w3.org/2000/svg" xmlns:xlink="http://www.w3.org/1999/xlink" x="0px" y="0px"
	 viewBox="0 0 480 480" style="enable-background:new 0 0 480 480;" xml:space="preserve">
<g>
	<g>
		<path d="M240,193.936c-17.673,0-32,14.327-32,32V384c0,17.673,14.327,32,32,32c17.673,0,32-14.327,32-32V225.936
			C272,208.263,257.673,193.936,240,193.936z M256,384c0.012,4.246-1.677,8.319-4.688,11.312c-6.329,6.047-16.295,6.047-22.624,0
			c-3.011-2.993-4.7-7.066-4.688-11.312V225.936c0.014-4.24,1.698-8.305,4.688-11.312c6.248-6.246,16.376-6.246,22.624,0
			c2.99,3.007,4.674,7.071,4.688,11.312V384z"/>
	</g>
</g>
<g>
	<g>
		<path d="M160,193.936c-17.673,0-32,14.327-32,32V384c0,17.673,14.327,32,32,32s32-14.327,32-32V225.936
			C192,208.263,177.673,193.936,160,193.936z M176,384c0.012,4.246-1.677,8.319-4.688,11.312c-6.329,6.047-16.295,6.047-22.624,0
			c-3.011-2.993-4.699-7.066-4.688-11.312V225.936c0.014-4.24,1.698-8.305,4.688-11.312c6.248-6.246,16.376-6.246,22.624,0
			c2.99,3.007,4.674,7.071,4.688,11.312V384z"/>
	</g>
</g>
<g>
	<g>
		<path d="M320,192h-16v-48.8c21.65-4.396,35.636-25.51,31.24-47.16C332.044,80.299,319.741,67.996,304,64.8c0-0.28,0-0.544,0-0.8
			c-0.04-35.33-28.67-63.96-64-64c-8.03-0.007-15.988,1.516-23.448,4.488c-31.665-8.781-65.541-4.289-93.824,12.44
			c-34.852-5.891-67.881,17.586-73.772,52.437C45.743,88.374,51.269,107.819,64,122.296v119.08c0,13.255,10.745,24,24,24
			c2.729-0.026,5.435-0.515,8-1.448V472c0,4.418,3.582,8,8,8h192c4.418,0,8-3.582,8-8v-56h16c61.856,0,112-50.144,112-112
			S381.856,192,320,192z M288,160H160c-4.418,0-8,3.582-8,8s3.582,8,8,8h128v288H112v-16h96c4.418,0,8-3.582,8-8s-3.582-8-8-8h-96
			V176h16c4.418,0,8-3.582,8-8s-3.582-8-8-8h-16v-16h176V160z M296,128H104c-4.418,0-8,3.582-8,8v105.376c0,4.418-3.582,8-8,8
			s-8-3.582-8-8V119.2c0.002-2.093-0.817-4.104-2.28-5.6c-18.557-18.932-18.253-49.322,0.679-67.879C87.372,36.926,99.436,32,112,32
			c3.531,0.011,7.051,0.408,10.496,1.184c2.069,0.467,4.239,0.093,6.032-1.04c25.694-16.125,57.112-20.332,86.144-11.536
			c1.86,0.595,3.876,0.469,5.648-0.352c23.945-11.02,52.29-0.542,63.31,23.404c3.918,8.513,5.243,17.991,3.81,27.252
			c-0.636,4.372,2.392,8.432,6.765,9.069c0.38,0.055,0.763,0.083,1.147,0.083c0.24,0,0.64,0,0.992-0.064
			c13.12,0.188,23.657,10.878,23.656,24C320,117.255,309.255,128,296,128z M304,240h8c35.346,0,64,28.654,64,64
			c0,35.346-28.654,64-64,64h-8V240z M320,400h-16v-16h8c44.183,0,80-35.817,80-80c0-44.183-35.817-80-80-80h-8v-16h16
			c53.019,0,96,42.981,96,96S373.019,400,320,400z"/>
	</g>
</g>
<g>
	<g>
		<circle cx="360" cy="40" r="16"/>
	</g>
</g>
<g>
	<g>
		<path d="M448,72c-4.418,0-8,3.582-8,8v8c0,4.418,3.582,8,8,8s8-3.582,8-8v-8C456,75.582,452.418,72,448,72z"/>
	</g>
</g>
<g>
	<g>
		<path d="M448,32c-4.418,0-8,3.582-8,8v8c0,4.418,3.582,8,8,8s8-3.582,8-8v-8C456,35.582,452.418,32,448,32z"/>
	</g>
</g>
<g>
	<g>
		<path d="M472,56h-8c-4.418,0-8,3.582-8,8s3.582,8,8,8h8c4.418,0,8-3.582,8-8S476.418,56,472,56z"/>
	</g>
</g>
<g>
	<g>
		<path d="M432,56h-8c-4.418,0-8,3.582-8,8s3.582,8,8,8h8c4.418,0,8-3.582,8-8S436.418,56,432,56z"/>
	</g>
</g>
<g>
	<g>
		<path d="M56,312H40v-16c0-4.418-3.582-8-8-8s-8,3.582-8,8v16H8c-4.418,0-8,3.582-8,8s3.582,8,8,8h16v16c0,4.418,3.582,8,8,8
			s8-3.582,8-8v-16h16c4.418,0,8-3.582,8-8S60.418,312,56,312z"/>
	</g>
</g>
<g>
	<g>
		<circle cx="408" cy="152" r="16"/>
	</g>
</g>
<g>
</g>
<g>
</g>
<g>
</g>
<g>
</g>
<g>
</g>
<g>
</g>
<g>
</g>
<g>
</g>
<g>
</g>
<g>
</g>
<g>
</g>
<g>
</g>
<g>
</g>
<g>
</g>
<g>
</g>
</svg>
