<svg height="511pt" viewBox="0 -14 511.99965 511" width="511pt" xmlns="http://www.w3.org/2000/svg"><path d="m470.222656 137.398438 40.097656-110.398438c2.9375-6.523438 1.980469-13.960938-2.566406-19.550781-4.675781-5.753907-12.042968-8.183594-19.226562-6.347657-.527344.136719-1.039063.3125-1.535156.53125l-159.96875 70.101563-69.304688-12.085937c-1.136719-.199219-2.300781-.199219-3.4375 0l-69.308594 12.085937-159.964844-70.101563c-.496093-.21875-1.007812-.394531-1.535156-.53125-7.183594-1.835937-14.550781.597657-19.226562 6.347657-4.546875 5.589843-5.507813 13.027343-2.566406 19.550781l40.097656 110.402344-39.828125 81.292968c-3.261719 6.65625-2.382813 14.367188 2.292969 20.121094 3.648437 4.480469 8.929687 6.949219 14.480468 6.949219 1.570313 0 3.167969-.199219 4.75-.605469l79.46875-20.320312-66.238281 208.613281c-1.195313 3.757813-.066406 7.871094 2.882813 10.492187 2.945312 2.625 7.160156 3.269532 10.753906 1.648438l68.519531-30.863281 38.160156 64.738281c1.8125 3.070312 5.101563 4.921875 8.613281 4.921875.371094 0 .746094-.019531 1.125-.0625 3.917969-.445313 7.210938-3.148437 8.40625-6.910156l80.238282-252.691407 80.234375 252.691407c1.195312 3.761719 4.488281 6.464843 8.410156 6.910156.375.042969.75.0625 1.125.0625 3.511719 0 6.800781-1.851563 8.609375-4.921875l38.164062-64.738281 68.515626 30.863281c3.59375 1.621094 7.808593.976562 10.757812-1.648438 2.945312-2.621093 4.074219-6.734374 2.878906-10.492187l-66.34375-208.949219 80.773438 20.65625c1.582031.40625 3.175781.605469 4.746094.605469 5.554687 0 10.835937-2.46875 14.480468-6.949219 4.679688-5.753906 5.558594-13.464844 2.296875-20.121094zm-214.222656-57.75 62.277344 10.863281v36.992187.078125 57.480469l-58.1875 10.269531-2.027344.359375h-.003906l-2.058594.363282-62.277344-10.996094v-40.507813c0-.023437 0-.050781 0-.078125v-53.960937zm-234.9375 145.488281 40.542969-82.757813c1.195312-2.4375 1.34375-5.257812.417969-7.8125l-40.980469-112.839844 152.679687 66.914063v24.488281l-29.480468-7.609375c-5.347657-1.382812-10.804688 1.835938-12.183594 7.179688-1.378906 5.347656 1.835937 10.804687 7.183594 12.183593l34.480468 8.902344v3.144532l-34.828125 10.339843c-5.292969 1.570313-8.3125 7.136719-6.738281 12.433594 1.289062 4.34375 5.269531 7.15625 9.582031 7.15625.941407 0 1.898438-.136719 2.847657-.417969l29.136718-8.652344v28.304688l-58.269531 14.902344c-.003906 0-.003906.003906-.003906.003906zm141.816406 224.890625-29.074218-49.324219 14.164062-44.601563c1.667969-5.265624-1.242188-10.886718-6.507812-12.558593-5.265626-1.671875-10.882813 1.242187-12.554688 6.503906l-14.164062 44.605469-52.203126 23.511718 63.242188-199.164062 41.992188-10.738281 17.277343-4.417969 53.023438 9.359375zm285.382813-31.863282-52.203125-23.511718-14.160156-44.605469c-1.671876-5.265625-7.292969-8.175781-12.558594-6.503906s-8.175782 7.292969-6.503906 12.554687l14.160156 44.605469-29.074219 49.320313-75.132813-236.621094 54.160157-9.5625 10.105469 2.585937 47.859374 12.238281zm-53.003907-217.496093c-.003906 0-.007812-.003907-.011718-.003907l-56.96875-14.570312v-27.167969l29.480468 7.613281c.839844.214844 1.679688.320313 2.507813.320313 4.453125 0 8.511719-2.996094 9.675781-7.503906 1.378906-5.347657-1.835937-10.800781-7.183594-12.183594l-34.480468-8.902344v-3.140625l34.828125-10.34375c5.292969-1.570312 8.3125-7.136718 6.742187-12.429687-1.574218-5.296875-7.136718-8.3125-12.433594-6.742188l-29.136718 8.652344v-25.625l152.679687-66.914063-40.980469 112.839844c-.925781 2.554688-.777343 5.375.417969 7.8125l40.542969 82.757813zm0 0"/><path d="m350.984375 318.652344c1.605469 3.847656 5.558594 6.371094 9.730469 6.15625 4.109375-.210938 7.765625-3.003906 9.019531-6.925782 1.269531-3.96875-.105469-8.457031-3.425781-10.988281-3.382813-2.578125-8.097656-2.714843-11.644532-.378906-3.941406 2.597656-5.457031 7.796875-3.679687 12.136719zm0 0"/><path d="m159.8125 311.003906c-1.636719-3.996094-5.828125-6.527344-10.125-6.136718-4.140625.378906-7.683594 3.359374-8.761719 7.371093-1.070312 3.957031.492188 8.332031 3.835938 10.710938 3.417969 2.425781 8.054687 2.46875 11.507812.089843 3.828125-2.636718 5.328125-7.746093 3.542969-12.035156zm0 0"/></svg>