<?xml version="1.0" encoding="iso-8859-1"?>
<!-- Generator: Adobe Illustrator 19.0.0, SVG Export Plug-In . SVG Version: 6.00 Build 0)  -->
<svg version="1.1" id="Capa_1" xmlns="http://www.w3.org/2000/svg" xmlns:xlink="http://www.w3.org/1999/xlink" x="0px" y="0px"
	 viewBox="0 0 480.022 480.022" style="enable-background:new 0 0 480.022 480.022;" xml:space="preserve">
<g>
	<g>
		<path d="M472.941,160.072c-0.312-0.036-0.627-0.054-0.941-0.053h-0.272c-0.192-3.072-0.48-6.264-0.904-9.664
			c12.357-12.536,12.212-32.716-0.324-45.073c-3.389-3.34-7.482-5.88-11.98-7.431c3.585-5.254,5.495-11.471,5.48-17.832
			c0-17.673-14.327-32-32-32c-2.7-0.004-5.389,0.343-8,1.032c0-0.344,0-0.688,0-1.032c0.04-17.642-14.229-31.976-31.872-32.016
			c-8.137-0.018-15.974,3.069-21.912,8.632c-1.16-0.408-2.328-0.8-3.488-1.176c-4.63-16.96-22.133-26.954-39.092-22.324
			c-8.365,2.284-15.437,7.882-19.58,15.5h-0.096C302.417,6.364,291.671-0.022,280,0.019c-15.05,0.018-28.06,10.505-31.272,25.208
			c-17.003-4.822-34.695,5.053-39.516,22.056c-0.071,0.25-0.139,0.501-0.204,0.753c-17.541-0.677-32.309,12.995-32.985,30.535
			c-0.019,0.488-0.026,0.976-0.023,1.465c0,1.413,0.096,2.824,0.288,4.224c-15.317,8.556-20.798,27.91-12.241,43.227
			c1.908,3.416,4.431,6.45,7.441,8.949c-1.618,7.776-2.629,15.667-3.024,23.6H168c-4.418,0.002-7.999,3.585-7.997,8.003
			c0,0.306,0.018,0.613,0.053,0.917l2.664,23.08h-42.872c0.05-0.649,0.021-1.302-0.088-1.944l-24-96
			c-0.892-3.559-4.091-6.056-7.76-6.056H8c-4.418,0-8,3.582-8,8v32c0,4.418,3.582,8,8,8h49.752l14.008,56H8c-4.418,0-8,3.582-8,8v32
			c0,4.418,3.582,8,8,8h0.592l17.896,232.6c0.323,4.176,3.812,7.396,8,7.384h123.048c4.188,0.012,7.677-3.208,8-7.384
			l11.832-153.824l17.792,154.128c0.467,4.034,3.883,7.078,7.944,7.08h233.84c4.061-0.001,7.477-3.046,7.944-7.08l35.08-304
			C480.476,164.55,477.33,160.58,472.941,160.072z M64.024,120.019H16v-16h65.752l22.008,88H87.848
			c0.05-0.649,0.021-1.302-0.088-1.944h0.024l-16-64C70.892,122.515,67.693,120.019,64.024,120.019z M150.16,464.019H41.864
			l-5.48-71.296l30.872,4.416c2.07,0.295,4.157,0.445,6.248,0.448c12.891,0.01,25.113-5.737,33.328-15.672
			c7.374-8.828,19.454-12.148,30.304-8.328l19.424,6.872L150.16,464.019z M157.832,363.931l-15.352-5.432
			c-17.169-6.011-36.266-0.764-47.952,13.176c-6.096,7.341-15.574,10.978-25.016,9.6l-34.4-4.912l-2.184-28.608
			c15.579,12.631,37.823,12.807,53.6,0.424l23.368-18.176c7.259-5.66,16.871-7.306,25.6-4.384l24.648,8.216L157.832,363.931z
			 M176,224.019h-16v16h7.36l-5.952,77.368l-20.856-6.952c-13.798-4.612-28.99-2.009-40.464,6.936L76.72,335.547
			c-11.011,8.589-26.712,7.556-36.504-2.4l-9.136-9.312l-6.4-83.792H48v-16l-32-0.024v-16h160V224.019z M210.208,464.019
			l-25.856-224.072c4.263-0.163,7.638-3.662,7.648-7.928v-32c0-4.418-3.582-8-8-8h-5.176l-1.848-16h39.632l22.736,288H210.208z
			 M255.392,464.019l-22.736-288h47.552l7.576,288H255.392z M336.2,464.019h-32.408l-7.584-288h47.568L336.2,464.019z
			 M352.216,464.019l7.568-288h47.552l-22.736,288H352.216z M429.792,464.019h-29.136l22.736-288h39.632L429.792,464.019z
			 M457.52,140.771c-2.344,1.76-3.538,4.66-3.112,7.56c0.608,4.232,1.048,8.072,1.296,11.688H184.256
			c0.575-8.477,1.914-16.884,4-25.12c0.882-3.524-0.721-7.201-3.904-8.952c-7.719-4.117-10.639-13.712-6.523-21.431
			c2.087-3.912,5.718-6.771,10.011-7.881c4.265-1.155,6.786-5.548,5.631-9.813c-0.081-0.3-0.18-0.595-0.295-0.883
			c-3.3-8.164,0.642-17.457,8.806-20.758c1.912-0.773,3.956-1.168,6.018-1.162c1.86,0.027,3.701,0.379,5.44,1.04
			c4.155,1.502,8.741-0.649,10.243-4.804c0.385-1.066,0.54-2.202,0.453-3.332c0-0.168-0.112-0.736-0.136-0.904
			c0.022-8.836,7.204-15.982,16.04-15.96c4.139,0.01,8.113,1.625,11.088,4.504c2.547,2.283,6.215,2.813,9.304,1.344
			c3.565-1.665,5.39-5.674,4.304-9.456c-2.801-8.32,1.673-17.336,9.993-20.137s17.336,1.673,20.137,9.993
			c0.125,0.372,0.237,0.748,0.334,1.128c1.119,3.721,4.75,6.1,8.608,5.64c3.256-0.384,6.576-0.576,9.912-0.728
			c3.287-0.155,6.144-2.307,7.2-5.424c2.726-8.322,11.683-12.858,20.005-10.131c6.035,1.977,10.308,7.365,10.859,13.691
			c0.317,3.263,2.594,6.003,5.744,6.912c4,1.152,8.064,2.528,12.064,4.104c3.405,1.341,7.285,0.201,9.424-2.768
			c2.975-4.22,7.821-6.725,12.984-6.712c8.837,0,16,7.163,16,16c-0.022,2.443-0.611,4.847-1.72,7.024
			c-1.608,3.271-0.802,7.214,1.96,9.592c0.688,0.584,1.352,1.2,2.016,1.824l1.128,1.04c2.946,2.683,7.418,2.789,10.488,0.248
			c2.836-2.39,6.42-3.709,10.128-3.728c8.797-0.037,15.958,7.064,15.995,15.861c0.021,5.047-2.351,9.806-6.395,12.827
			c-3.154,2.393-4.082,6.734-2.184,10.208c0.488,0.896,0.92,1.824,1.36,2.76l0.952,1.984c1.3,2.629,3.934,4.335,6.864,4.448
			c8.762,0.253,15.66,7.562,15.406,16.324C463.857,133.323,461.466,137.876,457.52,140.771z"/>
	</g>
</g>
<g>
	<g>
		<rect x="64" y="224.019" width="32" height="16"/>
	</g>
</g>
<g>
	<g>
		<rect x="112" y="224.019" width="32" height="16"/>
	</g>
</g>
<g>
</g>
<g>
</g>
<g>
</g>
<g>
</g>
<g>
</g>
<g>
</g>
<g>
</g>
<g>
</g>
<g>
</g>
<g>
</g>
<g>
</g>
<g>
</g>
<g>
</g>
<g>
</g>
<g>
</g>
</svg>
