<?xml version="1.0" encoding="iso-8859-1"?>
<!-- Generator: Adobe Illustrator 19.0.0, SVG Export Plug-In . SVG Version: 6.00 Build 0)  -->
<svg version="1.1" id="Capa_1" xmlns="http://www.w3.org/2000/svg" xmlns:xlink="http://www.w3.org/1999/xlink" x="0px" y="0px"
	 viewBox="0 0 480.004 480.004" style="enable-background:new 0 0 480.004 480.004;" xml:space="preserve">
<g>
	<g>
		<path d="M397.402,420.24c2.974-2.091,5.768-4.427,8.352-6.984l0.952-0.952c24.498-24.521,24.479-64.258-0.042-88.756
			c-0.082-0.082-0.164-0.163-0.246-0.244l-0.8-0.76c-8.351-8.265-18.825-14.06-30.264-16.744
			c-2.959-69.538-58.164-125.502-127.656-129.408V8c0-4.418-3.582-8-8-8s-8,3.582-8,8v168.392
			c-69.51,3.887-124.74,59.86-127.696,129.416c-34.348,8.17-55.57,42.638-47.4,76.986c2.744,11.538,8.644,22.085,17.04,30.462
			c2.584,2.557,5.378,4.893,8.352,6.984c-15.376,8.624-20.849,28.079-12.225,43.455c5.654,10.081,16.315,16.317,27.873,16.305
			h284.112c17.565,0.262,32.017-13.765,32.279-31.33C414.209,436.837,407.803,425.885,397.402,420.24z M154.85,227.152
			c46.76-46.86,122.653-46.941,169.513-0.181c20.621,20.577,33.043,47.96,34.943,77.029h-15.568l-0.04-0.424
			c-0.117-22.091-18.121-39.905-40.212-39.788c-22.091,0.117-39.905,18.121-39.788,40.212H120.09
			C121.903,274.999,134.268,247.664,154.85,227.152z M327.698,304h-48c0-13.255,10.745-24,24-24S327.698,290.745,327.698,304z
			 M279.698,320v40h-16v-40H279.698z M215.698,320v40h-16v-40H215.698z M70.898,368c0-26.51,21.49-48,48-48h64.8v48
			c0,4.418,3.582,8,8,8h32c4.418,0,8-3.582,8-8v-48h16v48c0,4.418,3.582,8,8,8h32c4.418,0,8-3.582,8-8v-48h64.8
			c12.724-0.031,24.938,4.997,33.952,13.976l0.728,0.712c18.367,18.167,18.528,47.784,0.361,66.15
			c-0.051,0.051-0.102,0.103-0.153,0.154h0.008l-0.952,0.952c-8.983,9.031-21.206,14.092-33.944,14.056h-241.6
			C92.388,416,70.898,394.51,70.898,368z M381.754,464H97.642c-8.837,0-16-7.163-16-16s7.163-16,16-16h284.112
			c8.837,0,16,7.163,16,16S390.59,464,381.754,464z"/>
	</g>
</g>
<g>
	<g>
		<path d="M442.304,314.588c-0.103-0.103-0.207-0.206-0.311-0.308l-0.888-0.864c-3.178-3.07-8.242-2.982-11.312,0.196
			c-2.995,3.1-2.995,8.016,0,11.116l0.984,0.968c23.127,22.86,23.343,60.14,0.483,83.267c-0.073,0.074-0.146,0.147-0.219,0.221
			c-3.124,3.126-3.122,8.192,0.004,11.316c3.126,3.124,8.192,3.122,11.316-0.004C471.592,391.235,471.566,343.818,442.304,314.588z"
			/>
	</g>
</g>
<g>
	<g>
		<path d="M49.386,324.912c3.123-3.124,3.123-8.188,0-11.312c-3.124-3.123-8.188-3.123-11.312,0
			c-29.784,29.855-29.784,78.185,0,108.04c3.178,3.07,8.242,2.982,11.312-0.196c2.995-3.1,2.995-8.016,0-11.116
			C25.844,386.722,25.844,348.518,49.386,324.912z"/>
	</g>
</g>
<g>
	<g>
		<path d="M351.698,336c-17.673,0-32,14.327-32,32c0,17.673,14.327,32,32,32c17.673,0,32-14.327,32-32
			C383.698,350.327,369.371,336,351.698,336z M351.698,384c-8.837,0-16-7.163-16-16s7.163-16,16-16s16,7.163,16,16
			S360.534,384,351.698,384z"/>
	</g>
</g>
<g>
	<g>
		<path d="M127.698,336c-17.673,0-32,14.327-32,32c0,17.673,14.327,32,32,32s32-14.327,32-32
			C159.698,350.327,145.371,336,127.698,336z M127.698,384c-8.837,0-16-7.163-16-16s7.163-16,16-16s16,7.163,16,16
			S136.534,384,127.698,384z"/>
	</g>
</g>
<g>
</g>
<g>
</g>
<g>
</g>
<g>
</g>
<g>
</g>
<g>
</g>
<g>
</g>
<g>
</g>
<g>
</g>
<g>
</g>
<g>
</g>
<g>
</g>
<g>
</g>
<g>
</g>
<g>
</g>
</svg>
