<?xml version="1.0" encoding="iso-8859-1"?>
<!-- Generator: Adobe Illustrator 19.0.0, SVG Export Plug-In . SVG Version: 6.00 Build 0)  -->
<svg version="1.1" id="Capa_1" xmlns="http://www.w3.org/2000/svg" xmlns:xlink="http://www.w3.org/1999/xlink" x="0px" y="0px"
	 viewBox="0 0 480 480" style="enable-background:new 0 0 480 480;" xml:space="preserve">
<g>
	<g>
		<path d="M472,464h-40v-24c0-4.418-3.582-8-8-8h-8v-24c0-4.418-3.582-8-8-8h-48c-4.418,0-8,3.582-8,8v24h-8c-4.418,0-8,3.582-8,8
			v24h-16v-24c0-4.418-3.582-8-8-8h-8v-24c0-4.418-3.582-8-8-8h-48c-4.418,0-8,3.582-8,8v24h-8c-4.418,0-8,3.582-8,8v24h-48v-24
			c0-4.418-3.582-8-8-8h-32v-76.712c32.695-13.149,48.54-50.313,35.391-83.008c-1.148-2.854-2.5-5.621-4.047-8.28H448v176
			c0,4.418,3.582,8,8,8s8-3.582,8-8V8c0-4.418-3.582-8-8-8H24c-4.418,0-8,3.582-8,8v432c0,4.418,3.582,8,8,8s8-3.582,8-8V264h24.656
			c-17.722,30.46-7.396,69.519,23.064,87.241c2.659,1.547,5.426,2.899,8.28,4.047V432H56c-4.418,0-8,3.582-8,8v24H8
			c-4.418,0-8,3.582-8,8s3.582,8,8,8h464c4.418,0,8-3.582,8-8S476.418,464,472,464z M32,248V16h416v232H154.096
			c-24.01-21.334-60.182-21.334-84.192,0H32z M64,296c0-26.51,21.49-48,48-48c26.51,0,48,21.49,48,48c0,26.51-21.49,48-48,48
			C85.501,343.974,64.026,322.499,64,296z M120,360v72h-16v-72H120z M160,464H64v-16h96V464z M256,416h32v16h-32V416z M304,464h-64
			v-16h64V464z M368,416h32v16h-32V416z M416,464h-64v-16h64V464z"/>
	</g>
</g>
<g>
	<g>
		<path d="M112,264c-4.418,0-8,3.582-8,8s3.582,8,8,8c8.837,0,16,7.163,16,16c0,4.418,3.582,8,8,8s8-3.582,8-8
			C144,278.327,129.673,264,112,264z"/>
	</g>
</g>
<g>
	<g>
		<path d="M398.4,75.208c-29.161-38.881-84.319-46.761-123.2-17.6c-6.671,5.003-12.597,10.929-17.6,17.6
			c-2.651,3.535-1.935,8.549,1.6,11.2L314.664,128L259.2,169.6c-1.695,1.278-2.819,3.172-3.128,5.272
			c-0.299,2.103,0.251,4.239,1.528,5.936c29.161,38.881,84.319,46.761,123.2,17.6C419.681,169.247,427.561,114.089,398.4,75.208z
			 M328,200c-19.879,0.083-38.892-8.131-52.456-22.664L332.8,134.4c3.535-2.651,4.251-7.665,1.6-11.2
			c-0.455-0.606-0.994-1.145-1.6-1.6l-57.256-42.936C289.108,64.131,308.121,55.917,328,56c39.765,0,72,32.235,72,72
			C400,167.764,367.765,200,328,200z"/>
	</g>
</g>
<g>
	<g>
		<circle cx="232" cy="136" r="16"/>
	</g>
</g>
<g>
	<g>
		<circle cx="168" cy="136" r="16"/>
	</g>
</g>
<g>
	<g>
		<circle cx="104" cy="136" r="16"/>
	</g>
</g>
<g>
	<g>
		<path d="M240,312c-4.418,0-8,3.582-8,8v24c0,4.418,3.582,8,8,8s8-3.582,8-8v-24C248,315.582,244.418,312,240,312z"/>
	</g>
</g>
<g>
	<g>
		<path d="M272,280h-64c-4.418,0-8,3.582-8,8v88c0,4.418,3.582,8,8,8h64c4.418,0,8-3.582,8-8v-88C280,283.582,276.418,280,272,280z
			 M264,368h-48v-72h48V368z"/>
	</g>
</g>
<g>
	<g>
		<path d="M88,32H56c-4.418,0-8,3.582-8,8v32c0,4.418,3.582,8,8,8s8-3.582,8-8V48h24c4.418,0,8-3.582,8-8S92.418,32,88,32z"/>
	</g>
</g>
<g>
	<g>
		<path d="M424,192c-4.418,0-8,3.582-8,8v16h-16c-4.418,0-8,3.582-8,8s3.582,8,8,8h24c4.418,0,8-3.582,8-8v-24
			C432,195.582,428.418,192,424,192z"/>
	</g>
</g>
<g>
	<g>
		<path d="M424,296h-96c-4.418,0-8,3.582-8,8v64c0,4.418,3.582,8,8,8h96c4.418,0,8-3.582,8-8v-64C432,299.582,428.418,296,424,296z
			 M416,360h-80v-48h80V360z"/>
	</g>
</g>
<g>
</g>
<g>
</g>
<g>
</g>
<g>
</g>
<g>
</g>
<g>
</g>
<g>
</g>
<g>
</g>
<g>
</g>
<g>
</g>
<g>
</g>
<g>
</g>
<g>
</g>
<g>
</g>
<g>
</g>
</svg>
