<?xml version="1.0" encoding="iso-8859-1"?>
<!-- Generator: Adobe Illustrator 19.0.0, SVG Export Plug-In . SVG Version: 6.00 Build 0)  -->
<svg version="1.1" id="Capa_1" xmlns="http://www.w3.org/2000/svg" xmlns:xlink="http://www.w3.org/1999/xlink" x="0px" y="0px"
	 viewBox="0 0 480 480" style="enable-background:new 0 0 480 480;" xml:space="preserve">
<g>
	<g>
		<path d="M225.111,217.063c-1.215-1.228-2.795-2.031-4.503-2.286l-0.032-0.04l-19.128-2.784l-8.56-17.336
			c-1.957-3.961-6.755-5.585-10.716-3.628c-1.575,0.778-2.849,2.053-3.628,3.628l-8.56,17.336l-19.136,2.784
			c-4.372,0.635-7.402,4.694-6.767,9.067c0.253,1.742,1.074,3.353,2.335,4.581l13.848,13.496l-3.272,19.056
			c-0.747,4.355,2.178,8.49,6.533,9.237c0.445,0.076,0.896,0.115,1.347,0.115c1.297,0.002,2.574-0.314,3.72-0.92l17.128-9l17.112,9
			c3.911,2.056,8.748,0.553,10.804-3.358c0.819-1.557,1.101-3.34,0.804-5.074l-3.24-19.056l13.848-13.504
			C228.19,225.269,228.218,220.204,225.111,217.063z M196.992,233.36c-1.883,1.839-2.742,4.486-2.296,7.08l1.232,7.2l-6.48-3.416
			c-2.331-1.226-5.117-1.226-7.448,0l-6.496,3.416l1.24-7.2c0.449-2.597-0.41-5.248-2.296-7.088l-5.256-5.112l7.256-1.056
			c2.606-0.378,4.859-2.015,6.024-4.376l3.248-6.576l3.24,6.576c1.165,2.361,3.418,3.998,6.024,4.376l7.256,1.056L196.992,233.36z"
			/>
	</g>
</g>
<g>
	<g>
		<path d="M333.789,172.111c-1.229-1.261-2.839-2.082-4.581-2.335l-29.56-4.288l-13.192-26.728
			c-2.338-3.961-7.444-5.277-11.405-2.939c-1.212,0.716-2.224,1.727-2.939,2.939l-13.2,26.728l-29.496,4.288
			c-4.373,0.631-7.406,4.688-6.775,9.061c0.252,1.745,1.073,3.357,2.335,4.587l21.352,20.8l-5.04,29.384
			c-0.746,4.355,2.179,8.49,6.534,9.236c1.734,0.297,3.517,0.014,5.074-0.804l26.4-13.88l26.4,13.88
			c2.7,1.407,5.962,1.172,8.432-0.608c2.47-1.786,3.711-4.819,3.2-7.824l-5.04-29.384l21.352-20.8
			C336.805,180.341,336.872,175.277,333.789,172.111z M298.032,195.672c-1.886,1.84-2.745,4.491-2.296,7.088l3.008,17.544
			l-15.76-8.288c-2.333-1.229-5.123-1.229-7.456,0l-15.752,8.288l3.008-17.544c0.447-2.598-0.415-5.249-2.304-7.088l-12.72-12.4
			l17.616-2.584c2.607-0.38,4.861-2.02,6.024-4.384l7.88-15.96l7.888,15.96c1.162,2.362,3.411,4.001,6.016,4.384l17.6,2.56
			L298.032,195.672z"/>
	</g>
</g>
<g>
	<g>
		<path d="M472.007,57.713c-0.507,0-1.013,0.047-1.511,0.143c-152.283,29.136-308.709,29.136-460.992,0
			c-4.34-0.831-8.531,2.014-9.361,6.353C0.047,64.707,0,65.213,0,65.72v265.136c-0.002,2.385,1.06,4.646,2.896,6.168
			c1.846,1.509,4.263,2.129,6.608,1.696C67.107,327.732,125.42,320.864,184,318.168v56.12h-16c-2.518,0-4.889,1.186-6.4,3.2l-24,32
			c-2.651,3.535-1.935,8.549,1.6,11.2c1.385,1.039,3.069,1.6,4.8,1.6h192c4.418,0,8-3.582,8-8c0-1.731-0.561-3.415-1.6-4.8l-24-32
			c-1.511-2.014-3.882-3.2-6.4-3.2h-16v-56.12c58.58,2.696,116.893,9.564,174.496,20.552c0.497,0.088,1,0.134,1.504,0.136
			c4.418,0,8-3.582,8-8V65.72C480.004,61.302,476.425,57.717,472.007,57.713z M308,390.288l12,16H160l12-16H308z M223.032,352.632
			c9.374,9.371,24.57,9.369,33.941-0.005c4.5-4.501,7.028-10.606,7.027-16.971v-18.504c5.336,0.104,10.664,0.28,16,0.448v56.688h-80
			V317.6c5.336-0.168,10.664-0.344,16-0.448v18.504C215.98,342.027,218.512,348.141,223.032,352.632z M232,335.656V316.96
			c5.333-0.032,10.667-0.032,16,0v18.696c0,4.418-3.582,8-8,8S232,340.074,232,335.656z M464,321.232
			c-148.099-27.157-299.901-27.157-448,0V75.344c148.099,27.152,299.901,27.152,448,0V321.232z"/>
	</g>
</g>
<g>
</g>
<g>
</g>
<g>
</g>
<g>
</g>
<g>
</g>
<g>
</g>
<g>
</g>
<g>
</g>
<g>
</g>
<g>
</g>
<g>
</g>
<g>
</g>
<g>
</g>
<g>
</g>
<g>
</g>
</svg>
