<svg height="511pt" viewBox="-5 0 511 511.99828" width="511pt" xmlns="http://www.w3.org/2000/svg"><path d="m98.511719 20.132812c-3.066407-3.207031-6.265625-6.285156-9.5-9.320312-1.605469-1.507812-3.21875-3.003906-4.828125-4.507812-1.558594-1.453126-3.046875-3.117188-4.761719-4.390626-5.890625-4.367187-14.589844-.847656-15.808594 6.367188-.390625 2.296875-.304687 4.71875-.402343 7.042969-.105469 2.375-.230469 4.761719-.628907 7.109375-1.625 9.535156-6.03125 18.5625-13.46875 27.601562-3.511719 4.265625-2.898437 10.566406 1.367188 14.078125 4.265625 3.507813 10.566406 2.894531 14.078125-1.367187 8.398437-10.203125 13.871094-20.621094 16.640625-31.699219.964843.960937 1.917969 1.929687 2.847656 2.902344 13.949219 14.601562 28.289063 30.644531 38.636719 49.011719 13.570312 24.074218 17.476562 46.257812 11.949218 67.816406-1.875 7.3125-4.667968 13.800781-8.359374 19.445312-.023438-9.273437-2.71875-18.8125-8.160157-27.371094-4.242187-6.671874-9.21875-12.613281-14.371093-18.617187-7.605469-8.859375-10.433594-16.949219-9.171876-26.230469.367188-2.691406-.386718-4.730468-.746093-5.710937-.0625-.164063-.140625-.378907-.230469-.671875-1.054688-3.398438-3.839844-5.980469-7.308594-6.78125-3.46875-.796875-7.097656.304687-9.535156 2.902344-1.898438 2.023437-3.777344 3.992187-5.625 5.933593-4.179688 4.386719-8.125 8.527344-12.027344 12.933594-12.839844 14.484375-20.8125 27.898437-25.085937 42.210937-2.300781 7.707032-3.289063 15.039063-3.003907 21.90625-9.429687-13.566406-12.753906-30.175781-8.925781-46.734374 1.246094-5.378907-2.109375-10.753907-7.492187-11.996094-5.378906-1.242188-10.75 2.109375-11.996094 7.492187-6.769531 29.273438 3.082031 58.609375 26.351562 78.464844 9.554688 8.15625 19.917969 13.367187 31.6875 15.933594.710938.152343 1.425782.230469 2.132813.230469 4.042969 0 7.785156-2.460938 9.308594-6.359376 1.792969-4.574218-.007813-9.773437-4.242188-12.265624-15.601562-9.171876-20.257812-22.183594-14.652343-40.949219 3.410156-11.425781 10.046874-22.441407 20.886718-34.667969.851563-.960938 1.714844-1.917969 2.585938-2.871094 2.292968 6.945313 6.253906 13.667969 11.910156 20.257813 4.660156 5.433593 9.136719 10.769531 12.671875 16.328125 7.101563 11.167968 6.6875 24.777344-1.003906 33.097656-2.011719 2.175781-4.695313 4.070312-7.539063 6.078125-1.585937 1.117187-3.222656 2.273437-4.792968 3.519531-3.726563 2.960938-4.847657 8.140625-2.679688 12.378906 2.164062 4.238282 7.015625 6.367188 11.601562 5.082032 29.820313-8.347656 49.59375-28.402344 57.1875-58 6.871094-26.796875 2.324219-53.816406-13.898437-82.605469-11.433594-20.289063-26.75-37.464844-41.597656-53.007813zm0 0"/><path d="m90.34375 221.160156h-23.066406c-19.46875 0-35.308594 15.84375-35.308594 35.3125v177.492188.015625.015625l.128906 45.316406c.003906.300781.023438.601562.046875.898438.003907.03125.003907.058593.007813.085937 1.839844 18.070313 16.941406 31.703125 35.125 31.703125h23.066406c19.46875 0 35.308594-15.84375 35.308594-35.3125v-223.019531c0-1.085938-.179688-2.140625-.507813-3.136719-2.851562-16.878906-17.460937-29.371094-34.800781-29.371094zm15.308594 175.640625-53.625 57.253907-.046875-16.148438 9.144531-9.765625 44.527344-47.539063zm-53.683594-44.476562v-16.191407l53.683594-57.191406v16.066406l-47.707032 50.9375zm53.683594-28.054688v27.070313l-53.683594 57.320312v-27.074218l47.707031-50.9375zm-53.683594-67.796875c0-8.441406 6.867188-15.308594 15.308594-15.308594h23.066406c6.390625 0 11.925781 3.90625 14.199219 9.566407l-52.574219 56.136719zm53.683594 220.21875c0 8.4375-6.871094 15.308594-15.308594 15.308594h-23.066406c-6.472656 0-12.042969-3.976562-14.269532-9.730469l52.644532-56.207031zm0 0"/><path d="m25.585938 95.316406c3.523437 2.34375 8.285156 2.195313 11.640624-.386718 3.160157-2.4375 4.613282-6.660157 3.574219-10.519532-1.113281-4.128906-4.847656-7.164062-9.121093-7.398437-4.257813-.226563-8.265626 2.359375-9.832032 6.3125-1.71875 4.339843-.125 9.390625 3.738282 11.992187zm0 0"/><path d="m485.449219 73.140625c-11.433594-20.289063-26.75-37.46875-41.601563-53.007813-3.0625-3.210937-6.261718-6.285156-9.496094-9.324218-1.605468-1.503906-3.21875-3-4.828124-4.503906-1.558594-1.453126-3.046876-3.117188-4.761719-4.390626-5.890625-4.367187-14.589844-.851562-15.8125 6.363282-.390625 2.300781-.300781 4.726562-.402344 7.050781-.101563 2.375-.226563 4.757813-.625 7.105469-1.625 9.53125-6.03125 18.5625-13.46875 27.601562-3.507813 4.265625-2.898437 10.566406 1.367187 14.078125 4.265626 3.507813 10.566407 2.894531 14.078126-1.367187 8.398437-10.207032 13.871093-20.621094 16.640624-31.699219.964844.960937 1.917969 1.929687 2.847657 2.902344 13.949219 14.601562 28.285156 30.644531 38.636719 49.011719 13.570312 24.074218 17.476562 46.257812 11.949218 67.8125-1.875 7.316406-4.667968 13.804687-8.359375 19.449218-.023437-9.273437-2.71875-18.816406-8.160156-27.371094-4.246094-6.675781-9.222656-12.613281-14.375-18.617187-7.601563-8.859375-10.429687-16.953125-9.167969-26.234375.367188-2.691406-.386718-4.730469-.746094-5.710938-.0625-.164062-.140624-.375-.230468-.667968-1.054688-3.398438-3.839844-5.980469-7.308594-6.78125-3.46875-.796875-7.097656.304687-9.535156 2.898437-1.898438 2.027344-3.777344 3.996094-5.628906 5.941407-4.175782 4.382812-8.121094 8.523437-12.023438 12.925781-12.839844 14.484375-20.808594 27.898437-25.085938 42.210937-2.300781 7.707032-3.289062 15.039063-3.003906 21.910156-9.429687-13.566406-12.753906-30.179687-8.925781-46.734374 1.246094-5.382813-2.109375-10.753907-7.492187-12-5.378907-1.242188-10.75 2.113281-11.996094 7.492187-6.769532 29.277344 3.082031 58.609375 26.351562 78.46875 9.554688 8.152344 19.921875 13.363281 31.6875 15.929687.710938.15625 1.425782.230469 2.132813.230469 4.042969 0 7.785156-2.460937 9.308593-6.355469 1.792969-4.578124-.007812-9.777343-4.242187-12.269531-15.601563-9.167969-20.257813-22.179687-14.652344-40.945312 3.410157-11.425781 10.046875-22.441407 20.886719-34.667969.851562-.964844 1.714844-1.917969 2.585938-2.875 2.292968 6.949219 6.253906 13.667969 11.910156 20.261719 4.660156 5.429687 9.136718 10.765625 12.671875 16.324219 7.105469 11.167968 6.691406 24.78125-1.007813 33.101562-2.007812 2.171875-4.691406 4.066406-7.535156 6.074219-1.585938 1.117187-3.222656 2.277343-4.792969 3.523437-3.726562 2.960938-4.847656 8.136719-2.679687 12.375 2.164062 4.238282 7.019531 6.367188 11.601562 5.082032 29.820313-8.34375 49.59375-28.398438 57.1875-57.996094 6.871094-26.796875 2.324219-53.816406-13.898437-82.605469zm0 0"/><path d="m435.679688 221.160156h-23.0625c-19.472657 0-35.3125 15.84375-35.3125 35.3125v177.492188.015625.015625l.132812 45.316406c0 .304688.019531.605469.046875.902344.003906.027344 0 .054687.003906.082031 1.839844 18.070313 16.941407 31.703125 35.128907 31.703125h23.0625c19.472656 0 35.3125-15.84375 35.3125-35.3125v-223.019531c0-1.085938-.183594-2.144531-.511719-3.140625-2.851563-16.878906-17.460938-29.367188-34.800781-29.367188zm-38.371094 131.164063v-16.191407l53.679687-57.191406v16.066406l-47.703125 50.9375zm.011718 85.582031 53.671876-57.304688v16.199219l-53.625 57.253907zm53.667969-113.636719v27.070313l-53.679687 57.320312v-27.074218l47.707031-50.9375zm-53.679687-67.796875c0-8.441406 6.867187-15.308594 15.308594-15.308594h23.066406c6.386718 0 11.921875 3.90625 14.199218 9.566407l-52.574218 56.136719zm53.679687 220.21875c0 8.4375-6.867187 15.308594-15.308593 15.308594h-23.0625c-6.472657 0-12.042969-3.976562-14.273438-9.730469l52.644531-56.207031zm0 0"/><path d="m370.929688 95.316406c3.523437 2.34375 8.28125 2.199219 11.636718-.386718 3.171875-2.445313 4.609375-6.652344 3.566406-10.519532-1.117187-4.136718-4.835937-7.164062-9.121093-7.398437-4.246094-.226563-8.265625 2.367187-9.832031 6.3125-1.714844 4.332031-.105469 9.398437 3.75 11.992187zm0 0"/><path d="m271.179688 20.132812c-3.066407-3.207031-6.265626-6.285156-9.5-9.320312-1.601563-1.507812-3.214844-3.003906-4.824219-4.507812-1.558594-1.453126-3.046875-3.117188-4.761719-4.390626-5.894531-4.367187-14.589844-.847656-15.8125 6.367188-.390625 2.296875-.300781 4.722656-.402344 7.042969-.101562 2.375-.226562 4.761719-.628906 7.109375-1.625 9.535156-6.027344 18.5625-13.464844 27.601562-3.511718 4.265625-2.898437 10.566406 1.367188 14.078125 4.261718 3.507813 10.566406 2.894531 14.074218-1.367187 8.398438-10.207032 13.875-20.621094 16.640626-31.699219.96875.960937 1.917968 1.929687 2.851562 2.902344 13.949219 14.601562 28.285156 30.644531 38.636719 49.011719 13.566406 24.074218 17.476562 46.257812 11.945312 67.8125-1.875 7.316406-4.667969 13.804687-8.359375 19.449218-.019531-9.273437-2.71875-18.816406-8.160156-27.371094-4.242188-6.675781-9.21875-12.617187-14.371094-18.617187-7.601562-8.859375-10.429687-16.953125-9.167968-26.246094.363281-2.683593-.386719-4.71875-.746094-5.695312-.0625-.164063-.140625-.375-.230469-.667969-1.054687-3.398438-3.839844-5.984375-7.304687-6.785156-3.472657-.796875-7.101563.304687-9.539063 2.898437-1.898437 2.023438-3.773437 3.988281-5.621094 5.929688-4.179687 4.390625-8.128906 8.535156-12.03125 12.9375-12.839843 14.484375-20.8125 27.898437-25.085937 42.214843-2.300782 7.703126-3.292969 15.039063-3.003906 21.90625-9.433594-13.566406-12.753907-30.179687-8.925782-46.734374 1.242188-5.382813-2.109375-10.753907-7.492187-11.996094-5.382813-1.246094-10.753907 2.105468-11.996094 7.488281-6.769531 29.277344 3.078125 58.609375 26.347656 78.46875 9.558594 8.152344 19.921875 13.367187 31.6875 15.929687.714844.15625 1.429688.230469 2.136719.230469 4.039062 0 7.78125-2.460937 9.308594-6.355469 1.789062-4.574218-.007813-9.777343-4.246094-12.265624-15.597656-9.171876-20.253906-22.183594-14.648438-40.949219 3.410157-11.425781 10.046876-22.441407 20.882813-34.667969.855469-.960938 1.71875-1.917969 2.589844-2.875 2.292969 6.949219 6.25 13.667969 11.90625 20.261719 4.664062 5.429687 9.140625 10.765625 12.675781 16.324219 7.101562 11.171874 6.6875 24.78125-1.007812 33.101562-2.011719 2.175781-4.695313 4.070312-7.539063 6.078125-1.582031 1.117187-3.222656 2.273437-4.789063 3.519531-3.726562 2.960938-4.847656 8.140625-2.683593 12.378906 2.164062 4.238282 7.019531 6.367188 11.601562 5.082032 29.820313-8.347656 49.59375-28.402344 57.1875-58 6.875-26.792969 2.328125-53.816406-13.894531-82.605469-11.433594-20.289063-26.753906-37.464844-41.601562-53.007813zm0 0"/><path d="m263.011719 221.160156h-23.0625c-19.472657 0-35.3125 15.84375-35.3125 35.3125v177.492188.015625.015625l.132812 45.316406c0 .304688.019531.605469.046875.902344 0 .027344 0 .054687.003906.082031 1.839844 18.070313 16.941407 31.703125 35.125 31.703125h23.066407c19.46875 0 35.308593-15.84375 35.308593-35.3125v-223.019531c0-1.085938-.179687-2.140625-.507812-3.136719-2.851562-16.878906-17.460938-29.371094-34.800781-29.371094zm15.308593 73.847656-53.679687 57.316407v-16.191407l53.679687-57.191406zm-53.625 159.046876-.042968-16.148438 53.667968-57.304688v16.199219l-34.808593 37.167969zm53.625-102.714844-41.621093 44.441406-12.058594 12.875v-27.070312l53.679687-57.316407zm-53.679687-94.867188c0-8.441406 6.867187-15.308594 15.308594-15.308594h23.0625c6.390625 0 11.925781 3.90625 14.203125 9.566407l-52.574219 56.136719zm53.679687 220.21875c0 8.4375-6.867187 15.308594-15.308593 15.308594h-23.066407c-6.46875 0-12.042968-3.976562-14.269531-9.730469l52.644531-56.207031zm0 0"/><path d="m198.253906 95.316406c3.597656 2.347656 8.394532 2.207032 11.769532-.488281 3.179687-2.539063 4.539062-6.835937 3.351562-10.734375-1.210938-3.980469-4.871094-6.855469-9.027344-7.082031-4.3125-.230469-8.371094 2.433593-9.894531 6.464843-1.636719 4.335938.003906 9.238282 3.800781 11.839844zm0 0"/></svg>