<svg height="512pt" viewBox="-49 0 512 512.00091" width="512pt" xmlns="http://www.w3.org/2000/svg"><path d="m123.605469 413.535156c1.828125-3.460937 4.191406-4.222656 11.039062-5.675781 7.6875-1.632813 18.21875-3.871094 24.574219-15.910156 6.351562-12.035157 2.25-21.992188-.742188-29.261719-2.664062-6.46875-3.371093-8.851562-1.542968-12.3125s4.195312-4.222656 11.039062-5.675781c7.6875-1.632813 18.21875-3.867188 24.570313-15.90625 6.351562-12.035157 2.253906-21.992188-.738281-29.261719-2.664063-6.46875-3.371094-8.851562-1.546876-12.3125 1.828126-3.457031 4.195313-4.222656 11.039063-5.675781 7.6875-1.628907 18.21875-3.867188 24.574219-15.902344 6.347656-12.039063 2.25-21.992187-.742188-29.261719-2.664062-6.46875-3.371094-8.851562-1.546875-12.308594 1.828125-3.460937 4.191407-4.222656 11.035157-5.671874 7.6875-1.632813 18.222656-3.867188 24.570312-15.90625 6.351562-12.035157 2.253906-21.992188-.738281-29.257813-2.664063-6.472656-3.371094-8.855469-1.542969-12.316406 1.824219-3.460938 4.191406-4.21875 11.035156-5.671875 7.691406-1.632813 18.222656-3.871094 24.570313-15.90625 6.351562-12.035156 2.253906-21.992188-.738281-29.261719-2.664063-6.46875-3.371094-8.851563-1.546876-12.308594 1.828126-3.460937 4.191407-4.222656 11.039063-5.675781 7.6875-1.632812 18.21875-3.867188 24.570313-15.902344 2.578124-4.886718.707031-10.933594-4.179688-13.511718-4.882812-2.578126-10.933594-.707032-13.507812 4.175781-1.828126 3.460937-4.191407 4.222656-11.035157 5.675781-7.691406 1.632812-18.222656 3.867188-24.574219 15.902344-6.351562 12.035156-2.253906 21.992187.742188 29.261718 2.664062 6.46875 3.371094 8.851563 1.542969 12.3125-1.824219 3.460938-4.191407 4.21875-11.035157 5.671876-7.691406 1.632812-18.222656 3.871093-24.574218 15.90625-6.351563 12.035156-2.25 21.992187.742187 29.261718 2.664063 6.46875 3.371094 8.851563 1.542969 12.3125-1.824219 3.460938-4.191406 4.21875-11.035156 5.671875-7.6875 1.632813-18.21875 3.867188-24.570313 15.902344-6.351562 12.035156-2.253906 21.992187.738281 29.261719 2.664063 6.46875 3.371094 8.851562 1.546876 12.308594-1.824219 3.460937-4.191407 4.222656-11.035157 5.675781-7.691406 1.632812-18.222656 3.867187-24.574219 15.90625-6.351562 12.039062-2.253906 21.992187.738282 29.261719 2.664062 6.46875 3.371094 8.851562 1.546875 12.3125-1.828125 3.460937-4.191407 4.222656-11.039063 5.675781-7.6875 1.632812-18.21875 3.871093-24.570312 15.90625-6.351563 12.039062-2.253906 21.992187.738281 29.261719 2.664063 6.472656 3.371094 8.855468 1.542969 12.316406-1.828125 3.460937-4.191406 4.222656-11.039063 5.675781-7.6875 1.632813-18.21875 3.871094-24.570312 15.90625-6.355469 12.039063-2.257813 21.996094.734375 29.265625 2.664062 6.46875 3.371094 8.851562 1.542968 12.316406-2.578124 4.882813-.707031 10.933594 4.179688 13.511719 1.488281.785156 3.085938 1.15625 4.660156 1.15625 3.589844 0 7.058594-1.9375 8.851563-5.335937 6.351562-12.035157 2.253906-21.992188-.738281-29.261719-2.660157-6.476563-3.371094-8.859375-1.542969-12.320313zm0 0"/><path d="m382.871094 68.722656c-4.441406-2.339844-9.253906-3.941406-14.355469-4.808594-2.65625-20.078124-14.644531-38.628906-33.878906-48.78125-19.238281-10.152343-41.320313-9.578124-59.394531-.4375-3.59375-3.722656-7.632813-6.789062-12.070313-9.132812-25.734375-13.578125-61.765625-2.105469-101.464844 32.296875-37.28125 32.3125-74.425781 81.585937-104.589843 138.75-30.164063 57.164063-49.875 115.636719-55.507813 164.648437-5.996094 52.191407 4.875 88.410157 30.605469 101.988282 4.441406 2.34375 9.253906 3.945312 14.355468 4.8125 2.65625 20.078125 14.644532 38.632812 33.882813 48.78125 9.589844 5.0625 19.890625 7.460937 30.050781 7.460937 10.214844 0 20.289063-2.429687 29.351563-7.015625 3.59375 3.71875 7.625 6.785156 12.058593 9.125 7.078126 3.734375 14.929688 5.589844 23.429688 5.589844 15.78125 0 33.8125-6.402344 53.289062-19.070312 27.140626-17.644532 55.875-46.5 83.097657-83.449219 3.273437-4.445313 2.328125-10.707031-2.121094-13.980469-4.445313-3.273438-10.703125-2.328125-13.980469 2.117188-50.605468 68.6875-105.863281 106.148437-134.378906 91.105468-.605469-.320312-1.199219-.664062-1.777344-1.03125 11.859375-8.875 22.761719-19.011718 33.050782-29.65625 10.363281-10.71875 20.121093-22.011718 29.425781-33.660156 9.355469-11.707031 18.261719-23.773438 26.785156-36.101562 8.699219-12.582032 17.003906-25.429688 24.945313-38.5 7.871093-12.949219 15.386718-26.109376 22.5625-39.457032 7.289062-13.5625 14.214843-27.320312 20.773437-41.253906 6.503906-13.816406 12.65625-27.804688 18.34375-41.972656 5.675781-14.136719 10.992187-28.417969 15.71875-42.898438 4.710937-14.425781 8.902344-29.011718 12.386719-43.785156 3.457031-14.675781 6.148437-29.585938 7.519531-44.609375.308594-3.414063.550781-6.84375.699219-10.269531 8.507812 3.667968 14.039062 11.597656 17.390625 19.957031 4.566406 11.402344 5.859375 24.015625 6.015625 36.199219.117187 8.9375-.464844 17.875-1.484375 26.75-5.351563 46.605468-24.289063 102.574218-53.324219 157.597656-2.578125 4.882812-.707031 10.933594 4.175781 13.507812 4.886719 2.582032 10.9375.707032 13.511719-4.175781 30.164062-57.164062 49.875-115.636719 55.507812-164.648437 5.996094-52.191406-4.875-88.414063-30.605468-101.992188zm-319.035156 259.597656c-4.675782 14.417969-8.871094 28.980469-12.328126 43.738282-3.398437 14.519531-6.050781 29.261718-7.402343 44.117187-.3125 3.417969-.554688 6.84375-.699219 10.269531-.628906-.269531-1.25-.566406-1.855469-.886718-17.671875-9.324219-24.984375-39.21875-20.070312-82.019532 5.355469-46.605468 24.292969-102.574218 53.324219-157.59375 29.035156-55.023437 64.546874-102.246093 100-132.96875 24.902343-21.585937 47.609374-32.996093 64.820312-32.996093 5.285156 0 10.058594 1.078125 14.210938 3.269531.605468.320312 1.199218.664062 1.78125 1.03125-11.8125 8.839844-22.671876 18.929688-32.921876 29.519531-10.414062 10.761719-20.214843 22.105469-29.5625 33.800781-9.316406 11.65625-18.183593 23.671876-26.675781 35.945313-8.734375 12.628906-17.070312 25.527344-25.046875 38.648437-7.886718 12.976563-15.417968 26.171876-22.609375 39.546876-7.316406 13.613281-14.261719 27.421874-20.839843 41.40625-6.601563 14.03125-12.828126 28.242187-18.59375 42.636718-5.613282 14.011719-10.878907 28.171875-15.53125 42.535156zm166.027343-253.117187-158.941406 301.21875c5.074219-21.851563 11.875-43.28125 19.648437-64.3125 7.75-20.960937 16.527344-41.539063 26.078126-61.742187 9.75-20.632813 20.351562-40.871094 31.71875-60.660157 11.222656-19.546875 23.226562-38.652343 36.105468-57.148437 12.449219-17.882813 25.722656-35.234375 40.164063-51.558594 1.722656-1.945312 3.464843-3.878906 5.226562-5.796875zm114.058594 61.425781c-5.085937 21.621094-11.859375 42.828125-19.5625 63.652344-7.902344 21.371094-16.90625 42.324219-26.667969 62.90625-9.628906 20.292969-20.105468 40.191406-31.304687 59.664062-10.972657 19.078126-22.703125 37.734376-35.25 55.816407-12.527344 18.046875-25.898438 35.558593-40.445313 52.03125-1.804687 2.039062-3.625 4.0625-5.46875 6.066406l158.457032-300.289063c.160156-.308593.324218-.617187.488281-.925781-.085938.359375-.164063.71875-.246094 1.078125zm.019531-43.511718-193.859375 367.390624c-8.660156 16.410157-27.226562 25.910157-45.597656 23.378907-17.292969-2.382813-31.867187-15.027344-36.730469-31.769531-3.207031-11.035157-1.972656-23.097657 3.390625-33.261719l193.863281-367.390625c7.488282-14.195313 22.496094-23.417969 38.527344-23.785156 15.273438-.347657 30.078125 7.46875 38.378906 20.285156 4.804688 7.421875 7.308594 16.210937 7.175782 25.042968-.105469 6.996094-1.882813 13.921876-5.148438 20.109376zm0 0"/><path d="m337.007812 363.988281c-1.609374-3.859375-5.589843-6.386719-9.773437-6.160156-4.15625.222656-7.824219 3.109375-9.027344 7.089844-1.1875 3.917969.195313 8.34375 3.472657 10.832031 3.386718 2.566406 8.09375 2.726562 11.636718.378906 3.941406-2.613281 5.476563-7.78125 3.691406-12.140625zm0 0"/></svg>