<?xml version="1.0" encoding="iso-8859-1"?>
<!-- Generator: Adobe Illustrator 19.0.0, SVG Export Plug-In . SVG Version: 6.00 Build 0)  -->
<svg version="1.1" id="Capa_1" xmlns="http://www.w3.org/2000/svg" xmlns:xlink="http://www.w3.org/1999/xlink" x="0px" y="0px"
	 viewBox="0 0 480 480" style="enable-background:new 0 0 480 480;" xml:space="preserve">
<g>
	<g>
		<path d="M240,0C107.452,0,0,107.452,0,240s107.452,240,240,240s240-107.452,240-240C479.85,107.514,372.486,0.15,240,0z
			 M415.496,101.08c13.213,16.627,23.992,35.049,32.016,54.712l-56.264,32.464c-6.948-20.181-17.87-38.766-32.12-54.656
			L415.496,101.08z M384,240c0,79.529-64.471,144-144,144S96,319.529,96,240S160.471,96,240,96
			C319.491,96.093,383.907,160.509,384,240z M286.104,20.8c45.731,9.666,87.294,33.395,118.864,67.864l-57.488,33.168
			c-17.592-16.095-38.563-28.048-61.376-34.984V20.8z M206.104,18.56c21.199-3.245,42.755-3.406,64-0.48v64.856
			c-21.158-4.154-42.945-3.897-64,0.752V18.56z M190.104,21.672v66.4c-21.835,7.231-41.853,19.087-58.688,34.76L74.088,89.664
			C104.887,55.657,145.383,31.924,190.104,21.672z M63.664,102.112l56.232,32.528c-14.251,16.169-25.081,35.055-31.84,55.52
			L31.768,157.6C39.692,137.674,50.433,118.987,63.664,102.112z M16,240c-0.015-22.758,3.449-45.385,10.272-67.096l57.416,33.216
			c-4.939,22.354-4.939,45.518,0,67.872l-57.4,33.128C19.456,285.402,15.986,262.767,16,240z M63.32,377.448
			c-13.07-16.76-23.689-35.295-31.536-55.048l56.304-32.488c6.706,20.275,17.411,38.999,31.48,55.064L63.32,377.448z
			 M190.104,458.328c-44.903-10.299-85.542-34.186-116.384-68.408l57.328-33.08c16.913,15.834,37.062,27.806,59.056,35.088V458.328z
			 M270.104,461.92c-21.245,2.927-42.801,2.765-64-0.48v-65.128c21.055,4.649,42.842,4.906,64,0.752V461.92z M286.104,459.2v-66.04
			c22.653-6.884,43.492-18.719,61.008-34.648l57.464,33.24C373.052,425.997,331.643,449.572,286.104,459.2z M415.152,379.392
			l-56.352-32.6c14.435-16.004,25.485-34.761,32.488-55.144l56.24,32.536C439.434,344.041,428.531,362.634,415.152,379.392z
			 M395.816,275.792c5.593-23.566,5.593-48.114,0-71.68l57.304-33.064c7.222,22.271,10.893,45.54,10.88,68.952
			c0.004,23.405-3.672,46.665-10.896,68.928L395.816,275.792z"/>
	</g>
</g>
<g>
	<g>
		<path d="M343.928,180c-32.532-57.233-105.3-77.257-162.533-44.726c-0.467,0.265-0.932,0.534-1.395,0.806
			c-57.393,33.14-77.055,106.532-43.915,163.925c33.14,57.393,106.532,77.055,163.925,43.915
			C357.402,310.781,377.064,237.393,343.928,180z M339.662,266.306c-14.917,55.091-71.67,87.659-126.762,72.742
			c-55.091-14.917-87.659-71.67-72.742-126.762c12.191-45.023,53.03-76.299,99.674-76.334c9.148,0.008,18.255,1.216,27.088,3.592h0
			C322.011,154.461,354.579,211.214,339.662,266.306z"/>
	</g>
</g>
<g>
	<g>
		<circle cx="144" cy="408" r="16"/>
	</g>
</g>
<g>
	<g>
		<circle cx="336" cy="408" r="16"/>
	</g>
</g>
<g>
	<g>
		<circle cx="432" cy="240" r="16"/>
	</g>
</g>
<g>
	<g>
		<circle cx="336" cy="72" r="16"/>
	</g>
</g>
<g>
	<g>
		<circle cx="144" cy="72" r="16"/>
	</g>
</g>
<g>
	<g>
		<circle cx="48" cy="240" r="16"/>
	</g>
</g>
<g>
</g>
<g>
</g>
<g>
</g>
<g>
</g>
<g>
</g>
<g>
</g>
<g>
</g>
<g>
</g>
<g>
</g>
<g>
</g>
<g>
</g>
<g>
</g>
<g>
</g>
<g>
</g>
<g>
</g>
</svg>
