<svg height="511pt" viewBox="0 -29 511.99971 511" width="511pt" xmlns="http://www.w3.org/2000/svg"><path d="m511.542969 206.417969c-1.375-6.597657-5.621094-12.480469-11.546875-15.734375-3.488282-1.914063-7.410156-2.964844-11.394532-2.964844h-31.09375c.542969-4.816406.710938-9.074219.710938-10.402344 0-21.320312-17.351562-38.667968-38.671875-38.667968-6.296875 0-12.425781 1.53125-17.910156 4.417968-.972657-22.550781-19.621094-40.601562-42.40625-40.601562-3.265625 0-6.519531.382812-9.6875 1.125-9.238281-17.207032-27.523438-28.539063-47.523438-28.539063-7.875 0-15.550781 1.695313-22.59375 4.957031-6.207031-5.238281-13.761719-8.566406-21.871093-9.597656v-59.871094c0-5.542968-4.496094-10.039062-10.039063-10.039062h-135.035156c-4.058594 0-7.722657 2.445312-9.277344 6.199219-1.550781 3.75-.691406 8.070312 2.179687 10.941406l73.824219 73.824219c-4.699219 2.78125-8.914062 6.371094-12.433593 10.664062-6.359376-3.042968-13.375-4.660156-20.492188-4.660156-24.230469 0-44.28125 18.265625-47.101562 41.753906-2.1875-.382812-4.425782-.574218-6.695313-.574218-21.320313 0-38.667969 17.34375-38.667969 38.667968 0 3.566406.488282 7.054688 1.417969 10.398438h-31.804687c-6.414063 0-12.621094 2.675781-17.027344 7.339844-4.410156 4.667968-6.699219 11.050781-6.371094 17.453124.34375 6.726563 1.035156 13.457032 1.945312 20.128907 17.082032 125.742187 124.992188 221.519531 254.039063 221.519531 128.082031 0 235.339844-94.355469 253.632813-218.707031.339843-2.289063.640624-4.585938.917968-6.882813.441406-3.664062.808594-7.339844 1.089844-11.019531.28125-3.726563.65625-7.4375-.113281-11.128906zm-374.824219-185.839844h100.757812v52.074219c-7.730468 2.828125-14.496093 7.863281-19.441406 14.53125-5.449218-1.769532-11.246094-2.550782-16.964844-2.253906zm-44.234375 138.148437c4.210937 0 8.191406 1.390626 11.515625 4.023438 3.40625 2.699219 8.160156 2.898438 11.777344.5 3.621094-2.398438 5.289062-6.855469 4.132812-11.042969-.65625-2.382812-.988281-4.839843-.988281-7.296875 0-15.085937 12.273437-27.359375 27.359375-27.359375 6.339844 0 12.292969 2.105469 17.214844 6.097657 2.375 1.925781 5.5 2.664062 8.480468 2.007812 2.988282-.65625 5.507813-2.636719 6.855469-5.378906 3.964844-8.074219 11.414063-13.523438 20.054688-14.945313 4.425781-.679687 8.898437-.398437 13.160156 1.019531 2.066406.6875 3.871094 1.75 5.820313 2.683594 1.765624.84375 3.773437 1.144532 5.707031.882813 4.125-.550781 6.503906-3.386719 8.34375-6.855469 1.835937-3.460938 3.941406-6.402344 7.167969-8.71875 3.777343-2.707031 8.378906-4.203125 13.027343-4.203125 6.90625 0 13.320313 3.125 17.601563 8.574219 3.242187 4.136718 9.128906 5.066406 13.496094 2.136718 5.566406-3.742187 12.070312-5.722656 18.808593-5.722656 14.800781 0 28.105469 9.898438 32.351563 24.0625.867187 2.886719 2.980468 5.226563 5.757812 6.386719 2.78125 1.15625 5.929688 1.003906 8.589844-.410156 3.257812-1.738281 6.792969-2.621094 10.507812-2.621094 12.332032 0 22.367188 10.03125 22.367188 22.363281 0 1.398438-.136719 2.824219-.40625 4.234375-.820312 4.285157 1.222656 8.609375 5.054688 10.699219 3.027343 1.652344 5.992187 3.34375 8.808593 5.027344 3.8125 2.28125 8.671875 1.78125 11.945313-1.222656 3.453125-3.171876 7.910156-4.921876 12.550781-4.921876 10.25 0 18.589844 8.339844 18.589844 18.589844 0 2.738282-.382813 6.921875-.871094 10.402344h-360.183594c-2.074219-3.050781-3.1875-6.636719-3.1875-10.402344 0-10.25 8.339844-18.589844 18.589844-18.589844zm163.53125 275.351563c-101.546875 0-188.898437-64.34375-222.070313-155.277344h444.140626c-33.175782 90.933594-120.523438 155.277344-222.070313 155.277344zm-228.355469-175.355469c-4.015625-15.265625-6.6875-31.597656-7.582031-47.351562-.105469-1.910156 1.433594-3.574219 3.351563-3.574219h465.171874c1.179688 0 2.3125.65625 2.894532 1.679687.664062 1.167969.40625 2.53125.324218 3.804688-.226562 3.445312-.515624 6.882812-.886718 10.320312-1.292969 11.855469-3.484375 23.609376-6.546875 35.121094zm0 0"/><path d="m427.40625 312.898438c-4.441406-3.316407-10.730469-2.40625-14.050781 2.039062-15.234375 20.398438-33.996094 37.4375-55.761719 50.636719-4.742188 2.875-6.253906 9.046875-3.382812 13.789062 1.890624 3.117188 5.199218 4.835938 8.597656 4.835938 1.769531 0 3.566406-.46875 5.195312-1.457031 23.984375-14.539063 44.65625-33.3125 61.441406-55.792969 3.316407-4.441407 2.40625-10.734375-2.039062-14.050781zm0 0"/><path d="m191.273438 129.808594c-18.234376 0-34.558594 10.175781-42.601563 26.554687-2.445313 4.980469-.390625 10.996094 4.585937 13.4375 1.425782.699219 2.933594 1.03125 4.417969 1.03125 3.710938 0 7.273438-2.0625 9.019531-5.617187 4.644532-9.453125 14.058594-15.328125 24.578126-15.328125 5.542968 0 10.039062-4.492188 10.039062-10.039063 0-5.542968-4.496094-10.039062-10.039062-10.039062zm0 0"/><path d="m273.84375 126.878906c-5.25 1.792969-8.050781 7.5-6.261719 12.746094 1.792969 5.246094 7.496094 8.046875 12.746094 6.257812 9.96875-3.402343 20.777344-.898437 28.214844 6.539063 1.960937 1.960937 4.53125 2.941406 7.101562 2.941406 2.570313 0 5.136719-.980469 7.097657-2.9375 3.921874-3.921875 3.921874-10.28125 0-14.199219-12.890626-12.894531-31.628907-17.242187-48.898438-11.347656zm0 0"/><path d="m237.660156 160.765625c0 5.566406-4.511718 10.078125-10.078125 10.078125-5.566406 0-10.082031-4.511719-10.082031-10.078125s4.515625-10.082031 10.082031-10.082031c5.566407 0 10.078125 4.515625 10.078125 10.082031zm0 0"/><path d="m337.058594 391.203125c0 5.566406-4.511719 10.078125-10.078125 10.078125-5.566407 0-10.082031-4.511719-10.082031-10.078125s4.515624-10.078125 10.082031-10.078125c5.566406 0 10.078125 4.511719 10.078125 10.078125zm0 0"/></svg>