<svg height="512pt" viewBox="0 -13 512 512" width="512pt" xmlns="http://www.w3.org/2000/svg"><path d="m472.925781 353.171875-17.417969-77.371094v-90.359375c11.207032-4.3125 18.886719-10.894531 18.886719-20.359375v-61.199219c0-.398437-.03125-.792968-.074219-1.179687-.011718-.101563-.03125-.199219-.046874-.300781-.046876-.304688-.105469-.605469-.175782-.902344-.027344-.101562-.050781-.199219-.078125-.300781-.097656-.347657-.210937-.691407-.34375-1.023438-.015625-.035156-.023437-.070312-.039062-.105469-.15625-.378906-.335938-.742187-.535157-1.09375-.015624-.027343-.023437-.050781-.039062-.078124l-53.984375-93.882813c-1.785156-3.105469-5.089844-5.015625-8.667969-5.015625-3.582031 0-6.886718 1.910156-8.671875 5.015625l-27.652343 48.09375c-36.613282-19.175781-77.625-29.277344-119.25-29.277344s-82.636719 10.101563-119.25 29.277344l-27.652344-48.09375c-1.785156-3.105469-5.089844-5.015625-8.671875-5.015625-3.578125 0-6.882813 1.910156-8.667969 5.015625l-53.984375 93.882813c-.015625.027343-.023437.054687-.039063.078124-.199218.351563-.378906.714844-.535156 1.09375-.015625.035157-.023437.070313-.039062.105469-.132813.332031-.246094.675781-.34375 1.023438-.027344.101562-.050782.199219-.078125.300781-.070313.296875-.128907.597656-.175781.902344-.015626.101562-.035157.203125-.046876.300781-.042968.390625-.074218.78125-.074218 1.183594v61.199219c0 9.464843 7.679687 16.046874 18.886718 20.359374v90.359376l-17.597656 78.167968c-21.253906 7.351563-36.566406 27.554688-36.566406 51.28125 0 29.917969 24.34375 54.261719 54.261719 54.261719h51.378906c5.53125 15.617187 20.445313 26.839844 37.933594 26.839844h92.003906c.472656 0 .929687-.042969 1.382813-.105469 16.214843-1.105469 29.890624-12.015625 35.171874-26.734375h105.605469c5.523438 0 10-4.480469 10-10 0-5.523437-4.476562-10-10-10h-103.277343l-.0625-66.703125v-1.820312h183.339843c18.890625 0 34.261719 15.371093 34.261719 34.261718s-15.371094 34.261719-34.261719 34.261719c-5.523437 0-10 4.476563-10 10s4.476563 10 10 10c29.917969 0 54.261719-24.339844 54.261719-54.261719 0-24.648437-16.523438-45.496094-39.074219-52.082031zm-137.222656-2.179687v-5.980469c0-22.1875-18.242187-40.238281-40.667969-40.238281-.09375 0-.1875.007812-.28125.007812-.050781 0-.09375-.007812-.140625-.007812h-92.007812c-22.1875 0-40.238281 18.050781-40.238281 40.238281v5.980469h-1.074219l-16.929688-75.191407v-2.988281h220.949219v2.988281l-16.929688 75.191407zm-40.667969-26.21875c11.203125 0 20.667969 9.269531 20.667969 20.238281v5.953125h-41.324219l-.007812-5.953125c0-10.972657 9.464844-20.238281 20.664062-20.238281zm-163.304687-156.292969c-8.941407 2.4375-20.472657 3.777343-32.46875 3.777343-11.996094 0-23.523438-1.34375-32.46875-3.777343-.066407-.019531-.132813-.027344-.199219-.042969-5.867188-1.601562-9.71875-3.414062-11.316406-4.808594v-49.746094h87.972656v49.746094c-1.597656 1.394532-5.453125 3.207032-11.320312 4.808594-.0625.015625-.128907.023438-.199219.042969zm31.519531-3.398438v-14.605469c26.933594-18.980468 58.488281-28.996093 91.585938-28.996093 33.097656 0 64.652343 10.015625 91.585937 28.996093v14.605469c0 9.464844 7.679687 16.046875 18.890625 20.359375v23.109375h-220.953125v-23.109375c11.210937-4.3125 18.890625-10.894531 18.890625-20.359375zm291.144531-1.453125c-1.597656 1.394532-5.453125 3.207032-11.316406 4.808594-.066406.015625-.136719.023438-.199219.039062-8.945312 2.4375-20.476562 3.78125-32.472656 3.78125s-23.523438-1.34375-32.46875-3.78125c-.066406-.015624-.132812-.023437-.199219-.042968-5.867187-1.601563-9.71875-3.410156-11.316406-4.804688v-49.746094h87.972656zm-2.5 187.171875h-82.96875l14.382813-63.886719h54.199218zm-307.535156-122.25h220.949219v24.261719h-220.949219zm-3.613281 122.25h-82.96875l14.386718-63.886719h54.199219zm294.761718-83.886719h-50.195312v-76.460937c6.023438.917969 12.308594 1.457031 18.503906 1.679687.054688.003907.109375.003907.164063.007813.917969.03125 1.835937.054687 2.75.074219.1875.003906.378906.011718.570312.015625 1.039063.015625 2.078125.027343 3.109375.027343s2.066406-.011718 3.109375-.027343c.191407-.003907.378907-.011719.570313-.015625.914062-.015625 1.828125-.042969 2.746094-.074219.054687-.003906.109374-.003906.164062-.007813 6.199219-.222656 12.480469-.761718 18.507812-1.679687zm-25.101562-236.855468 36.703125 63.824218h-73.402344l7.972657-13.863281 4.859374-8.453125s0 0 .003907-.003906zm-155.570312 13.773437c38.128906 0 75.695312 9.175781 109.273437 26.617188l-16.355469 28.449219c-.015625.023437-.023437.050781-.039062.074218-.195313.351563-.375.710938-.53125 1.085938-.003906.007812-.007813.011718-.007813.019531-.015625.03125-.023437.0625-.035156.09375-.128906.328125-.242187.664063-.339844 1.007813-.011719.046874-.03125.089843-.042969.136718-.015624.058594-.023437.121094-.039062.179688-.070312.289062-.125.582031-.171875.882812-.011719.070313-.03125.140625-.039063.210938-.007812.039062-.003906.074218-.011718.113281-.046875.386719-.074219.777344-.074219 1.179687v22.75c-27.644531-16.507812-58.949219-25.152343-91.585937-25.152343-32.636719 0-63.945313 8.644531-91.585938 25.152343v-22.75c0-.402343-.03125-.792968-.078125-1.179687-.003906-.039063-.003906-.074219-.007813-.113281-.011718-.070313-.03125-.140625-.042968-.210938-.042969-.300781-.101563-.59375-.171875-.882812-.015625-.058594-.019531-.121094-.039063-.183594-.011718-.042969-.027344-.085938-.042968-.132812-.09375-.34375-.207032-.679688-.339844-1.007813-.011719-.03125-.019532-.0625-.03125-.09375-.003906-.007813-.007813-.015625-.007813-.019531-.15625-.375-.335937-.734375-.535156-1.085938-.011719-.023437-.019531-.050781-.035156-.074218l-16.359375-28.449219c33.582031-17.441407 71.148437-26.617188 109.277344-26.617188zm-155.570313-13.773437 23.863281 41.503906c.003906.003906.003906.003906.003906.003906l4.859376 8.453125 7.972656 13.863281h-73.402344zm-6.59375 162.078125c.054687 0 .109375.003906.164063.003906.917968.03125 1.835937.058594 2.75.078125.1875.003906.378906.007812.566406.011719 1.042968.015625 2.082031.027343 3.113281.027343s2.066406-.011718 3.109375-.027343c.1875-.003907.378906-.007813.570312-.011719.910157-.019531 1.828126-.042969 2.746094-.078125.054688 0 .109375-.003906.164063-.003906 6.199219-.226563 12.480469-.765625 18.507812-1.683594v76.460937h-50.199219v-76.460937c6.027344.917969 12.3125 1.457031 18.507813 1.683594zm-72.671875 213.117187c0-18.894531 15.371094-34.261718 34.261719-34.261718h108.105469v44.574218h-49.03125c-5.519532 0-10 4.476563-10 10v13.949219h-49.074219c-18.890625 0-34.261719-15.371094-34.261719-34.261719zm123.574219 61.101563c-11.160157 0-20.238281-9.078125-20.238281-20.238281v-10.550782h72.007812v10.550782c0 .8125.03125 1.621093.082031 2.421874.015625.289063.039063.574219.0625.859376.042969.496093.09375.984374.152344 1.476562.042969.363281.085937.726562.136719 1.085938.046875.308593.105468.609374.15625.917968.820312 4.835938 2.488281 9.386719 4.878906 13.476563zm91.425781-.03125c-.164062-.003907-.324219-.015625-.484375-.023438-.496094-.027343-.984375-.0625-1.46875-.121093-.152344-.019532-.300781-.046876-.449219-.070313-.53125-.078125-1.058594-.167969-1.574218-.289063-.070313-.015624-.136719-.039062-.207032-.054687-8.207031-2.011719-14.507812-9.085937-15.371094-17.632813-.066406-.664062-.101562-1.335937-.101562-2.015624v-20.550782c0-5.519531-4.480469-10-10-10h-22.976562v-70.554687c0-11.15625 9.078124-20.238281 20.238281-20.238281h57.238281c-1.496094 2.5625-2.699219 5.308593-3.605469 8.1875-.023437.082031-.050781.167968-.078125.253906-.171875.5625-.339844 1.125-.488281 1.699218-.050781.195313-.09375.394532-.140625.59375-.183594.75-.347656 1.503907-.484375 2.265626-.089844.476562-.175781.953124-.246094 1.429687-.042969.316406-.082031.632813-.121093.949219-.066407.535156-.117188 1.070312-.164063 1.609375-.019531.269531-.042969.539062-.0625.808593-.046875.8125-.082031 1.628907-.082031 2.453126l.03125 31.015624.0625 70.136719c-.03125 10.78125-8.722656 19.746094-19.464844 20.148438zm0 0"/><path d="m426.96875 445.6875c-.25-.601562-.558594-1.179688-.917969-1.71875-.359375-.550781-.78125-1.0625-1.242187-1.523438-.457032-.46875-.96875-.878906-1.519532-1.25-.539062-.359374-1.117187-.667968-1.730468-.917968-.597656-.25-1.226563-.441406-1.867188-.570313-1.292968-.261719-2.621094-.261719-3.910156 0-.632812.128907-1.261719.320313-1.871094.570313-.601562.25-1.179687.558594-1.71875.917968-.550781.371094-1.0625.78125-1.519531 1.25-.460937.460938-.882813.972657-1.25 1.523438-.363281.539062-.671875 1.117188-.921875 1.71875-.25.609375-.441406 1.238281-.570312 1.871094-.128907.648437-.1875 1.296875-.1875 1.957031 0 .652344.058593 1.3125.1875 1.953125.128906.636719.320312 1.269531.570312 1.867188.25.601562.558594 1.179687.921875 1.730468.367187.550782.789063 1.0625 1.25 1.519532.457031.460937.96875.882812 1.519531 1.242187.539063.359375 1.117188.667969 1.71875.917969.609375.25 1.238282.441406 1.871094.570312.648438.128906 1.308594.199219 1.960938.199219.648437 0 1.308593-.070313 1.949218-.199219s1.269532-.320312 1.867188-.570312c.613281-.25 1.191406-.558594 1.730468-.917969.550782-.359375 1.0625-.78125 1.519532-1.242187.460937-.457032.882812-.96875 1.242187-1.519532.359375-.539062.667969-1.128906.917969-1.730468.25-.597657.441406-1.230469.570312-1.867188.132813-.640625.199219-1.300781.199219-1.953125 0-.648437-.066406-1.308594-.199219-1.957031-.128906-.632813-.320312-1.261719-.570312-1.871094zm0 0"/></svg>