<svg height="512pt" viewBox="-3 0 512 512" width="512pt" xmlns="http://www.w3.org/2000/svg"><path d="m496.910156 221.007812h-10.925781v-66.570312c0-5.546875-4.496094-10.042969-10.042969-10.042969h-66.574218v-13.253906c0-5.546875-4.496094-10.042969-10.042969-10.042969h-291.695313c-5.550781 0-10.042968 4.496094-10.042968 10.042969v13.253906h-66.574219c-5.546875 0-10.042969 4.496094-10.042969 10.042969v66.570312h-10.925781c-5.546875 0-10.042969 4.496094-10.042969 10.042969v270.90625c0 5.546875 4.496094 10.042969 10.042969 10.042969h486.867187c5.546875 0 10.042969-4.496094 10.042969-10.042969v-270.90625c0-5.546875-4.5-10.042969-10.042969-10.042969zm-379.238281-79.824218h271.609375v22.417968h-271.609375zm-76.617187 23.292968h56.53125v9.164063c0 5.546875 4.492187 10.042969 10.042968 10.042969h291.695313c5.546875 0 10.042969-4.496094 10.042969-10.042969v-9.164063h56.53125v56.53125h-424.84375zm124.5625 276.777344v50.660156h-145.53125v-162.023437h145.53125zm52.042968 50.660156h-31.957031v-40.617187h31.957031zm52.046875 0h-31.960937v-40.617187h31.960937zm-42.960937-60.703124 5.746094-11.023438h42.472656l5.742187 11.023438zm95.007812 60.703124h-31.960937v-40.617187h31.960937zm0-60.703124h-18.398437l-13.394531-25.707032c-1.730469-3.320312-5.164063-5.402344-8.90625-5.402344h-54.65625c-3.742188 0-7.175782 2.082032-8.90625 5.402344l-13.394532 25.707032h-18.394531v-101.320313h136.050781zm165.113282 60.703124h-145.03125v-162.023437h145.03125zm0-226.550781h-309.050782c-5.546875 0-10.042968 4.496094-10.042968 10.042969s4.496093 10.042969 10.042968 10.042969h309.050782v24.273437h-466.78125v-24.273437h77.242187c5.546875 0 10.042969-4.496094 10.042969-10.042969s-4.496094-10.042969-10.042969-10.042969h-77.242187v-24.273437h466.78125zm0 0"/><path d="m414.476562 474.21875c35.242188 0 63.914063-28.671875 63.914063-63.914062 0-35.242188-28.671875-63.910157-63.914063-63.910157-35.242187 0-63.910156 28.667969-63.910156 63.910157 0 35.242187 28.667969 63.914062 63.910156 63.914062zm0-107.742188c24.167969 0 43.828126 19.664063 43.828126 43.828126 0 24.167968-19.660157 43.828124-43.828126 43.828124-24.164062 0-43.828124-19.660156-43.828124-43.828124 0-24.164063 19.664062-43.828126 43.828124-43.828126zm0 0"/><path d="m92.976562 346.394531c-35.242187 0-63.914062 28.667969-63.914062 63.910157 0 35.242187 28.671875 63.914062 63.914062 63.914062 35.242188 0 63.914063-28.671875 63.914063-63.914062 0-35.242188-28.671875-63.910157-63.914063-63.910157zm0 107.738281c-24.167968 0-43.828124-19.660156-43.828124-43.828124 0-24.164063 19.664062-43.828126 43.828124-43.828126 24.167969 0 43.828126 19.664063 43.828126 43.828126 0 24.167968-19.660157 43.828124-43.828126 43.828124zm0 0"/><path d="m92.890625 23.9375c-.894531-.714844-1.925781-1.277344-2.898437-1.875l-28.109376-17.292969c-3.621093-2.226562-7.207031-5.097656-11.746093-4.367187-4.789063.773437-8.417969 5.015625-8.441407 9.867187-.007812 1.382813.347657 2.695313.664063 4.027344l10.417969 43.722656c-13.375-1.164062-26.046875 7.214844-30.308594 19.921875-3.984375 11.867188.296875 25.304688 10.320312 32.75 5.027344 3.730469 11.210938 5.800782 17.472657 5.800782 11.53125 0 22.144531-6.96875 26.804687-17.496094 2.445313-5.519532 3.101563-11.726563 1.894532-17.636719l-11.796876-49.613281c.011719-.039063-.027343-.128906-.039062-.171875 4.09375 2.519531 8.183594 5.035156 12.277344 7.554687 2.058594 1.265625 4.03125 2.5 6.535156 2.664063 4.375.285156 8.527344-2.394531 10.070312-6.496094 1.511719-4.011719.226563-8.683594-3.117187-11.359375zm-38.507813 71.492188c-3.207031 1.601562-7.140624 1.164062-9.921874-1.089844-3.546876-2.875-4.425782-8.070313-2.03125-11.964844 2.066406-3.359375 6.160156-5.066406 10.003906-4.125 3.328125.8125 5.992187 3.480469 6.785156 6.816406.976562 4.09375-1.070312 8.480469-4.835938 10.363282zm0 0"/><path d="m425.609375 40.324219 14.21875-8.75-11.625 48.808593c-2.316406 9.328126.410156 19.460938 6.839844 26.546876 6.539062 7.210937 16.574219 10.734374 26.195312 9.214843 9.417969-1.492187 17.765625-7.675781 21.875-16.285156 4.308594-9.023437 3.679688-19.808594-1.644531-28.269531-5.789062-9.199219-16.445312-14.511719-27.289062-13.582032l10.804687-45.363281c.941406-3.949219-.589844-8.078125-3.878906-10.460937-3.292969-2.382813-7.691407-2.546875-11.152344-.417969l-34.867187 21.449219c-4.722657 2.90625-6.195313 9.09375-3.289063 13.816406 2.90625 4.726562 9.089844 6.199219 13.8125 3.292969zm26.261719 39.035156c3.359375-2.066406 7.800781-1.742187 10.796875.835937 2.964843 2.554688 4.019531 6.796876 2.566406 10.433594-1.433594 3.582032-5.113281 5.9375-8.964844 5.765625-3.753906-.171875-7.089843-2.703125-8.296875-6.257812-1.367187-4.023438.285156-8.554688 3.898438-10.777344zm0 0"/><path d="m253.65625 60.902344c5.546875 0 10.039062-4.496094 10.039062-10.042969v-40.816406c0-5.546875-4.492187-10.042969-10.039062-10.042969s-10.042969 4.496094-10.042969 10.042969v40.816406c0 5.546875 4.496094 10.042969 10.042969 10.042969zm0 0"/><path d="m308.984375 80.71875c4.742187 0 7.539063-3.375 10.585937-6.398438 3.957032-3.933593 7.917969-7.867187 11.875-11.800781 4.605469-4.570312 9.210938-9.144531 13.8125-13.71875 2.886719-2.867187 5.777344-5.734375 8.664063-8.605469 1.648437-1.636718 2.914063-3.507812 3.34375-5.847656.871094-4.765625-1.898437-9.613281-6.457031-11.261718-3.703125-1.335938-7.777344-.332032-10.566406 2.390624-.742188.722657-1.472657 1.460938-2.210938 2.195313-3.675781 3.652344-7.355469 7.304687-11.035156 10.960937-4.636719 4.605469-9.273438 9.210938-13.910156 13.816407-3.304688 3.285156-6.609376 6.566406-9.914063 9.851562-.832031.824219-1.714844 1.628907-2.394531 2.585938-2.816406 3.988281-2.285156 9.582031 1.203125 12.984375 1.863281 1.816406 4.402343 2.847656 7.003906 2.847656zm0 0"/><path d="m191.007812 77.882812c3.859376 3.886719 10.3125 3.898438 14.199219.046876 3.457031-3.421876 3.925781-9.027344 1.085938-12.976563-.664063-.925781-1.519531-1.710937-2.316407-2.515625-1.328124-1.335938-2.65625-2.671875-3.984374-4.007812-4.25-4.277344-8.5-8.558594-12.75-12.835938-4.425782-4.457031-8.847657-8.910156-13.273438-13.367188-2.265625-2.277343-4.507812-4.582031-6.796875-6.839843-2.804687-2.769531-6.9375-3.785157-10.671875-2.40625-4.550781 1.679687-7.285156 6.546875-6.378906 11.304687.734375 3.859375 3.945312 6.40625 6.574218 9.050782 4 4.03125 8 8.058593 12.003907 12.085937 4.550781 4.582031 9.101562 9.164063 13.648437 13.742187 2.753906 2.773438 5.503906 5.542969 8.257813 8.3125.132812.136719.265625.269532.402343.40625zm0 0"/><path d="m263.785156 91c0 5.570312-4.515625 10.085938-10.085937 10.085938-5.570313 0-10.085938-4.515626-10.085938-10.085938s4.515625-10.085938 10.085938-10.085938c5.570312 0 10.085937 4.515626 10.085937 10.085938zm0 0"/><path d="m147.675781 275.363281c0 5.570313-4.515625 10.085938-10.085937 10.085938-5.570313 0-10.082032-4.515625-10.082032-10.085938 0-5.570312 4.511719-10.085937 10.082032-10.085937 5.570312 0 10.085937 4.515625 10.085937 10.085937zm0 0"/><path d="m236.445312 367.757812c0 5.566407-4.515624 10.082032-10.085937 10.082032s-10.085937-4.515625-10.085937-10.082032c0-5.570312 4.515624-10.085937 10.085937-10.085937s10.085937 4.515625 10.085937 10.085937zm0 0"/><path d="m291.097656 367.757812c0 5.566407-4.515625 10.082032-10.085937 10.082032-5.570313 0-10.085938-4.515625-10.085938-10.082032 0-5.570312 4.515625-10.085937 10.085938-10.085937 5.570312 0 10.085937 4.515625 10.085937 10.085937zm0 0"/></svg>