<svg height="512pt" viewBox="-42 0 512 512" width="512pt" xmlns="http://www.w3.org/2000/svg"><path d="m278.585938 146.71875c-7.601563 0-13.761719 6.160156-13.761719 13.757812v97.039063c0 12.039063-9.972657 21.75-22.105469 21.320313-11.558594-.414063-20.554688-10.265626-20.554688-21.828126v-96.53125c0-7.597656-6.160156-13.757812-13.757812-13.757812h-12.441406c-7.730469 0-13.996094 6.265625-13.996094 13.996094v26.515625c0 8.589843-6.96875 15.558593-15.5625 15.558593-8.589844 0-15.558594-6.96875-15.558594-15.558593v-26.515625c0-7.730469-6.265625-13.996094-13.996094-13.996094h-38.410156c-29.601562 0-53.714844 23.996094-53.714844 53.597656v122.125c0 .53125.074219 1.054688 0 1.574219v130.503906h251.199219v-307.800781zm0 0" fill="#f5c86e"/><path d="m10.835938 322.441406c0 8.128906 8.414062 14.722656 16.667968 14.722656s17.21875-6.59375 17.21875-14.722656v-122.125c0-29.601562 24.117188-53.597656 53.71875-53.597656h38.410156c7.730469 0 13.996094 6.265625 13.996094 13.996094v26.515625c0 8.589843 6.964844 15.558593 15.558594 15.558593s15.558594-6.96875 15.558594-15.558593v-26.515625c0-7.730469 6.269531-13.996094 14-13.996094h12.441406c7.597656 0 13.757812 6.160156 13.757812 13.757812v96.53125c0 11.5625 8.992188 21.414063 20.554688 21.828126 12.132812.429687 22.105469-9.28125 22.105469-21.320313v-97.039063c0-7.597656 6.160156-13.757812 13.757812-13.757812h17.863281c12.585938-5.265625 21.414063-17.554688 21.414063-31.875 0-11.203125-5.40625-21.15625-13.78125-27.484375.039063-.757813.0625-1.519531.0625-2.289063 0-23.589843-19.410156-42.714843-43.355469-42.714843-1.910156 0-3.785156.132812-5.625.371093-1.492187-17.765624-16.589844-31.726562-35.003906-31.726562-14.09375 0-26.246094 8.183594-31.839844 19.988281-6.246094-5.609375-14.550781-9.035156-23.664062-9.035156-14.355469 0-26.695313 8.488281-32.144532 20.644531-6.203124-3.925781-13.578124-6.214844-21.496093-6.214844-20.910157 0-38.046875 15.886719-39.675781 36.074219-2.230469-.300781-4.503907-.472656-6.816407-.472656-27.371093 0-53.683593 21.863281-53.683593 48.828125zm0 0" fill="#f0f0fa"/><path d="m296.128906 454.519531h-251.410156c-10.714844 0-19.40625 8.6875-19.40625 19.402344v7.671875c0 10.71875 8.691406 19.40625 19.40625 19.40625h251.410156c10.71875 0 19.40625-8.6875 19.40625-19.40625v-7.671875c0-10.714844-8.6875-19.402344-19.40625-19.402344zm0 0" fill="#f0f0fa"/><path d="m295.925781 419.015625h46.542969c41.035156 0 74.296875-54.105469 74.296875-120.839844 0-66.738281-33.265625-120.839843-74.296875-120.839843h-46.542969v35h46.542969c15.644531 0 39.296875 34.234374 39.296875 85.839843 0 51.601563-23.652344 85.839844-39.296875 85.839844h-46.542969zm0 0" fill="#f5c86e"/><path d="m99.292969 230.824219c-5.546875 0-10.039063 4.496093-10.039063 10.039062v165.617188c0 5.542969 4.492188 10.039062 10.039063 10.039062 5.542969 0 10.039062-4.496093 10.039062-10.039062v-165.617188c0-5.542969-4.496093-10.039062-10.039062-10.039062zm0 0"/><path d="m168.429688 240.414062c-5.542969 0-10.039063 4.492188-10.039063 10.039063v156.027344c0 5.542969 4.496094 10.039062 10.039063 10.039062 5.546874 0 10.039062-4.496093 10.039062-10.039062v-156.027344c0-5.546875-4.496094-10.039063-10.039062-10.039063zm0 0"/><path d="m237.566406 320.546875c-5.542968 0-10.039062 4.496094-10.039062 10.039063v75.894531c0 5.542969 4.496094 10.039062 10.039062 10.039062 5.546875 0 10.039063-4.496093 10.039063-10.039062v-75.894531c0-5.546876-4.492188-10.039063-10.039063-10.039063zm0 0"/><path d="m404.265625 207.300781c-15.980469-26-37.75-40.316406-61.289063-40.316406h-36.691406v-14.269531c13.550782-8.011719 22.023438-22.5 22.023438-38.425782 0-12.320312-4.980469-23.800781-13.824219-32.207031-1.199219-27.296875-23.425781-49.300781-51.039063-50.546875-5.785156-18.285156-23.21875-31.535156-43.261718-31.535156-13.546875 0-26.253906 6.066406-34.753906 16.078125-6.417969-3.316406-13.59375-5.078125-20.972657-5.078125-14.34375 0-27.632812 6.710938-36.082031 17.707031-5.644531-2.125-11.652344-3.222656-17.769531-3.222656-22.5 0-41.980469 15.078125-48.046875 35.757813-15.316406.34375-30.742188 6.445312-42.527344 16.859374-12.917969 11.414063-20.03125 26.394532-20.03125 42.183594v202.414063c0 13.222656 12.511719 24.820312 26.773438 24.820312 2.398437 0 4.847656-.351562 7.25-1.015625v100.511719c-11.355469 4.117187-19.488282 15.007813-19.488282 27.761719v7.703125c0 16.277343 13.242188 29.519531 29.519532 29.519531h252.398437c16.277344 0 29.519531-13.242188 29.519531-29.519531v-7.703125c0-12.832032-8.230468-23.769532-19.6875-27.828125v-17.257813h36.6875c23.542969 0 45.308594-14.316406 61.292969-40.3125 15.046875-24.472656 23.332031-56.804687 23.332031-91.039062.003906-34.234375-8.285156-66.566406-23.332031-91.039063zm-98.371094 275.179688c0 5.207031-4.234375 9.441406-9.441406 9.441406h-252.398437c-5.203126 0-9.441407-4.234375-9.441407-9.441406v-7.703125c0-5.207032 4.234375-9.441406 9.441407-9.441406h252.398437c5.207031 0 9.441406 4.234374 9.441406 9.441406zm-139.671875-269.863281c14.148438 0 25.660156-11.507813 25.660156-25.65625v-26.621094c0-2.210938 1.796876-4.011719 4.011719-4.011719h12.492188c2.078125 0 3.773437 1.691406 3.773437 3.773437v96.910157c0 15.144531 10.195313 27.78125 24.128906 31.109375 1.992188.472656 4.058594.761718 6.183594.835937 8.617188.300781 16.78125-2.820312 22.980469-8.800781s9.613281-14.019531 9.613281-22.632812v-97.421876c0-2.082031 1.691406-3.773437 3.773438-3.773437h7.367187v288.925781h-232.105469v-245.15625c0-24.132812 19.6875-43.769531 43.890626-43.769531h38.558593c2.210938 0 4.011719 1.800781 4.011719 4.011719v26.621094c0 14.148437 11.511719 25.65625 25.660156 25.65625zm128.359375-76.367188h-15.742187c-13.152344 0-23.851563 10.699219-23.851563 23.851562v97.421876c0 3.117187-1.234375 6.023437-3.476562 8.1875-2.242188 2.160156-5.210938 3.292968-8.324219 3.179687-6.039062-.214844-10.949219-5.542969-10.949219-11.878906v-96.910157c0-13.152343-10.703125-23.851562-23.851562-23.851562h-12.492188c-13.285156 0-24.089843 10.804688-24.089843 24.089844v26.621094c0 3.074218-2.503907 5.578124-5.582032 5.578124s-5.582031-2.503906-5.582031-5.578124v-26.621094c0-13.285156-10.804687-24.089844-24.089844-24.089844h-38.558593c-35.273438 0-63.96875 28.640625-63.96875 63.847656v122.601563c0 1.699219-3.652344 4.742187-7.25 4.742187-3.320313 0-6.695313-2.757812-6.695313-4.742187v-202.414063c0-20.402344 20.902344-38.980468 43.851563-38.980468 1.777343 0 3.625.128906 5.496093.382812 2.730469.367188 5.496094-.402344 7.644531-2.128906 2.148438-1.726563 3.488282-4.261719 3.710938-7.011719 1.222656-15.132813 14.324219-26.984375 29.824219-26.984375 5.769531 0 11.375 1.617188 16.210937 4.679688 2.460938 1.558593 5.476563 1.972656 8.265625 1.132812 2.789063-.839844 5.074219-2.847656 6.265625-5.503906 4.03125-8.988282 13.101563-14.792969 23.109375-14.792969 6.332031 0 12.386719 2.304687 17.046875 6.496094 2.359375 2.117187 5.578125 2.996093 8.6875 2.375 3.105469-.625 5.738282-2.679688 7.09375-5.542969 4.125-8.703125 13.113282-14.328125 22.898438-14.328125 13.027344 0 24.066406 9.949219 25.132812 22.652344.230469 2.726562 1.5625 5.246093 3.691406 6.964843 2.128907 1.722657 4.875 2.5 7.585938 2.152344 1.503906-.195312 2.976562-.289062 4.375-.289062 18.464844 0 33.484375 14.730468 33.484375 32.84375 0 .589844-.015625 1.171875-.046875 1.753906-.179688 3.335938 1.308594 6.542969 3.972656 8.554688 6.257813 4.726562 9.847656 11.863281 9.847656 19.578124 0 9.304688-5.296874 17.734376-13.644531 21.960938zm11.703125 85.949219h36.691406c2.234376 0 9.550782 4.605469 16.71875 18.285156 8.183594 15.605469 12.6875 36.152344 12.6875 57.855469 0 21.699218-4.503906 42.246094-12.6875 57.851562-7.167968 13.679688-14.484374 18.285156-16.71875 18.285156h-36.691406zm80.875 156.664062c-12.191406 19.828125-27.882812 30.75-44.1875 30.75h-36.6875v-15.058593h36.6875c12.253906 0 24.832032-10.582032 34.507813-29.039063 9.660156-18.429687 14.980469-42.289063 14.980469-67.175781 0-24.890625-5.320313-48.746094-14.980469-67.175782-9.675781-18.457031-22.253907-29.039062-34.507813-29.039062h-36.6875v-15.058594h36.6875c16.304688 0 31.996094 10.917969 44.1875 30.75 13.128906 21.351563 20.359375 49.949219 20.359375 80.523438 0 30.570312-7.230469 59.167968-20.359375 80.523437zm0 0"/><path d="m109.324219 199.363281c0 5.546875-4.496094 10.039063-10.039063 10.039063-5.542968 0-10.039062-4.492188-10.039062-10.039063 0-5.542969 4.496094-10.039062 10.039062-10.039062 5.542969 0 10.039063 4.496093 10.039063 10.039062zm0 0"/></svg>