<svg height="512pt" viewBox="0 0 512.00025 512" width="512pt" xmlns="http://www.w3.org/2000/svg"><path d="m511.796875 390.679688c-.675781-3.289063-2.960937-6.023438-6.078125-7.273438l-107.890625-43.191406 61.914063-62.238282c12.378906-12.445312 12.324218-32.644531-.117188-45.023437l-89.558594-89.085937c0-.003907-.003906-.003907-.003906-.007813l-64.949219-64.605469c0-.003906 0-.003906-.003906-.003906l-27.132813-26.992188c-12.445312-12.382812-32.644531-12.328124-45.023437.117188l-61.257813 61.582031-43.105468-107.675781c-1.246094-3.121094-3.980469-5.402344-7.273438-6.078125-3.292968-.671875-6.703125.347656-9.078125 2.726563l-109.308593 109.304687c-2.375 2.375-3.402344 5.789063-2.726563 9.078125.675781 3.292969 2.960937 6.027344 6.078125 7.277344l107.894531 43.191406-61.917969 62.238281c-12.378906 12.445313-12.324218 32.640625.101563 45.003907l15.164063 15.167968c3.90625 3.902344 10.238281 3.902344 14.144531 0 3.902343-3.90625 3.902343-10.238281 0-14.144531l-15.183594-15.183594c-4.628906-4.605469-4.648437-12.113281-.046875-16.738281l180.699219-181.644531c4.601562-4.625 12.109375-4.648438 16.734375-.042969l16.742187 16.652344c-4.476562 2.667968-8.628906 5.894531-12.328125 9.609375-24.277344 24.40625-24.171875 64.011719.230469 88.289062 12.164063 12.097657 28.097656 18.144531 44.027344 18.144531 16.042969 0 32.082031-6.128906 44.261719-18.375 3.699218-3.714843 6.902343-7.882812 9.546874-12.375l79.167969 78.75c4.625 4.601563 4.644531 12.109376.042969 16.734376l-180.695312 181.648437c-4.699219 4.722656-12.742188 4.96875-17.1875.546875l-12.890626-12.917969c1.730469-1.378906 3.394532-2.855469 4.96875-4.441406 10.875-10.933594 16.84375-25.445313 16.804688-40.863281-.042969-15.421875-6.085938-29.902344-17.015625-40.777344-10.898437-10.839844-25.347656-16.800781-40.710937-16.800781-.050782 0-.105469 0-.15625 0-15.417969.039062-29.902344 6.082031-40.777344 17.015625-1.476563 1.484375-2.855469 3.046875-4.15625 4.667968l-15.585938-15.617187c-3.902344-3.90625-10.230468-3.914063-14.140625-.011719-3.910156 3.902344-3.917969 10.234375-.015625 14.140625l23.398438 23.445313c.304687.414062.644531.816406 1.019531 1.1875l23.164063 23.042968 61.960937 62.082032c6.011719 5.980468 14.097656 8.957031 22.242187 8.953125 8.433594 0 16.933594-3.191407 23.253907-9.546875l61.261719-61.582032 43.101562 107.675782c1.25 3.121094 3.984375 5.402344 7.277344 6.078125.667968.136719 1.339844.203125 2.007812.203125 2.625 0 5.175782-1.03125 7.070313-2.925782l109.308593-109.308593c2.375-2.375 3.402344-5.789063 2.726563-9.082031zm-396.140625-362.890626 40.5625 101.320313-6.480469 6.484375-27.960937-27.960938c-3.90625-3.90625-10.238282-3.90625-14.140625 0-3.90625 3.902344-3.90625 10.234376 0 14.140626l27.960937 27.960937-6.484375 6.484375-101.320312-40.5625zm226.96875 138.863282c-7.988281 8.035156-18.632812 12.480468-29.96875 12.507812-.039062 0-.074219 0-.113281 0-11.289063 0-21.914063-4.382812-29.921875-12.347656-16.585938-16.5-16.65625-43.417969-.15625-60.003906 3.75-3.773438 8.179687-6.800782 13.019531-8.925782l56 55.707032c-2.101563 4.847656-5.105469 9.292968-8.859375 13.0625zm-170.542969 194.726562c7.109375-7.144531 16.574219-11.09375 26.652344-11.121094h.101563c10.039062 0 19.484374 3.898438 26.605468 10.980469 7.144532 7.109375 11.09375 16.574219 11.121094 26.652344s-3.875 19.5625-10.984375 26.707031c-1.523437 1.535156-3.160156 2.921875-4.898437 4.160156l-34.957032-34.773437-17.722656-17.757813c1.21875-1.714843 2.578125-3.335937 4.082031-4.847656zm224.261719 122.828125-40.5625-101.320312 6.480469-6.484375 27.960937 27.960937c1.953125 1.953125 4.511719 2.929688 7.070313 2.929688 2.558593 0 5.117187-.976563 7.070312-2.929688 3.90625-3.90625 3.90625-10.238281 0-14.140625l-27.960937-27.960937 6.484375-6.484375 101.320312 40.5625zm0 0"/><path d="m354.332031 313.527344c14.996094-15.074219 14.933594-39.539063-.140625-54.535156-15.074218-14.992188-39.539062-14.933594-54.539062.144531-14.996094 15.074219-14.929688 39.539062.144531 54.535156 7.511719 7.472656 17.355469 11.203125 27.195313 11.203125 9.910156 0 19.816406-3.785156 27.339843-11.347656zm-45.898437-27.144532c-.015625-4.960937 1.902344-9.625 5.398437-13.140624 3.5-3.515626 8.15625-5.460938 13.113281-5.472657h.050782c4.9375 0 9.585937 1.917969 13.089844 5.398438 7.253906 7.222656 7.285156 18.996093.066406 26.253906s-18.992188 7.289063-26.25.070313c-3.515625-3.496094-5.457032-8.152344-5.46875-13.109376zm0 0"/><path d="m194.941406 259.671875h.101563c10.300781-.027344 19.976562-4.0625 27.238281-11.367187 7.265625-7.300782 11.25-16.996094 11.226562-27.296876-.027343-10.300781-4.066406-19.972656-11.367187-27.238281-15.074219-14.996093-39.539063-14.929687-54.535156.144531-7.265625 7.300782-11.25 16.996094-11.222657 27.296876.023438 10.300781 4.0625 19.972656 11.363282 27.238281 7.28125 7.238281 16.933594 11.222656 27.195312 11.222656zm-13.15625-51.652344c3.496094-3.519531 8.152344-5.460937 13.109375-5.472656h.050781c4.941407 0 9.585938 1.917969 13.089844 5.402344 3.515625 3.496093 5.457032 8.152343 5.472656 13.109375.011719 4.960937-1.90625 9.625-5.402343 13.140625-3.5 3.515625-8.15625 5.457031-13.113281 5.472656-.015626 0-.03125 0-.050782 0-4.9375 0-9.585937-1.917969-13.089844-5.402344-3.515624-3.496093-5.457031-8.152343-5.46875-13.113281-.015624-4.957031 1.902344-9.625 5.402344-13.136719zm0 0"/><path d="m111.929688 311.703125c-1.609376-3.933594-5.703126-6.453125-9.941407-6.148437-4.152343.300781-7.746093 3.226562-8.894531 7.226562-1.148438 4.011719.390625 8.4375 3.785156 10.875 3.335938 2.394531 7.953125 2.457031 11.371094.1875 3.921875-2.605469 5.488281-7.800781 3.679688-12.140625zm0 0"/></svg>