<svg height="511pt" viewBox="0 -32 511.99971 511" width="511pt" xmlns="http://www.w3.org/2000/svg"><path d="m501.632812 239.597656c-23.445312.867188-41.339843 6.355469-57.742187 18.242188 2.15625-10.847656.835937-22.058594-3.917969-32.277344-5.917968-12.71875-16.433594-22.371094-29.605468-27.179688-13.175782-4.808593-27.4375-4.199218-40.15625 1.714844-1.46875.6875-2.898438 1.4375-4.285157 2.246094-1.90625-3.984375-2.925781-8.367188-2.925781-12.871094 0-16.4375 13.375-29.8125 29.816406-29.8125 5.519532 0 10-4.476562 10-10v-76.089844c0-4.761718-3.472656-8.878906-8.109375-9.820312l-201.257812-38.761719c-4.945313-.957031-9.832031 1.921875-11.398438 6.707031-2.40625 7.363282-13.515625 15.183594-29.355469 15.183594-15.945312 0-29.933593-8.707031-29.933593-18.636718 0-2.078126.84375-3.757813 1.367187-5.710938.515625-1.925781.429688-3.988281-.222656-5.867188-1.164062-3.332031-4.082031-5.855468-7.550781-6.523437l-49.121094-9.460937c-1.96875-.378907-4.011719-.15625-5.855469.640624-2.09375.902344-51.382812 22.644532-60.085937 67.238282-.925781 4.738281-1.3476565 9.53125-1.28906275 14.367187v226.109375c0 .203125.00781255.40625.01953125.609375.4843745 25.132813 14.2304685 51.582031 40.8632815 78.613281 2.441406 2.4375 6.050781 3.515626 9.421875 2.714844l108.796875-25.667968c-3.355469 12.03125-2.34375 24.722656 2.980469 36.171874 5.917968 12.714844 16.433593 22.367188 29.609374 27.179688 5.875 2.144531 11.960938 3.210938 18.035157 3.210938 7.546875 0 15.070312-1.648438 22.117187-4.929688 6.839844-3.183594 12.785156-7.703125 17.574219-13.246094 6.15625 10.386719 15.621094 18.269532 27.117187 22.464844 5.875 2.144531 11.960938 3.210938 18.035157 3.210938 7.546875 0 15.070312-1.648438 22.117187-4.929688 6.917969-3.21875 12.792969-7.769531 17.492188-13.199219 6.15625 10.351563 15.605468 18.210938 27.074218 22.398438 5.875 2.144531 11.964844 3.210937 18.035157 3.210937 7.550781 0 15.070312-1.648437 22.121093-4.929687 12.71875-5.914063 22.367188-16.429688 27.179688-29.605469 4.167969-11.421875 4.257812-23.652344.355469-34.992188 7.3125-.097656 14.59375-1.730468 21.421875-4.910156 12.71875-5.914062 22.371094-16.429687 27.179687-29.605468 4.808594-13.175782 4.199219-27.4375-1.71875-40.152344-5.304687-11.410156-14.21875-20.011719-24.753906-25.097656 14.542969-12.105469 29.5-17.164063 51.292969-17.972657 5.519531-.203125 9.824218-4.84375 9.621094-10.363281-.203126-5.515625-4.820313-9.847656-10.359376-9.621094zm-266.726562 92.308594c-9.765625-10.476562-11.449219-26.527344-4.140625-38.816406 7.261719-12.210938 22.09375-18.347656 35.855469-14.863282 12.730468 3.222657 22.480468 14.058594 24.207031 27.097657.832031 6.308593-.179687 12.832031-2.914063 18.578125-2.808593 5.894531-7.703124 11.519531-13.675781 14.339844-2.539062 1.199218-4.953125 2.363281-7.714843 3.050781-3.265626.8125-6.65625 1.105469-10.015626.875-6.507812-.449219-12.832031-2.882813-17.960937-6.917969-1.296875-1.019531-2.515625-2.140625-3.640625-3.34375zm55.980469-119.703125c12.160156-7.238281 28.050781-5.667969 38.53125 3.855469 10.683593 9.703125 13.625 25.773437 7.175781 38.664062-6.1875 12.375-20.003906 19.554688-33.695312 17.582032-13.792969-1.984376-25.050782-12.941407-27.40625-26.671876-1.992188-11.621093 2.675781-23.777343 11.949218-31.066406 1.082032-.847656 2.230469-1.707031 3.445313-2.363281zm41.367187 135.558594c-12.335937-4.503907-20.945312-16.355469-21.363281-29.503907-.417969-13.105468 7.347656-25.421874 19.304687-30.746093 12.898438-5.742188 28.523438-2.292969 37.765626 8.382812 9.078124 10.476563 10.460937 25.941407 3.433593 37.882813-6.839843 11.617187-20.707031 17.914062-33.96875 15.40625-1.757812-.332032-3.488281-.808594-5.171875-1.421875zm60.085938-132.578125c14.046875 0 26.71875 9.3125 31 22.652344 4.277344 13.332031-.773438 28.390624-12.214844 36.4375-11.433594 8.039062-26.949219 7.75-38.183594-.496094-11.984375-8.796875-16.28125-25.273438-10.460937-38.882813.976562-2.28125 2.152343-4.542969 3.796875-6.414062 1.253906-1.421875 2.507812-2.847657 3.757812-4.269531 1.652344-1.878907 3.785156-3.328126 5.933594-4.578126 3.289062-1.914062 6.90625-3.257812 10.648438-3.9375 1.886718-.339843 3.804687-.511718 5.722656-.511718zm-372.332032 93.402344v-171.363282c5.414063 7.695313 11.511719 14.925782 18.003907 21.734375v195.402344c-11.78125-16.03125-17.816407-31.253906-17.996094-45.445313 0-.105468-.003906-.21875-.007813-.328124zm38.003907-145.765626 78.617187-18.542968c5.375-1.269532 8.703125-6.65625 7.4375-12.03125-1.269531-5.375-6.65625-8.703125-12.03125-7.433594l-80.765625 19.050781c-7.476562-7.984375-14.414062-16.574219-20.015625-25.992187-5.074218-8.535156-9.097656-17.875-10.601562-27.742188-.894532-5.851562-.871094-11.832031.253906-17.652344 5.632812-29.160156 36.535156-46.839843 45.785156-51.535156l36.074219 6.949219c0 .117187-.003906.234375-.003906.351563 0 21.664062 21.933593 38.636718 49.933593 38.636718 19.042969 0 36.007813-8.238281 44.386719-20.824218l147.988281 28.503906-135.394531 31.9375c-5.375 1.269531-8.703125 6.652344-7.433593 12.027344 1.265624 5.375 6.648437 8.707031 12.027343 7.4375l168.546875-39.757813v54.464844c-22.691406 4.644531-39.816406 24.761719-39.816406 48.804687 0 4.699219.660156 9.320313 1.929688 13.746094-5.386719-5.460938-11.964844-9.707031-19.382813-12.417969-10.34375-3.773437-21.347656-4.195312-31.753906-1.347656-12.65625 3.429687-23.808594 11.644531-30.757813 22.773437-1.949218 3.121094-3.5625 6.445313-4.824218 9.898438-4.113282 11.269531-4.242188 23.75-.328126 35.09375-7.355468.109375-14.683593 1.804688-21.351562 4.90625-12.71875 5.917969-22.371094 16.429688-27.179688 29.605469-4.101562 11.246093-4.253906 23.742187-.34375 35.058593-13.175781.164063-26.117187 5.5-35.636718 14.601563l-115.359375 27.214844zm165.402343 245.984376c-12.597656 5.859374-28.011718 2.898437-37.488281-7.277344-9.671875-10.378906-11.453125-26.257813-4.34375-38.539063 6.929688-11.96875 21.203125-18.316406 34.734375-15.480469 12.308594 2.578126 22.21875 12.25 25.074219 24.507813 3.050781 13.117187-2.628906 27.207031-13.914063 34.535156-1.296874.847657-2.65625 1.601563-4.0625 2.253907zm84.84375 7.5c-13.765624 6.402343-30.679687 2.1875-39.753906-9.992188-7.480468-10.042969-8.507812-23.785156-2.609375-34.828125 6.785157-12.707031 21.660157-19.566406 35.75-16.390625 13.367188 3.011719 23.648438 14.398438 25.203125 28.027344 1.371094 12.050781-4.304687 24.226562-14.453125 30.882812-1.320312.863282-2.707031 1.632813-4.136719 2.300782zm101.546876-10.847657c-4.417969 12.101563-15.910157 20.640625-28.800782 21.335938-12.914062.695312-25.300781-6.617188-30.957031-18.222657-5.976563-12.265624-3.53125-27.398437 6.066406-37.109374 10.003907-10.125 25.890625-12.527344 38.453125-5.839844 12.367188 6.582031 19.269532 20.878906 16.664063 34.664062-.332031 1.757813-.8125 3.488282-1.425781 5.171875zm48.957031-69.507812c-4.492188 12.3125-16.300781 20.914062-29.425781 21.34375-13.617188.441406-26.371094-7.929688-31.371094-20.597657-5.128906-13-1.125-28.316406 9.722656-37.117187 10.304688-8.359375 25.019531-9.570313 36.558594-3.050781 11.878906 6.710937 18.441406 20.628906 15.972656 34.074218-.332031 1.820313-.820312 3.609376-1.457031 5.347657zm0 0"/><path d="m122.164062 199.8125c-24.800781 0-44.980468 20.179688-44.980468 44.980469s20.179687 44.980469 44.980468 44.980469c24.800782 0 44.976563-20.179688 44.976563-44.980469 0-24.804688-20.175781-44.980469-44.976563-44.980469zm0 69.960938c-13.773437 0-24.980468-11.207032-24.980468-24.980469 0-13.773438 11.207031-24.980469 24.980468-24.980469 13.773438 0 24.976563 11.207031 24.976563 24.980469 0 13.773437-11.203125 24.980469-24.976563 24.980469zm0 0"/><path d="m231.609375 204.472656c17.359375 0 31.480469-14.121094 31.480469-31.480468 0-17.359376-14.121094-31.476563-31.480469-31.476563-17.355469 0-31.476563 14.117187-31.476563 31.476563 0 17.359374 14.121094 31.480468 31.476563 31.480468zm0-42.957031c6.328125 0 11.480469 5.148437 11.480469 11.476563 0 6.332031-5.148438 11.480468-11.480469 11.480468-6.328125 0-11.476563-5.148437-11.476563-11.480468 0-6.328126 5.148438-11.476563 11.476563-11.476563zm0 0"/><path d="m175.203125 135.132812c4.082031-.839843 7.324219-4.195312 7.933594-8.335937.601562-4.085937-1.429688-8.199219-5.039063-10.203125-3.746094-2.085938-8.554687-1.5-11.691406 1.433594-3.007812 2.820312-3.960938 7.324218-2.390625 11.128906 1.792969 4.355469 6.570313 6.898438 11.1875 5.976562zm0 0"/></svg>