<svg height="511pt" viewBox="-14 0 511 511.99972" width="511pt" xmlns="http://www.w3.org/2000/svg"><path d="m483.378906 129.902344c-.042968-4.695313-3.492187-8.847656-8.105468-9.738282l-141.101563-27.171874c-5.425781-1.046876-10.667969 2.503906-11.710937 7.925781-1.046876 5.425781 2.503906 10.667969 7.925781 11.710937l95.25 18.347656-365.925781 86.320313c-11.230469-11.882813-21.585938-24.894531-29.085938-39.484375-6.960938-13.539062-11.34375-28.734375-9.796875-44.0625 1.269531-12.546875 6.535156-24.253906 14.050781-34.28125 6.484375-8.652344 14.496094-16.105469 23.164063-22.527344 6.085937-4.511718 12.535156-8.5625 19.265625-12.046875.476562-.246093.957031-.492187 1.4375-.730469l21.277344 4.097657c-2.753907 6.476562-4.28125 13.597656-4.28125 21.070312 0 29.792969 24.234374 54.027344 54.027343 54.027344 29.789063 0 54.027344-24.234375 54.027344-54.027344 0-.367187-.019531-.726562-.027344-1.089843l46.617188 8.980468c.640625.121094 1.277343.183594 1.902343.183594 4.699219 0 8.886719-3.328125 9.808594-8.113281 1.042969-5.421875-2.503906-10.664063-7.929687-11.710938l-55.25-10.640625c-4.417969-9.652344-11.585938-17.785156-20.507813-23.386718 13.683594-17.523438 32.335938-25.335938 55.460938-23.210938 5.503906.503906 10.367187-3.542969 10.875-9.039062.503906-5.5-3.542969-10.371094-9.042969-10.875-38.726563-3.558594-61.78125 15.675781-74.304687 32.4375-.808594 1.085937-1.585938 2.171874-2.328126 3.253906-3.023437-.523438-6.128906-.816406-9.300781-.816406-14.453125 0-27.585937 5.714843-37.289062 14.988281l-33.171875-6.386719c-1.972656-.382812-4.011719-.160156-5.855469.636719-2.488281 1.074219-61.117187 26.933593-71.429687 79.785156-1.089844 5.578125-1.589844 11.222656-1.515626 16.921875v273.453125c0 .214844.003907.429687.019532.644531.554687 29.851563 16.972656 61.363282 48.8125 93.679688 2.425781 2.449218 6.058594 3.507812 9.417968 2.710937l416.921876-98.351562c4.511718-1.0625 7.703124-5.09375 7.703124-9.730469v-273.671875c0-.027344-.003906-.054687-.003906-.082031zm-334.726562-74.566406c-3.40625 8.097656-4.75 13.917968-4.847656 14.347656-1.210938 5.386718 2.175781 10.738281 7.566406 11.949218.738281.164063 1.472656.242188 2.203125.242188 4.574219 0 8.699219-3.15625 9.746093-7.808594.019532-.089844 1.375-5.757812 4.816407-13.355468 9.410156 6.0625 15.660156 16.621093 15.660156 28.621093 0 18.765625-15.265625 34.027344-34.027344 34.027344s-34.027343-15.265625-34.027343-34.027344c0-18.386719 14.664062-33.40625 32.910156-33.996093zm-102.191406 420.367187c-16.992188-21.566406-25.703126-42.058594-25.941407-61.117187 0-.125-.003906-.246094-.011719-.367188v-214.09375c7.515626 11.601562 16.402344 22.292969 25.953126 32.269531zm416.921874-79.960937-396.921874 93.632812v-53.855469l396.921874-93.632812zm0-74.402344-396.921874 93.628906v-18.09375l396.921874-93.632812zm0-38.644532-396.921874 93.632813v-27.027344l396.921874-93.632812zm0-86.21875-258.800781 61.050782c-5.375 1.265625-8.707031 6.652344-7.4375 12.027344s6.652344 8.707031 12.03125 7.4375l254.207031-59.96875v18.097656l-396.921874 93.628906v-18.09375l62.710937-14.792969c5.375-1.269531 8.707031-6.652343 7.4375-12.027343s-6.652344-8.710938-12.03125-7.4375l-58.117187 13.710937v-53.855469l.746093-.175781 396.175781-93.457031zm0 0"/><path d="m161.324219 285.003906c3.511719 2.300782 8.109375 2.207032 11.503906-.28125 3.367187-2.46875 4.824219-6.941406 3.613281-10.929687-1.207031-3.980469-4.871094-6.851563-9.027344-7.078125-4.300781-.234375-8.378906 2.425781-9.890624 6.457031-1.613282 4.300781-.03125 9.285156 3.800781 11.832031zm0 0"/><path d="m283.042969 98.933594c1.628906 3.914062 5.652343 6.417968 9.886719 6.148437 4.113281-.261719 7.714843-3.140625 8.914062-7.078125 1.195312-3.921875-.207031-8.34375-3.476562-10.832031-3.382813-2.570313-8.101563-2.722656-11.644532-.378906-3.933594 2.605469-5.460937 7.792969-3.679687 12.140625zm0 0"/></svg>