<svg height="511pt" viewBox="-49 1 511 511.999" width="511pt" xmlns="http://www.w3.org/2000/svg"><path d="m39.367188 52.410156 9.089843 58.566406h317.542969l9.089844-58.566406zm0 0" fill="#ff5a5a"/><path d="m48.457031 110.976562 6.578125 42.414063h304.386719l6.578125-42.414063zm0 0" fill="#fd8f8a"/><g fill="#ff5a5a"><path d="m384.125 52.410156h-353.792969c-10.953125 0-19.832031-8.878906-19.832031-19.832031v-2.742187c0-10.957032 8.878906-19.835938 19.832031-19.835938h353.792969c10.953125 0 19.832031 8.878906 19.832031 19.832031v2.746094c0 10.953125-8.878906 19.832031-19.832031 19.832031zm0 0"/><path d="m55.035156 153.390625 29.3125 188.886719h245.761719l29.3125-188.886719zm0 0"/><path d="m100.894531 448.925781 8.238281 53.074219h196.191407l8.238281-53.074219zm0 0"/></g><path d="m206.191406 342.277344h-121.890625l16.628907 106.648437h212.640624l16.527344-106.648437zm0 0" fill="#fd8f8a"/><path d="m384.125 0h-353.792969c-16.449219 0-29.832031 13.382812-29.832031 29.832031v2.746094c0 16.449219 13.382812 29.832031 29.832031 29.832031h.464844l7.777344 50.097656 6.582031 42.414063v.003906l29.171875 188.011719c.019531.292969.042969.585938.089844.878906l16.53125 106.003906c.015625.214844.03125.425782.0625.636719l8.238281 53.074219c.753906 4.875 4.949219 8.46875 9.882812 8.46875h196.191407c4.929687 0 9.125-3.59375 9.882812-8.46875l8.203125-52.875c.011719-.066406.03125-.132812.042969-.203125l16.496094-106.433594c.011719-.070312.03125-.136719.042969-.210937l29.308593-188.886719 6.582031-42.414063 7.773438-50.097656h.464844c16.453125 0 29.835937-13.382812 29.835937-29.835937v-2.742188c0-16.449219-13.382812-29.832031-29.832031-29.832031zm-33.273438 143.390625h-287.246093l-3.480469-22.414063h294.203125zm-233.152343 348.609375-5.132813-33.074219h189.324219l-5.132813 33.074219zm203.84375-159.722656h-115.351563c-5.523437 0-10 4.476562-10 10 0 5.523437 4.476563 10 10 10h112.238282l-13.429688 86.648437h-195.507812l-13.511719-86.648437h31.804687c5.519532 0 10-4.476563 10-10 0-5.523438-4.480468-10-10-10h-34.867187l-26.210938-168.886719h281.042969zm35.890625-231.300782h-300.410156l-5.984376-38.566406h312.378907zm36.523437-68.398437c0 5.421875-4.410156 9.832031-9.832031 9.832031h-353.792969c-5.421875 0-9.832031-4.410156-9.832031-9.832031v-2.746094c0-5.421875 4.410156-9.832031 9.832031-9.832031h353.792969c5.421875 0 9.832031 4.410156 9.832031 9.832031zm0 0"/><path d="m166.988281 352.28125c-4.117187 0-7.910156-2.632812-9.359375-6.484375-1.480468-3.9375-.277344-8.523437 2.96875-11.207031 3.101563-2.558594 7.554688-3.019532 11.101563-1.128906 3.722656 1.980468 5.855469 6.285156 5.148437 10.449218-.808594 4.757813-5.011718 8.371094-9.859375 8.371094zm0 0"/></svg>