<svg height="511pt" viewBox="-31 0 511 511.99886" width="511pt" xmlns="http://www.w3.org/2000/svg"><path d="m225.3125 261.039062c-50.613281 0-97.128906-5.566406-133.84375-14.875v233.410157h.015625c.664063 12.410156 60.320313 22.4375 133.828125 22.4375s133.164062-10.027344 133.828125-22.4375h.015625v-233.410157c-36.710938 9.308594-83.230469 14.875-133.84375 14.875zm0 0" fill="#6289fa"/><path d="m308.5625 129.773438 6.207031 42.082031c-.007812 0-.015625 0-.019531-.003907l6.371094 43.089844c-24.464844 5.507813-58.339844 8.855469-95.808594 8.855469-26.589844 0-51.402344-1.632813-72.300781-4.597656l-13.144531-89.121094c-76.125 10.5-129.378907 34.605469-129.378907 62.671875 0 37.714844 96.179688 68.289062 214.824219 68.289062s214.824219-30.574218 214.824219-68.289062c0-28.335938-54.277344-52.636719-131.574219-62.976562zm0 0" fill="#6289fa"/><path d="m128.082031 310.152344c-22.695312-4.058594-36.613281-9.535156-36.613281-15.5625v-48.425782c36.714844 9.308594 83.230469 14.875 133.84375 14.875s97.128906-5.566406 133.84375-14.875v48.425782c0 12.507812-59.921875 22.644531-133.84375 22.644531-5.871094 0-11.652344-.0625-17.324219-.1875" fill="#ff5a5a"/><path d="m153.035156 219.011719c20.898438 2.96875 45.6875 4.683593 72.277344 4.683593 37.46875 0 71.371094-3.410156 95.835938-8.917968l-27.691407-188.320313c-1.546875-10.527343-11.335937-17.804687-21.863281-16.257812l-127.042969 18.679687c-10.527343 1.550782-17.804687 11.339844-16.257812 21.867188zm0 0" fill="#f0f0fa"/><path d="m261.617188 117.820312c-1.773438-12.074218-13.003907-20.421874-25.078126-18.648437-6.523437.960937-11.941406 4.691406-15.28125 9.8125-4.675781-3.941406-10.9375-5.957031-17.464843-4.996094-12.074219 1.773438-20.421875 13.003907-18.648438 25.078125 0 0-.382812 19.789063 44.628907 43.027344l.578124-1.035156.855469.824218c33.375-32.273437 31.070313-50.78125 30.449219-53.648437-.015625-.136719-.019531-.273437-.039062-.414063zm0 0" fill="#ff5a5a"/><path d="m407.582031 145.472656c-22.835937-10.726562-53.878906-19.160156-90.136719-24.53125l-14.105468-95.9375c-1.136719-7.730468-5.21875-14.554687-11.488282-19.21875-6.269531-4.660156-13.980468-6.605468-21.710937-5.46875l-127.042969 18.683594c-15.960937 2.347656-27.035156 17.238281-24.6875 33.199219l10.210938 69.4375c-80.445313 12.582031-128.121094 38.894531-128.121094 71.109375 0 23.285156 24.164062 43.277344 69.882812 57.808594 3.597657 1.144531 7.300782 2.242187 11.097657 3.292968v225.726563c0 5.59375 3.546875 10.148437 7.945312 13.226562 6.636719 4.652344 14.835938 7.027344 22.609375 8.960938 10.828125 2.699219 21.90625 4.414062 32.972656 5.789062 11.804688 1.46875 23.664063 2.46875 35.535157 3.171875 13.261719.78125 26.542969 1.179688 39.828125 1.261719 13.433594.082031 26.871094-.160156 40.292968-.773437 12.265626-.554688 24.523438-1.414063 36.730469-2.714844 11.121094-1.179688 22.230469-2.699219 33.195313-4.933594 9-1.832031 18.285156-4.023438 26.492187-8.289062 4.785157-2.488282 9.578125-6.046876 11.332031-11.375.453126-1.375.730469-2.875.730469-4.324219v-225.722657c3.792969-1.054687 7.5-2.152343 11.097657-3.292968 45.71875-14.535156 69.882812-34.523438 69.882812-57.808594 0-12.457031-7.378906-30.765625-42.542969-47.277344zm-266.453125 61.652344c-24.738281-4.640625-35.574218-10.210938-38.878906-13.035156 3.089844-2.707032 12.800781-7.835938 35.128906-12.355469zm188.304688-4.664062-2.574219-17.496094c12.925781 3.585937 19.152344 7.105468 21.5 9.132812-2.167969 1.847656-7.691406 5.027344-18.925781 8.363282zm-183.429688-163.699219 127.042969-18.679688c5.0625-.75 9.78125 2.765625 10.527344 7.828125l15.003906 102.046875c.007813.421875.039063.847657.101563 1.273438l6.160156 41.785156c.011718.097656.011718.199219.027344.296875l4.96875 33.589844c-23.59375 4.40625-53.171876 6.804687-84.523438 6.804687-22.347656 0-44.125-1.242187-63.492188-3.609375l-23.644531-160.804687c-.746093-5.0625 2.765625-9.785157 7.828125-10.53125zm203.164063 253.3125c-2.777344 1.707031-12.019531 6.03125-38.265625 9.835937-23.742188 3.441406-54.140625 5.335938-85.589844 5.335938-5.734375 0-11.488281-.0625-17.105469-.183594-5.5-.074219-10.082031 4.253906-10.203125 9.765625-.121094 5.515625 4.253906 10.085937 9.765625 10.207031 5.761719.125 11.664063.1875 17.542969.1875 36.289062 0 70.496094-2.40625 96.308594-6.773437 11.328125-1.914063 20.445312-4.074219 27.546875-6.582031v162.980468c-2.460938 1.511719-5.265625 2.503906-7.996094 3.402344-6.476563 2.128906-13.1875 3.546875-19.890625 4.757812-19.390625 3.503907-39.132812 5.136719-58.796875 6.113282-22.113281 1.097656-44.289063 1.199218-66.414063.347656-19.859374-.761719-39.765624-2.210938-59.417968-5.242188-7.960938-1.226562-15.929688-2.6875-23.679688-4.902343-3.546875-1.007813-7.144531-2.140625-10.421875-3.859375-.371093-.195313-.738281-.398438-1.097656-.617188v-162.984375c6.535156 2.300781 14.765625 4.316407 24.871094 6.121094 5.429687.972656 10.621093-2.644531 11.589843-8.074219.972657-5.429687-2.644531-10.621094-8.074218-11.589844-18.792969-3.359374-25.992188-6.777343-28.386719-8.246093v-33.285157c15.777344 3.460938 31.746094 6.019532 47.78125 7.917969 16.367187 1.929688 32.808594 3.160157 49.273437 3.800781 15.898438.625 31.816407.679688 47.71875.203126 16.367188-.492188 32.71875-1.5625 49-3.3125 16.113282-1.730469 32.164063-4.109376 48.042969-7.359376 1.96875-.402343 3.933594-.816406 5.898438-1.25zm25.023437-60.554688c-5.527344 1.757813-11.320312 3.398438-17.332031 4.933594-.054687.011719-.105469.015625-.15625.027344-34.679687 8.792969-77.773437 13.890625-122.234375 14.507812-.21875.003907-.4375.003907-.65625.007813-2.828125.035156-5.664062.058594-8.5.058594-2.839844 0-5.671875-.023438-8.5-.058594-.21875-.003906-.4375-.003906-.65625-.007813-44.460938-.617187-87.554688-5.714843-122.234375-14.507812-.050781-.011719-.105469-.015625-.15625-.027344-6.015625-1.535156-11.804687-3.175781-17.332031-4.933594-34.515625-10.972656-55.957032-25.828125-55.957032-38.769531 0-17.195312 38.066407-39.84375 110.96875-51.335938l3.027344 20.53125c-35.625 7.027344-52.996094 17.582032-52.996094 32.164063 0 14.554687 17.453126 21.507813 23.1875 23.789063 11.402344 4.542968 27.628907 8.414062 46.925782 11.1875h.011718.003907c21.660156 3.074218 47.144531 4.699218 73.707031 4.699218 37.125 0 71.929688-3.230468 98-9.101562.007812 0 .011719 0 .015625-.003906.007813 0 .015625 0 .019531-.003907 31.246094-7.152343 45.796875-16.867187 45.796875-30.566406 0-13.484375-14.886719-23.5-45.429687-30.539063l-3.230469-21.949218c72.0625 11.539062 109.664063 33.949218 109.664063 51.128906 0 12.941406-21.441407 27.796875-55.957032 38.769531zm0 0"/><path d="m177.257812 311.265625c-1.609374-3.933594-5.699218-6.445313-9.9375-6.140625-4.140624.300781-7.742187 3.230469-8.882812 7.21875-1.152344 4.015625.398438 8.421875 3.789062 10.859375 3.335938 2.398437 7.9375 2.464844 11.355469.1875 3.914063-2.601563 5.484375-7.789063 3.675781-12.125zm0 0"/><path d="m225.1875 180.96875c2.292969 1.183594 4.570312 1.179688 7.054688.847656 2.226562-.292968 4.277343-1.179687 5.90625-2.753906 34.671874-33.527344 34.613281-55.355469 33.410156-62.226562-.015625-.148438-.035156-.292969-.054688-.441407-.003906-.007812-.003906-.019531-.003906-.027343-1.25-8.476563-5.722656-15.964844-12.601562-21.078126-6.878907-5.113281-15.335938-7.246093-23.816407-5.996093-5.820312.851562-11.234375 3.296875-15.699219 6.972656-5.332031-2.234375-11.222656-3.015625-17.042968-2.160156-8.480469 1.246093-15.964844 5.722656-21.082032 12.597656-4.992187 6.710937-7.140624 14.929687-6.082031 23.203125.332031 6.1875 4.929688 27.789062 50.011719 51.0625zm-27.898438-62.34375c2.375-3.195312 6.238282-5.035156 10.214844-4.878906 2.019532.078125 3.992188.679687 5.71875 1.726562 1.8125 1.097656 3.195313 2.519532 5.296875 3.121094 3.84375 1.09375 8.085938-.273438 10.566407-3.410156 1.199218-1.511719 2.167968-2.988282 3.785156-4.117188 1.519531-1.058594 3.289062-1.746094 5.121094-2.011718 4.089843-.59375 8.273437.96875 10.96875 4.109374 1.78125 2.074219 2.59375 4.554688 2.9375 7.226563.167968 1.339844-.046876 2.769531-.292969 4.085937-.660157 3.535157-2.023438 6.929688-3.621094 10.136719-2.894531 5.8125-6.691406 11.160157-10.792969 16.175781-1.382812 1.6875-2.808594 3.34375-4.265625 4.964844-.75.832032-1.511719 1.660156-2.277343 2.476563-.445313.472656-.890626.945312-1.339844 1.414062-.101563.101563-.464844.558594-.550782.570313-.144531.023437-.90625-.507813-1.035156-.582032-3.875-2.199218-7.671875-4.542968-11.328125-7.089843-5.101562-3.554688-10.003906-7.503907-14.179687-12.132813-3.96875-4.402344-8.011719-9.820312-7.226563-16.082031.257813-2.0625 1.0625-4.039063 2.300781-5.703125zm0 0"/><path d="m258.894531 64.988281c.730469 4.96875 4.996094 8.539063 9.867188 8.539063.484375 0 .976562-.035156 1.46875-.109375 5.457031-.800781 9.230469-5.875 8.425781-11.335938l-3.644531-24.789062c-.800781-5.457031-5.878907-9.226563-11.335938-8.425781-5.457031.800781-9.230469 5.878906-8.429687 11.335937zm0 0"/></svg>