<svg height="512pt" viewBox="0 -9 512.00093 512" width="512pt" xmlns="http://www.w3.org/2000/svg"><path d="m490.085938 103.722656-204.503907-99.773437c-19.34375-9.4375-42.753906-1.378907-52.191406 17.964843l-5.164063 10.582032h-189.199218c-21.519532 0-39.027344 17.507812-39.027344 39.03125v104.121094c0 5.523437 4.476562 10 10 10s10-4.476563 10-10v-104.121094c0-10.492188 8.535156-19.03125 19.027344-19.03125h227.546875c10.492187 0 19.027343 8.539062 19.027343 19.03125v351.832031c0 10.492187-8.535156 19.027344-19.027343 19.027344h-227.542969c-10.492188 0-19.03125-8.535157-19.03125-19.027344v-167.691406c0-5.523438-4.476562-10.003907-10-10.003907s-10 4.480469-10 10.003907v167.691406c0 21.519531 17.507812 39.027344 39.03125 39.027344h205.792969l56.769531 27.695312c5.496094 2.683594 11.316406 3.949219 17.050781 3.949219 14.464844 0 28.382813-8.0625 35.140625-21.910156l154.269532-316.210938c9.433593-19.339844 1.375-42.753906-17.96875-52.1875zm-.007813 43.417969-154.269531 316.210937c-4.601563 9.429688-16.015625 13.355469-25.445313 8.757813l-27.363281-13.347656c10.320312-4.800781 18.234375-14.160157 21.222656-25.140625.910156-3.335938 1.382813-6.800782 1.382813-10.261719v-109.039063l63.9375-22.425781c5.167969-1.8125 7.917969-7.445312 6.164062-12.636719l-36.398437-107.789062c-.855469-2.53125-2.6875-4.613281-5.089844-5.785156s-5.171875-1.335938-7.695312-.449219l-20.921876 7.335937v-101.042968c0-21.523438-17.507812-39.03125-39.027343-39.03125h-16.089844l.882813-1.8125c4.601562-9.429688 16.015624-13.355469 25.445312-8.757813l204.507812 99.769531c9.425782 4.601563 13.355469 16.015626 8.757813 25.445313zm-184.476563 145.984375v-99.359375l17.996094-6.3125 30 88.839844zm0 0"/><path d="m1.691406 221.449219c2.273438 3.472656 6.722656 5.183593 10.738282 4.148437 3.984374-1.023437 7.042968-4.449218 7.507812-8.554687.46875-4.144531-1.765625-8.265625-5.515625-10.105469-3.808594-1.871094-8.480469-1.109375-11.492187 1.894531-3.335938 3.324219-3.847657 8.707031-1.238282 12.617188zm0 0"/><path d="m242.777344 120.980469v-31.414063c0-5.523437-4.480469-10-10-10-5.523438 0-10.003906 4.476563-10.003906 10v31.410156c0 5.523438 4.480468 10.003907 10.003906 10.003907 5.519531 0 10-4.480469 10-10zm0 0"/><path d="m82.828125 405.269531v-31.414062c0-5.523438-4.476563-10-10-10s-10 4.476562-10 10v31.414062c0 5.519531 4.476563 10 10 10s10-4.480469 10-10zm0 0"/><path d="m127.652344 291.929688c5.214844 0 10.332031-.949219 15.128906-2.734376v21.816407h-21.523438c-5.523437 0-10 4.476562-10 10 0 5.523437 4.476563 10 10 10h62.824219c5.523438 0 10-4.476563 10-10 0-5.523438-4.476562-10-10-10h-21.300781v-21.8125c4.796875 1.785156 9.910156 2.730469 15.125 2.730469 23.871094 0 43.320312-19.304688 43.554688-43.117188.429687-6.398438-.902344-38.59375-62.851563-83.0625-3.484375-2.503906-8.179687-2.503906-11.664063 0-59.828124 42.945312-63.039062 74.363281-62.832031 81.917969-.015625.234375-.023437.46875-.023437.703125.003906 24.019531 19.542968 43.558594 43.5625 43.558594zm-23.546875-44.832032c-.011719-.242187-.546875-23.734375 48.671875-60.8125 47.003906 35.425782 48.6875 58.710938 48.730468 61.011719-.089843.464844-.042968.46875-.042968 1.074219 0 12.992187-10.566406 23.558594-23.558594 23.558594-6.71875 0-13.144531-2.910157-17.632812-7.988282-3.921876-4.441406-11.070313-4.4375-14.988282 0-4.488281 5.078125-10.914062 7.988282-17.632812 7.988282-12.917969 0-23.4375-10.445313-23.558594-23.332032.015625-.230468.027344-.457031.027344-.691406.007812-.273438 0-.535156-.015625-.808594zm0 0"/><path d="m450.703125 139.394531c-4.976563-2.394531-10.953125-.308593-13.351563 4.667969l-13.636718 28.296875c-2.398438 4.976563-.3125 10.953125 4.664062 13.351563 1.402344.675781 2.878906.992187 4.335938.992187 3.71875 0 7.292968-2.082031 9.015625-5.660156l13.640625-28.296875c2.398437-4.976563.308594-10.953125-4.667969-13.351563zm0 0"/></svg>