<svg height="511pt" viewBox="-44 0 511 511.9995" width="511pt" xmlns="http://www.w3.org/2000/svg"><path d="m378.410156 261.632812h-8.925781c4.644531-7.019531 7.359375-15.425781 7.359375-24.457031 0-24.515625-19.945312-44.460937-44.460938-44.460937h-8.914062c4.640625-7.019532 7.347656-15.429688 7.347656-24.457032 0-24.515624-19.945312-44.460937-44.460937-44.460937h-64.667969v-19.113281c2.902344-.613282 5.6875-1.574219 8.242188-2.878906 10.265624-5.238282 17.300781-14.269532 20.339843-26.125 3.359375-13.097657 1.113281-26.746094-6.675781-40.566407-5.34375-9.484375-12.375-17.382812-19.179688-24.5-1.796874-1.882812-3.691406-3.664062-5.597656-5.441406-1.597656-1.492187-3.113281-3.207031-5.105468-4.179687-3.742188-1.820313-8.351563-1.085938-11.335938 1.808593-1.347656 1.304688-2.316406 2.988281-2.757812 4.808594-.53125 2.175781-.25 4.453125-.558594 6.660156-.664063 4.796875-3.695313 8.570313-6.710938 12.152344-3.789062 4.492187-7.683594 8.898437-11.351562 13.488281-14.339844 17.9375-12.164063 42.550782 5.066406 57.25.007812.011719.121094.105469.128906.113282 4.414063 3.734374 9.753906 6.277343 15.492188 7.457031v19.066406h-64.671875c-24.511719 0-44.457031 19.945313-44.457031 44.460937 0 9.027344 2.707031 17.4375 7.347656 24.457032h-8.917969c-24.511719 0-44.457031 19.945312-44.457031 44.460937 0 9.027344 2.714844 17.433594 7.359375 24.457031h-8.925781c-24.515626 0-44.460938 19.941407-44.460938 44.457032s19.945312 44.460937 44.460938 44.460937h6.382812l50.101562 154.53125c1.335938 4.125 5.175782 6.917969 9.511719 6.917969h201.449219c4.335938 0 8.179688-2.792969 9.515625-6.917969l50.101563-154.53125h6.382812c24.515625 0 44.460938-19.945312 44.460938-44.460937 0-24.511719-19.941407-44.457032-44.457032-44.457032zm-179.363281-179.6875c-8.972656-7.65625-9.992187-20.082031-2.425781-29.546874 3.050781-3.816407 6.265625-7.496094 9.433594-11.214844 3.148437-3.699219 6.296874-7.382813 8.621093-11.679688 2.195313 2.441406 4.316407 4.949219 6.292969 7.566406.949219 1.257813 1.867188 2.542969 2.742188 3.855469.464843.707031.921874 1.417969 1.363281 2.136719.273437.449219 1.097656 1.378906 1.097656 1.871094 5.316406 9.429687 6.816406 17.621094 4.726563 25.777344-1.640626 6.394531-4.835938 10.617187-10.058594 13.277343-1.917969.980469-4.25 1.496094-6.746094 1.496094h-5.03125c-3.761719 0-7.292969-1.234375-9.917969-3.457031zm-80.816406 410.054688-45.855469-141.449219h79.3125l15.285156 141.449219zm118.054687 0h-49.195312l-15.289063-141.449219h79.769531zm68.855469 0h-48.738281l15.285156-141.449219h79.3125zm73.269531-161.449219h-333.449218c-13.484376 0-24.457032-10.972656-24.457032-24.460937 0-13.484375 10.972656-24.457032 24.457032-24.457032h86.027343c5.523438 0 10.003907-4.476562 10.003907-10 0-5.519531-4.480469-10-10.003907-10h-40c-13.484375 0-24.457031-10.972656-24.457031-24.457031 0-13.488281 10.972656-24.460937 24.457031-24.460937h148.699219c5.523438 0 10-4.476563 10-10 0-5.519532-4.476562-10-10-10h-102.671875c-13.484375 0-24.457031-10.972656-24.457031-24.457032 0-13.484374 10.972656-24.457031 24.457031-24.457031h149.339844c13.488281 0 24.460937 10.972657 24.460937 24.457031 0 13.484376-10.972656 24.457032-24.460937 24.457032-5.519531 0-10 4.480468-10 10 0 5.523437 4.480469 10 10 10h46.027343c13.488282 0 24.457032 10.972656 24.457032 24.460937 0 13.484375-10.96875 24.457031-24.457032 24.457031h-121.195312c-5.523438 0-10 4.480469-10 10 0 5.523438 4.476562 10 10 10h167.222656c13.488282 0 24.457032 10.972657 24.457032 24.460938 0 13.484375-10.96875 24.457031-24.457032 24.457031zm0 0"/><path d="m180.226562 267.808594c-1.617187-3.933594-5.707031-6.453125-9.949218-6.144532-4.148438.300782-7.753906 3.230469-8.898438 7.222657-1.152344 4.023437.398438 8.4375 3.792969 10.875 3.34375 2.402343 7.953125 2.46875 11.375.1875 3.914063-2.609375 5.484375-7.796875 3.679687-12.140625zm0 0"/></svg>