<svg height="512pt" viewBox="-75 0 512 512" width="512pt" xmlns="http://www.w3.org/2000/svg"><path d="m362.425781 450.410156c-17.5625-68.558594-44.605469-128.019531-73.242187-190.976562-11.914063-26.191406-24.199219-53.234375-36.03125-81.492188 17.941406-21.199218 23.308594-49.46875 15.484375-82.25-4.921875-20.625-13.671875-37.207031-17.203125-43.382812v-42.308594c0-5.523438-4.476563-10-10-10-5.523438 0-10 4.476562-10 10v45.011719c-.085938 27.632812-22.503906 50.117187-49.972656 50.117187-27.757813 0-50.34375-22.484375-50.34375-50.125v-45.003906c0-5.523438-4.476563-10-10-10-5.523438 0-10 4.476562-10 10v42.269531c-3.53125 6.179688-12.28125 22.769531-17.207032 43.402344-7.839844 32.867187-2.429687 61.199219 15.609375 82.417969-11.8125 28.199218-24.074219 55.195312-35.96875 81.339844-28.632812 62.957031-55.675781 122.421874-73.238281 190.980468-.3203125 1.257813-.3945312 2.5625-.21875 3.851563 2.460938 17.777343 22.800781 32.246093 60.453125 42.996093 33.308594 9.507813 76.21875 14.742188 120.820313 14.742188 44.605468 0 87.515624-5.234375 120.824218-14.742188 37.652344-10.75 57.992188-25.214843 60.453125-42.996093.179688-1.285157.105469-2.59375-.21875-3.851563zm-244.4375-365.1875c11.34375 23.582032 35.53125 39.90625 63.472657 39.90625 27.75 0 51.820312-16.363281 63.121093-39.980468 8.210938 22.554687 14.300781 56.023437-7.507812 80.828124h-111.597657c-21.699218-24.703124-15.660156-58.160156-7.488281-80.753906zm53.285157 406.671875c-33.59375-.613281-65.65625-4.285156-92.464844-10.570312 15.859375-73.945313 37.144531-143.375 59.65625-216.75 7.332031-23.898438 15.566406-50.734375 23.824218-78.597657h8.984376zm-150.96875-38.929687c17.144531-65.851563 43.535156-123.871094 71.453124-185.253906 11.933594-26.238282 24.246094-53.3125 36.152344-81.734376h13.511719c-7.660156 25.742188-15.257813 50.511719-22.082031 72.742188-22.53125 73.4375-43.84375 142.953125-59.855469 217.328125-26.976563-8.59375-37.066406-17.851563-39.179687-23.082031zm282.960937 23.074218c-9.003906-41.835937-20.421875-85.621093-36.644531-140.632812-1.5625-5.296875-7.125-8.328125-12.421875-6.761719-5.296875 1.5625-8.324219 7.121094-6.761719 12.417969 16.21875 54.988281 27.578125 98.601562 36.507812 140.261719-26.859374 6.296875-59.003906 9.972656-92.671874 10.578125v-305.925782h9.171874c8.25 27.851563 16.488282 54.699219 23.820313 78.605469 1.621094 5.277344 7.210937 8.25 12.496094 6.628907 5.277343-1.621094 8.246093-7.214844 6.625-12.496094-6.820313-22.230469-14.421875-47.007813-22.078125-72.738282h13.511718c11.90625 28.421876 24.222657 55.496094 36.15625 81.738282 27.917969 61.382812 54.308594 119.398437 71.453126 185.25-2.109376 5.230468-12.195313 14.484375-39.164063 23.074218zm0 0"/><path d="m254.929688 295.949219c-1.605469-3.847657-5.558594-6.378907-9.734376-6.152344-4.0625.21875-7.648437 2.914063-8.96875 6.761719-1.363281 3.984375 0 8.550781 3.335938 11.125 3.277344 2.527344 7.882812 2.769531 11.402344.582031 4.09375-2.542969 5.824218-7.851563 3.964844-12.316406zm0 0"/></svg>