<?xml version="1.0" encoding="iso-8859-1"?>
<!-- Generator: Adobe Illustrator 19.0.0, SVG Export Plug-In . SVG Version: 6.00 Build 0)  -->
<svg version="1.1" id="Capa_1" xmlns="http://www.w3.org/2000/svg" xmlns:xlink="http://www.w3.org/1999/xlink" x="0px" y="0px"
	 viewBox="0 0 480.009 480.009" style="enable-background:new 0 0 480.009 480.009;" xml:space="preserve">
<g>
	<g>
		<path d="M200.009,144.004c-39.764,0-72,32.235-72,72c0,39.764,32.236,72,72,72c39.765,0,72-32.236,72-72
			C271.965,176.258,239.755,144.048,200.009,144.004z M200.009,272.004c-30.928,0-56-25.072-56-56c0-30.928,25.072-56,56-56
			c30.928,0,56,25.072,56,56C255.969,246.916,230.92,271.965,200.009,272.004z"/>
	</g>
</g>
<g>
	<g>
		<path d="M200.009,80.004c-4.418,0-8,3.582-8,8s3.582,8,8,8c66.243,0.075,119.925,53.757,120,120c0,4.418,3.582,8,8,8s8-3.582,8-8
			C335.925,140.928,275.085,80.088,200.009,80.004z"/>
	</g>
</g>
<g>
	<g>
		<path d="M162.505,330.004c-36.175-11.967-64.553-40.345-76.52-76.52c-1.326-4.215-5.818-6.556-10.032-5.23
			s-6.556,5.818-5.23,10.032c0.02,0.064,0.041,0.127,0.062,0.19c13.545,41.017,45.715,73.196,86.728,86.752
			c0.806,0.261,1.649,0.388,2.496,0.376c4.418-0.001,7.999-3.584,7.998-8.002C168.006,334.147,165.787,331.083,162.505,330.004z"/>
	</g>
</g>
<g>
	<g>
		<path d="M169.609,364.956L169.609,364.956C109.83,352.906,63.108,306.183,51.057,246.404c-0.884-4.332-5.112-7.128-9.444-6.244
			c-4.332,0.884-7.128,5.112-6.244,9.444c13.337,66.066,64.974,117.703,131.04,131.04c0.527,0.104,1.063,0.157,1.6,0.16
			c4.418,0.027,8.022-3.533,8.049-7.951C176.081,369.015,173.374,365.701,169.609,364.956z"/>
	</g>
</g>
<g>
	<g>
		<path d="M200.009,48.004c-4.418,0-8,3.582-8,8s3.582,8,8,8c83.909,0.093,151.907,68.091,152,152c0,4.418,3.582,8,8,8s8-3.582,8-8
			C367.903,123.264,292.749,48.11,200.009,48.004z"/>
	</g>
</g>
<g>
	<g>
		<path d="M200.009,112.004c-4.418,0-8,3.582-8,8s3.582,8,8,8c48.577,0.057,87.943,39.423,88,88c0,4.418,3.582,8,8,8s8-3.582,8-8
			C303.943,158.594,257.419,112.071,200.009,112.004z"/>
	</g>
</g>
<g>
	<g>
		<path d="M163.345,296.004c-19.163-8.799-34.537-24.173-43.336-43.336c-1.842-4.016-6.592-5.778-10.608-3.936
			c-4.016,1.842-5.778,6.592-3.936,10.608c10.394,22.651,28.562,40.827,51.208,51.232c4.023,1.842,8.778,0.075,10.62-3.948
			S167.368,297.847,163.345,296.004z"/>
	</g>
</g>
<g>
	<g>
		<circle cx="200.009" cy="216.004" r="16"/>
	</g>
</g>
<g>
	<g>
		<path d="M470.633,275.316c-10.357-10.329-26.406-12.306-38.96-4.8c-0.752-7.239-3.939-14.009-9.04-19.2
			c-6.466-6.435-15.385-9.781-24.488-9.184c15.015-108.843-61.048-209.25-169.891-224.264c-9.359-1.291-18.798-1.914-28.245-1.864
			C143.85,15.985,90.283,39.632,52.457,81.14L40.009,68.692V8.004c0-4.418-3.582-8-8-8s-8,3.582-8,8v64
			c0,2.122,0.844,4.156,2.344,5.656l15.784,15.784c-67.781,87.098-52.121,212.652,34.976,280.432
			c35.13,27.339,78.382,42.165,122.896,42.128c8.025-0.056,16.039-0.59,24-1.6v47.664c0,4.418,3.582,8,8,8s8-3.582,8-8V377.94
			c0-8.837,7.163-16,16-16c8.837,0,16,7.163,16,16v62.064c0,0.072,0.04,0.128,0.04,0.2c-5.191,6.851-8.013,15.204-8.04,23.8
			c0,4.418,3.582,8,8,8s8-3.582,8-8c0-13.255,10.745-24,24-24c4.418,0,8-3.582,8-8s-3.582-8-8-8c-5.511,0.005-10.961,1.16-16,3.392
			V273.94c0-8.837,7.163-16,16-16s16,7.163,16,16v92.128c0,4.418,3.582,8,8,8s8-3.582,8-8V273.94c0-8.837,7.163-16,16-16
			s16,7.163,16,16v92.128c0,4.418,3.582,8,8,8s8-3.582,8-8V273.94c0-8.837,7.163-16,16-16s16,7.163,16,16v92.128
			c0,4.418,3.582,8,8,8s8-3.582,8-8V297.94c0-8.837,7.163-16,16-16s16,7.163,16,16v174.064c0,4.418,3.582,8,8,8s8-3.582,8-8V297.94
			C479.986,289.458,476.617,281.328,470.633,275.316z M381.465,246.676c-0.04,0.423-0.04,0.849,0,1.272
			c-1.464,1.007-2.842,2.133-4.12,3.368c-0.52,0.512-0.896,1.136-1.376,1.68c-0.48-0.544-0.856-1.168-1.376-1.68
			c-12.496-12.492-32.752-12.492-45.248,0c-0.52,0.512-0.896,1.136-1.376,1.68c-0.48-0.544-0.856-1.168-1.376-1.68
			c-12.521-12.473-32.782-12.434-45.255,0.087c-5.963,5.986-9.317,14.088-9.329,22.537v76.464
			c-15.206-8.894-34.742-3.777-43.636,11.428c-2.864,4.896-4.37,10.468-4.364,16.14v20.352
			C123.883,412.129,31.525,342.152,17.721,242.026c-1.189-8.622-1.761-17.318-1.712-26.022c-0.044-40.18,13.138-79.257,37.512-111.2
			l19.2,19.2l-6.344,6.344c-3.123,3.124-3.123,8.188,0,11.312l27.032,27.032c9.751,9.751,25.561,9.751,35.312,0
			c9.751-9.751,9.751-25.561,0-35.312l-27.032-27.032c-3.124-3.123-8.188-3.123-11.312,0l-6.344,6.344l-20.24-20.24
			c68.214-75.27,184.53-80.99,259.799-12.776c38.483,34.875,60.428,84.394,60.417,136.328
			C384.012,226.281,383.161,236.54,381.465,246.676z M83.321,136.004l12.688-12.688l21.376,21.376c3.504,3.504,3.504,9.184,0,12.688
			c-3.504,3.504-9.184,3.504-12.688,0L83.321,136.004z"/>
	</g>
</g>
<g>
</g>
<g>
</g>
<g>
</g>
<g>
</g>
<g>
</g>
<g>
</g>
<g>
</g>
<g>
</g>
<g>
</g>
<g>
</g>
<g>
</g>
<g>
</g>
<g>
</g>
<g>
</g>
<g>
</g>
</svg>
