<?xml version="1.0" encoding="iso-8859-1"?>
<!-- Generator: Adobe Illustrator 19.0.0, SVG Export Plug-In . SVG Version: 6.00 Build 0)  -->
<svg version="1.1" id="Capa_1" xmlns="http://www.w3.org/2000/svg" xmlns:xlink="http://www.w3.org/1999/xlink" x="0px" y="0px"
	 viewBox="0 0 480.01 480.01" style="enable-background:new 0 0 480.01 480.01;" xml:space="preserve">
<g>
	<g>
		<path d="M411.138,400.628l-58.52-24.624l58.488-24.624c3.966-1.664,5.906-6.166,4.392-10.192l-24-64
			c-1.552-4.137-6.164-6.232-10.301-4.679c-0.101,0.038-0.2,0.077-0.299,0.119l-136.896,57.64l-136.896-57.6
			c-4.071-1.718-8.763,0.19-10.481,4.261c-0.042,0.099-0.081,0.199-0.119,0.299l-24,64c-1.514,4.026,0.426,8.527,4.392,10.192
			l58.488,24.584l-58.488,24.624c-3.966,1.664-5.906,6.166-4.392,10.192l24,64c0.767,2.035,2.33,3.67,4.328,4.528
			c1,0.435,2.078,0.658,3.168,0.656c1.066,0.001,2.121-0.211,3.104-0.624l136.896-57.6l136.896,57.6
			c0.983,0.413,2.038,0.625,3.104,0.624c1.101,0.006,2.191-0.217,3.2-0.656c1.998-0.858,3.561-2.493,4.328-4.528l24-64
			C417.044,406.795,415.104,402.293,411.138,400.628z M379.434,290.604l18.4,49.008l-65.832,27.712l-25.272-10.64l-42.112-17.736
			L379.434,290.604z M108.57,461.404l-5.84-15.584l52.424-22.464c4.085-1.683,6.032-6.359,4.349-10.444s-6.359-6.032-10.444-4.349
			c-0.07,0.029-0.14,0.059-0.209,0.09l-51.744,22.176l-6.92-18.4l65.816-27.744l25.272,10.64l42.112,17.736L108.57,461.404z
			 M390.858,430.932l-35.888-14.4c-4.105-1.639-8.761,0.359-10.4,4.464s0.359,8.761,4.464,10.4l36.208,14.48l-5.808,15.488
			l-132.328-55.68l-88-37.056l-68.912-29.016l18.4-49.008l132.304,55.72l88,37.056l68.92,29.016L390.858,430.932z"/>
	</g>
</g>
<g>
	<g>
		<path d="M214.487,35.637c-2.387-3.549-7.143-4.592-10.797-2.369l-23.648,15.136c-17.406-19.942-47.682-21.998-67.625-4.593
			c-15.907,13.884-20.855,36.542-12.183,55.793c-0.176,0.096-0.376,0.104-0.544,0.216l-96,61.448
			c-3.722,2.381-4.809,7.33-2.428,11.052c2.381,3.722,7.33,4.809,11.052,2.428l96-61.448c0.256-0.168,0.4-0.424,0.632-0.608
			c18.022,19.393,48.353,20.505,67.746,2.483c14.589-13.557,19.276-34.723,11.774-53.171l23.848-15.264
			C215.98,44.274,216.953,39.303,214.487,35.637z M144.002,112.004c-17.673,0-32-14.327-32-32s14.327-32,32-32s32,14.327,32,32
			S161.675,112.004,144.002,112.004z"/>
	</g>
</g>
<g>
	<g>
		<path d="M474.97,88.572l-76.072-30.4c5.64-25.876-10.764-51.424-36.64-57.064c-19.984-4.356-40.531,4.443-51.168,21.912
			L274.97,8.572c-4.105-1.639-8.761,0.359-10.4,4.464c-1.639,4.105,0.359,8.761,4.464,10.4l36.072,14.4
			c-5.619,25.88,10.805,51.416,36.685,57.035c19.968,4.336,40.49-4.458,51.123-21.907l76.12,30.448
			c0.942,0.387,1.95,0.588,2.968,0.592c4.418,0.004,8.003-3.574,8.007-7.993C480.013,92.734,478.016,89.785,474.97,88.572z
			 M352.002,80.004c-17.673,0-32-14.327-32-32s14.327-32,32-32c17.673,0,32,14.327,32,32S369.675,80.004,352.002,80.004z"/>
	</g>
</g>
<g>
	<g>
		<path d="M243.834,48.98c-3.879-2.116-8.738-0.687-10.854,3.192c-0.229,0.419-0.419,0.858-0.57,1.312l-2.296,6.912
			c-8.411,25.286-23.517,47.821-43.712,65.208c-26.587,19.028-42.373,49.705-42.4,82.4c0,53.019,42.981,96,96,96s96-42.981,96-96
			v-3.76C336.016,139.521,300.661,79.963,243.834,48.98z M320.002,208.004c0,44.183-35.817,80-80,80s-80-35.817-80-80
			c0.087-27.765,13.594-53.775,36.256-69.816c21.998-18.771,38.631-43.034,48.208-70.32c47.005,29.397,75.551,80.935,75.536,136.376
			V208.004z"/>
	</g>
</g>
<g>
	<g>
		<path d="M288.002,207.068c-4.418,0-8,3.582-8,8v2.008c-0.325,21.783-18.216,39.195-40,38.928
			c-21.784,0.267-39.675-17.145-40-38.928c0.123-13.775,7-26.611,18.4-34.344c10.134-8.425,18.322-18.947,24-30.84
			c9.829,16.107,10.66,36.142,2.2,53.008l-3.76,7.528c-1.975,3.954-0.37,8.761,3.584,10.736s8.761,0.37,10.736-3.584l3.752-7.52
			c13.662-27.246,8.319-60.182-13.256-81.712c-3.127-3.122-8.192-3.117-11.314,0.01c-0.863,0.864-1.516,1.915-1.91,3.07
			l-1.264,3.688c-4.347,12.797-12.09,24.173-22.4,32.912c-15.444,10.697-24.691,28.262-24.768,47.048c0,30.928,25.072,56,56,56
			c30.928,0,56-25.072,56-56v-2.008C296.002,210.65,292.421,207.068,288.002,207.068z"/>
	</g>
</g>
<g>
</g>
<g>
</g>
<g>
</g>
<g>
</g>
<g>
</g>
<g>
</g>
<g>
</g>
<g>
</g>
<g>
</g>
<g>
</g>
<g>
</g>
<g>
</g>
<g>
</g>
<g>
</g>
<g>
</g>
</svg>
