<?xml version="1.0" encoding="iso-8859-1"?>
<!-- Generator: Adobe Illustrator 19.0.0, SVG Export Plug-In . SVG Version: 6.00 Build 0)  -->
<svg version="1.1" id="Capa_1" xmlns="http://www.w3.org/2000/svg" xmlns:xlink="http://www.w3.org/1999/xlink" x="0px" y="0px"
	 viewBox="0 0 488.001 488.001" style="enable-background:new 0 0 488.001 488.001;" xml:space="preserve">
<g>
	<g>
		<path d="M251.176,104.831c-1.818-4.027-6.556-5.818-10.583-4c-0.051,0.023-0.102,0.047-0.152,0.071
			C167.574,134.588,88.276,152.09,8,152.206c-4.418,0-8,3.582-8,8s3.582,8,8,8c7.52,0,15.048-0.32,22.568-0.624L73.6,224.958
			c1.511,2.014,3.882,3.2,6.4,3.2c0.302,0,0.604-0.016,0.904-0.048c2.816-0.323,5.251-2.113,6.4-4.704l29.328-65.984
			c9.6-1.872,19.131-3.987,28.592-6.344l57.976,43.48c3.539,2.646,8.552,1.922,11.198-1.616c0.83-1.11,1.357-2.417,1.53-3.792
			l8-63.72c7.816-3.2,15.6-6.464,23.248-10.016C251.203,113.596,252.994,108.858,251.176,104.831z M78.232,204.454L49.72,166.446
			c16-1.192,32-2.944,47.84-5.488L78.232,204.454z M201.776,173.486l-36.8-27.592c14.184-4.072,28.168-8.8,41.976-13.92
			L201.776,173.486z"/>
	</g>
</g>
<g>
	<g>
		<g>
			<polygon points="229.648,302.494 229.649,302.495 229.656,302.502 			"/>
			<path d="M229.649,302.495l-47.993-47.993c-3.124-3.123-8.188-3.123-11.312,0l-70.072,70.064
				c-14.193,14.196-16.326,36.463-5.088,53.096l-42.496,42.496H8c-4.418,0.001-7.999,3.583-7.998,8.002
				c0,2.121,0.843,4.154,2.342,5.654l48,48c3.125,3.124,8.19,3.123,11.314-0.002c1.499-1.5,2.342-3.534,2.342-5.654V431.47
				l42.496-42.512c16.635,11.244,38.908,9.103,53.096-5.104l30.056-30.048l40-40C232.771,310.682,232.771,305.619,229.649,302.495z
				 M48,456.846l-20.688-20.688H48V456.846z M148.272,372.566c-10.077,10.105-26.438,10.129-36.543,0.052
				c-4.412-4.399-7.086-10.245-7.529-16.46h60.48L148.272,372.566z M180.688,340.158h-72.52c0.992-1.543,2.139-2.979,3.424-4.288
				L176,271.47l36.688,36.688L180.688,340.158z"/>
		</g>
	</g>
</g>
<g>
	<g>
		<path d="M487.392,425.094c-1.239-2.989-4.157-4.937-7.392-4.936h-44.688L392.8,377.662c11.241-16.637,9.103-38.908-5.096-53.104
			l-70.064-70.056c-3.124-3.123-8.188-3.123-11.312,0l-48,48c-3.123,3.124-3.123,8.188,0,11.312l32,32l38.048,38.048
			c14.191,14.208,36.467,16.349,53.104,5.104L424,431.47v44.688c0.001,4.418,3.583,7.999,8.002,7.998
			c2.121,0,4.154-0.843,5.654-2.342l48-48C487.945,431.526,488.631,428.084,487.392,425.094z M275.312,308.158L312,271.47
			l60.688,60.688h-73.376L275.312,308.158z M364.143,379.431c-8.788,2.133-18.052-0.472-24.439-6.874h0.016l-24.4-24.4h67.88
			C386.574,362.056,378.041,376.058,364.143,379.431z M440,456.846v-20.688h20.688L440,456.846z"/>
	</g>
</g>
<g>
	<g>
		<path d="M472,76.158H370.76C283.532,76.187,198.074,51.542,124.256,5.07c-3.742-2.351-8.681-1.222-11.032,2.52
			c-2.351,3.742-1.222,8.681,2.52,11.032C127.552,26.046,139.672,32.87,152,39.206v68.952c0,4.418,3.582,8,8,8
			c1.731,0,3.415-0.561,4.8-1.6l60.192-45.144c13.168,4.208,26.501,7.835,40,10.88l23.504,62.672c0.992,2.65,3.31,4.578,6.096,5.072
			c0.465,0.08,0.936,0.12,1.408,0.12c2.334,0,4.552-1.02,6.072-2.792l46.12-53.8c7.504,0.352,15.024,0.592,22.568,0.592h0.8
			l37.656,60.24c2.327,3.756,7.259,4.913,11.014,2.586c1.05-0.651,1.935-1.536,2.586-2.586l37.616-60.24H472c4.418,0,8-3.582,8-8
			S476.418,76.158,472,76.158z M168,92.158V47.054c12.672,5.92,25.544,11.344,38.648,16.12L168,92.158z M298.736,124.67
			l-15.208-40.512c14.784,2.736,29.704,4.765,44.76,6.088L298.736,124.67z M416,133.062l-25.6-40.904h51.2L416,133.062z"/>
	</g>
</g>
<g>
	<g>
		<path d="M240,205.758c-4.418,0-8,3.582-8,8v24c0,4.418,3.582,8,8,8s8-3.582,8-8v-24C248,209.34,244.418,205.758,240,205.758z"/>
	</g>
</g>
<g>
	<g>
		<path d="M222.928,240.174l-12-20.8c-2.209-3.826-7.102-5.137-10.928-2.928c-3.826,2.209-5.137,7.102-2.928,10.928l12,20.8
			c2.234,3.812,7.136,5.09,10.947,2.856C223.795,248.816,225.091,243.979,222.928,240.174z"/>
	</g>
</g>
<g>
	<g>
		<path d="M220,349.23c-3.826-2.209-8.719-0.898-10.928,2.928l-12,20.8c-2.234,3.812-0.956,8.713,2.856,10.947
			c3.812,2.234,8.713,0.956,10.947-2.856c0.018-0.03,0.035-0.061,0.053-0.092l12-20.8C225.137,356.332,223.826,351.439,220,349.23z"
			/>
	</g>
</g>
<g>
	<g>
		<path d="M240,354.558c-4.418,0-8,3.582-8,8v24c0,4.418,3.582,8,8,8s8-3.582,8-8v-24C248,358.14,244.418,354.558,240,354.558z"/>
	</g>
</g>
<g>
	<g>
		<path d="M282.92,372.958l-12-20.8c-2.183-3.841-7.067-5.185-10.908-3.002c-3.841,2.183-5.185,7.067-3.002,10.908
			c0.018,0.031,0.036,0.062,0.054,0.093l12,20.8c1.43,2.478,4.075,4.003,6.936,4c4.418-0.005,7.996-3.59,7.992-8.008
			C283.99,375.548,283.621,374.172,282.92,372.958z"/>
	</g>
</g>
<g>
	<g>
		<path d="M280.074,216.41c-3.811-2.235-8.713-0.957-10.948,2.854c-0.018,0.031-0.036,0.062-0.054,0.093l-12,20.8
			c-2.235,3.811-0.957,8.713,2.854,10.948s8.713,0.957,10.948-2.854c0.018-0.031,0.036-0.062,0.054-0.093l12-20.8
			C285.163,223.547,283.885,218.645,280.074,216.41z"/>
	</g>
</g>
<g>
	<g>
		<path d="M344,420.158c-13.255,0-24,10.745-24,24s10.745,24,24,24s24-10.745,24-24S357.255,420.158,344,420.158z M344,452.158
			c-4.418,0-8-3.582-8-8s3.582-8,8-8s8,3.582,8,8S348.418,452.158,344,452.158z"/>
	</g>
</g>
<g>
	<g>
		<path d="M80,244.158c-13.255,0-24,10.745-24,24c0,13.255,10.745,24,24,24s24-10.745,24-24C104,254.903,93.255,244.158,80,244.158z
			 M80,276.158c-4.418,0-8-3.582-8-8s3.582-8,8-8s8,3.582,8,8S84.418,276.158,80,276.158z"/>
	</g>
</g>
<g>
	<g>
		<path d="M367.838,185.642c-0.667-4.19-2.971-7.944-6.406-10.436H361.4c-7.153-5.188-17.158-3.595-22.346,3.558
			s-3.595,17.158,3.558,22.346c2.73,1.98,6.016,3.047,9.388,3.048c0.855,0.001,1.708-0.066,2.552-0.2
			C363.279,202.569,369.227,194.368,367.838,185.642z"/>
	</g>
</g>
<g>
	<g>
		<circle cx="176" cy="428.158" r="16"/>
	</g>
</g>
<g>
	<g>
		<path d="M424,260.158c-4.418,0-8,3.582-8,8v8c0,4.418,3.582,8,8,8s8-3.582,8-8v-8C432,263.74,428.418,260.158,424,260.158z"/>
	</g>
</g>
<g>
	<g>
		<path d="M424,220.158c-4.418,0-8,3.582-8,8v8c0,4.418,3.582,8,8,8s8-3.582,8-8v-8C432,223.74,428.418,220.158,424,220.158z"/>
	</g>
</g>
<g>
	<g>
		<path d="M448,244.158h-8c-4.418,0-8,3.582-8,8c0,4.418,3.582,8,8,8h8c4.418,0,8-3.582,8-8C456,247.74,452.418,244.158,448,244.158
			z"/>
	</g>
</g>
<g>
	<g>
		<path d="M408,244.158h-8c-4.418,0-8,3.582-8,8c0,4.418,3.582,8,8,8h8c4.418,0,8-3.582,8-8C416,247.74,412.418,244.158,408,244.158
			z"/>
	</g>
</g>
<g>
	<g>
		<path d="M264,460.158c-4.418,0-8,3.582-8,8v8c0,4.418,3.582,8,8,8s8-3.582,8-8v-8C272,463.74,268.418,460.158,264,460.158z"/>
	</g>
</g>
<g>
	<g>
		<path d="M264,420.158c-4.418,0-8,3.582-8,8v8c0,4.418,3.582,8,8,8s8-3.582,8-8v-8C272,423.74,268.418,420.158,264,420.158z"/>
	</g>
</g>
<g>
	<g>
		<path d="M288,444.158h-8c-4.418,0-8,3.582-8,8s3.582,8,8,8h8c4.418,0,8-3.582,8-8S292.418,444.158,288,444.158z"/>
	</g>
</g>
<g>
	<g>
		<path d="M248,444.158h-8c-4.418,0-8,3.582-8,8s3.582,8,8,8h8c4.418,0,8-3.582,8-8S252.418,444.158,248,444.158z"/>
	</g>
</g>
<g>
</g>
<g>
</g>
<g>
</g>
<g>
</g>
<g>
</g>
<g>
</g>
<g>
</g>
<g>
</g>
<g>
</g>
<g>
</g>
<g>
</g>
<g>
</g>
<g>
</g>
<g>
</g>
<g>
</g>
</svg>
