<?xml version="1.0" encoding="iso-8859-1"?>
<!-- Generator: Adobe Illustrator 19.0.0, SVG Export Plug-In . SVG Version: 6.00 Build 0)  -->
<svg version="1.1" id="Capa_1" xmlns="http://www.w3.org/2000/svg" xmlns:xlink="http://www.w3.org/1999/xlink" x="0px" y="0px"
	 viewBox="0 0 480 480" style="enable-background:new 0 0 480 480;" xml:space="preserve">
<g>
	<g>
		<path d="M240,220C107.514,220.15,0.15,327.514,0,460c0,4.418,3.582,8,8,8s8-3.582,8-8c0-2.68,0.112-5.336,0.2-8h24
			c-0.104,2.656-0.2,5.32-0.2,8c0,4.418,3.582,8,8,8s8-3.582,8-8c-0.032-48.626,19.247-95.274,53.6-129.688l59.08,132.936
			c0,0.064,0.08,0.112,0.112,0.168c0.11,0.202,0.233,0.397,0.368,0.584c0.352,0.617,0.789,1.182,1.296,1.68
			c0.198,0.192,0.407,0.374,0.624,0.544c0.627,0.493,1.322,0.892,2.064,1.184c0.12,0,0.2,0.136,0.32,0.176h0.128
			c0.776,0.262,1.589,0.402,2.408,0.416c0.992-0.026,1.971-0.235,2.888-0.616c0.112-0.04,0.232,0,0.344-0.072
			c0.112-0.072,0.296-0.24,0.472-0.336c0.597-0.317,1.151-0.71,1.648-1.168c0.232-0.216,0.464-0.416,0.672-0.648
			c0.437-0.539,0.805-1.13,1.096-1.76c0.133-0.222,0.253-0.452,0.36-0.688c0-0.064,0.072-0.112,0.096-0.184L240,293.304
			l56.408,169.224c0,0.072,0.072,0.12,0.096,0.184c0.107,0.236,0.227,0.465,0.36,0.688c0.291,0.63,0.659,1.221,1.096,1.76
			c0.208,0.232,0.44,0.432,0.672,0.648c0.497,0.458,1.051,0.851,1.648,1.168c0.176,0.096,0.288,0.256,0.472,0.336
			c0.184,0.08,0.232,0,0.344,0.072c0.922,0.383,1.906,0.592,2.904,0.616c0.815-0.003,1.625-0.132,2.4-0.384h0.136
			c0.128-0.04,0.216-0.144,0.336-0.192c0.732-0.282,1.417-0.673,2.032-1.16c0.227-0.174,0.443-0.361,0.648-0.56
			c0.5-0.494,0.931-1.054,1.28-1.664c0.12-0.2,0.272-0.376,0.376-0.592c0-0.056,0.08-0.104,0.112-0.168l59.08-132.968
			C404.753,364.726,424.032,411.374,424,460c0,4.418,3.582,8,8,8s8-3.582,8-8c-0.01-14.708-1.644-29.37-4.872-43.72l23.2-6.216
			c3.759,16.38,5.662,33.131,5.672,49.936c0,4.418,3.582,8,8,8s8-3.582,8-8C479.85,327.514,372.486,220.15,240,220z M305.152,270.68
			l6.152-22.976c12.865,4.324,25.309,9.813,37.176,16.4l-12,20.8c-11.217-6.187-23.005-11.277-35.2-15.2L305.152,270.68z
			 M184,243.08l6.216,23.2c-11.106,2.872-21.941,6.702-32.384,11.448L145.8,256.8C158.088,251.07,170.874,246.477,184,243.08z
			 M41.488,436H17.304c1.497-14.041,4.331-27.906,8.464-41.408l23.2,6.216C45.415,412.288,42.911,424.067,41.488,436z M54.4,385.696
			l-23.36-6.248c5.027-13,11.257-25.502,18.608-37.344l20.8,12C64.171,364.137,58.801,374.71,54.4,385.696z M79.49,340.835
			L58.616,328.8c8.086-11.15,17.177-21.534,27.16-31.024l16.96,16.96C94.248,322.748,86.47,331.48,79.49,340.835z M97.768,287.104
			c10.54-8.677,21.848-16.375,33.784-23l12,20.8c-10.1,5.602-19.701,12.06-28.696,19.304L97.768,287.104z M174.968,437.904
			l-52.92-118.992c30.099-25.265,67.526-40.178,106.752-42.536L174.968,437.904z M198.136,264.456l0.032-0.008l7.64-2.048
			l-6.08-22.696c13.285-2.446,26.764-3.686,40.272-3.704v24h16v-23.368c13.501,0.936,26.889,3.094,40,6.448l-6.216,23.2
			C259.788,258.585,228.415,257.961,198.136,264.456z M305.064,437.904L251.2,276.376c39.218,2.363,76.636,17.276,106.728,42.536
			L305.064,437.904z M375.312,312.88c-0.77-1.865-2.224-3.365-4.064-4.192c-0.302-0.089-0.609-0.159-0.92-0.208
			c-6.393-5.513-13.127-10.619-20.16-15.288l12-20.8c11.426,7.477,22.153,15.973,32.048,25.384l-16.96,16.96
			C376.608,314.12,376,313.488,375.312,312.88z M388.472,326.16l16.984-16.992c9.289,10.194,17.623,21.219,24.896,32.936
			l-20.8,12.008C403.352,344.199,396.298,334.846,388.472,326.16z M431.032,400.808c-3.546-11.317-8.097-22.294-13.6-32.8l20.8-12
			c6.534,12.33,11.891,25.248,16,38.584L431.032,400.808z"/>
	</g>
</g>
<g>
	<g>
		<path d="M119.056,224.176c-2.085-3.897-6.935-5.365-10.832-3.28v-0.016c-5.6,3.008-11.2,6.224-16.472,9.544
			c-3.749,2.346-4.886,7.287-2.54,11.036c2.346,3.749,7.287,4.886,11.036,2.54c4.992-3.128,10.216-6.152,15.528-8.992
			C119.673,232.923,121.141,228.073,119.056,224.176z"/>
	</g>
</g>
<g>
	<g>
		<path d="M303.04,171.432c26.197-4.062,44.14-28.592,40.077-54.789C339.508,93.371,319.549,76.155,296,76h-39.432V60
			c0-26.51-21.49-48-48-48c-26.51,0-48,21.49-48,48v16h-24c-4.418,0-8,3.582-8,8v80c0,4.418,3.582,8,8,8h24.568
			c2.697,10.335,10.383,18.636,20.48,22.12c-12.374,2.616-24.555,6.078-36.456,10.36c-4.153,1.507-6.298,6.096-4.791,10.249
			c1.146,3.158,4.143,5.263,7.503,5.271c0.925,0,1.843-0.162,2.712-0.48c48.646-17.399,101.31-20.238,151.544-8.168
			c4.297,1.034,8.618-1.611,9.652-5.908c1.034-4.297-1.611-8.618-5.908-9.652c-6.184-1.496-12.448-2.704-18.736-3.776
			C295.117,187.722,300.899,180.239,303.04,171.432z M296,140V92c17.673,0.06,31.951,14.436,31.891,32.109
			c-0.051,15.031-10.557,28.001-25.251,31.171c-1.354-4.762-3.797-9.145-7.136-12.8C295.802,141.686,295.97,140.848,296,140z
			 M176.568,60c-0.024-8.491,3.353-16.639,9.376-22.624c12.657-12.097,32.591-12.097,45.248,0
			c6.022,5.986,9.398,14.133,9.376,22.624v24c0,8.837-7.163,16-16,16h-32c-8.837,0-16-7.163-16-16V60z M161.136,156h-16.568V92
			H161.6c3.663,14.119,16.398,23.983,30.984,24h32c14.589-0.013,27.328-9.878,30.992-24H280v41.136c-2.607-0.72-5.296-1.102-8-1.136
			c-14.547,0.055-27.227,9.914-30.864,24h-18.272c-4.339-17.046-21.674-27.347-38.719-23.009
			C172.84,135.869,164.013,144.696,161.136,156z M192,180c-8.837,0-16-7.163-16-16s7.163-16,16-16s16,7.163,16,16
			S200.837,180,192,180z M240,188c-9.66,0.017-19.313,0.53-28.92,1.536c5.804-4.339,9.96-10.523,11.784-17.536h18.272
			c1.668,6.383,5.277,12.091,10.328,16.336C247.648,188.184,243.832,188,240,188z M272,180c-8.837,0-16-7.163-16-16s7.163-16,16-16
			s16,7.163,16,16S280.837,180,272,180z"/>
	</g>
</g>
<g>
	<g>
		<path d="M222.027,46.344c-3.1-2.994-8.015-2.994-11.115,0l-16,16c-3.124,3.125-3.123,8.19,0.002,11.314
			c1.5,1.499,3.534,2.342,5.654,2.342c2.122,0,4.156-0.844,5.656-2.344l16-16C225.293,54.478,225.205,49.413,222.027,46.344z"/>
	</g>
</g>
<g>
	<g>
		<path d="M90.064,205.256c18.664-18.514,18.785-48.652,0.271-67.316c-18.514-18.664-48.652-18.785-67.316-0.272
			c-0.092,0.091-0.184,0.183-0.276,0.276l-4.392,4.392l-16,16c-3.128,3.12-3.135,8.186-0.014,11.314
			c0.002,0.002,0.004,0.004,0.006,0.006c3.124,3.123,8.188,3.123,11.312,0L24,159.312L68.688,204l-10.344,10.344
			c-0.703,0.713-1.263,1.555-1.648,2.48c-15.163-9.375-35.056-4.683-44.432,10.48c-9.375,15.163-4.683,35.056,10.48,44.432
			c15.163,9.375,35.056,4.683,44.432-10.48c6.432-10.403,6.432-23.548,0-33.952c0.925-0.385,1.767-0.945,2.48-1.648L90.064,205.256z
			 M40,260c-8.837,0-16-7.163-16-16s7.163-16,16-16s16,7.163,16,16S48.837,260,40,260z M35.44,148.128
			c5.738-5.214,13.207-8.11,20.96-8.128c17.381-0.069,31.528,13.965,31.597,31.346c0.031,7.838-2.863,15.405-8.117,21.222
			L35.44,148.128z"/>
	</g>
</g>
<g>
</g>
<g>
</g>
<g>
</g>
<g>
</g>
<g>
</g>
<g>
</g>
<g>
</g>
<g>
</g>
<g>
</g>
<g>
</g>
<g>
</g>
<g>
</g>
<g>
</g>
<g>
</g>
<g>
</g>
</svg>
