<?xml version="1.0" encoding="iso-8859-1"?>
<!-- Generator: Adobe Illustrator 19.0.0, SVG Export Plug-In . SVG Version: 6.00 Build 0)  -->
<svg version="1.1" id="Capa_1" xmlns="http://www.w3.org/2000/svg" xmlns:xlink="http://www.w3.org/1999/xlink" x="0px" y="0px"
	 viewBox="0 0 480.016 480.016" style="enable-background:new 0 0 480.016 480.016;" xml:space="preserve">
<g>
	<g>
		<path d="M432.008,392.016h-8v-112c0.018-6.367-2.511-12.476-7.024-16.968c-9.499-9.065-24.445-9.065-33.944,0
			c-4.518,4.489-7.05,10.599-7.032,16.968v16h-272v-16c0.018-6.367-2.511-12.476-7.024-16.968c-9.499-9.065-24.445-9.065-33.944,0
			c-4.518,4.489-7.05,10.599-7.032,16.968v112h-8c-4.418,0-8,3.582-8,8v72c0,4.418,3.582,8,8,8h384c4.418,0,8-3.582,8-8v-72
			C440.008,395.598,436.426,392.016,432.008,392.016z M392.008,368.016v-88c0.007-2.12,0.85-4.152,2.344-5.656
			c3.161-3.034,8.151-3.034,11.312,0c1.495,1.504,2.337,3.536,2.344,5.656v112h-16V368.016z M304.008,312.016h72v16h-72V312.016z
			 M304.008,344.016h72v16h-72V344.016z M192.008,312.016h96v16h-96V312.016z M192.008,344.016h96v16h-96V344.016z M104.008,312.016
			h72v16h-72V312.016z M104.008,344.016h72v16h-72V344.016z M104.008,376.016h272v16h-272V376.016z M72.008,280.016
			c0.007-2.12,0.849-4.152,2.344-5.656c3.161-3.034,8.151-3.034,11.312,0c1.495,1.504,2.337,3.536,2.344,5.656v112h-16V280.016z
			 M424.008,464.016h-368v-56h328h40V464.016z"/>
	</g>
</g>
<g>
	<g>
		<path d="M437.664,178.36l-14.344-14.344l14.344-14.344c3.07-3.178,2.982-8.242-0.196-11.312c-3.1-2.994-8.015-2.994-11.116,0
			l-14.344,14.344l-14.344-14.344c-3.178-3.07-8.242-2.982-11.312,0.196c-2.994,3.1-2.994,8.015,0,11.116l14.344,14.344
			l-14.344,14.344c-3.123,3.124-3.123,8.188,0,11.312c3.124,3.123,8.188,3.123,11.312,0l14.344-14.344l14.344,14.344
			c3.178,3.069,8.242,2.982,11.312-0.196C440.659,186.376,440.659,181.46,437.664,178.36z"/>
	</g>
</g>
<g>
	<g>
		<path d="M464.008,104.016H384.6c-0.176-0.192-0.368-0.384-0.552-0.568c-8.629-8.628-19.126-15.156-30.68-19.08l14.328-50.16
			c1.211-4.249-1.252-8.675-5.501-9.887c-1.921-0.547-3.976-0.357-5.763,0.534l-38.312,19.16l-6.224-37.312
			c-0.725-4.358-4.845-7.304-9.204-6.58c-1.348,0.224-2.617,0.79-3.684,1.644l-33.552,26.84L246.408,3.216
			c-1.574-2.164-4.146-3.372-6.816-3.2c-2.643,0.152-5.039,1.602-6.4,3.872l-19.584,32.584l-48.952-34.96
			c-3.596-2.567-8.592-1.733-11.159,1.863c-1.289,1.806-1.771,4.067-1.329,6.241l5.72,28.632l-36.56-6.088
			c-2.767-0.447-5.569,0.573-7.4,2.696c-1.822,2.131-2.395,5.059-1.512,7.72l13.976,41.92
			c-11.436,3.928-21.827,10.409-30.384,18.952c-0.184,0.184-0.376,0.376-0.552,0.568H16.008c-4.418,0-8,3.582-8,8v104
			c0,4.418,3.582,8,8,8h88.568c13.847,10.359,30.668,15.97,47.96,16h39.472c1.118-0.008,2.222-0.251,3.24-0.712
			c0.256,0,0.504,0.064,0.76,0.064c13.451,0.105,26.459-4.797,36.496-13.752c2.842-2.592,5.361-5.517,7.504-8.712
			c2.143,3.206,4.662,6.145,7.504,8.752c10.044,8.938,23.051,13.825,36.496,13.712c0.256,0,0.504-0.064,0.76-0.064
			c1.018,0.461,2.122,0.704,3.24,0.712h39.472c17.306-0.021,34.142-5.633,48-16h88.528c4.418,0,8-3.582,8-8v-104
			C472.008,107.598,468.426,104.016,464.008,104.016z M136.56,167.376c2.244,1.967,4.751,3.612,7.448,4.888v19.2
			c0.135,12.26,5.127,23.966,13.88,32.552h-5.352c-14.626-0.027-28.805-5.045-40.192-14.224c-1.422-1.149-3.196-1.776-5.024-1.776
			H24.008v-88h74.984c2.275,0,4.443-0.969,5.96-2.664l0.856-0.968c0.48-0.552,0.952-1.104,1.472-1.6
			c11.973-12.05,28.269-18.808,45.256-18.768h7.288c4.277,0.051,8.393,1.641,11.592,4.48c2.877,2.499,4.548,6.109,4.592,9.92v35.2
			c-0.045,3.81-1.72,7.418-4.6,9.912c-6.926,5.944-17.154,5.944-24.08,0c-2.88-2.494-4.555-6.102-4.6-9.912c0-4.418-3.582-8-8-8
			s-8,3.582-8,8C126.805,153.928,130.373,161.825,136.56,167.376z M232.008,191.448c-0.072,8.588-3.806,16.738-10.264,22.4
			c-14.729,12.9-36.735,12.9-51.464,0c-6.46-5.661-10.197-13.811-10.272-22.4v-15.56c8.175-0.064,16.051-3.088,22.168-8.512
			c6.187-5.551,9.755-13.448,9.832-21.76v-35.2c-0.049-4.571-1.19-9.064-3.328-13.104c11.803-2.341,24.022,0.948,33.056,8.896
			c6.454,5.656,10.19,13.795,10.272,22.376V191.448z M240.008,103.128c-2.143-3.206-4.662-6.145-7.504-8.752
			c-10.274-9.149-23.638-14.058-37.392-13.736c-0.983-0.413-2.038-0.625-3.104-0.624h-39.472c-3.515,0.036-7.024,0.303-10.504,0.8
			L131.8,50.096l34.888,5.808c2.593,0.422,5.23-0.446,7.064-2.328c1.837-1.895,2.621-4.574,2.096-7.16l-4-20.168l39.536,28.24
			c3.598,2.564,8.594,1.727,11.158-1.871c0.122-0.172,0.238-0.348,0.346-0.529l17.856-29.752l16.864,22.48
			c2.65,3.535,7.664,4.253,11.2,1.603c0.068-0.051,0.134-0.102,0.2-0.155l29.352-23.48l5.76,34.544
			c0.724,4.359,4.844,7.305,9.202,6.582c0.786-0.13,1.549-0.378,2.262-0.734l31.736-15.872l-9.552,33.448
			c-3.41-0.467-6.846-0.713-10.288-0.736h-39.472c-1.058-0.001-2.106,0.211-3.08,0.624c-13.768-0.322-27.144,4.602-37.416,13.776
			C244.67,97.008,242.151,99.933,240.008,103.128z M320.008,191.448c-0.072,8.588-3.806,16.738-10.264,22.4
			c-14.729,12.9-36.735,12.9-51.464,0c-6.46-5.661-10.197-13.811-10.272-22.4v-62.864c0.072-8.588,3.806-16.738,10.264-22.4
			c9.033-7.955,21.257-11.247,33.064-8.904c-2.143,4.05-3.284,8.554-3.328,13.136v35.2c0.077,8.312,3.645,16.209,9.832,21.76
			c6.117,5.425,13.992,8.449,22.168,8.512V191.448z M456.008,208.016h-83.312c-1.828,0-3.601,0.627-5.024,1.776
			c-11.387,9.179-25.566,14.197-40.192,14.224h-5.352c8.755-8.591,13.746-20.303,13.88-32.568v-19.2
			c2.696-1.275,5.2-2.92,7.44-4.888c6.195-5.546,9.767-13.445,9.84-21.76c0-4.418-3.582-8-8-8s-8,3.582-8,8
			c-0.045,3.81-1.72,7.418-4.6,9.912c-6.929,5.945-17.159,5.945-24.088,0c-2.871-2.494-4.541-6.094-4.592-9.896v-35.2
			c0.045-3.81,1.72-7.418,4.6-9.912c3.194-2.843,7.308-4.437,11.584-4.488h7.288c16.983-0.047,33.279,6.703,45.256,18.744
			c0.52,0.52,0.992,1.072,1.472,1.6l0.856,0.968c1.518,1.695,3.685,2.664,5.96,2.664h74.984V208.016z"/>
	</g>
</g>
<g>
	<g>
		<path d="M79.32,164.016l14.344-14.344c3.123-3.124,3.123-8.188,0-11.312c-3.124-3.123-8.188-3.123-11.312,0l-14.344,14.344
			L53.664,138.36c-3.069-3.178-8.134-3.266-11.312-0.197s-3.266,8.134-0.197,11.312c0.064,0.067,0.13,0.132,0.197,0.197
			l14.344,14.344L42.352,178.36c-3.178,3.069-3.266,8.134-0.197,11.312c3.069,3.178,8.134,3.266,11.312,0.197
			c0.067-0.064,0.132-0.13,0.197-0.197l14.344-14.344l14.344,14.344c3.178,3.069,8.243,2.981,11.312-0.197
			c2.994-3.1,2.994-8.015,0-11.115L79.32,164.016z"/>
	</g>
</g>
<g>
</g>
<g>
</g>
<g>
</g>
<g>
</g>
<g>
</g>
<g>
</g>
<g>
</g>
<g>
</g>
<g>
</g>
<g>
</g>
<g>
</g>
<g>
</g>
<g>
</g>
<g>
</g>
<g>
</g>
</svg>
