<?xml version="1.0" encoding="iso-8859-1"?>
<!-- Generator: Adobe Illustrator 19.0.0, SVG Export Plug-In . SVG Version: 6.00 Build 0)  -->
<svg version="1.1" id="Capa_1" xmlns="http://www.w3.org/2000/svg" xmlns:xlink="http://www.w3.org/1999/xlink" x="0px" y="0px"
	 viewBox="0 0 480.005 480.005" style="enable-background:new 0 0 480.005 480.005;" xml:space="preserve">
<g>
	<g>
		<path d="M476.296,384.671L392,331.031v-19.608h48c4.418-0.006,7.995-3.592,7.99-8.01c-0.003-2.576-1.247-4.994-3.342-6.494l-56-40
			c-3.596-2.567-8.592-1.733-11.159,1.863c-0.967,1.354-1.487,2.977-1.489,4.641v67.608l-84.296,53.6
			c-3.751,2.334-4.9,7.268-2.566,11.019c1.473,2.368,4.073,3.797,6.862,3.773h8v72c0,4.418,3.582,8,8,8h144c4.418,0,8-3.582,8-8v-72
			h8c4.418,0.003,8.002-3.576,8.005-7.995C480.007,388.69,478.608,386.14,476.296,384.671z M392,278.967l23.04,16.456H392V278.967z
			 M444.528,383.423h-31.584l-14.736-29.472L444.528,383.423z M384,361.311l11.056,22.112h-22.112L384,361.311z M369.792,353.951
			l-14.736,29.472h-31.584L369.792,353.951z M320,463.423v-64h60.184l-25.6,64H320z M371.816,463.423l9.392-23.48l23.48,23.48
			H371.816z M448,463.423h-20.688l-39.64-39.64l9.744-24.36H448V463.423z"/>
	</g>
</g>
<g>
	<g>
		<path d="M335.504,259.239c11.328-33.615,11.328-70.017,0-103.632c20.053-17.244,22.33-47.48,5.086-67.533
			c-14.638-17.022-39.137-21.59-58.926-10.987C264.61,63.274,245.022,52.925,224,46.623c-1.082-26.488-23.432-47.083-49.919-46.001
			c-24.971,1.02-44.981,21.03-46.001,46.001c-21.034,6.296-40.635,16.638-57.704,30.448C63.497,73.374,55.81,71.434,48,71.423
			C21.49,71.438,0.012,92.94,0.026,119.449c0.008,13.869,6.013,27.056,16.47,36.166c-11.328,33.613-11.328,70.011,0,103.624
			C6.009,268.337-0.01,281.54,0,295.423c0.026,26.499,21.501,47.974,48,48c7.798-0.023,15.47-1.968,22.336-5.664
			c7.99,6.473,16.559,12.196,25.6,17.096c-6.702,22.037-11.977,44.484-15.792,67.2l-8,48.08c-0.711,4.361,2.247,8.472,6.608,9.184
			c0.413,0.067,0.83,0.102,1.248,0.104h192c4.418-0.002,7.998-3.585,7.996-8.004c0-0.438-0.036-0.876-0.108-1.308l-8-48.08
			c-3.815-22.716-9.09-45.163-15.792-67.2c9.042-4.898,17.612-10.621,25.6-17.096c6.854,3.7,14.515,5.654,22.304,5.688
			c26.51-0.019,47.984-21.526,47.965-48.035C351.955,281.527,345.953,268.347,335.504,259.239z M285.6,93.351
			c14.443-10.131,34.365-6.635,44.496,7.808c10.131,14.443,6.635,34.365-7.808,44.496c-14.443,10.131-34.365,6.635-44.496-7.808
			c-3.785-5.397-5.809-11.832-5.792-18.424C272.007,109.034,277.084,99.302,285.6,93.351z M221.352,62.527
			c17.095,5.36,33.112,13.687,47.32,24.6c-12.444,13.41-16.073,32.778-9.328,49.784l-63.912,44.464
			c-0.176,0.12-0.264,0.312-0.432,0.448c-3.29-2.452-7.026-4.24-11-5.264v-81.88C201.416,91.647,215.762,79.298,221.352,62.527z
			 M165.696,237.575c0.76,0.256,1.52,0.512,2.304,0.712v81.88c-17.416,3.033-31.762,15.381-37.352,32.152
			c-5.194-1.642-10.298-3.559-15.288-5.744c1.56-4.704,3.064-9.424,4.76-14.072c10.095-27.75,22.532-54.59,37.176-80.232
			L165.696,237.575z M160,207.423c0-8.837,7.163-16,16-16s16,7.163,16,16s-7.163,16-16,16S160,216.26,160,207.423z M144.296,364.463
			l0.16-1.128c2.153-17.421,18.021-29.799,35.443-27.645c14.463,1.788,25.858,13.182,27.645,27.645l0.16,1.128
			c0.164,0.979,0.262,1.968,0.296,2.96c0,17.673-14.327,32-32,32s-32-14.327-32-32C144.034,366.431,144.133,365.443,144.296,364.463
			z M184,320.167v-81.88c0.8-0.2,1.544-0.456,2.304-0.712l8.4,14.696c14.644,25.642,27.081,52.482,37.176,80.232
			c1.696,4.648,3.2,9.368,4.76,14.072c-4.992,2.188-10.098,4.106-15.296,5.744C215.759,335.548,201.415,323.198,184,320.167z
			 M176,15.423c17.673,0,32,14.327,32,32c-0.034,0.992-0.132,1.981-0.296,2.96l-0.16,1.128
			c-2.117,17.421-17.956,29.828-35.377,27.711c-14.512-1.763-25.948-13.2-27.711-27.711l-0.16-1.12
			c-0.164-0.982-0.263-1.973-0.296-2.968C144,29.75,158.327,15.423,176,15.423z M130.656,62.527
			c5.585,16.772,19.929,29.122,37.344,32.152v81.88c-4.911,1.276-9.445,3.709-13.224,7.096l-64-42.64
			c9.063-17.752,6.075-39.275-7.48-53.888C97.515,76.209,113.547,67.882,130.656,62.527z M16,119.423
			C15.992,101.75,30.313,87.417,47.986,87.41C65.659,87.402,79.992,101.723,80,119.396s-14.313,32.006-31.986,32.014
			c-6.32,0.003-12.499-1.866-17.758-5.37C21.354,140.108,16.005,130.121,16,119.423z M48.022,327.445
			C30.349,327.457,16.012,313.14,16,295.467c-0.007-10.71,5.344-20.713,14.256-26.652c14.707-9.8,34.574-5.821,44.374,8.886
			c3.498,5.249,5.366,11.415,5.37,17.722C80.012,313.097,65.695,327.433,48.022,327.445z M30.6,250.847
			c-8.805-28.266-8.805-58.542,0-86.808c17.414,6.984,37.309,3.017,50.712-10.112l64.544,43.04
			c-2.361,6.242-2.522,13.102-0.456,19.448c-0.347,0.12-0.684,0.267-1.008,0.44l-63.2,44
			C67.802,247.787,47.957,243.861,30.6,250.847z M83.328,327.719c13.589-14.656,16.553-36.249,7.416-54.024l59.56-41.432
			l-6.896,12.072c-15.093,26.43-27.912,54.095-38.32,82.696c-1.48,4.064-2.776,8.2-4.16,12.304
			C94.8,335.874,88.919,331.993,83.328,327.719z M262.552,463.423H89.448l6.456-38.768c3.579-21.204,8.465-42.167,14.632-62.768
			c5.713,2.43,11.557,4.54,17.504,6.32c0.761,26.499,22.859,47.364,49.358,46.603c25.423-0.73,45.864-21.164,46.602-46.587
			c5.948-1.78,11.791-3.89,17.504-6.32c6.153,20.597,11.026,41.554,14.592,62.752L262.552,463.423z M251.072,339.335
			c-1.384-4.104-2.68-8.24-4.16-12.304c-10.408-28.601-23.227-56.266-38.32-82.696l-5.144-9l57.744,38.488
			c-9.063,17.752-6.075,39.275,7.48,53.888C263.081,331.988,257.2,335.872,251.072,339.335z M206.096,217.879
			c2.855-7.718,2.474-16.262-1.056-23.696l62.584-43.56c9.085,10.65,22.377,16.789,36.376,16.8c5.96-0.035,11.86-1.191,17.392-3.408
			c8.805,28.266,8.805,58.542,0,86.808c-17.414-6.984-37.309-3.017-50.712,10.112L206.096,217.879z M304.014,327.437
			c-17.673,0.008-32.006-14.313-32.014-31.986c-0.008-17.673,14.313-32.006,31.986-32.014c6.32-0.003,12.499,1.866,17.758,5.37
			c8.902,5.932,14.251,15.919,14.256,26.616C336.008,313.097,321.687,327.43,304.014,327.437z"/>
	</g>
</g>
<g>
</g>
<g>
</g>
<g>
</g>
<g>
</g>
<g>
</g>
<g>
</g>
<g>
</g>
<g>
</g>
<g>
</g>
<g>
</g>
<g>
</g>
<g>
</g>
<g>
</g>
<g>
</g>
<g>
</g>
</svg>
