<?xml version="1.0" encoding="iso-8859-1"?>
<!-- Generator: Adobe Illustrator 19.0.0, SVG Export Plug-In . SVG Version: 6.00 Build 0)  -->
<svg version="1.1" id="Capa_1" xmlns="http://www.w3.org/2000/svg" xmlns:xlink="http://www.w3.org/1999/xlink" x="0px" y="0px"
	 viewBox="0 0 480 480" style="enable-background:new 0 0 480 480;" xml:space="preserve">
<g>
	<g>
		<path d="M388.007,15.936V8c0-4.418-3.582-8-8-8s-8,3.582-8,8v7.912c-52.957,4.276-92.422,50.672-88.147,103.629
			c4.034,49.972,45.771,88.468,95.907,88.459c53.134,0.01,96.216-43.056,96.226-96.19C476.002,61.856,437.778,20.205,388.007,15.936
			z M364.807,32.968c4.366-0.817,8.791-1.275,13.232-1.368c1.228,0.517,2.612,0.517,3.84,0c4.423,0.1,8.83,0.566,13.176,1.392
			c4.044,11.524,7.205,23.34,9.456,35.344c-8.6-0.8-17.248-1.248-25.928-1.232c-7.792,0.056-15.552,0.48-23.264,1.224
			C357.586,56.319,360.758,44.499,364.807,32.968z M301.007,96.632c11.573-4.051,23.436-7.218,35.488-9.472
			c-0.8,7.84-1.216,15.728-1.272,23.656c-0.064,8.592,0.344,17.184,1.128,25.648c-12.003-2.247-23.818-5.4-35.344-9.432
			C299.03,116.995,299.03,106.669,301.007,96.632z M307.127,145.88c10.277,3.051,20.735,5.455,31.312,7.2
			c1.666,10.496,3.983,20.879,6.936,31.088C328.598,176.19,315.088,162.666,307.127,145.88z M338.695,70.552
			c-10.642,1.737-21.164,4.142-31.504,7.2c8.014-17.008,21.718-30.681,38.744-38.656C342.868,49.42,340.45,59.926,338.695,70.552z
			 M395.735,190.408c-5.266,1.068-10.627,1.604-16,1.6c-5.256-0.015-10.498-0.554-15.648-1.608
			c-3.899-11.461-6.934-23.198-9.08-35.112c7.816,0.8,15.68,1.208,23.576,1.264h1.784c8.192,0,16.336-0.416,24.44-1.184
			C402.668,167.259,399.636,178.973,395.735,190.408z M407.127,139.096c-9.438,1.071-18.934,1.554-28.432,1.448
			c-8.697-0.111-17.382-0.693-26.016-1.744c-1.021-9.255-1.51-18.561-1.464-27.872c0.118-8.718,0.703-17.424,1.752-26.08
			c8.539-1.031,17.128-1.605,25.728-1.72h0c9.396-0.102,18.789,0.366,28.128,1.4c1.079,8.761,1.677,17.574,1.792,26.4
			C408.662,120.338,408.165,129.743,407.127,139.096z M452.151,77.36l-0.064,0.024c-10.194-2.931-20.557-5.237-31.032-6.904
			c-1.753-10.539-4.157-20.959-7.2-31.2C430.619,47.193,444.144,60.641,452.151,77.36z M414.511,184h-0.024
			c2.914-10.104,5.207-20.376,6.864-30.76c10.36-1.664,20.609-3.961,30.688-6.88C444.14,162.785,430.913,176.052,414.511,184z
			 M423.447,136.704c0.817-8.607,1.201-17.25,1.152-25.896c-0.056-8-0.512-16-1.296-23.92c11.922,2.187,23.664,5.263,35.128,9.2
			c1.038,5.16,1.566,10.409,1.576,15.672c-0.006,5.309-0.542,10.605-1.6,15.808C446.996,131.474,435.311,134.528,423.447,136.704z"
			/>
	</g>
</g>
<g>
	<g>
		<path d="M459.637,277.518c-0.794-2.415-2.687-4.308-5.102-5.102l-32.2-10.744l-10.744-32.2c-1.38-4.197-5.901-6.482-10.098-5.102
			c-2.415,0.794-4.308,2.687-5.102,5.102l-10.744,32.2l-32.2,10.744c-4.197,1.38-6.482,5.901-5.102,10.098
			c0.794,2.415,2.687,4.308,5.102,5.102l32.2,10.744l10.744,32.2c1.38,4.197,5.901,6.482,10.098,5.102
			c2.415-0.794,4.308-2.687,5.102-5.102l10.744-32.2l32.2-10.744C458.733,286.236,461.017,281.715,459.637,277.518z
			 M413.479,284.416c-2.393,0.785-4.271,2.663-5.056,5.056l-4.416,13.232l-4.416-13.232c-0.785-2.393-2.663-4.271-5.056-5.056
			L381.303,280l13.232-4.416c2.393-0.785,4.271-2.662,5.056-5.056l4.416-13.232l4.416,13.232c0.785,2.393,2.662,4.271,5.056,5.056
			L426.711,280L413.479,284.416z"/>
	</g>
</g>
<g>
	<g>
		<path d="M44.007,0c-4.418,0-8,3.582-8,8v295.432c-18.611,3.827-31.976,20.199-32,39.2V408c0,13.255,10.745,24,24,24
			c2.729-0.026,5.435-0.515,8-1.448V472c0,4.418,3.582,8,8,8s8-3.582,8-8V8C52.007,3.582,48.425,0,44.007,0z M36.007,408
			c0,2.122-0.844,4.156-2.344,5.656c-3.125,3.124-8.19,3.123-11.314-0.002c-1.499-1.5-2.342-3.534-2.342-5.654v-65.376
			c0.016-10.165,6.421-19.222,16-22.624V408z"/>
	</g>
</g>
<g>
	<g>
		<path d="M268.007,54.624c0-13.255-10.745-24-24-24s-24,10.745-24,24v63.2c-14.193-16.474-35.898-24.433-57.376-21.04
			c0.872-2.848,1.335-5.806,1.376-8.784c0.083-17.673-14.177-32.067-31.85-32.15s-32.067,14.177-32.15,31.85
			c-0.067,14.361,9.441,27.008,23.255,30.932c-17.576,20.565-20.223,49.996-6.6,73.368H84.007V8c0-4.418-3.582-8-8-8s-8,3.582-8,8
			v464c0,4.418,3.582,8,8,8c2.566-0.029,4.956-1.31,6.4-3.432c3.975,2.22,8.447,3.401,13,3.432
			c10.822-0.007,20.628-6.378,25.032-16.264c0.112-0.272,0.216-0.552,0.312-0.8l23.896-75.104l14.656,10.664
			c3.574,2.598,8.577,1.807,11.175-1.767c0.999-1.374,1.534-3.03,1.529-4.729v-46.4l21.512-50.192
			c15.272-2.67,26.433-15.904,26.488-31.408c-0.043-1.486-0.193-2.967-0.448-4.432c31.146-31.95,48.537-74.829,48.448-119.448
			V54.624z M172.044,112.037c21.092,0.016,39.702,13.8,45.867,33.971l-34.328-17.168c-2.884-1.445-6.354-1.016-8.8,1.088
			l-49.176,42.168c-1.051-3.947-1.589-8.012-1.6-12.096C124.028,133.49,145.535,112.017,172.044,112.037z M219.759,164.824
			c-2.727,26.369-26.314,45.535-52.683,42.808c-13.932-1.441-26.54-8.895-34.517-20.408l48.648-41.704L219.759,164.824z M116.007,88
			c0-8.837,7.163-16,16-16s16,7.163,16,16s-7.163,16-16,16S116.007,96.837,116.007,88z M84.007,240h28.448
			c-7.117,11.878-5.577,27.021,3.784,37.224L103.727,296h-19.72V240z M84.007,343.704l14.768,10.744l-14.768,44.928V343.704z
			 M105.655,457.6c-1.912,3.917-5.889,6.401-10.248,6.4c-6.362-0.063-11.468-5.272-11.405-11.634
			c0.001-0.082,0.003-0.164,0.005-0.246c-0.005-1.594,0.331-3.17,0.984-4.624c0.112-0.248,0.2-0.496,0.288-0.752l26.848-81.656
			l18.536,13.904L105.655,457.6z M156.007,376.288l-72-52.36V312h21.44l50.56,36.12V376.288z M160.567,331.72l-41.6-29.728
			l10.592-15.888c10.636,3.914,22.561,1.677,31.056-5.824c3.698,6.236,9.404,11.031,16.184,13.6L160.567,331.72z M124.007,256
			c0-8.837,7.163-16,16-16s16,7.163,16,16s-7.163,16-16,16S124.007,264.837,124.007,256z M188.007,280c-8.837,0-16-7.163-16-16
			s7.163-16,16-16s16,7.163,16,16S196.844,280,188.007,280z M252.007,140.12c0.055,38.196-14.032,75.061-39.544,103.488
			c-10.971-13.481-30.794-15.516-44.276-4.544c-0.264,0.215-0.524,0.433-0.78,0.656c-5.716-9.711-16.131-15.687-27.4-15.72h-56v-16
			h45.808c26.451,23.359,66.83,20.854,90.189-5.597c10.336-11.704,16.029-26.788,16.003-42.403c-0.018-2.676-0.202-5.347-0.552-8
			h0.552V54.624c0-4.418,3.582-8,8-8s8,3.582,8,8V140.12z"/>
	</g>
</g>
<g>
	<g>
		<circle cx="444.007" cy="352" r="16"/>
	</g>
</g>
<g>
	<g>
		<circle cx="252.007" cy="344" r="16"/>
	</g>
</g>
<g>
	<g>
		<circle cx="364.007" cy="376" r="16"/>
	</g>
</g>
<g>
	<g>
		<path d="M300.007,256c-4.418,0-8,3.582-8,8v8c0,4.418,3.582,8,8,8s8-3.582,8-8v-8C308.007,259.582,304.425,256,300.007,256z"/>
	</g>
</g>
<g>
	<g>
		<path d="M300.007,216c-4.418,0-8,3.582-8,8v8c0,4.418,3.582,8,8,8s8-3.582,8-8v-8C308.007,219.582,304.425,216,300.007,216z"/>
	</g>
</g>
<g>
	<g>
		<path d="M324.007,240h-8c-4.418,0-8,3.582-8,8s3.582,8,8,8h8c4.418,0,8-3.582,8-8S328.425,240,324.007,240z"/>
	</g>
</g>
<g>
	<g>
		<path d="M284.007,240h-8c-4.418,0-8,3.582-8,8s3.582,8,8,8h8c4.418,0,8-3.582,8-8S288.425,240,284.007,240z"/>
	</g>
</g>
<g>
</g>
<g>
</g>
<g>
</g>
<g>
</g>
<g>
</g>
<g>
</g>
<g>
</g>
<g>
</g>
<g>
</g>
<g>
</g>
<g>
</g>
<g>
</g>
<g>
</g>
<g>
</g>
<g>
</g>
</svg>
