<?xml version="1.0" encoding="iso-8859-1"?>
<!-- Generator: Adobe Illustrator 19.0.0, SVG Export Plug-In . SVG Version: 6.00 Build 0)  -->
<svg version="1.1" id="Capa_1" xmlns="http://www.w3.org/2000/svg" xmlns:xlink="http://www.w3.org/1999/xlink" x="0px" y="0px"
	 viewBox="0 0 480 480" style="enable-background:new 0 0 480 480;" xml:space="preserve">
<g>
	<g>
		<path d="M248.927,37.824c-4.418,0-8,3.582-8,8s3.582,8,8,8c22.056,0,40,21.856,40,48.72c0,4.418,3.582,8,8,8s8-3.582,8-8
			C304.927,66.856,279.807,37.824,248.927,37.824z"/>
	</g>
</g>
<g>
	<g>
		<path d="M81.739,96.724c-1.085-4.286-5.438-6.881-9.724-5.796c-29.936,7.592-47.152,41.912-38.4,76.512
			c0.989,4.306,5.281,6.995,9.588,6.006c4.306-0.989,6.995-5.281,6.006-9.588c-0.027-0.119-0.057-0.237-0.09-0.355
			c-6.592-26.04,5.448-51.648,26.824-57.056C80.229,105.363,82.824,101.01,81.739,96.724z"/>
	</g>
</g>
<g>
	<g>
		<path d="M409.847,90.928c-4.286-1.085-8.639,1.51-9.724,5.796c-1.085,4.286,1.51,8.639,5.796,9.724
			c21.376,5.408,33.4,31.016,26.8,57.056c-1.083,4.284,1.512,8.634,5.795,9.717c0.004,0.001,0.009,0.002,0.013,0.003
			c4.281,1.086,8.632-1.503,9.72-5.784C457.047,132.84,439.807,98.52,409.847,90.928z"/>
	</g>
</g>
<g>
	<g>
		<path d="M476.127,123.856c-5.464-26.053-22.286-48.3-45.864-60.656c-16.923-8.469-36.159-11.147-54.752-7.624
			c-4.35,0.782-7.242,4.942-6.46,9.292c0.782,4.35,4.942,7.242,9.292,6.46c15.161-2.923,30.863-0.764,44.672,6.144
			c19.347,10.25,33.103,28.608,37.504,50.056c5.336,24.317,1.901,49.738-9.696,71.768c-10.97,22.359-29.494,40.118-52.296,50.136
			c-19.921,9.087-42.862,8.793-62.544-0.8c-9.824-4.994-18.286-12.303-24.656-21.296c-2.576-3.59-7.574-4.412-11.164-1.836
			s-4.412,7.574-1.836,11.164c6.498,9.065,14.732,16.75,24.224,22.608c-0.104,0.152-0.272,0.232-0.368,0.384l-73.256,113.256
			V223.528c49.192-4.8,88-52.92,88-111.528c0-61.76-43.064-112-96-112c-52.936,0-96,50.24-96,112c0,58.608,38.808,106.76,88,111.528
			v149.384l-73.288-113.256c-0.317-0.395-0.67-0.76-1.056-1.088c8.995-5.775,16.808-13.208,23.024-21.904
			c2.576-3.59,1.754-8.588-1.836-11.164s-8.588-1.754-11.164,1.836c-6.369,8.989-14.828,16.295-24.648,21.288
			c-19.682,9.597-42.623,9.89-62.544,0.8c-22.788-10.025-41.302-27.779-52.272-50.128c-11.597-22.03-15.031-47.451-9.696-71.768
			c4.398-21.44,18.144-39.795,37.48-50.048c14.35-7.175,30.723-9.227,46.4-5.816c4.36,0.713,8.473-2.244,9.186-6.605
			c0.673-4.119-1.933-8.063-5.986-9.059c-19.202-4.118-39.233-1.578-56.8,7.2C26.163,75.56,9.356,97.804,3.903,123.848
			c-6.219,27.999-2.331,57.296,10.976,82.704c12.683,25.717,34.052,46.12,60.328,57.6c11.882,5.107,24.667,7.781,37.6,7.864
			c11.1-0.016,22.089-2.221,32.336-6.488c0.189,0.992,0.563,1.939,1.104,2.792l75.656,116.928l-27.304-13.656
			c-16.944-8.485-37.559-1.628-46.044,15.316c-8.485,16.944-1.628,37.559,15.316,46.044c9.67,4.843,21.058,4.843,30.728,0l20-10.016
			c-8.929,14.809-13.655,31.771-13.672,49.064c0,4.418,3.582,8,8,8s8-3.582,8-8c0.009-18.755,6.674-36.899,18.808-51.2l5.192-6.144
			l5.192,6.128c12.137,14.306,18.802,32.455,18.808,51.216c0,4.418,3.582,8,8,8s8-3.582,8-8
			c-0.021-17.285-4.747-34.238-13.672-49.04l20,10.016c16.944,8.475,37.551,1.61,46.026-15.334s1.61-37.551-15.334-46.026
			c-9.66-4.832-21.032-4.832-30.692,0l-27.304,13.656l75.656-116.928c0.373-0.654,0.642-1.36,0.8-2.096
			c9.791,3.824,20.209,5.788,30.72,5.792c12.933-0.083,25.718-2.757,37.6-7.864c26.277-11.482,47.648-31.884,60.336-57.6
			C478.394,181.171,482.313,151.871,476.127,123.856z M187.407,418.664c-9.04,4.525-20.036,0.865-24.561-8.175
			c-4.525-9.04-0.865-20.036,8.175-24.561c5.157-2.581,11.229-2.581,16.386,0l32.72,16.368L187.407,418.664z M240.927,208
			c-44.112,0-80-43.064-80-96s35.888-96,80-96s80,43.064,80,96S285.039,208,240.927,208z M294.431,385.928
			c9.04-4.525,20.036-0.865,24.561,8.175c4.525,9.04,0.865,20.036-8.175,24.561c-5.157,2.581-11.229,2.581-16.386,0l-32.704-16.368
			L294.431,385.928z"/>
	</g>
</g>
<g>
</g>
<g>
</g>
<g>
</g>
<g>
</g>
<g>
</g>
<g>
</g>
<g>
</g>
<g>
</g>
<g>
</g>
<g>
</g>
<g>
</g>
<g>
</g>
<g>
</g>
<g>
</g>
<g>
</g>
</svg>
