<?xml version="1.0" encoding="iso-8859-1"?>
<!-- Generator: Adobe Illustrator 19.0.0, SVG Export Plug-In . SVG Version: 6.00 Build 0)  -->
<svg version="1.1" id="Capa_1" xmlns="http://www.w3.org/2000/svg" xmlns:xlink="http://www.w3.org/1999/xlink" x="0px" y="0px"
	 viewBox="0 0 480.016 480.016" style="enable-background:new 0 0 480.016 480.016;" xml:space="preserve">
<g>
	<g>
		<path d="M468,179.054l-2.28-4c-16.109-28.478-46.258-46.124-78.976-46.224h-3.128c-16.527,0.007-32.737,4.539-46.872,13.104
			c-16.182,9.783-34.731,14.957-53.64,14.96h-86.208c-18.933-0.016-37.501-5.209-53.696-15.016
			c-42.807-25.867-98.477-12.134-124.344,30.673c-1.361,2.253-2.624,4.564-3.784,6.927L9.6,190.43
			c-6.296,12.729-9.58,26.735-9.6,40.936V392.71c-0.005,11.177,2.112,22.253,6.24,32.64c8.79,22.379,32.364,35.232,55.936,30.496
			c12.714-2.618,23.744-10.455,30.4-21.6l23.328-40.2l14.56,3.632c29.696,7.426,60.312-8.227,71.68-36.648l3.272-8.2h69.168
			l3.28,8.208c11.368,28.421,41.984,44.074,71.68,36.648l14.56-3.632l22.552,38.888c6.741,11.662,18.055,19.971,31.2,22.912
			c23.573,4.75,47.153-8.113,55.92-30.504c4.128-10.387,6.245-21.463,6.24-32.64v-168.2
			C479.999,208.576,475.859,192.916,468,179.054z M208,172.894h64v35.936h-64V172.894z M464,392.71
			c0.007,9.159-1.731,18.235-5.12,26.744c-5.991,15.222-22.051,23.941-38.08,20.672c-8.613-2.054-15.984-7.594-20.352-15.296
			l-25.528-44c-1.789-3.081-5.4-4.607-8.856-3.744l-20.392,5.096c-21.935,5.485-44.549-6.078-52.944-27.072l-5.296-13.24
			c-1.212-3.043-4.156-5.04-7.432-5.04h-80c-3.272-0.003-6.215,1.987-7.432,5.024l-5.296,13.24
			c-8.395,20.994-31.009,32.557-52.944,27.072l-20.392-5.096c-3.456-0.863-7.067,0.663-8.856,3.744l-26.296,45.312
			c-4.342,7.239-11.517,12.331-19.784,14.04c-15.979,3.195-31.946-5.536-37.88-20.712c-3.389-8.509-5.127-17.585-5.12-26.744
			V231.366c0.018-11.724,2.727-23.288,7.92-33.8l5.44-10.96c18.11-36.982,62.771-52.281,99.754-34.17
			c1.995,0.977,3.946,2.043,5.846,3.194c17.27,10.412,36.89,16.293,57.04,17.096v44.104c0,4.418,3.582,8,8,8h80c4.418,0,8-3.582,8-8
			v-44.104c20.185-0.811,39.837-6.714,57.128-17.16c11.609-7.024,24.919-10.737,38.488-10.736h3.128
			c26.95,0.084,51.785,14.613,65.064,38.064l2.28,4.048c6.489,11.458,9.904,24.4,9.912,37.568V392.71z"/>
	</g>
</g>
<g>
	<g>
		<path d="M336,296.83c-17.673,0-32,14.327-32,32c0,17.673,14.327,32,32,32c17.673,0,32-14.327,32-32
			C368,311.157,353.673,296.83,336,296.83z M336,344.83c-8.837,0-16-7.163-16-16s7.163-16,16-16s16,7.163,16,16
			S344.837,344.83,336,344.83z"/>
	</g>
</g>
<g>
	<g>
		<path d="M144,296.83c-17.673,0-32,14.327-32,32c0,17.673,14.327,32,32,32s32-14.327,32-32C176,311.157,161.673,296.83,144,296.83z
			 M144,344.83c-8.837,0-16-7.163-16-16s7.163-16,16-16s16,7.163,16,16S152.837,344.83,144,344.83z"/>
	</g>
</g>
<g>
	<g>
		<circle cx="384" cy="200.83" r="16"/>
	</g>
</g>
<g>
	<g>
		<circle cx="384" cy="264.83" r="16"/>
	</g>
</g>
<g>
	<g>
		<circle cx="416" cy="232.83" r="16"/>
	</g>
</g>
<g>
	<g>
		<circle cx="352" cy="232.83" r="16"/>
	</g>
</g>
<g>
	<g>
		<path d="M128,216.83h-24v-24c0-4.418-3.582-8-8-8s-8,3.582-8,8v24H64c-4.418,0-8,3.582-8,8s3.582,8,8,8h24v24c0,4.418,3.582,8,8,8
			s8-3.582,8-8v-24h24c4.418,0,8-3.582,8-8S132.418,216.83,128,216.83z"/>
	</g>
</g>
<g>
	<g>
		<path d="M284,125.63c-7.635-17.495-24.911-28.803-44-28.8c-19.089-0.003-36.365,11.305-44,28.8
			c-1.892,3.993-0.188,8.763,3.804,10.655c3.993,1.892,8.763,0.188,10.655-3.804c0.07-0.148,0.136-0.298,0.197-0.45
			c7.05-16.206,25.902-23.629,42.108-16.58c7.425,3.23,13.35,9.154,16.58,16.58c1.892,3.993,6.662,5.696,10.655,3.804
			C283.819,134.025,285.572,129.555,284,125.63z"/>
	</g>
</g>
<g>
	<g>
		<path d="M311.329,108.897c0-0.001-0.001-0.002-0.001-0.003c-17.202-39.393-63.082-57.383-102.475-40.181
			c-17.979,7.851-32.33,22.202-40.181,40.181c-1.892,3.993-0.188,8.763,3.805,10.655c3.993,1.892,8.763,0.188,10.655-3.805
			c0.07-0.148,0.136-0.298,0.197-0.45c13.679-31.299,50.141-45.583,81.44-31.904c14.273,6.238,25.666,17.631,31.904,31.904
			c1.269,2.917,4.147,4.805,7.328,4.808c1.101-0.007,2.189-0.235,3.2-0.672C311.249,117.662,313.098,112.946,311.329,108.897z"/>
	</g>
</g>
<g>
	<g>
		<path d="M335.525,86.081c-0.061-0.152-0.126-0.302-0.197-0.45c-22.962-52.648-84.256-76.714-136.904-53.752
			c-24.058,10.493-43.259,29.694-53.752,53.752c-1.765,4.047,0.083,8.759,4.128,10.528c4.047,1.765,8.759-0.082,10.528-4.128
			c19.417-44.554,71.275-64.932,115.829-45.515c20.375,8.88,36.635,25.14,45.515,45.515c1.643,4.101,6.3,6.094,10.401,4.451
			S337.168,90.182,335.525,86.081z"/>
	</g>
</g>
<g>
</g>
<g>
</g>
<g>
</g>
<g>
</g>
<g>
</g>
<g>
</g>
<g>
</g>
<g>
</g>
<g>
</g>
<g>
</g>
<g>
</g>
<g>
</g>
<g>
</g>
<g>
</g>
<g>
</g>
</svg>
