<?xml version="1.0" encoding="iso-8859-1"?>
<!-- Generator: Adobe Illustrator 19.0.0, SVG Export Plug-In . SVG Version: 6.00 Build 0)  -->
<svg version="1.1" id="Capa_1" xmlns="http://www.w3.org/2000/svg" xmlns:xlink="http://www.w3.org/1999/xlink" x="0px" y="0px"
	 viewBox="0 0 479.977 479.977" style="enable-background:new 0 0 479.977 479.977;" xml:space="preserve">
<g>
	<g>
		<path d="M135.977,279.986c-39.765,0-72,32.235-72,72c0,39.764,32.235,72,72,72s72-32.236,72-72
			C207.933,312.24,175.723,280.03,135.977,279.986z M135.977,407.986c-30.928,0-56-25.072-56-56c0-30.928,25.072-56,56-56
			c30.928,0,56,25.072,56,56C191.942,382.9,166.89,407.951,135.977,407.986z"/>
	</g>
</g>
<g>
	<g>
		<path d="M135.977,319.986c-17.673,0-32,14.327-32,32c0,17.673,14.327,32,32,32s32-14.327,32-32
			C167.977,334.313,153.65,319.986,135.977,319.986z M135.977,367.986c-8.837,0-16-7.163-16-16s7.163-16,16-16s16,7.163,16,16
			S144.813,367.986,135.977,367.986z"/>
	</g>
</g>
<g>
	<g>
		<path d="M199.977,103.986h-128c-4.418,0-8,3.582-8,8v112c0,4.418,3.582,8,8,8h128c4.418,0,8-3.582,8-8v-112
			C207.977,107.568,204.395,103.986,199.977,103.986z M191.977,215.986h-112v-96h112V215.986z"/>
	</g>
</g>
<g>
	<g>
		<path d="M371.289,95.986l26.344-26.344c3.123-3.124,3.123-8.188,0-11.312l-32-32c-3.125-3.124-8.19-3.123-11.314,0.002
			c-1.499,1.5-2.342,3.534-2.342,5.654v44.688L333.633,58.33c-3.178-3.07-8.242-2.982-11.312,0.196c-2.995,3.1-2.995,8.016,0,11.116
			l26.344,26.344l-26.344,26.344c-3.178,3.07-3.266,8.134-0.196,11.312c3.07,3.178,8.134,3.266,11.312,0.196
			c0.067-0.064,0.132-0.13,0.196-0.196l18.344-18.344v44.688c0.001,4.418,3.583,7.999,8.002,7.998c2.121,0,4.154-0.843,5.654-2.342
			l32-32c3.123-3.124,3.123-8.188,0-11.312L371.289,95.986z M367.977,51.298l12.688,12.688l-12.688,12.688V51.298z M367.977,140.674
			v-25.376l12.688,12.688L367.977,140.674z"/>
	</g>
</g>
<g>
	<g>
		<path d="M375.977,279.986c-39.764,0-72,32.235-72,72c0,39.764,32.236,72,72,72c39.746-0.044,71.956-32.254,72-72
			C447.977,312.222,415.741,279.986,375.977,279.986z M375.977,407.986c-30.913-0.035-55.965-25.087-56-56c0-30.928,25.072-56,56-56
			c30.928,0,56,25.072,56,56C431.977,382.914,406.905,407.986,375.977,407.986z"/>
	</g>
</g>
<g>
	<g>
		<path d="M375.977,319.986c-17.673,0-32,14.327-32,32c0,17.673,14.327,32,32,32c17.673,0,32-14.327,32-32
			C407.977,334.313,393.65,319.986,375.977,319.986z M375.977,367.986c-8.837,0-16-7.163-16-16s7.163-16,16-16s16,7.163,16,16
			S384.813,367.986,375.977,367.986z"/>
	</g>
</g>
<g>
	<g>
		<rect x="159.977" y="143.986" width="16" height="48"/>
	</g>
</g>
<g>
	<g>
		<rect x="127.977" y="159.986" width="16" height="32"/>
	</g>
</g>
<g>
	<g>
		<rect x="95.977" y="175.986" width="16" height="16"/>
	</g>
</g>
<g>
	<g>
		<path d="M452.72,283.002c-1.511-1.613-3.074-3.177-4.687-4.687c-20.684-19.628-48.158-30.496-76.672-30.328H239.977v-168
			c0-4.418-3.582-8-8-8h-192c-4.418,0-8,3.582-8,8v198.488c-40.6,37.838-42.838,101.424-5,142.023c1.608,1.725,3.276,3.393,5,5
			v22.488c0,4.418,3.582,8,8,8h331.384c28.514,0.168,55.988-10.7,76.672-30.328C488.721,387.559,490.819,323.69,452.72,283.002z
			 M31.977,401.466c-10.429-14.387-16.031-31.71-16-49.48c-0.031-17.77,5.571-35.093,16-49.48V401.466z M223.977,439.986h-176
			v-17.824V87.986h176V439.986z M239.977,335.986h32v32h-32V335.986z M441.13,409.913c-1.341,1.438-2.732,2.828-4.169,4.169
			c-17.705,16.776-41.21,26.057-65.6,25.904H239.977v-56h40c4.418,0,8-3.582,8-8v-48c0-4.418-3.582-8-8-8h-40v-56h131.384
			c24.39-0.153,47.895,9.128,65.6,25.904C471.256,321.882,473.122,375.618,441.13,409.913z"/>
	</g>
</g>
<g>
</g>
<g>
</g>
<g>
</g>
<g>
</g>
<g>
</g>
<g>
</g>
<g>
</g>
<g>
</g>
<g>
</g>
<g>
</g>
<g>
</g>
<g>
</g>
<g>
</g>
<g>
</g>
<g>
</g>
</svg>
