<?xml version="1.0" encoding="iso-8859-1"?>
<!-- Generator: Adobe Illustrator 19.0.0, SVG Export Plug-In . SVG Version: 6.00 Build 0)  -->
<svg version="1.1" id="Capa_1" xmlns="http://www.w3.org/2000/svg" xmlns:xlink="http://www.w3.org/1999/xlink" x="0px" y="0px"
	 viewBox="0 0 480 480" style="enable-background:new 0 0 480 480;" xml:space="preserve">
<g>
	<g>
		<path d="M352,304H128c-4.418,0-8,3.582-8,8v112c0,4.418,3.582,8,8,8h24v24c0,4.418,3.582,8,8,8h32c4.418,0,8-3.582,8-8v-24h80v24
			c0,4.418,3.582,8,8,8h32c4.418,0,8-3.582,8-8v-24h24c4.418,0,8-3.582,8-8V312C360,307.582,356.418,304,352,304z M184,448h-16v-16
			h16V448z M312,448h-16v-16h16V448z M344,416H136v-96h208V416z"/>
	</g>
</g>
<g>
	<g>
		<path d="M376,120H104c-4.418,0-8,3.582-8,8v152c0,4.418,3.582,8,8,8h272c4.418,0,8-3.582,8-8V128C384,123.582,380.418,120,376,120
			z M368,272H112V136h256V272z"/>
	</g>
</g>
<g>
	<g>
		<path d="M304,344c-13.255,0-24,10.745-24,24s10.745,24,24,24s24-10.745,24-24S317.255,344,304,344z M304,376c-4.418,0-8-3.582-8-8
			s3.582-8,8-8s8,3.582,8,8S308.418,376,304,376z"/>
	</g>
</g>
<g>
	<g>
		<path d="M72,16H8c-4.418,0-8,3.582-8,8v384c0,4.418,3.582,8,8,8h24v32H16c-4.418,0-8,3.582-8,8s3.582,8,8,8h48
			c4.418,0,8-3.582,8-8s-3.582-8-8-8H48v-32h24c4.418,0,8-3.582,8-8V24C80,19.582,76.418,16,72,16z M64,400H16V247.792
			c14.13,10.941,33.87,10.941,48,0V400z M40,240c-13.255,0-24-10.745-24-24s10.745-24,24-24s24,10.745,24,24S53.255,240,40,240z
			 M64,184.208c-6.883-5.294-15.316-8.179-24-8.208c-8.684,0.029-17.117,2.914-24,8.208v-48.416c14.13,10.941,33.87,10.941,48,0
			V184.208z M40,128c-13.255,0-24-10.745-24-24s10.745-24,24-24s24,10.745,24,24S53.255,128,40,128z M64,72.208
			c-14.13-10.941-33.87-10.941-48,0V32h48V72.208z"/>
	</g>
</g>
<g>
	<g>
		<circle cx="40" cy="304" r="16"/>
	</g>
</g>
<g>
	<g>
		<path d="M472,16h-64c-4.418,0-8,3.582-8,8v384c0,4.418,3.582,8,8,8h24v32h-16c-4.418,0-8,3.582-8,8s3.582,8,8,8h48
			c4.418,0,8-3.582,8-8s-3.582-8-8-8h-16v-32h24c4.418,0,8-3.582,8-8V24C480,19.582,476.418,16,472,16z M464,400h-48V247.792
			c14.13,10.941,33.87,10.941,48,0V400z M440,240c-13.255,0-24-10.745-24-24s10.745-24,24-24s24,10.745,24,24S453.255,240,440,240z
			 M464,184.208c-6.883-5.294-15.316-8.179-24-8.208c-8.684,0.029-17.117,2.914-24,8.208v-48.416c14.13,10.941,33.87,10.941,48,0
			V184.208z M440,128c-13.255,0-24-10.745-24-24s10.745-24,24-24s24,10.745,24,24S453.255,128,440,128z M464,72.208
			c-14.13-10.941-33.87-10.941-48,0V32h48V72.208z"/>
	</g>
</g>
<g>
	<g>
		<circle cx="440" cy="304" r="16"/>
	</g>
</g>
<g>
	<g>
		<polygon points="216,376 216,336 200,336 200,376 192,376 192,392 200,392 200,400 216,400 216,392 224,392 224,376 		"/>
	</g>
</g>
<g>
	<g>
		<polygon points="256,352 256,336 240,336 240,352 232,352 232,368 240,368 240,400 256,400 256,368 264,368 264,352 		"/>
	</g>
</g>
<g>
	<g>
		<polygon points="176,352 176,336 160,336 160,352 152,352 152,368 160,368 160,400 176,400 176,368 184,368 184,352 		"/>
	</g>
</g>
<g>
</g>
<g>
</g>
<g>
</g>
<g>
</g>
<g>
</g>
<g>
</g>
<g>
</g>
<g>
</g>
<g>
</g>
<g>
</g>
<g>
</g>
<g>
</g>
<g>
</g>
<g>
</g>
<g>
</g>
</svg>
