<?xml version="1.0" encoding="iso-8859-1"?>
<!-- Generator: Adobe Illustrator 19.0.0, SVG Export Plug-In . SVG Version: 6.00 Build 0)  -->
<svg version="1.1" id="Capa_1" xmlns="http://www.w3.org/2000/svg" xmlns:xlink="http://www.w3.org/1999/xlink" x="0px" y="0px"
	 viewBox="0 0 480 480" style="enable-background:new 0 0 480 480;" xml:space="preserve">
<g>
	<g>
		<path d="M432,328c-18.653,0.033-34.806,12.954-38.936,31.144c-15.352-9.526-34.776-9.526-50.128,0
			c-4.845-21.504-26.205-35.008-47.708-30.164c-15.035,3.387-26.776,15.129-30.164,30.164c-15.352-9.526-34.776-9.526-50.128,0
			c-4.845-21.504-26.205-35.008-47.708-30.164c-15.035,3.387-26.776,15.129-30.164,30.164c-15.352-9.526-34.776-9.526-50.128,0
			c-5.059-21.504-26.592-34.836-48.097-29.778C20.88,333.591,8.14,349.551,8,368c0,4.418,3.582,8,8,8s8-3.582,8-8
			c0-13.255,10.745-24,24-24s24,10.745,24,24c0.033,1.381,0.433,2.729,1.16,3.904c-13.713,18.818-11.854,44.783,4.4,61.456
			c-2.996,1.104-5.686,2.906-7.848,5.256c-3.709,4.128-5.745,9.491-5.712,15.04V472c0,4.418,3.582,8,8,8s8-3.582,8-8v-18.344
			c-0.023-1.566,0.529-3.086,1.552-4.272c0.716-0.846,1.756-1.349,2.864-1.384h55.2c1.108,0.035,2.148,0.538,2.864,1.384
			c1.023,1.186,1.575,2.706,1.552,4.272V472c0,4.418,3.582,8,8,8s8-3.582,8-8v-18.344c0.033-5.549-2.003-10.912-5.712-15.04
			c-2.162-2.35-4.852-4.152-7.848-5.256c16.254-16.673,18.113-42.638,4.4-61.456c0.716-1.178,1.105-2.526,1.128-3.904
			c0-13.255,10.745-24,24-24s24,10.745,24,24c0.033,1.381,0.433,2.729,1.16,3.904c-13.713,18.818-11.854,44.783,4.4,61.456
			c-2.996,1.104-5.686,2.906-7.848,5.256c-3.709,4.128-5.745,9.491-5.712,15.04V472c0,4.418,3.582,8,8,8s8-3.582,8-8v-18.344
			c-0.023-1.566,0.529-3.086,1.552-4.272c0.716-0.846,1.756-1.349,2.864-1.384h55.2c1.108,0.035,2.148,0.538,2.864,1.384
			c1.023,1.186,1.575,2.706,1.552,4.272V472c0,4.418,3.582,8,8,8s8-3.582,8-8v-18.344c0.033-5.549-2.003-10.912-5.712-15.04
			c-2.162-2.35-4.852-4.152-7.848-5.256c16.254-16.673,18.113-42.638,4.4-61.456c0.716-1.178,1.105-2.526,1.128-3.904
			c0-13.255,10.745-24,24-24s24,10.745,24,24c0.033,1.381,0.433,2.729,1.16,3.904c-13.713,18.818-11.854,44.783,4.4,61.456
			c-2.996,1.104-5.686,2.906-7.848,5.256c-3.709,4.128-5.745,9.491-5.712,15.04V472c0,4.418,3.582,8,8,8s8-3.582,8-8v-18.344
			c-0.023-1.566,0.529-3.086,1.552-4.272c0.716-0.846,1.756-1.349,2.864-1.384h55.2c1.108,0.035,2.148,0.538,2.864,1.384
			c1.023,1.186,1.575,2.706,1.552,4.272V472c0,4.418,3.582,8,8,8s8-3.582,8-8v-18.344c0.033-5.549-2.003-10.912-5.712-15.04
			c-2.162-2.35-4.852-4.152-7.848-5.256c16.254-16.673,18.113-42.638,4.4-61.456c0.716-1.178,1.105-2.526,1.128-3.904
			c0-13.255,10.745-24,24-24s24,10.745,24,24c0,4.418,3.582,8,8,8s8-3.582,8-8C471.974,345.92,454.08,328.026,432,328z M112,432
			c-17.673,0-32-14.327-32-32c0-17.673,14.327-32,32-32s32,14.327,32,32C144,417.673,129.673,432,112,432z M240,432
			c-17.673,0-32-14.327-32-32c0-17.673,14.327-32,32-32c17.673,0,32,14.327,32,32C272,417.673,257.673,432,240,432z M368,432
			c-17.673,0-32-14.327-32-32c0-17.673,14.327-32,32-32c17.673,0,32,14.327,32,32C400,417.673,385.673,432,368,432z"/>
	</g>
</g>
<g>
	<g>
		<path d="M112,272c-22.091,0-40,17.909-40,40c0,4.418,3.582,8,8,8s8-3.582,8-8c0-13.255,10.745-24,24-24s24,10.745,24,24
			c0,4.418,3.582,8,8,8s8-3.582,8-8C152,289.909,134.091,272,112,272z"/>
	</g>
</g>
<g>
	<g>
		<path d="M240,272c-22.091,0-40,17.909-40,40c0,4.418,3.582,8,8,8s8-3.582,8-8c0-13.255,10.745-24,24-24s24,10.745,24,24
			c0,4.418,3.582,8,8,8s8-3.582,8-8C280,289.909,262.091,272,240,272z"/>
	</g>
</g>
<g>
	<g>
		<path d="M368,272c-22.091,0-40,17.909-40,40c0,4.418,3.582,8,8,8s8-3.582,8-8c0-13.255,10.745-24,24-24s24,10.745,24,24
			c0,4.418,3.582,8,8,8s8-3.582,8-8C408,289.909,390.091,272,368,272z"/>
	</g>
</g>
<g>
	<g>
		<path d="M472,40h-5.24c-0.295-0.597-0.666-1.154-1.104-1.656L443.312,16H472c4.418,0,8-3.582,8-8s-3.582-8-8-8H8
			C3.582,0,0,3.582,0,8s3.582,8,8,8h12.688l24,24H8c-4.418,0-8,3.582-8,8s3.582,8,8,8h8v28c-11.733,12.546-11.379,32.142,0.8,44.256
			l15.6,15.6c3.124,3.123,8.188,3.123,11.312,0l33.936-33.944c3.123-3.124,3.123-8.188,0-11.312l-15.6-15.592
			C54.235,75.069,42.796,71.874,32,74.616V56h200v19.336c-5.517,1.272-10.577,4.04-14.624,8c-5.978,6.006-9.347,14.126-9.376,22.6
			V128c0,4.418,3.582,8,8,8h48c4.418,0,8-3.582,8-8v-22.064c-0.023-8.482-3.392-16.612-9.376-22.624
			c-4.047-3.96-9.107-6.728-14.624-8V56h200v18.616c-10.802-2.739-22.247,0.466-30.056,8.416l-15.6,15.592
			c-3.123,3.124-3.123,8.188,0,11.312l33.936,33.944c3.124,3.123,8.188,3.123,11.312,0l15.6-15.6
			C475.388,116.166,475.746,96.551,464,84V56h8c4.418,0,8-3.582,8-8S476.418,40,472,40z M39.432,89.656
			c4.246-0.012,8.319,1.677,11.312,4.688l9.944,9.936l-22.624,22.632l-9.944-9.944c-6.247-6.249-6.246-16.38,0.003-22.627
			C31.123,91.342,35.191,89.657,39.432,89.656z M43.312,16h41.376L64,36.688L43.312,16z M83.312,40L104,19.312L124.688,40H83.312z
			 M123.312,16h41.376L144,36.688L123.312,16z M163.312,40L184,19.312L204.688,40H163.312z M224,36.688L203.312,16h41.376
			L224,36.688z M251.312,94.624c2.99,3.007,4.674,7.071,4.688,11.312V120h-32v-14.064c0.002-8.837,7.167-15.998,16.003-15.997
			C244.245,89.94,248.312,91.625,251.312,94.624z M243.312,40L264,19.312L284.688,40H243.312z M283.312,16h41.376L304,36.688
			L283.312,16z M323.312,40L344,19.312L364.688,40H323.312z M363.312,16h41.376L384,36.688L363.312,16z M403.312,40L424,19.312
			L444.688,40H403.312z M456.568,105.656c0.012,4.246-1.677,8.319-4.688,11.312l-9.944,9.944l-22.624-22.632l9.944-9.936
			c6.249-6.247,16.38-6.246,22.627,0.003C454.882,97.347,456.567,101.415,456.568,105.656L456.568,105.656z"/>
	</g>
</g>
<g>
	<g>
		<path d="M472,240H8c-4.418,0-8,3.582-8,8s3.582,8,8,8h464c4.418,0,8-3.582,8-8S476.418,240,472,240z"/>
	</g>
</g>
<g>
</g>
<g>
</g>
<g>
</g>
<g>
</g>
<g>
</g>
<g>
</g>
<g>
</g>
<g>
</g>
<g>
</g>
<g>
</g>
<g>
</g>
<g>
</g>
<g>
</g>
<g>
</g>
<g>
</g>
</svg>
