<?xml version="1.0" encoding="iso-8859-1"?>
<!-- Generator: Adobe Illustrator 19.0.0, SVG Export Plug-In . SVG Version: 6.00 Build 0)  -->
<svg version="1.1" id="Capa_1" xmlns="http://www.w3.org/2000/svg" xmlns:xlink="http://www.w3.org/1999/xlink" x="0px" y="0px"
	 viewBox="0 0 480.196 480.196" style="enable-background:new 0 0 480.196 480.196;" xml:space="preserve">
<g>
	<g>
		<path d="M472.194,296.049h-24v-48c0-4.418-3.582-8-8-8h-32v-88c0-17.673-14.327-32-32-32c-17.673,0-32,14.327-32,32v21.448
			c-15.308-11.798-36.913-10.751-51.008,2.472c-21.731-19.739-55.123-18.968-75.92,1.752l-0.672,0.672
			c-0.144,0.144-0.264,0.296-0.4,0.44v-50.784c0-17.673-14.327-32-32-32c-17.673,0-32,14.327-32,32v112h-20.32
			c-22.091-33.063-66.803-41.958-99.867-19.867s-41.958,66.803-19.867,99.867s66.803,41.958,99.867,19.867
			c7.862-5.253,14.613-12.004,19.867-19.867h20.56c-0.112,0.393-0.192,0.794-0.24,1.2c0.007,30.853,11.042,60.687,31.112,84.12
			l7.936,9.248c7.686,8.978,16.569,16.857,26.4,23.416l30.552,20.352v13.664c0,4.418,3.582,8,8,8c4.418,0,8-3.582,8-8v-17.944
			c0-2.674-1.335-5.172-3.56-6.656l-34.096-22.728c-8.62-5.742-16.408-12.645-23.144-20.512l-7.936-9.256
			c-17.586-20.531-27.255-46.671-27.264-73.704c-0.048-0.406-0.128-0.807-0.24-1.2h24.24v12.8
			c-0.005,17.615,2.837,35.115,8.416,51.824c1.396,4.197,5.931,6.468,10.128,5.072s6.468-5.931,5.072-10.128
			c-5.038-15.078-7.609-30.87-7.616-46.768v-12.8c0.014-4.241,1.698-8.305,4.688-11.312c6.329-6.047,16.295-6.047,22.624,0
			c2.99,3.007,4.674,7.071,4.688,11.312v30.056c-0.006,2.864,1.52,5.512,4,6.944l38.544,22.032
			c18.207,10.39,29.449,29.741,29.456,50.704v16.32c0,4.418,3.582,8,8,8s8-3.582,8-8v-16.32
			c0.015-26.702-14.296-51.359-37.488-64.592l-34.512-19.728v-25.416h136v50.744c0.078,26.87-10.602,52.654-29.656,71.6
			c-1.5,1.5-2.344,3.534-2.344,5.656v24c0,4.418,3.582,8,8,8s8-3.582,8-8v-20.752c20.626-21.718,32.088-50.552,32-80.504v-50.744h32
			c4.418,0,8-3.582,8-8h24c4.418,0,8-3.582,8-8S476.612,296.049,472.194,296.049z M64.194,335.409
			c-27.517-3.992-47.947-27.555-48-55.36c0.053-27.805,20.483-51.367,48-55.36V335.409z M119.634,309.825
			c-8.774,13.887-23.184,23.241-39.44,25.6V224.681c16.256,2.359,30.666,11.713,39.44,25.6V309.825z M360.194,152.049
			c0.014-4.241,1.698-8.305,4.688-11.312c6.329-6.047,16.295-6.047,22.624,0c2.99,3.007,4.674,7.071,4.688,11.312v88h-32V152.049z
			 M337.162,188.337c4.489,4.508,7.016,10.606,7.032,16.968v50.744c-0.014,4.24-1.698,8.305-4.688,11.312
			c-6.329,6.047-16.295,6.047-22.624,0c-2.99-3.007-4.674-7.072-4.688-11.312v-38.056c0.015-10.589-2.997-20.962-8.68-29.896
			C313.032,179.274,327.771,179.379,337.162,188.337z M216.194,217.993c-0.032-10.607,4.179-20.787,11.696-28.272l0.672-0.672
			c15.261-15.199,39.939-15.199,55.2,0l0.68,0.696c7.532,7.469,11.764,17.641,11.752,28.248v38.056
			c-0.014,4.24-1.698,8.305-4.688,11.312c-6.329,6.047-16.295,6.047-22.624,0c-2.99-3.007-4.674-7.072-4.688-11.312v-41.944
			c0-4.418-3.582-8-8-8c-4.418,0-8,3.582-8,8v25.944h-32V217.993z M168.194,128.049c0.014-4.241,1.698-8.305,4.688-11.312
			c6.329-6.047,16.295-6.047,22.624,0c2.99,3.007,4.674,7.071,4.688,11.312v112h-32V128.049z M432.194,304.049H251.77
			c-1.359-2.412-3.023-4.638-4.952-6.624c-12.496-12.492-32.752-12.492-45.248,0c-1.929,1.986-3.593,4.212-4.952,6.624h-60.424v-48
			h112c0.004,17.673,14.334,31.997,32.007,31.993c8.483-0.002,16.618-3.372,22.617-9.369c0.52-0.52,0.896-1.128,1.376-1.672
			c0.48,0.544,0.856,1.152,1.376,1.672c12.499,12.495,32.76,12.492,45.255-0.007c5.997-5.999,9.367-14.134,9.369-22.617h72V304.049z
			"/>
	</g>
</g>
<g>
	<g>
		<path d="M416.194,48.049h-16v-16c0-4.418-3.582-8-8-8s-8,3.582-8,8v16h-16c-4.418,0-8,3.582-8,8s3.582,8,8,8h16v16
			c0,4.418,3.582,8,8,8s8-3.582,8-8v-16h16c4.418,0,8-3.582,8-8S420.612,48.049,416.194,48.049z"/>
	</g>
</g>
<g>
	<g>
		<path d="M232.194,24.049h-16v-16c0-4.418-3.582-8-8-8s-8,3.582-8,8v16h-16c-4.418,0-8,3.582-8,8s3.582,8,8,8h16v16
			c0,4.418,3.582,8,8,8s8-3.582,8-8v-16h16c4.418,0,8-3.582,8-8S236.612,24.049,232.194,24.049z"/>
	</g>
</g>
<g>
	<g>
		<path d="M72.194,0.049c-39.765,0-72,32.235-72,72c0.044,39.746,32.254,71.956,72,72c39.765,0,72-32.235,72-72
			S111.959,0.049,72.194,0.049z M104.194,26.161c5.409,3.777,10.111,8.479,13.888,13.888h-13.888V26.161z M40.194,117.937
			c-5.409-3.777-10.111-8.479-13.888-13.888h13.888V117.937z M40.194,88.049h-21.6c-3.147-10.435-3.147-21.565,0-32h21.6V88.049z
			 M40.194,40.049H26.306c3.777-5.409,8.479-10.111,13.888-13.888V40.049z M88.194,125.649c-10.435,3.147-21.565,3.147-32,0v-21.6
			h32V125.649z M88.194,88.049h-32v-32h32V88.049z M88.194,40.049h-32v-21.6c10.435-3.147,21.565-3.147,32,0V40.049z
			 M104.194,117.937v-0.04v-13.848h13.888C114.305,109.458,109.604,114.16,104.194,117.937z M104.194,88.049v-32h21.6
			c1.575,5.188,2.384,10.578,2.4,16c-0.016,5.422-0.825,10.812-2.4,16H104.194z"/>
	</g>
</g>
<g>
	<g>
		<path d="M198.666,467.345l-64-88c-2.598-3.574-7.602-4.366-11.176-1.768c-3.574,2.598-4.366,7.602-1.768,11.176l64,88
			c2.598,3.574,7.602,4.366,11.176,1.768C200.472,475.923,201.264,470.919,198.666,467.345z"/>
	</g>
</g>
<g>
	<g>
		<path d="M149.85,466.393l-24-24c-3.178-3.07-8.242-2.982-11.312,0.196c-2.994,3.1-2.994,8.015,0,11.116l24,24
			c3.178,3.069,8.243,2.982,11.312-0.196C152.845,474.408,152.845,469.493,149.85,466.393z"/>
	</g>
</g>
<g>
	<g>
		<path d="M101.85,418.393l-8-8c-3.178-3.07-8.242-2.982-11.312,0.196c-2.995,3.1-2.995,8.016,0,11.116l8,8
			c3.178,3.069,8.242,2.982,11.312-0.196C104.844,426.408,104.844,421.493,101.85,418.393z"/>
	</g>
</g>
<g>
	<g>
		<path d="M453.85,418.393c-3.124-3.123-8.188-3.123-11.312,0l-48,48c-3.178,3.07-3.266,8.134-0.196,11.312
			c3.07,3.178,8.134,3.266,11.312,0.196c0.066-0.064,0.132-0.13,0.196-0.196l48-48C456.973,426.581,456.973,421.517,453.85,418.393z
			"/>
	</g>
</g>
<g>
	<g>
		<path d="M477.654,394.393c-3.1-2.995-8.016-2.995-11.116,0l-8,8c-3.178,3.07-3.266,8.134-0.196,11.312
			c3.07,3.178,8.134,3.266,11.312,0.196c0.066-0.064,0.132-0.13,0.196-0.196l8-8C480.92,402.527,480.832,397.463,477.654,394.393z"
			/>
	</g>
</g>
<g>
	<g>
		<path d="M478.85,451.609c-2.452-3.676-7.42-4.668-11.096-2.216l-24,16c-3.676,2.452-4.668,7.42-2.216,11.096
			s7.42,4.668,11.096,2.216l24-16C480.31,460.253,481.302,455.285,478.85,451.609z"/>
	</g>
</g>
<g>
	<g>
		<path d="M90.722,464.457l-24-8c-4.197-1.396-8.732,0.875-10.128,5.072s0.875,8.732,5.072,10.128l24,8
			c4.197,1.396,8.732-0.875,10.128-5.072C97.19,470.388,94.919,465.853,90.722,464.457z"/>
	</g>
</g>
<g>
	<g>
		<circle cx="272.194" cy="88.049" r="16"/>
	</g>
</g>
<g>
	<g>
		<circle cx="40.194" cy="176.049" r="16"/>
	</g>
</g>
<g>
</g>
<g>
</g>
<g>
</g>
<g>
</g>
<g>
</g>
<g>
</g>
<g>
</g>
<g>
</g>
<g>
</g>
<g>
</g>
<g>
</g>
<g>
</g>
<g>
</g>
<g>
</g>
<g>
</g>
</svg>
