<?xml version="1.0" encoding="iso-8859-1"?>
<!-- Generator: Adobe Illustrator 19.0.0, SVG Export Plug-In . SVG Version: 6.00 Build 0)  -->
<svg version="1.1" id="Capa_1" xmlns="http://www.w3.org/2000/svg" xmlns:xlink="http://www.w3.org/1999/xlink" x="0px" y="0px"
	 viewBox="0 0 464 464" style="enable-background:new 0 0 464 464;" xml:space="preserve">
<g>
	<g>
		<path d="M432,152h-26.928c-3.174-18.063-9.144-35.52-17.696-51.744c-1.387-2.619-4.108-4.257-7.072-4.256h-38.76
			C324.338,67.25,296.465,46.468,264,38.184V8c0-4.418-3.582-8-8-8h-48c-4.418,0-8,3.582-8,8v30.184
			C167.541,46.489,139.67,67.265,122.44,96H83.696c-2.964-0.001-5.685,1.637-7.072,4.256C68.072,116.48,62.102,133.937,58.928,152
			H32c-4.418,0-8,3.582-8,8v48c0,4.418,3.582,8,8,8h26.928c3.174,18.063,9.144,35.52,17.696,51.744
			c1.387,2.619,4.108,4.257,7.072,4.256H104v184c0,4.418,3.582,8,8,8s8-3.582,8-8V272h69.6c1.832-0.001,3.608-0.631,5.032-1.784
			c21.619-18.065,53.069-18.065,74.688,0c1.436,1.164,3.231,1.794,5.08,1.784H344v184c0,4.418,3.582,8,8,8s8-3.582,8-8V272h20.304
			c2.964,0.001,5.685-1.637,7.072-4.256c8.552-16.224,14.522-33.681,17.696-51.744H432c4.418,0,8-3.582,8-8v-48
			C440,155.582,436.418,152,432,152z M56,200H40v-32h16V200z M264,54.76c23.481,6.933,44.012,21.431,58.4,41.24H264V54.76z M216,16
			h32v80h-32V16z M152.64,83.04c13.17-13.243,29.455-22.967,47.36-28.28V96h-58.28C145.025,91.409,148.676,87.076,152.64,83.04z
			 M375.408,256h-98.28c-26.692-20.209-63.564-20.209-90.256,0h-98.28c-22.016-45.475-22.016-98.525,0-144h286.816
			C397.424,157.475,397.424,210.525,375.408,256z M424,200h-16v-32h16V200z"/>
	</g>
</g>
<g>
	<g>
		<path d="M296,144c-17.673,0-32,14.327-32,32s14.327,32,32,32c17.673,0,32-14.327,32-32S313.673,144,296,144z M296,192
			c-8.837,0-16-7.163-16-16s7.163-16,16-16s16,7.163,16,16S304.837,192,296,192z"/>
	</g>
</g>
<g>
	<g>
		<path d="M168,144c-17.673,0-32,14.327-32,32s14.327,32,32,32s32-14.327,32-32S185.673,144,168,144z M168,192
			c-8.837,0-16-7.163-16-16s7.163-16,16-16s16,7.163,16,16S176.837,192,168,192z"/>
	</g>
</g>
<g>
</g>
<g>
</g>
<g>
</g>
<g>
</g>
<g>
</g>
<g>
</g>
<g>
</g>
<g>
</g>
<g>
</g>
<g>
</g>
<g>
</g>
<g>
</g>
<g>
</g>
<g>
</g>
<g>
</g>
</svg>
