<?xml version="1.0" encoding="iso-8859-1"?>
<!-- Generator: Adobe Illustrator 19.0.0, SVG Export Plug-In . SVG Version: 6.00 Build 0)  -->
<svg version="1.1" id="Capa_1" xmlns="http://www.w3.org/2000/svg" xmlns:xlink="http://www.w3.org/1999/xlink" x="0px" y="0px"
	 viewBox="0 0 480 480" style="enable-background:new 0 0 480 480;" xml:space="preserve">
<g>
	<g>
		<path d="M231.994,0.055c-0.495,0-0.988,0.047-1.474,0.138l-128,24c-3.779,0.711-6.517,4.011-6.52,7.856v62.56
			c-7.254-4.331-15.552-6.599-24-6.56c-22.056,0-40,14.352-40,32s17.944,32,40,32c22.056,0,40-14.352,40-32v-81.36l112-21v76.92
			c-7.254-4.331-15.552-6.599-24-6.56c-22.056,0-40,14.352-40,32s17.944,32,40,32c22.056,0,40-14.352,40-32v-112
			C239.997,3.631,236.413,0.051,231.994,0.055z M72,136.049c-13.008,0-24-7.328-24-16s10.992-16,24-16s24,7.328,24,16
			S85.008,136.049,72,136.049z M200,136.049c-13.008,0-24-7.328-24-16s10.992-16,24-16s24,7.328,24,16S213.008,136.049,200,136.049z
			"/>
	</g>
</g>
<g>
	<g>
		<path d="M415.048,136.049c-16.864-0.028-33.073,6.528-45.176,18.272l-22.504,21.784l-20.056-20.056l6.344-6.344
			c3.07-3.178,2.982-8.242-0.196-11.312c-3.1-2.994-8.015-2.994-11.116,0l-24,24c-3.178,3.07-3.266,8.134-0.196,11.312
			s8.134,3.266,11.312,0.196c0.067-0.064,0.132-0.13,0.196-0.196l6.344-6.344l19.872,19.888l-37.288,36.088l-19.272-19.288
			l6.344-6.344c3.07-3.178,2.982-8.242-0.196-11.312c-3.1-2.994-8.015-2.994-11.116,0l-24,24c-3.178,3.07-3.266,8.134-0.196,11.312
			s8.134,3.266,11.312,0.196c0.067-0.064,0.132-0.13,0.196-0.196l6.344-6.344l19.08,19.088l-37.288,36.08l-18.48-18.48l6.344-6.344
			c3.069-3.178,2.981-8.243-0.197-11.312c-3.1-2.994-8.015-2.994-11.115,0l-24,24c-3.178,3.069-3.266,8.134-0.196,11.312
			c3.069,3.178,8.134,3.266,11.312,0.196c0.067-0.064,0.132-0.13,0.196-0.196l6.344-6.344l18.296,18.288l-99.672,96.464
			c-8.047,7.797-20.891,7.594-28.688-0.452c-7.624-7.868-7.624-20.367,0-28.236l34.864-34.848l9.144,10.672
			c1.45,1.694,3.54,2.706,5.768,2.792H160c2.122,0,4.156-0.844,5.656-2.344l24-24c2.801-2.792,3.141-7.212,0.8-10.4l-88-120
			c-2.613-3.562-7.62-4.332-11.182-1.718c-0.33,0.242-0.641,0.509-0.93,0.798l-32,32c-2.951,2.955-3.132,7.684-0.416,10.856
			l13.64,15.92l-41.824,41.84c-19.107,19-29.817,44.855-29.744,71.8v7.448C-0.037,406.3,45.378,451.775,101.437,451.813
			c26.921,0.018,52.747-10.66,71.796-29.684l233.704-225.92c5.868-5.677,15.227-5.523,20.905,0.345
			c2.669,2.759,4.161,6.448,4.159,10.287v73.208c0.001,4.418,3.584,7.999,8.002,7.998c0.652,0,1.301-0.08,1.934-0.238l32-8
			c3.563-0.889,6.063-4.088,6.064-7.76v-71.048C479.956,165.147,450.902,136.093,415.048,136.049z M95.048,188.297l78.4,106.944
			l-13.04,13.04l-85.512-99.808L95.048,188.297z M464,265.801l-16,4v-29.752h16V265.801z M464,224.049h-16v-17.208
			c0.004-17.002-13.776-30.787-30.777-30.791c-7.988-0.002-15.665,3.102-21.407,8.655l-233.8,226.016
			c-33.406,33.402-87.564,33.399-120.966-0.006C25.013,394.675,16.002,372.923,16,350.241v-7.448
			c-0.063-22.7,8.96-44.481,25.056-60.488l40.96-40.96l52.32,61.056l-35.712,35.712c-14.029,14.306-13.805,37.276,0.501,51.305
			c14.068,13.796,36.575,13.841,50.699,0.103l231.2-223.696c19.438-18.791,50.428-18.267,69.219,1.171
			c8.82,9.123,13.753,21.316,13.757,34.005V224.049z"/>
	</g>
</g>
<g>
	<g>
		<path d="M437.656,426.393l-80-80c-3.124-3.123-8.188-3.123-11.312,0c-3.123,3.124-3.123,8.188,0,11.312l80,80
			c3.178,3.07,8.242,2.982,11.312-0.196C440.651,434.409,440.651,429.493,437.656,426.393z"/>
	</g>
</g>
<g>
	<g>
		<path d="M333.656,322.393l-8-8c-3.178-3.07-8.242-2.982-11.312,0.196c-2.995,3.1-2.995,8.016,0,11.116l8,8
			c1.5,1.5,3.534,2.344,5.656,2.344c4.418-0.001,7.999-3.583,7.998-8.002C335.998,325.926,335.156,323.893,333.656,322.393z"/>
	</g>
</g>
<g>
	<g>
		<path d="M253.656,394.393l-8-8c-3.178-3.07-8.242-2.982-11.312,0.196c-2.994,3.1-2.994,8.015,0,11.116l8,8
			c1.5,1.5,3.534,2.344,5.656,2.344c4.418-0.001,7.999-3.583,7.998-8.002C255.998,397.926,255.156,395.893,253.656,394.393z"/>
	</g>
</g>
<g>
	<g>
		<path d="M453.656,370.393l-80-80c-3.178-3.07-8.242-2.982-11.312,0.196c-2.995,3.1-2.995,8.016,0,11.116l80,80
			c3.178,3.07,8.242,2.982,11.312-0.196C456.651,378.409,456.651,373.493,453.656,370.393z"/>
	</g>
</g>
<g>
	<g>
		<path d="M389.656,458.393l-96-96c-3.124-3.123-8.188-3.123-11.312,0c-3.123,3.124-3.123,8.188,0,11.312l96,96
			c3.178,3.07,8.242,2.982,11.312-0.196C392.651,466.409,392.651,461.493,389.656,458.393z"/>
	</g>
</g>
<g>
	<g>
		<path d="M325.656,466.393l-48-48c-3.124-3.123-8.188-3.123-11.312,0c-3.123,3.124-3.123,8.188,0,11.312l48,48
			c3.178,3.07,8.242,2.982,11.312-0.196C328.651,474.409,328.651,469.493,325.656,466.393z"/>
	</g>
</g>
<g>
	<g>
		<path d="M253.656,466.393l-40-40c-3.124-3.123-8.188-3.123-11.312,0c-3.123,3.124-3.123,8.188,0,11.312l40,40
			c3.178,3.07,8.242,2.982,11.312-0.196C256.651,474.409,256.651,469.493,253.656,466.393z"/>
	</g>
</g>
<g>
	<g>
		<path d="M439.76,6.113c-1.07-4.285-5.41-6.892-9.696-5.824l-32,8c-3.563,0.889-6.063,4.088-6.064,7.76v42.648
			c-4.23-1.746-8.76-2.645-13.336-2.648c-16.448,0-29.328,10.536-29.328,24s12.88,24,29.328,24S408,93.513,408,80.049V22.297
			l25.936-6.488C438.221,14.739,440.828,10.398,439.76,6.113z M378.664,88.049c-7.624,0-13.328-4.224-13.328-8s5.704-8,13.328-8
			c7.624,0,13.336,4.224,13.336,8S386.296,88.049,378.664,88.049z"/>
	</g>
</g>
<g>
</g>
<g>
</g>
<g>
</g>
<g>
</g>
<g>
</g>
<g>
</g>
<g>
</g>
<g>
</g>
<g>
</g>
<g>
</g>
<g>
</g>
<g>
</g>
<g>
</g>
<g>
</g>
<g>
</g>
</svg>
