<?xml version="1.0" encoding="iso-8859-1"?>
<!-- Generator: Adobe Illustrator 19.0.0, SVG Export Plug-In . SVG Version: 6.00 Build 0)  -->
<svg version="1.1" id="Capa_1" xmlns="http://www.w3.org/2000/svg" xmlns:xlink="http://www.w3.org/1999/xlink" x="0px" y="0px"
	 viewBox="0 0 480.003 480.003" style="enable-background:new 0 0 480.003 480.003;" xml:space="preserve">
<g>
	<g>
		<path d="M479.713,418.171c-1.175-4.259-5.581-6.759-9.84-5.584c-58.788,16.19-119.124,26.111-180,29.6
			c65.074-27.472,95.556-102.495,68.084-167.569c-18.888-44.74-61.485-74.922-109.956-77.911V92.299h28c15.464,0,28-12.536,28-28
			v-16c-0.003-15.464-12.542-27.997-28.006-27.994c-13.915,0.003-25.716,10.223-27.706,23.994h-57.656c-13.255,0-24,10.745-24,24
			s10.745,24,24,24h41.368v104.408c-70.5,4.359-124.119,65.044-119.76,135.545c2.995,48.442,33.151,91.015,77.856,109.911
			c-60.876-3.489-121.212-13.411-180-29.6c-4.256-1.153-8.643,1.355-9.808,5.608c-1.173,4.26,1.329,8.664,5.589,9.837
			c0.004,0.001,0.007,0.002,0.011,0.003c76.26,21.029,155.006,31.688,234.112,31.688c79.112,0.001,157.863-10.657,234.128-31.688
			C478.388,426.836,480.888,422.43,479.713,418.171z M190.633,76.299c-4.418,0-8-3.582-8-8s3.582-8,8-8h65.368c4.418,0,8-3.582,8-8
			v-4c0-6.627,5.373-12,12-12c6.627,0,12,5.373,12,12v16c0,6.627-5.373,12-12,12H190.633z M240.001,308.299c8.837,0,16,7.163,16,16
			s-7.163,16-16,16s-16-7.163-16-16S231.165,308.299,240.001,308.299z M231.889,436.014
			c-58.571-4.226-103.92-52.993-103.888-111.716c0.091-58.694,45.458-107.372,104-111.592v80.728
			c-11.195,2.927-19.937,11.669-22.864,22.864h-17.136v-24c0-4.418-3.582-8-8-8h-24c-4.418,0-8,3.582-8,8s3.582,8,8,8h16v24
			c0,4.418,3.582,8,8,8h25.136c4.339,17.046,21.674,27.347,38.719,23.009c11.304-2.877,20.131-11.704,23.009-23.009h17.136v24
			c0,4.418,3.582,8,8,8h24c4.418,0,8-3.582,8-8s-3.582-8-8-8h-16v-24c0-4.418-3.582-8-8-8h-25.136
			c-2.927-11.195-11.669-19.937-22.864-22.864v-80.728c61.665,4.449,108.047,58.045,103.598,119.71
			C347.15,394.081,293.554,440.464,231.889,436.014z"/>
	</g>
</g>
<g>
	<g>
		<path d="M240.001,404.299c-44.163-0.049-79.951-35.837-80-80c0-4.418-3.582-8-8-8s-8,3.582-8,8c0.057,52.996,43.004,95.943,96,96
			c4.418,0,8-3.582,8-8S244.419,404.299,240.001,404.299z"/>
	</g>
</g>
<g>
</g>
<g>
</g>
<g>
</g>
<g>
</g>
<g>
</g>
<g>
</g>
<g>
</g>
<g>
</g>
<g>
</g>
<g>
</g>
<g>
</g>
<g>
</g>
<g>
</g>
<g>
</g>
<g>
</g>
</svg>
