<svg height="512pt" viewBox="-34 0 512 512.001" width="512pt" xmlns="http://www.w3.org/2000/svg"><path d="m198.628906 236.429688c1.847656 1.476562 4.054688 2.199218 6.25 2.199218 2.929688 0 5.832032-1.28125 7.808594-3.746094 3.457031-4.308593 2.765625-10.601562-1.542969-14.058593-18.0625-14.484375-30.222656-36.355469-36.152343-65.011719-3.359376-16.238281-4.515626-34.039062-3.433594-52.917969.316406-5.511719-3.898438-10.238281-9.414063-10.554687-5.527343-.351563-10.238281 3.898437-10.554687 9.414062-1.179688 20.613282.101562 40.167969 3.816406 58.109375 6.898438 33.332031 21.4375 59.089844 43.222656 76.566407zm0 0"/><path d="m434.816406 100.210938c-.023437 0-.046875 0-.066406 0-14.3125.09375-27.882812 2.285156-40.660156 6.558593-2.730469-10.589843-6.402344-20.921875-10.996094-30.824219-1.117188-2.410156-3.144531-4.273437-5.640625-5.1875-2.496094-.910156-5.25-.789062-7.65625.332032-9.898437 4.613281-19.339844 10.160156-28.199219 16.53125-6.570312-10.59375-14.761718-20.292969-24.546875-28.996094-3.070312-15.042969-7.25-29.867188-12.503906-44.011719-1.921875-5.179687-7.675781-7.816406-12.851563-5.894531-14.789062 5.492188-27.980468 12.925781-39.539062 22.246094-6.816406-10.042969-14.558594-19.4375-23.109375-28.023438-1.875-1.878906-4.417969-2.93749975-7.074219-2.941406-.003906 0-.007812 0-.011718 0-2.652344 0-5.195313 1.054688-7.070313 2.929688-8.566406 8.566406-16.292969 17.945312-23.066406 27.984374-11.625-9.273437-24.847657-16.71875-39.59375-22.195312-5.179688-1.921875-10.933594.71875-12.855469 5.894531-5.335938 14.375-9.519531 29.476563-12.523438 44.820313-9.382812 8.492187-17.257812 17.921875-23.625 28.1875-8.863281-6.371094-18.304687-11.917969-28.199218-16.53125-2.40625-1.121094-5.160156-1.242188-7.65625-.332032-2.496094.914063-4.523438 2.777344-5.644532 5.1875-4.59375 9.90625-8.265624 20.234376-10.992187 30.824219-12.777344-4.273437-26.351563-6.46875-40.664063-6.558593-.019531 0-.042968 0-.066406 0-5.492187 0-9.9609372 4.433593-9.9960935 9.933593-.3203125 48.472657 12.4453125 97.894531 35.0195315 135.59375 23.15625 38.671875 54.8125 62.414063 92.492187 69.753907l25.214844 69.421874c.195313.539063.4375 1.050782.710937 1.535157l21.484376 59.082031 21.773437 59.886719c1.4375 3.953125 5.195313 6.582031 9.398437 6.582031h32.570313c4.203125 0 7.953125-2.621094 9.394531-6.566406l21.875-59.886719 22.136719-60.613281c.003906-.007813.007813-.011719.007813-.019532l25.210937-69.421874c37.683594-7.339844 69.339844-31.082032 92.496094-69.753907 22.574219-37.699219 35.339843-87.121093 35.019531-135.59375-.035156-5.5-4.503906-9.933593-9.996094-9.933593zm-65.8125-6.300782c2.625 6.789063 4.789063 13.761719 6.46875 20.859375-6.210937 3.296875-12.203125 7.152344-17.964844 11.558594-1.667968-7.167969-3.886718-14.078125-6.648437-20.710937 5.769531-4.316407 11.835937-8.234376 18.144531-11.707032zm-61.152344 109.507813c8.988282-21.484375 13.570313-44.636719 15.03125-67.824219.851563-13.601562.625-27.265625-.535156-40.839844 3 4.472656 5.5625 9.039063 7.75 13.65625 5.539063 11.671875 8.851563 24.265625 10.3125 37.078125.40625 3.550781.644532 7.125.761719 10.703125.636719 21.292969-3.523437 44.527344-11.683594 67.5625-8.296875 23.203125-20.628906 46.214844-35.792969 66.429688-.800781 1.070312-1.609374 2.132812-2.429687 3.1875-1.40625-1.417969-2.765625-2.878906-4.09375-4.367188-8.136719-9.136718-14.550781-19.34375-19.164063-30.523437 17.628907-14.71875 31.007813-33.9375 39.84375-55.0625zm-33.476562-163.832031c4.746094-3.082032 9.71875-5.8125 14.851562-8.191407 4.335938 13.238281 7.695313 26.972657 10.050782 40.796875.121094.703125.238281 1.425782.359375 2.175782 2.460937 15.386718 5.039062 39.832031 2.757812 66.46875-.636719 7.175781-1.59375 14.179687-2.898437 20.929687-5.894532 30.578125-21.148438 69.335937-59.675782 92.164063 6.765626-24.210938 10.5-49.667969 10.90625-74.785157.183594-11.246093-.339843-22.230469-1.523437-32.859375-.171875-1.609375-.363281-3.214844-.570313-4.808594-.003906-.027343-.007812-.050781-.007812-.078124-.722656-5.578126-1.625-11.054688-2.730469-16.390626-2.933593-14.179687-7.105469-27.292968-12.449219-39.292968 9.511719-18.589844 23.363282-34.734375 40.929688-46.128906zm-6.566406 257.484374-19.136719 52.691407v-77.816407c.90625-.519531 1.796875-1.0625 2.6875-1.601562 4.351563 9.566406 9.851563 18.488281 16.449219 26.726562zm-45.855469-272.46875c5.625 6.363282 10.789063 13.144532 15.4375 20.277344-5.558594 6.097656-10.601563 12.769532-15.132813 20-4.65625-7.28125-9.84375-14.023437-15.570312-20.1875 4.582031-7.066406 9.6875-13.785156 15.265625-20.089844zm-75.339844 37.851563c2.101563-10.535156 4.800781-20.949219 8.089844-31.058594 13.117187 6.074219 23.972656 13.824219 32.957031 22.566407 10.148438 9.855468 18.390625 21.582031 24.730469 34.203124 1.816406 3.613282 3.476563 7.308594 4.988281 11.058594 8.699219 21.738282 13.140625 47.328125 13.339844 74.207032.003906 1.023437.007812 2.050781 0 3.078124 0 .0625-.003906.128907-.003906.191407-.214844 25.96875-4.324219 53.019531-12.078125 78.367187-.460938 1.496094-.929688 2.992188-1.417969 4.480469-1.796875-.832031-3.570312-1.714844-5.324219-2.628906-42.734375-22.328125-59.683593-63.140625-66.277343-95.023438-1.386719-6.691406-2.433594-13.613281-3.164063-20.703125-2.804687-32.210937 1.519531-61.265625 4.179687-75.042968.234376-1.226563.210938-2.480469-.019531-3.695313zm82.058594 219.015625v90.03125h-12.800781v-90.746094c1.269531.507813 2.542968 1.003906 3.828125 1.476563 3.15625 1.175781 5.976562.398437 8.972656-.761719zm-32.800781-10.570312v78.097656l-18.863282-51.925782c6.757813-8.4375 12.355469-17.59375 16.757813-27.417968.691406.425781 1.402344.832031 2.105469 1.246094zm-92.226563-114.722657c.546875-16.566406 4.050781-33.070312 11.21875-48.066406 2.089844-4.371094 4.480469-8.597656 7.148438-12.640625-1.085938 14.851562-1.039063 29.578125.175781 43.753906.878906 11.40625 2.515625 22.464844 4.910156 33.039063 8.296875 36.585937 25.011719 65.539062 49.726563 86.1875-4.617188 11.207031-11.046875 21.4375-19.210938 30.597656-.347656.386719-.699219.777344-1.054687 1.164063-.292969.320312-.589844.644531-.886719.964843-.578125.613281-1.160156 1.21875-1.753906 1.824219-.101563.101562-.195313.203125-.296875.308594-.019532.019531-.042969.042968-.066406.0625-.710938-.914063-1.410157-1.835938-2.109376-2.761719-.109374-.144531-.222656-.292969-.328124-.4375-15.15625-20.207031-27.488282-43.210937-35.78125-66.40625-8.164063-23.046875-12.324219-46.289063-11.691407-67.589844zm-27.828125-62.265625c6.308594 3.472656 12.375 7.386719 18.144532 11.707032-2.757813 6.632812-4.980469 13.539062-6.648438 20.710937-5.761719-4.40625-11.753906-8.261719-17.964844-11.558594 1.679688-7.097656 3.839844-14.070312 6.46875-20.859375zm-23.628906 141.554688c-18.839844-31.460938-30.535156-73.683594-32.023438-114.75 11.886719 1.105468 23.121094 4.042968 33.664063 8.769531.003906 0 .007813.003906.015625.007813 7.015625 3.148437 13.75 7.121093 20.148438 11.871093 3.449218 2.5625 6.738281 5.328125 9.894531 8.242188-1.386719 20.558593 1.257812 41.195312 6.457031 61.082031 5.140625 19.65625 12.851562 38.621094 22.453125 56.511719 5.269531 9.824219 11.132813 19.335937 17.558594 28.449219-39.105469-8.113282-63.769531-36.136719-78.167969-60.183594zm116.953125 136.035156-19.464844-53.59375c.925781.023438 1.851563.039062 2.777344.046875 3.863281 0 6.4375-2.226563 9.167969-4.671875l21.144531 58.21875zm62.539063 120.5h-18.574219l-14.503907-39.886719h47.648438zm21.875-59.886719h-62.222657l-14.769531-40.613281h91.824219zm22.125-60.613281h-13.625l21.144531-58.21875c1.617187 1.445312 3.230469 3.066406 5.269531 3.90625 2.15625.886719 4.390625.78125 6.675781.71875zm116.953124-136.035156c-14.402343 24.046875-39.0625 52.070312-78.167968 60.183594 13-18.4375 23.875-38.773438 31.921875-59.816407 3.683593-9.628906 6.679687-19.253906 9.007812-28.78125 1.640625-6.644531 2.953125-13.242187 3.90625-19.746093 1.914063-13.109376 2.441407-25.695313 1.628907-37.699219 13.59375-12.558594 29.945312-21.859375 47.972656-26.261719 5.175781-1.265625 10.449218-2.136719 15.753906-2.628906-1.488281 41.066406-13.183594 83.289062-32.023438 114.75zm0 0"/><path d="m157.621094 66.039062c1.605468 3.859376 5.546875 6.355469 9.722656 6.160157 4.105469-.195313 7.773438-3.019531 9.027344-6.929688 1.269531-3.972656-.109375-8.457031-3.433594-10.988281-3.378906-2.574219-8.097656-2.71875-11.636719-.378906-3.945312 2.605468-5.460937 7.792968-3.679687 12.136718zm0 0"/></svg>