<svg height="512pt" viewBox="0 -25 512.00002 512" width="512pt" xmlns="http://www.w3.org/2000/svg"><path d="m220.957031 78.773438c-17.25 0-31.285156-14.03125-31.285156-31.28125s14.035156-31.285157 31.285156-31.285157 31.28125 14.035157 31.28125 31.285157-14.03125 31.28125-31.28125 31.28125zm0-42.46875c-6.167969 0-11.1875 5.019531-11.1875 11.1875 0 6.167968 5.019531 11.183593 11.1875 11.183593s11.183594-5.015625 11.183594-11.183593c0-6.167969-5.015625-11.1875-11.183594-11.1875zm0 0"/><path d="m241.8125 275.898438c-17.25 0-31.285156-14.035157-31.285156-31.285157s14.035156-31.28125 31.285156-31.28125 31.28125 14.03125 31.28125 31.28125-14.03125 31.285157-31.28125 31.285157zm0-42.46875c-6.167969 0-11.1875 5.015624-11.1875 11.183593s5.019531 11.1875 11.1875 11.1875 11.183594-5.019531 11.183594-11.1875-5.015625-11.183593-11.183594-11.183593zm0 0"/><path d="m109.746094 462.414062c-17.25 0-31.285156-14.03125-31.285156-31.28125s14.035156-31.285156 31.285156-31.285156 31.285156 14.035156 31.285156 31.285156-14.035156 31.28125-31.285156 31.28125zm0-42.46875c-6.167969 0-11.183594 5.019532-11.183594 11.1875 0 6.167969 5.015625 11.183594 11.183594 11.183594 6.167968 0 11.1875-5.015625 11.1875-11.183594 0-6.167968-5.019532-11.1875-11.1875-11.1875zm0 0"/><path d="m3.375 17.5625c4.480469 3.980469 12.609375 10.886719 24.148438 19.496094l-5.457032 90.691406c-.226562 3.777344 1.691406 7.363281 4.957032 9.277344 1.570312.917968 3.324218 1.375 5.074218 1.375 1.894532 0 3.785156-.535156 5.4375-1.597656l74.964844-48.234376c9.183594 4.492188 18.890625 8.929688 29.089844 13.226563l12.550781 87.128906c.539063 3.746094 3.140625 6.871094 6.722656 8.085938 1.054688.355469 2.144531.527343 3.222657.527343 2.585937 0 5.121093-1 7.03125-2.867187l64.136718-62.796875c8.699219 1.964844 17.441406 3.710938 26.21875 5.25l34.335938 82.078125c1.460937 3.492187 4.761718 5.867187 8.535156 6.144531.246094.015625.492188.027344.738281.027344 3.5 0 6.777344-1.832031 8.601563-4.859375l45.332031-75.15625c10.261719-.050781 20.550781-.390625 30.855469-1.007813l53.121094 72.339844c1.910156 2.605469 4.933593 4.101563 8.097656 4.101563.546875 0 1.09375-.042969 1.640625-.136719 3.734375-.613281 6.808593-3.28125 7.945312-6.890625l26.355469-83.53125c5.820312-1.339844 11.640625-2.761719 17.457031-4.28125 5.367188-1.402344 8.585938-6.890625 7.183594-12.257813-1.402344-5.371093-6.894531-8.582031-12.261719-7.1875-113.324218 29.578126-224.417968 24.417969-330.199218-15.335937-84.800782-31.871094-138.152344-75.898437-152.484376-88.636719-4.148437-3.683594-10.5-3.308594-14.1875.839844s-3.3125 10.5.835938 14.1875zm39.945312 91.625 3.515626-58.453125c12.648437 8.515625 27.703124 17.839844 45.03125 27.214844zm404.148438 79.644531-34.054688-46.378906c16.988282-1.726563 34.015626-4.21875 51.046876-7.46875zm-111.703125-43.832031-29.058594 48.175781-21.945312-52.453125c9.601562 1.261719 19.234375 2.269532 28.890625 3.019532 7.351562.570312 14.722656.984374 22.113281 1.257812zm-123.417969-18.828125-41.136718 40.28125-8.082032-56.109375c16.199219 6.054688 32.625 11.328125 49.21875 15.828125zm0 0"/><path d="m495.90625 198.347656c-152.046875 114.421875-292.195312 144.265625-483.738281 103.011719-5.429688-1.164063-10.773438 2.28125-11.941407 7.707031-1.167968 5.425782 2.28125 10.773438 7.707032 11.941406 4.65625 1 9.273437 1.945313 13.875 2.863282l27.234375 84.761718c1.15625 3.605469 4.242187 6.253907 7.980469 6.847657.53125.085937 1.0625.128906 1.589843.128906 3.183594 0 6.21875-1.515625 8.128907-4.144531l53.851562-74.152344c9.339844.625 18.574219 1.050781 27.707031 1.265625l48 77.679687c1.839844 2.980469 5.085938 4.769532 8.546875 4.769532.28125 0 .5625-.011719.84375-.035156 3.773438-.320313 7.046875-2.730469 8.46875-6.234376l33.464844-82.460937c9.78125-1.539063 19.457031-3.355469 29.027344-5.449219l61.4375 63.5625c1.925781 1.988282 4.542968 3.066406 7.226562 3.066406.988282 0 1.984375-.144531 2.960938-.445312 3.617187-1.113281 6.300781-4.167969 6.941406-7.898438l15.277344-88.675781c8.773437-3.804687 17.535156-7.875 26.304687-12.230469l75.859375 47.101563c1.625 1.007813 3.460938 1.511719 5.300782 1.511719 1.804687 0 3.613281-.484375 5.214843-1.457032 3.234375-1.964843 5.09375-5.582031 4.804688-9.355468l-6.734375-88.265625c8.851562-6.152344 17.761718-12.59375 26.746094-19.355469 4.433593-3.335938 5.324218-9.636719 1.984374-14.070312-3.335937-4.433594-9.636718-5.324219-14.070312-1.988282zm-433.789062 185.277344-17.859376-55.582031c18.023438 3.105469 35.660157 5.546875 52.921876 7.300781zm140.871093 5.21875-30.992187-50.152344c17.9375-.285156 35.488281-1.378906 52.683594-3.304687zm135.789063-26.640625-39.5-40.863281c16.597656-4.445313 32.988281-9.746094 49.285156-15.953125zm127.65625-58.398437-48.9375-30.382813c14.78125-8.082031 29.613281-16.992187 44.578125-26.746094zm0 0"/></svg>