<svg height="511pt" viewBox="0 -22 511.99921 511" width="511pt" xmlns="http://www.w3.org/2000/svg"><path d="m496.972656 304.761719c-125.542968 72.988281-249.867187 75.769531-332.050781 65.253906-9.570313-1.226563-18.808594-2.65625-27.675781-4.230469-.136719-.039062-.269532-.085937-.402344-.125-2.1875-.617187-4.402344-1-6.621094-1.167968-70.042968-13.324219-115.296875-35.203126-115.816406-35.457032-4.957031-2.429687-10.945312-.382812-13.378906 4.570313-2.4375 4.957031-.390625 10.949219 4.566406 13.386719 1.933594.949218 37.433594 18.160156 94.824219 31.644531-2.132813 3.046875-3.761719 6.460937-4.796875 10.144531-2.246094 7.988281-3.214844 23.003906-2.304688 35.707031 1.460938 20.34375 7.113282 31.625 17.277344 34.484375 1.519531.425782 3.050781.640625 4.597656.640625 8.792969 0 18.042969-6.941406 28.125-21.0625 7.398438-10.363281 14.402344-23.683593 16.648438-31.671875 1.617187-5.746094 1.664062-11.6875.214844-17.316406.480468.0625.957031.128906 1.441406.191406 25.101562 3.246094 50.113281 4.867188 74.898437 4.867188 11.289063 0 22.527344-.351563 33.707031-1.023438-1.863281 5.324219-2.414062 11.1875-1.308593 17.117188 1.519531 8.15625 7.296875 22.050781 13.742187 33.039062 9.269532 15.816406 18.335938 23.5625 27.613282 23.5625 1.042968 0 2.089843-.097656 3.140624-.292968 10.378907-1.9375 17.019532-12.660157 20.300782-32.792969 2.046875-12.570313 2.429687-27.613281.910156-35.769531-.804688-4.316407-2.417969-8.28125-4.644531-11.777344 29.121093-5.03125 57.652343-12.46875 85.441406-22.261719-.078125 1.792969-.019531 3.609375.199219 5.445313.984375 8.238281 5.847656 22.480468 11.558594 33.863281 8.542968 17.03125 17.429687 25.355469 27.109374 25.355469.683594 0 1.371094-.042969 2.0625-.125 10.484376-1.257813 17.808594-11.527344 22.394532-31.398438 2.863281-12.414062 4.226562-27.398438 3.242187-35.636719-.96875-8.09375-4.769531-15.398437-10.769531-20.808593 12.113281-5.882813 24.054688-12.234376 35.804688-19.066407 4.773437-2.773437 6.394531-8.894531 3.621093-13.671875-2.777343-4.773437-8.898437-6.390625-13.671875-3.617187zm-357.476562 86.503906c1.753906 3.128906 2.1875 6.75 1.214844 10.199219-1.203126 4.28125-5.734376 13.6875-11.757813 22.691406-5.886719 8.800781-10.285156 12.929688-12.667969 14.574219-1.171875-2.644531-2.773437-8.460938-3.207031-19.039063-.445313-10.828125.589844-21.214844 1.792969-25.492187 1.441406-5.121094 5.917968-9.011719 11.207031-9.683594 1.363281-.175781 2.523437.042969 3.867187.292969 1.496094.273437 2.851563.484375 4.207032 1.210937 2.238281 1.195313 4.101562 3.03125 5.34375 5.246094zm174.96875 36.417969c-1.382813 10.496094-3.5 16.144531-4.90625 18.671875-2.222656-1.851563-6.230469-6.359375-11.304688-15.648438-5.195312-9.511719-8.859375-19.289062-9.675781-23.65625-.996094-5.339843 1.433594-10.898437 6.019531-13.804687 4.847656-3.066406 11.273438-2.648438 15.695313.984375 2.425781 1.992187 4.09375 4.8125 4.671875 7.898437.8125 4.367188.914062 14.808594-.5 25.554688zm132.746094-75.109375c7.3125-.871094 13.988281 4.476562 14.917968 11.730469.527344 4.410156-.050781 14.835937-2.164062 25.464843-2.0625 10.382813-4.546875 15.882813-6.113282 18.3125-2.09375-1.992187-5.804687-6.75-10.261718-16.355469-4.558594-9.828124-7.582032-19.820312-8.109375-24.234374-.863281-7.226563 4.484375-14.050782 11.730469-14.917969zm0 0"/><path d="m43.136719 54.214844c13.980469 5.328125 28.136719 10.050781 42.445312 14.160156-3.308593 4.21875-5.644531 9.289062-6.613281 14.929688-1.398438 8.175781-.796875 23.210937 1.433594 35.75 3.574218 20.082031 10.371094 30.710937 20.78125 32.492187.96875.167969 1.9375.25 2.898437.25 9.363281 0 18.394531-7.878906 27.511719-23.96875 6.28125-11.082031 11.855469-25.058594 13.257812-33.234375 0 0 0 0 0-.003906.742188-4.339844.628907-8.691406-.296874-12.867188 25.121093 4.1875 50.585937 6.574219 76.277343 7.121094 3.84375.082031 7.691407.125 11.546875.125.472656 0 .945313-.011719 1.417969-.011719-1.847656 4.453125-2.71875 9.296875-2.5 14.257813.359375 8.289062 4.132813 22.855468 8.96875 34.640625 7.558594 18.40625 16.203125 27.371093 26.417969 27.371093.257812 0 .515625-.003906.769531-.015624 10.550781-.460938 18.628906-10.152344 24.699219-29.625 3.792968-12.15625 6.28125-27 5.917968-35.289063-.234374-5.355469-1.730468-10.363281-4.179687-14.757813 24.859375-2.746093 49.769531-7.132812 74.558594-13.164062 5.679687-1.378906 11.210937-2.816406 16.601562-4.289062-.585937 4.609374-.207031 9.328124 1.183594 13.90625 2.410156 7.941406 9.679687 21.113281 17.292969 31.328124 10.230468 13.730469 19.511718 20.484376 28.203125 20.484376 1.660156 0 3.304687-.246094 4.925781-.738282 10.101562-3.066406 15.523438-14.457031 16.570312-34.828125.652344-12.71875-.625-27.710937-3.03125-35.652343-1.535156-5.058594-4.1875-9.574219-7.726562-13.296876 39.820312-15.3125 63.257812-29.355468 64.710938-30.238281 4.722656-2.859375 6.230468-9.003906 3.371093-13.726562-2.855469-4.726563-9.007812-6.238281-13.730469-3.382813-.515624.316406-52.816406 31.578125-133.800781 51.171875-74.410156 18.003907-189.074219 29.570313-312.757812-17.589843-5.160157-1.96875-10.9375.621093-12.90625 5.78125-1.96875 5.164062.621093 10.941406 5.78125 12.910156zm230.875 72.1875c-2.839844 10.199218-5.726563 15.496094-7.476563 17.800781-1.9375-2.144531-5.277344-7.167969-9-17.082031-3.804687-10.144532-6.066406-20.335938-6.261718-24.777344-.261719-6.078125 3.757812-11.742188 9.601562-13.460938 5.117188-1.5 10.753906.230469 14.152344 4.332032 1.851562 2.238281 2.933594 5.054687 3.0625 7.957031.195312 4.441406-1.167969 14.792969-4.078125 25.230469zm159.359375-32.554688c-.21875 10.582032-1.703125 16.433594-2.820313 19.101563-2.414062-1.597657-6.894531-5.636719-12.960937-14.316407-6.207032-8.878906-10.925782-18.191406-12.21875-22.445312-1.632813-5.390625.363281-11.40625 4.914062-14.734375 4.660156-3.398437 11.128906-3.402344 15.804688-.03125 2.367187 1.707031 4.121094 4.179687 4.964844 6.972656 1.292968 4.253907 2.542968 14.617188 2.316406 25.453125zm-308.234375-2.632812c-.75 4.378906-4.273438 14.207031-9.328125 23.792968-4.933594 9.367188-8.878906 13.933594-11.074219 15.816407-1.441406-2.507813-3.644531-8.125-5.179687-18.601563-1.574219-10.722656-1.625-21.160156-.871094-25.542968.917968-5.371094 5.152344-9.753907 10.488281-10.871094 5.617187-1.175782 11.515625 1.5 14.367187 6.460937 1.550782 2.695313 2.125 5.882813 1.597657 8.945313zm0 0"/><path d="m.773438 33.070312c1.605468 3.867188 5.535156 6.355469 9.71875 6.160157 4.125-.195313 7.75-3.015625 9.023437-6.929688 1.285156-3.957031-.113281-8.464843-3.429687-10.988281-3.375-2.574219-8.09375-2.722656-11.632813-.378906-3.945313 2.605468-5.464844 7.792968-3.679687 12.136718zm0 0"/><path d="m474.644531 195.332031c-1.96875-5.160156-7.746093-7.753906-12.90625-5.78125-123.683593 47.15625-238.347656 35.59375-312.757812 17.589844-24.125-5.835937-45.703125-12.710937-64.125-19.492187-3.75-2.386719-7.96875-4.011719-12.472657-4.757813-35.710937-14.105469-56.703124-26.621094-57.199218-26.917969-4.722656-2.863281-10.871094-1.351562-13.734375 3.371094s-1.3515628 10.871094 3.371093 13.734375c1.09375.660156 14.65625 8.789063 38.285157 19.300781-4.980469 5.03125-8.222657 11.492188-9.269531 18.625-1.199219 8.210938-.230469 23.226563 2.304687 35.710938 4.0625 19.984375 11.113281 30.445312 21.5625 31.976562.835937.121094 1.667969.183594 2.5.183594 9.511719 0 18.476563-8.09375 27.324219-24.636719 6.011718-11.230469 11.242187-25.339843 12.445312-33.550781v.003906c.316406-2.183594.421875-4.363281.316406-6.515625 13.273438 4.285157 27.734376 8.449219 43.261719 12.226563 22.742188 5.53125 45.585938 9.6875 68.398438 12.460937-2.71875 4.535157-4.335938 9.683594-4.667969 15.113281-.503906 8.28125 1.726562 23.164063 5.308594 35.386719 5.730468 19.574219 13.640625 29.402344 24.179687 30.042969.363281.023438.71875.035156 1.074219.035156 10.082031 0 18.789062-8.820312 26.585938-26.914062 5.039062-11.695313 9.0625-26.195313 9.570312-34.476563.328125-5.355469-.640625-10.496093-2.617188-15.121093 2.746094.039062 5.492188.0625 8.238282.0625 3.851562 0 7.703125-.039063 11.546875-.121094 27.777343-.589844 55.292969-3.332032 82.394531-8.179688-1.949219 6.335938-1.96875 13.105469.023438 19.582032 2.441406 7.933593 9.765624 21.078124 17.414062 31.261718 10.261719 13.65625 19.546875 20.378906 28.222656 20.378906 1.683594 0 3.34375-.253906 4.984375-.757812 10.089844-3.105469 15.46875-14.519531 16.433594-34.894531.605469-12.71875-.726563-27.710938-3.167969-35.636719-1.542968-5.019531-4.1875-9.503906-7.707031-13.199219 13.167969-3.882812 26.207031-8.273437 39.097656-13.1875 5.160157-1.96875 7.75-7.746093 5.78125-12.90625zm-396.976562 12.5c2.140625 2.875 3.035156 6.414063 2.515625 9.957031v.003907c-.644532 4.394531-3.929688 14.308593-8.746094 24.015625-4.707031 9.480468-8.539062 14.140625-10.6875 16.078125-1.503906-2.472657-3.839844-8.035157-5.628906-18.46875-1.832032-10.679688-2.140625-21.117188-1.496094-25.515625.519531-3.546875 2.390625-6.679688 5.265625-8.820313 2.339844-1.742187 5.121094-2.65625 7.984375-2.65625.132812 0 .265625.011719.398438.015625 2.679687 1.039063 5.433593 2.089844 8.261718 3.144532.785156.660156 1.507813 1.402343 2.132813 2.246093zm176.367187 48.996094c-.269531 4.4375-2.707031 14.589844-6.6875 24.667969-3.890625 9.847656-7.316406 14.8125-9.292968 16.925781-1.707032-2.335937-4.503907-7.683594-7.167969-17.929687-2.726563-10.488282-3.910157-20.859376-3.640625-25.296876.375-6.125 5.046875-11.386718 11.113281-12.414062 5.191406-.878906 10.515625 1.414062 13.441406 5.789062 1.621094 2.425782 2.414063 5.347657 2.234375 8.257813zm166.734375 9.121094c-.179687 10.582031-1.636719 16.4375-2.746093 19.109375-2.417969-1.589844-6.917969-5.609375-13.015626-14.261719-6.238281-8.859375-10.996093-18.15625-12.304687-22.402344-1.671875-5.433593.359375-11.515625 4.976563-14.839843 4.726562-3.398438 11.273437-3.320313 15.925781.171874 2.257812 1.695313 3.917969 4.082032 4.753906 6.777344 1.304687 4.25 2.59375 14.609375 2.410156 25.445313zm0 0"/><path d="m511.226562 179.441406c-1.632812-3.921875-5.691406-6.457031-9.941406-6.148437-4.164062.304687-7.726562 3.242187-8.898437 7.234375-1.167969 3.992187.402343 8.464844 3.789062 10.871094 3.371094 2.390624 7.925781 2.460937 11.371094.183593 3.945313-2.605469 5.460937-7.792969 3.679687-12.140625zm0 0"/></svg>