<svg height="512pt" viewBox="0 0 512.00066 512" width="512pt" xmlns="http://www.w3.org/2000/svg"><path d="m511.308594 99.40625c-4.835938-12.296875-11.152344-24.011719-18.71875-34.84375-7.574219-10.839844-16.40625-20.800781-26.304688-29.570312-9.988281-8.847657-21.035156-16.484376-32.8125-22.746094-5.914062-3.144532-12.015625-5.9375-18.257812-8.359375-3.117188-1.207031-6.269532-2.328125-9.457032-3.339844-2.566406-.816406-5.261718-.753906-7.710937.429687-2.675781 1.296876-4.421875 3.632813-5.308594 6.414063l-28.238281 88.988281c-14.746094-10.066406-30.898438-18.046875-47.859375-23.632812-17.203125-5.667969-35.191406-8.84375-53.285156-9.542969-17.59375-.679687-35.269531 1.074219-52.390625 5.183594-16.765625 4.023437-32.980469 10.300781-48.082032 18.625-14.984374 8.257812-28.832031 18.523437-41.132812 30.414062-11.757812 11.367188-22.082031 24.207031-30.609375 38.164063-8.445313 13.824218-15.113281 28.726562-19.792969 44.234375-4.828125 15.988281-7.527344 32.589843-8.136718 49.28125-.660157 18.261719 1.308593 36.617187 5.804687 54.328125 4.414063 17.394531 11.265625 34.15625 20.300781 49.65625 2.199219 3.78125 4.53125 7.484375 6.984375 11.105468-5.277343 2.074219-10.558593 4.152344-15.839843 6.226563-11.257813 4.429687-22.519532 8.859375-33.78125 13.289063-10.375 4.078124-20.75 8.160156-31.125 12.242187-2.710938 1.066406-5.421876 2.132813-8.132813 3.199219-.445313.175781-.898437.339844-1.339844.53125-4.070312 1.742187-6.570312 6.078125-5.9999998 10.476562.3164068 2.441406 1.5742188 4.816406 2.5351568 7.054688 1.0625 2.476562 2.183593 4.929687 3.367187 7.355468 2.417969 4.953126 5.078125 9.789063 7.964844 14.484376 5.71875 9.300781 12.332031 18.050781 19.722656 26.082031 14.894531 16.175781 33.011719 29.320312 52.941406 38.589843 4.9375 2.296876 9.984375 4.355469 15.121094 6.164063 2.5.875 5.171875 2.085937 7.863281 2.085937 2.226563 0 4.421875-.765624 6.171875-2.136718 2.550781-2 3.335938-4.777344 4.253907-7.667969 2.789062-8.789063 5.578124-17.578125 8.367187-26.363281 3.804687-11.992188 7.609375-23.980469 11.414063-35.972656 2.445312-7.707032 4.890624-15.414063 7.335937-23.121094.121094-.382813.242187-.761719.363281-1.144532 14.730469 10.054688 30.863282 18.03125 47.804688 23.613282 17.203125 5.671875 35.191406 8.855468 53.289062 9.558594 17.609375.683593 35.300782-1.070313 52.433594-5.179688 16.765625-4.023438 32.980469-10.300781 48.078125-18.621094 14.988281-8.257812 28.832031-18.519531 41.132813-30.410156 11.753906-11.363281 22.078124-24.199219 30.605468-38.152344 8.445313-13.820312 15.113282-28.714844 19.796875-44.21875 4.832031-15.992187 7.535157-32.601562 8.144531-49.292968.664063-18.269532-1.304687-36.632813-5.804687-54.355469-4.414063-17.390625-11.265625-34.152344-20.300781-49.65625-2.203125-3.777344-4.53125-7.480469-6.984375-11.101563l88.96875-34.992187c3.269531-1.289063 5.96875-3.453125 6.964843-7 .585938-2.082031.46875-4.339844-.324218-6.355469zm-220.636719 19.828125c-1.636719-11.492187-4.101563-22.886719-7.363281-34.027344 11.3125 1.78125 22.445312 4.6875 33.183594 8.679688 10.65625 3.960937 20.914062 8.996093 30.570312 14.996093 5.476562 3.40625 10.757812 7.117188 15.820312 11.113282 2.085938 1.992187 4.5 3.695312 6.679688 5.597656 2.242188 1.949219 4.429688 3.960938 6.570312 6.023438.980469.945312 1.945313 1.902343 2.902344 2.867187.519532.527344 1.039063 1.058594 1.554688 1.59375.371094.382813 1.085937.921875 1.335937 1.410156.210938.421875.113281.40625-.125.875-.164062.328125-.332031.652344-.5.976563-.332031.648437-.664062 1.292968-1.003906 1.9375-.699219 1.328125-1.417969 2.648437-2.140625 3.964844-5.589844 10.164062-11.949219 19.984374-19.082031 29.136718-13.964844 17.921875-30.394531 33.878906-49.285157 46.578125-5.398437 3.632813-10.957031 6.988281-16.671874 10.101563-5.539063 3.019531-11.300782 6.011718-17.210938 8.234375 7.964844-18.792969 13.105469-38.742188 15.527344-58.996094 2.421875-20.269531 2.109375-40.851563-.761719-61.0625zm-98.96875-23.78125c12.949219-5.1875 26.527344-8.796875 40.347656-10.726563 7.933594-1.109374 15.941407-1.667968 23.953125-1.667968 1.261719 0 2.523438.015625 3.789063.042968.328125.011719 1.65625-.132812 1.914062.054688.332031.246094.609375 1.859375.730469 2.242188.730469 2.265624 1.421875 4.539062 2.082031 6.824218 1.421875 4.9375 2.667969 9.9375 3.71875 14.96875 2.011719 9.59375 3.445313 19.300782 4.191407 29.078125 1.566406 20.558594.183593 41.222657-4.183594 61.375-2.386719 11.019531-5.796875 21.832031-10.105469 32.25-7.441406-19.0625-17.875-36.933593-30.515625-53.011719-12.535156-15.9375-27.261719-30.394531-43.613281-42.414062-9.332031-6.859375-19.03125-13.175781-29.214844-18.707031 11.410156-8.242188 23.835937-15.074219 36.90625-20.308594zm-93.910156 90.480469c5.988281-13.542969 13.753906-26.289063 23.015625-37.839844 5.269531-6.578125 11.027344-12.765625 17.191406-18.515625 17.347656 8.621094 33.589844 19.488281 48.101562 32.320313 14.691407 12.996093 27.621094 28.039062 38.015626 44.679687 5.84375 9.351563 10.867187 19.230469 14.941406 29.476563-2.820313-1.28125-5.6875-2.488282-8.582032-3.609376-3.125-1.207031-6.375-2.078124-9.578124-3.054687-6.1875-1.894531-12.382813-3.769531-18.660157-5.332031-3.375-.839844-6.769531-1.652344-10.214843-2.144532-2.800782-.402343-5.601563-.800781-8.402344-1.199218-5.0625-.726563-10.167969-1.742188-15.269532-2.125-13.242187-.996094-26.582031-.722656-39.773437.789062-13.121094 1.503906-26.097656 4.160156-38.785156 7.832032-1.519531.4375-3.035157.890624-4.542969 1.359374 2.320312-14.675781 6.53125-29.046874 12.542969-42.636718zm-2.976563 132.652344c-5.324218-13.710938-8.890625-28.097657-10.582031-42.710938-.980469-8.480469-1.335937-17.035156-1.050781-25.566406 23.804687-8.300782 49.195312-13.03125 74.457031-12.238282 3.550781.113282 7.136719.152344 10.65625.65625 2.507813.355469 5.011719.714844 7.515625 1.074219 4.863281.691407 9.753906 1.277344 14.597656 2.085938 6.589844 1.09375 13.109375 3.148437 19.496094 5.066406 3.460938 1.039063 6.910156 2.105469 10.367188 3.152344 3.296874 1 6.46875 2.355469 9.613281 3.753906-19.136719 7.628906-37.226563 17.785156-53.503907 30.429687-16.167968 12.554688-30.019531 27.679688-42.160156 44.109376-6.78125 9.179687-12.953125 18.8125-18.375 28.855468-8.621094-11.921875-15.707031-24.949218-21.03125-38.667968zm35.515625 85.230468-27.140625 85.277344c-13.617187-5.371094-26.441406-12.761719-37.921875-21.84375-11.378906-9-21.386719-19.695312-29.667969-31.609375-4.675781-6.726563-8.800781-13.835937-12.316406-21.238281l85.765625-33.480469 3.140625 3.59375c.042969.382813-.511718.867187-.792968 1.195313-.867188 1.019531-1.890626 1.894531-2.804688 2.875-1.988281 2.125-3.976562 4.25-5.960938 6.375-4.457031 4.769531-8.917968 9.539062-13.375 14.3125-2.78125 2.972656-6.773437 6.191406-7.542968 10.375-.929688 5.078124 2.292968 10.179687 7.300781 11.488281 3.773437.984375 7.507813-.363281 10.121094-3.148438 3.15625-3.359375 6.292969-6.734375 9.441406-10.097656 4.417969-4.730469 8.835937-9.457031 13.257813-14.183594 1.339843-1.433593 2.722656-2.835937 4.015624-4.3125.414063-.46875.46875-.65625.984376-.226562l3.261718 3c.65625.539062.535156.890625.234375 1.648437zm90.597657-10.640625c1.699218 11.335938 4.226562 22.558594 7.527343 33.53125-11.269531-1.792969-22.359375-4.699219-33.050781-8.683593-10.617188-3.957032-20.832031-8.972657-30.453125-14.953126-5.484375-3.40625-10.773437-7.121093-15.835937-11.121093-2.097657-1.996094-4.515626-3.707031-6.699219-5.613281-2.160157-1.882813-4.269531-3.816407-6.332031-5.800782-2.03125-1.953125-4.023438-3.945312-5.945313-6.007812-.289063-.308594-.398437-.324219-.351563-.691406.023438-.167969.242188-.492188.328126-.664063.332031-.660156.664062-1.320313 1-1.976563.671874-1.308593 1.355468-2.609374 2.050781-3.90625 5.414062-10.082031 11.636719-19.710937 18.523437-28.847656 6.808594-9.03125 14.128906-17.714844 22.277344-25.566406 8.367188-8.066406 17.457031-15.328125 27.175781-21.703125 10.96875-7.1875 22.636719-13.207031 34.78125-18.144531-7.902343 18.679687-13.367187 38.375-15.988281 58.492187-2.671875 20.507813-2.070312 41.230469.992188 61.65625zm99.386718 23.316407c-12.957031 5.1875-26.535156 8.800781-40.355468 10.730468-7.933594 1.109375-15.945313 1.667969-23.957032 1.667969-1.300781 0-2.597656-.015625-3.898437-.046875-.34375-.007812-1.675781.167969-1.972657-.058594-.269531-.203125-.488281-1.433594-.589843-1.730468-.75-2.273438-1.46875-4.558594-2.152344-6.851563-1.433594-4.808594-2.699219-9.667969-3.792969-14.566406-2.171875-9.699219-3.648437-19.527344-4.570312-29.425781-1.894532-20.328126-.511719-40.953126 4.097656-60.847657 2.625-11.328125 6.183594-22.425781 10.648438-33.167969 7.585937 19.089844 18.101562 36.933594 30.824218 53.042969 12.664063 16.027344 27.5 30.289063 43.878906 42.488281 9.136719 6.808594 18.746094 12.984376 28.75 18.449219-11.414062 8.246094-23.839843 15.082031-36.910156 20.316407zm96.820313-223.265626c5.339843 13.71875 8.917969 28.113282 10.621093 42.738282.988282 8.5 1.347657 17.074218 1.0625 25.628906-5.144531 1.707031-10.34375 3.253906-15.597656 4.601562-2.628906.675782-5.324218 1.183594-7.9375 1.917969-1.917968.539063-3.652344 1.660157-4.933594 3.1875-2.621093 3.117188-3.078124 7.636719-1.132812 11.21875 1.929688 3.542969 5.9375 5.621094 9.945312 5.148438 2.960938-.347657 5.949219-1.304688 8.832032-2.042969 2.941406-.753906 5.875-1.5625 8.789062-2.425781-2.46875 15.714843-7.105468 31.074219-13.785156 45.503906-6.695312 14.453125-15.425781 27.945313-25.832031 40-2.644531 3.0625-5.398438 6.03125-8.246094 8.902344-1.378906 1.386719-2.777344 2.753906-4.199219 4.09375-.613281.578125-.597656.726562-1.378906.335937-.445312-.222656-.890625-.449218-1.332031-.671875-1.09375-.558593-2.183594-1.121093-3.269531-1.703125-8.285157-4.421875-16.292969-9.378906-23.953126-14.816406-14.875-10.558594-28.445312-22.992188-40.195312-36.949219-11.726562-13.921875-21.621094-29.367187-29.140625-45.953125-.914063-2.019531-1.78125-4.058594-2.621094-6.109375 8.71875 3.980469 17.789063 7.109375 27.023438 9.652344 4.6875 1.289063 9.417969 2.417969 14.183593 3.386719 2.359376.476562 4.726563.917968 7.101563 1.320312 2.40625.40625 4.890625.957032 7.332031 1.058594 3.804688.15625 7.417969-1.894531 9.238282-5.242188 1.785156-3.289062 1.539062-7.402343-.597657-10.464843-.949219-1.359375-2.238281-2.480469-3.722656-3.222657-1.859375-.929687-3.914063-1.0625-5.9375-1.371093-4.808594-.734375-9.59375-1.648438-14.335937-2.738281-10.484376-2.414063-20.847657-5.613282-30.683594-9.992188 4.625-1.707031 9.097656-3.925781 13.515625-6.105469 4.46875-2.203125 8.847656-4.585937 13.148437-7.097656 8.953125-5.238281 17.515625-11.128906 25.652344-17.558594 16.226562-12.820312 30.585938-27.933593 42.921875-44.515625 6.738281-9.0625 12.851563-18.632812 18.277344-28.539062 8.6875 11.964844 15.824219 25.042968 21.1875 38.824218zm-13.855469-62.074218c-.046875.015625-.09375.035156-.144531.054687l-3.097657-4.230469 22.65625-24.238281c3.574219-3.894531 3.753907-9.945312.039063-13.839843-3.980469-4.167969-10.65625-4.003907-14.585937.113281l-22.449219 24-4.078125-3.445313 27.023437-86.171875c.054688-.179687.113281-.359375.167969-.539062 13.621094 5.371093 26.441406 12.761719 37.925781 21.84375 11.378907 9 21.386719 19.699219 29.667969 31.613281 4.675781 6.726562 8.800781 13.832031 12.3125 21.234375zm0 0"/><path d="m377.054688 279.394531c-1.578126-3.851562-5.617188-6.394531-9.773438-6.171875-3.980469.214844-7.570312 2.929688-8.894531 6.6875-1.371094 3.894532-.097657 8.449219 3.113281 11.050782 3.429688 2.78125 8.496094 2.945312 12.101562.398437 3.726563-2.632813 5.210938-7.75 3.453126-11.964844zm0 0"/></svg>