<svg height="512pt" viewBox="-39 0 512 512.00003" width="512pt" xmlns="http://www.w3.org/2000/svg"><path d="m424.238281 53.320312c-11.582031-28.179687-31.445312-46.585937-55.929687-51.828124-24.488282-5.242188-50.140625 3.421874-72.242188 24.394531-21.085937 20.003906-36.570312 49.101562-43.597656 81.933593-1.632812 7.625-2.777344 15.402344-3.410156 23.125-.628906 7.722657-.75 15.449219-.351563 22.960938.703125 27.0625 6.03125 55.621094 15.402344 82.601562 2.386719 6.859376 4.242187 14.457032 5.507813 22.492188l.035156.234375c1.046875 6.691406 1.480468 13.546875 1.289062 20.367187-.320312 11.566407-2.40625 23.023438-6.199218 34.058594-7.640626 22.207032-14.460938 45.210938-20.273438 68.363282-9.019531 35.949218-9.605469 44.351562-11.34375 69.285156-.441406 6.351562-.941406 13.546875-1.679688 22.644531v.003906c-1.417968 17.550781 10.515626 33.574219 27.761719 37.265625 2.460938.523438 4.921875.777344 7.355469.777344 14.628906 0 28.171875-9.175781 33.21875-23.394531 3.054688-8.605469 5.542969-15.378907 7.738281-21.355469 8.628907-23.46875 11.535157-31.375 18.019531-67.875 4.078126-22.972656 7.222657-46.222656 9.339844-69.101562 1.148438-12.382813 4.011719-24.226563 8.515625-35.199219 0-.003907.003907-.003907.003907-.007813 2.59375-6.3125 5.71875-12.3125 9.285156-17.8125l.222656-.34375c4.484375-6.882812 9.289062-13.054687 14.277344-18.339844 19.59375-20.78125 36.144531-44.65625 47.863281-69.0625 3.4375-6.6875 6.488281-13.785156 9.074219-21.09375 2.589844-7.308593 4.726562-14.875 6.355468-22.496093 7.027344-32.828125 4.8125-65.714844-6.238281-92.597657zm-140.582031 266.84375c3.148438-9.15625 5.296875-18.570312 6.417969-28.105468l30.796875 6.59375c-2.976563 9.535156-4.953125 19.507812-5.90625 29.777344-1.753906 18.945312-4.226563 38.152343-7.371094 57.238281l-20.570312-4.402344-20.570313-4.40625c5.078125-19.203125 10.851563-38.230469 17.203125-56.695313zm5.09375 140.1875c-2.214844 6.023438-4.726562 12.851563-7.816406 21.5625-2.539063 7.15625-10.082032 11.339844-17.539063 9.75-7.460937-1.597656-12.625-8.519531-12.011719-16.097656.746094-9.210937 1.25-16.46875 1.695313-22.867187 1.519531-21.863281 2.082031-29.964844 8.476563-56.433594l21.285156 4.554687 21.28125 4.554688c-5.003906 26.773438-7.804688 34.398438-15.371094 54.976562zm108.449219-279.867187c-.042969.082031-.085938.164063-.125.25-10.84375 22.609375-26.210938 44.777344-44.441407 64.109375-5.804687 6.15625-11.347656 13.269531-16.488281 21.15625l-.238281.363281c-2.761719 4.261719-5.296875 8.757813-7.570312 13.433594l-37.433594-8.011719c-.1875-5.246094-.683594-10.464844-1.480469-15.585937l-.03125-.21875c-1.464844-9.296875-3.613281-18.058594-6.386719-26.039063-8.722656-25.101562-13.667968-51.621094-14.308594-76.6875 0-.089844-.003906-.183594-.011718-.277344-.15625-2.953124-.226563-5.949218-.199219-8.96875l26.652344 5.707032c5.410156 1.160156 10.714843-2.285156 11.871093-7.6875 1.15625-5.398438-2.285156-10.714844-7.683593-11.871094l-29.359375-6.28125c.546875-3.976562 1.222656-7.949219 2.0625-11.871094 6.191406-28.925781 19.617187-54.355468 37.804687-71.613281 17.171875-16.289063 36.453125-23.160156 54.292969-19.34375 17.839844 3.820313 32.617188 17.980469 41.617188 39.875 9.53125 23.1875 11.371093 51.886719 5.179687 80.808594-.839844 3.921875-1.847656 7.820312-2.976563 11.675781l-30.070312-6.4375c-5.398438-1.15625-10.714844 2.285156-11.871094 7.6875-1.15625 5.398438 2.285156 10.714844 7.683594 11.867188l27.371094 5.859374c-1.21875 2.765626-2.503906 5.46875-3.859375 8.101563zm0 0"/><path d="m345.570312 144.488281c-1.613281-3.9375-5.703124-6.457031-9.941406-6.148437-4.152344.300781-7.746094 3.222656-8.898437 7.222656-1.152344 4.003906.398437 8.449219 3.789062 10.867188 3.359375 2.398437 7.933594 2.476562 11.371094.1875 3.914063-2.609376 5.488281-7.785157 3.679687-12.128907zm0 0"/><path d="m203.058594 473.953125c-.734375-9.097656-1.234375-16.292969-1.679688-22.644531-1.734375-24.933594-2.320312-33.335938-11.34375-69.285156-5.8125-23.152344-12.632812-46.15625-20.273437-68.363282-3.792969-11.03125-5.878907-22.492187-6.199219-34.058594-.1875-6.820312.246094-13.675781 1.300781-20.417968l.011719-.09375c1.28125-8.125 3.136719-15.722656 5.523438-22.582032 9.371093-26.980468 14.699218-55.542968 15.402343-82.601562.394531-7.515625.277344-15.238281-.355469-22.960938v-.003906c-.628906-7.71875-1.773437-15.496094-3.40625-23.121094-7.027343-32.832031-22.511718-61.929687-43.597656-81.9375-22.101562-20.96875-47.753906-29.628906-72.242187-24.390624-24.488281 5.242187-44.347657 23.648437-55.933594 51.828124-11.046875 26.882813-13.261719 59.765626-6.234375 92.597657 1.628906 7.621093 3.765625 15.1875 6.351562 22.496093 2.589844 7.308594 5.640626 14.402344 9.078126 21.09375 11.71875 24.402344 28.269531 48.28125 47.863281 69.0625 4.988281 5.285157 9.792969 11.457032 14.269531 18.332032l.222656.339844c3.574219 5.511718 6.699219 11.511718 9.292969 17.824218 0 .003906 0 .003906.003906.007813 4.503907 10.972656 7.367188 22.816406 8.511719 35.199219 2.117188 22.878906 5.261719 46.128906 9.34375 69.101562 6.484375 36.5 9.390625 44.40625 18.015625 67.875 2.199219 5.976562 4.6875 12.75 7.742187 21.355469 5.042969 14.21875 18.589844 23.394531 33.21875 23.394531 2.433594 0 4.894532-.253906 7.351563-.777344 17.246094-3.691406 29.183594-19.714844 27.761719-37.269531zm-35.003906-97.089844-41.140626 8.804688c-3.144531-19.085938-5.617187-38.292969-7.371093-57.238281-.953125-10.269532-2.933594-20.242188-5.90625-29.777344l30.796875-6.589844c1.121094 9.53125 3.269531 18.945312 6.417968 28.101562 6.351563 18.464844 12.125 37.492188 17.203126 56.699219zm-130.625-196.128906c-.039063-.085937-.082032-.167969-.125-.25-1.351563-2.632813-2.640626-5.335937-3.851563-8.101563l27.367187-5.855468c5.398438-1.15625 8.839844-6.472656 7.683594-11.871094-1.152344-5.398438-6.46875-8.84375-11.867187-7.683594l-30.074219 6.433594c-1.128906-3.851562-2.136719-7.75-2.976562-11.671875-6.191407-28.925781-4.351563-57.625 5.179687-80.8125 9-21.894531 23.78125-36.054687 41.617187-39.871094 17.84375-3.816406 37.121094 3.050781 54.292969 19.34375 18.1875 17.253907 31.613281 42.6875 37.804688 71.609375.839843 3.925782 1.515625 7.894532 2.0625 11.871094l-29.355469 6.285156c-5.402344 1.152344-8.84375 6.46875-7.6875 11.871094 1.15625 5.398438 6.476562 8.847656 11.871094 7.683594l26.65625-5.703125c.019531 3.019531-.046875 6.011719-.203125 8.96875-.003907.089843-.007813.183593-.011719.277343-.640625 25.066407-5.585938 51.585938-14.308594 76.683594-2.773437 7.984375-4.921875 16.746094-6.398437 26.128906l-.011719.078126c-.804688 5.15625-1.300781 10.390624-1.488281 15.636718l-6.519531 1.398438-30.914063 6.617187c-2.273437-4.679687-4.8125-9.175781-7.578125-13.449219l-.234375-.359374c-5.136719-7.878907-10.679687-14.992188-16.484375-21.144532-18.230469-19.335937-33.601562-41.503906-44.445312-64.113281zm133.683593 310.929687c-7.460937 1.59375-15-2.59375-17.539062-9.75-3.089844-8.707031-5.601563-15.539062-7.816407-21.5625-7.5625-20.578124-10.367187-28.203124-15.371093-54.972656l21.285156-4.554687 21.28125-4.558594c6.394531 26.472656 6.957031 34.570313 8.476563 56.433594.445312 6.402343.953124 13.660156 1.695312 22.871093v-.003906c.613281 7.582032-4.550781 14.5-12.011719 16.097656zm0 0"/><path d="m101.988281 157.535156c3.847657-1.574218 6.382813-5.558594 6.164063-9.71875-.214844-4.128906-3.007813-7.742187-6.929688-9.023437-4.082031-1.332031-8.6875.21875-11.1875 3.691406-2.394531 3.332031-2.460937 7.960937-.1875 11.371094 2.613282 3.921875 7.792969 5.492187 12.140625 3.679687zm0 0"/></svg>