<svg height="511pt" viewBox="0 -17 511.99921 511" width="511pt" xmlns="http://www.w3.org/2000/svg"><path d="m509.621094 437.890625-193.101563-384.949219c-.789062-3.195312-2.382812-5.839844-4.78125-7.996094-10.617187-9.535156-28.988281-2.597656-61.433593 23.210938-5.691407 4.527344-11.644532 9.539062-17.78125 14.925781l-12.753907-27.332031c-2.335937-5.003906-8.289062-7.171875-13.292969-4.832031-5.003906 2.332031-7.167968 8.285156-4.832031 13.289062l15.375 32.949219c-14.722656 13.789062-30.191406 29.433594-45.695312 46.238281l-34.628907-28.152343c-4.285156-3.480469-10.582031-2.832032-14.066406 1.453124-3.484375 4.285157-2.835937 10.585938 1.449219 14.066407l33.804687 27.484375c-14.625 16.480468-28.257812 32.890625-40.359374 48.554687l-88.847657-30.640625c-5.21875-1.800781-10.914062.972656-12.710937 6.195313-1.804688 5.21875.96875 10.910156 6.191406 12.714843l82.75 28.535157c-6.75 9.289062-12.851562 18.199219-18.144531 26.539062-22.207031 35.011719-27.152344 54.019531-16.539063 63.554688 2.390625 2.152343 5.183594 3.449219 8.433594 3.898437l225.503906 84.433594h.003906l82.992188 31.074219 94.847656 35.511719c6.828125 2.554687 14.617188 1.589843 20.570313-2.632813 5.542969-3.933594 9.097656-10.332031 9.402343-17.132813.171876-3.78125-.660156-7.578124-2.355468-10.960937zm-123.808594-202.207031c-8.167969 7.226562-18.710938 11.273437-29.757812 11.273437-24.789063 0-44.957032-20.167969-44.957032-44.957031 0-21.507812 15.257813-39.730469 35.746094-44zm-277.867188 18.558594c4.992188-7.535157 10.632813-15.523438 16.773438-23.804688 5.582031 1.925781 11.148438 3.917969 16.753906 5.78125 5.769532 1.914062 12.089844-1.585938 13.1875-7.660156.941406-5.199219-2.3125-9.75-7.121094-11.410156-3.339843-1.148438-6.679687-2.300782-10.019531-3.453126 10.960938-13.933593 23.085938-28.402343 35.898438-42.820312 2.09375 1.699219 4.183593 3.402344 6.277343 5.101562 2.691407 2.191407 5.234376 4.714844 8.878907 5.0625 5.726562.542969 10.863281-4.042968 10.953125-9.792968.039062-2.558594-.917969-5.085938-2.664063-6.960938-.765625-.828125-1.703125-1.511718-2.574219-2.21875-2.472656-2.011718-4.945312-4.023437-7.417968-6.03125 13.167968-14.230468 26.371094-27.664062 39.066406-39.769531 1.199219 2.574219 2.515625 4.84375 5.128906 6.234375 3.34375 1.78125 7.515625 1.488281 10.582032-.738281 2.609374-1.898438 4.171874-5.035157 4.113281-8.257813-.039063-2.21875-.949219-4.089844-1.863281-6.042968-.851563-1.824219-1.699219-3.644532-2.550782-5.464844 5.246094-4.707032 10.363282-9.136719 15.285156-13.210938 22.21875-18.398437 34.15625-24.652344 39.765626-26.773437-1.929688 7.421875-5.660157 14.449219-9.339844 21.113281-5.402344 9.773438-11.492188 19.167969-17.824219 28.359375-13.277344 19.273437-27.765625 37.714844-42.816406 55.628906-15.636719 18.609375-31.960938 36.652344-48.9375 54.046875-15.132813 15.511719-30.78125 30.566406-47.285157 44.617188-8.152343 6.945312-16.519531 13.683594-25.324218 19.796875-5.367188 3.730469-10.933594 7.355469-16.90625 10.046875-.792969.355468-1.589844.695312-2.402344 1 1.519531-5.8125 6.464844-18.34375 22.382812-42.378906zm293.617188 162.902343-81.132812-30.378906c7.167968-14.699219 22.203124-24.378906 39.097656-24.378906 23.988281 0 43.503906 19.515625 43.503906 43.503906 0 3.851563-.492188 7.613281-1.46875 11.253906zm89.851562 32.15625c-1 1.109375-2.050781.714844-2.398437.585938l-68.660156-25.707031c1.777343-5.890626 2.675781-12.007813 2.675781-18.289063 0-35.015625-28.488281-63.503906-63.503906-63.503906-25.320313 0-47.773438 14.90625-57.882813 37.34375l-193.351562-72.394531c15.976562-9.960938 30.539062-22.285157 44.5625-34.789063 15.03125-13.402344 29.433593-27.507813 43.390625-42.015625 14.421875-14.984375 28.386718-30.410156 41.851562-46.261719 13.097656-15.414062 25.769532-31.203125 37.714844-47.53125 11.171875-15.269531 21.984375-31.011719 30.851562-47.757812.960938-1.820313 1.898438-3.65625 2.796876-5.507813l28.210937 56.246094c-27.011719 7.972656-46.574219 33.015625-46.574219 62.285156 0 35.816406 29.140625 64.957032 64.957032 64.957032 14.1875 0 27.796874-4.625 38.9375-12.980469l96.75 192.875c.164062.328125.667968 1.335937-.328126 2.445312zm0 0"/><path d="m67.042969 132.417969c1.902343 2.589843 4.910156 4.074219 8.054687 4.074219.578125 0 1.164063-.050782 1.75-.152344 3.75-.667969 6.792969-3.402344 7.855469-7.058594l9.929687-34.214844 33.816407-11.21875c3.613281-1.195312 6.234375-4.34375 6.757812-8.113281.523438-3.769531-1.136719-7.511719-4.285156-9.648437l-29.472656-20.019532-.214844-35.625c-.023437-3.808594-2.207031-7.273437-5.628906-8.9375-3.425781-1.664062-7.496094-1.238281-10.503907 1.09375l-28.144531 21.84375-33.953125-10.804687c-3.625-1.152344-7.59375-.144531-10.234375 2.59375-2.640625 2.742187-3.496093 6.746093-2.207031 10.328125l12.078125 33.519531-20.765625 28.949219c-2.21875 3.09375-2.488281 7.175781-.699219 10.535156 1.792969 3.355469 5.332031 5.382812 9.140625 5.289062l35.609375-1.128906zm-23.804688-74.175781-6.988281-19.398438 19.648438 6.253906c3.140624.996094 6.566406.390625 9.164062-1.628906l16.292969-12.644531.125 20.621093c.019531 3.289063 1.660156 6.363282 4.382812 8.210938l17.058594 11.589844-19.574219 6.492187c-3.125 1.035157-5.539062 3.542969-6.457031 6.703125l-5.746094 19.804688-12.226562-16.609375c-1.886719-2.566407-4.878907-4.074219-8.050781-4.074219-.105469 0-.210938.003906-.316407.003906l-20.613281.652344 12.019531-16.757812c1.917969-2.671876 2.398438-6.121094 1.28125-9.21875zm0 0"/><path d="m369.679688 85.128906 31.519531 16.609375 4.1875 35.378907c.445312 3.78125 3.003906 6.980468 6.589843 8.25 1.089844.390624 2.21875.574218 3.339844.574218 2.5625 0 5.074219-.984375 6.976563-2.832031l25.535156-24.84375 34.941406 6.949219c3.738281.746094 7.566407-.695313 9.882813-3.714844 2.320312-3.019531 2.722656-7.09375 1.042968-10.507812l-15.738281-31.964844 17.40625-31.085938c1.863281-3.320312 1.675781-7.410156-.480469-10.546875-2.15625-3.140625-5.90625-4.785156-9.671874-4.234375l-35.261719 5.089844-24.1875-26.164062c-2.582031-2.792969-6.527344-3.882813-10.179688-2.800782-3.648437 1.082032-6.371093 4.140625-7.015625 7.890625l-6.054687 35.109375-32.355469 14.914063c-3.457031 1.59375-5.710938 5.011719-5.8125 8.816406-.101562 3.808594 1.96875 7.339844 5.335938 9.113281zm45.976562-16.882812c2.988281-1.375 5.109375-4.136719 5.667969-7.382813l3.507812-20.320312 13.996094 15.144531c2.234375 2.417969 5.515625 3.578125 8.773437 3.109375l20.410157-2.945313-10.078125 17.992188c-1.605469 2.871094-1.699219 6.351562-.246094 9.304688l9.109375 18.5-20.226563-4.023438c-3.226562-.640625-6.566406.347656-8.921874 2.640625l-14.78125 14.382813-2.425782-20.480469c-.386718-3.269531-2.355468-6.136719-5.269531-7.671875l-18.246094-9.613282zm0 0"/><path d="m159.242188 390.160156-34.894532-7.207031-13.84375-32.828125c-1.476562-3.507812-4.820312-5.871094-8.621094-6.097656-3.800781-.234375-7.398437 1.726562-9.28125 5.03125l-17.636718 30.960937-35.5 3.019531c-3.792969.324219-7.070313 2.769532-8.460938 6.3125-1.386718 3.546876-.644531 7.570313 1.917969 10.386719l23.992187 26.339844-8.09375 34.691406c-.867187 3.710938.449219 7.585938 3.390626 10.003907 2.941406 2.414062 7 2.953124 10.46875 1.382812l32.460937-14.679688 30.496094 18.421876c1.59375.960937 3.382812 1.441406 5.171875 1.441406 1.875 0 3.746094-.527344 5.386718-1.578125 3.207032-2.050781 4.972657-5.742188 4.550782-9.527344l-3.925782-35.410156 26.941407-23.308594c2.878906-2.492187 4.09375-6.398437 3.136719-10.085937-.960938-3.683594-3.929688-6.5-7.65625-7.269532zm-39.488282 28.980469c-2.488281 2.152344-3.757812 5.394531-3.394531 8.664063l2.273437 20.496093-17.652343-10.660156c-1.582031-.957031-3.375-1.441406-5.171875-1.441406-1.398438 0-2.804688.292969-4.117188.890625l-18.792968 8.496094 4.6875-20.082032c.746093-3.207031-.128907-6.574218-2.347657-9.007812l-13.886719-15.246094 20.546876-1.75c3.28125-.277344 6.210937-2.152344 7.84375-5.015625l10.207031-17.917969 8.011719 19.003906c1.28125 3.03125 3.96875 5.242188 7.191406 5.90625l20.199218 4.171876zm0 0"/><path d="m184.367188 27.144531c1.609374 3.863281 5.542968 6.355469 9.726562 6.15625 4.117188-.195312 7.761719-3.007812 9.023438-6.921875 1.277343-3.964844-.105469-8.464844-3.429688-10.996094-3.375-2.574218-8.101562-2.71875-11.640625-.378906-3.925781 2.589844-5.484375 7.8125-3.679687 12.140625zm0 0"/><path d="m235.761719 251.59375c-19.777344 0-35.867188 16.089844-35.867188 35.867188 0 19.777343 16.089844 35.863281 35.867188 35.863281 19.773437 0 35.863281-16.085938 35.863281-35.863281 0-19.777344-16.085938-35.867188-35.863281-35.867188zm0 51.734375c-8.75 0-15.863281-7.117187-15.863281-15.867187 0-8.746094 7.117187-15.863282 15.863281-15.863282 8.746093 0 15.863281 7.117188 15.863281 15.863282 0 8.75-7.117188 15.867187-15.863281 15.867187zm0 0"/></svg>