<svg height="512pt" viewBox="-15 0 512 512.00199" width="512pt" xmlns="http://www.w3.org/2000/svg"><path d="m241.03125 100.0625 42.328125 12.40625c.941406.273438 1.886719.40625 2.820313.40625 4.324218 0 8.3125-2.832031 9.589843-7.191406 1.554688-5.300782-1.484375-10.855469-6.785156-12.410156l-42.328125-12.40625c-5.300781-1.542969-10.855469 1.484374-12.410156 6.785156-1.554688 5.300781 1.484375 10.855468 6.785156 12.410156zm0 0"/><path d="m474.304688 147.589844-42.332032-12.40625c-5.292968-1.550782-10.855468 1.480468-12.40625 6.78125-1.554687 5.300781 1.484375 10.855468 6.78125 12.410156l42.332032 12.40625c.9375.273438 1.886718.40625 2.816406.40625 4.324218 0 8.3125-2.828125 9.59375-7.191406 1.550781-5.296875-1.484375-10.851563-6.785156-12.40625zm0 0"/><path d="m423.046875 98.089844c1.621094 0 3.265625-.398438 4.789063-1.230469l38.703124-21.15625c4.847657-2.648437 6.628907-8.726563 3.980469-13.570313-2.648437-4.847656-8.726562-6.628906-13.570312-3.980468l-38.707031 21.160156c-4.84375 2.648438-6.625 8.726562-3.976563 13.570312 1.816406 3.324219 5.242187 5.207032 8.78125 5.207032zm0 0"/><path d="m287.5 150.789062-38.703125 21.160157c-4.847656 2.648437-6.628906 8.722656-3.980469 13.570312 1.816406 3.320313 5.246094 5.203125 8.785156 5.203125 1.621094 0 3.265626-.394531 4.785157-1.226562l38.707031-21.160156c4.84375-2.648438 6.625-8.726563 3.976562-13.570313-2.648437-4.847656-8.726562-6.625-13.570312-3.976563zm0 0"/><path d="m423.339844 223.101562-21.160156-38.703124c-2.648438-4.847657-8.726563-6.625-13.570313-3.976563-4.847656 2.648437-6.628906 8.726563-3.980469 13.570313l21.160156 38.703124c1.816407 3.324219 5.246094 5.207032 8.78125 5.207032 1.621094 0 3.265626-.398438 4.789063-1.230469 4.847656-2.648437 6.628906-8.722656 3.980469-13.570313zm0 0"/><path d="m313.15625 63.25c1.816406 3.324219 5.246094 5.207031 8.78125 5.207031 1.621094 0 3.265625-.398437 4.789062-1.230469 4.847657-2.648437 6.628907-8.722656 3.976563-13.570312l-21.15625-38.703125c-2.648437-4.847656-8.726563-6.625-13.570313-3.976563-4.847656 2.648438-6.628906 8.722657-3.980468 13.570313zm0 0"/><path d="m375.808594 61.925781c.941406.277344 1.886718.40625 2.816406.40625 4.324219 0 8.3125-2.828125 9.59375-7.1875l12.40625-42.332031c1.550781-5.300781-1.484375-10.855469-6.785156-12.410156-5.300782-1.546875-10.855469 1.484375-12.410156 6.785156l-12.40625 42.332031c-1.550782 5.300781 1.484374 10.855469 6.785156 12.40625zm0 0"/><path d="m442.996094 259.195312c-1.53125-3.742187-5.320313-6.203124-9.347656-6.171874-4.207032.035156-7.992188 2.816406-9.351563 6.78125-1.332031 3.882812-.054687 8.332031 3.117187 10.9375 3.355469 2.757812 8.277344 3.007812 11.894532.589843 3.90625-2.613281 5.503906-7.785156 3.6875-12.136719zm0 0"/><path d="m384.53125 145.863281 6.988281-23.839843c0-.007813 0-.015626.003907-.023438l.0625-.207031c4.921874-16.792969-4.738282-34.460938-21.53125-39.382813l-.457032-.136718c-8.136718-2.382813-16.714844-1.457032-24.152344 2.609374-7.4375 4.066407-12.847656 10.789063-15.230468 18.921876l-.058594.203124c-.003906.007813-.007812.019532-.007812.027344l-6.988282 23.84375c-.003906.003906-.003906.007813-.003906.015625l-40.40625 137.851563c-3.964844 13.523437 1.53125 27.609375 12.597656 35.15625l-50.84375 173.472656c-1.550781 5.300781 1.484375 10.855469 6.785156 12.410156.9375.273438 1.886719.40625 2.816407.40625 4.324219 0 8.3125-2.828125 9.589843-7.191406l50.847657-173.488281c13.382812-.382813 25.617187-9.253907 29.578125-22.777344l40.40625-137.867187s0 0 .003906-.003907zm-35.191406-36.210937c.902344-3.066406 2.941406-5.597656 5.746094-7.132813 2.808593-1.535156 6.042968-1.882812 9.113281-.984375 3.070312.898438 5.605469 2.941406 7.140625 5.75 1.53125 2.800782 1.882812 6.035156.988281 9.101563l-4.179687 14.257812-22.984376-6.738281zm-24.410156 168.457031c-1.820313 6.210937-8.359376 9.785156-14.585938 7.957031l-.207031-.058594c-.003907 0-.003907 0-.003907-.003906l-.226562-.0625c-6.210938-1.820312-9.785156-8.355468-7.964844-14.570312l37.597656-128.273438 22.984376 6.738282zm0 0"/><path d="m185.726562 149.023438c1.277344 4.363281 5.265626 7.191406 9.589844 7.191406.933594 0 1.878906-.132813 2.816406-.40625l42.332032-12.40625c5.300781-1.554688 8.335937-7.109375 6.785156-12.410156-1.554688-5.300782-7.113281-8.335938-12.410156-6.78125l-42.332032 12.40625c-5.296874 1.550781-8.335937 7.109374-6.78125 12.40625zm0 0"/><path d="m61.929688 185.308594c-1.554688-5.304688-7.113282-8.335938-12.40625-6.785156l-42.332032 12.40625c-5.300781 1.554687-8.335937 7.109374-6.785156 12.410156 1.277344 4.359375 5.269531 7.191406 9.59375 7.191406.929688 0 1.878906-.132812 2.816406-.40625l42.332032-12.410156c5.296874-1.550782 8.335937-7.105469 6.78125-12.40625zm0 0"/><path d="m14.957031 119.042969 38.703125 21.160156c1.523438.832031 3.167969 1.230469 4.789063 1.230469 3.539062 0 6.964843-1.882813 8.78125-5.207032 2.648437-4.84375.871093-10.921874-3.976563-13.570312l-38.703125-21.160156c-4.847656-2.648438-10.921875-.867188-13.574219 3.976562-2.648437 4.847656-.867187 10.921875 3.980469 13.570313zm0 0"/><path d="m193.996094 194.128906c-4.84375-2.652344-10.921875-.867187-13.570313 3.976563-2.648437 4.847656-.867187 10.921875 3.976563 13.570312l38.707031 21.160157c1.519531.835937 3.164063 1.230468 4.785156 1.230468 3.539063 0 6.96875-1.882812 8.785157-5.207031 2.648437-4.84375.867187-10.921875-3.976563-13.570313zm0 0"/><path d="m92.886719 223.761719c-4.847657-2.648438-10.921875-.867188-13.570313 3.976562l-21.160156 38.707031c-2.648438 4.84375-.867188 10.921876 3.980469 13.570313 1.523437.832031 3.164062 1.226563 4.785156 1.226563 3.539063 0 6.96875-1.878907 8.785156-5.203126l21.160157-38.703124c2.648437-4.847657.867187-10.921876-3.980469-13.574219zm0 0"/><path d="m154.769531 110.570312c1.523438.832032 3.167969 1.226563 4.789063 1.226563 3.535156 0 6.964844-1.878906 8.78125-5.203125l21.160156-38.707031c2.648438-4.84375.867188-10.921875-3.980469-13.570313-4.847656-2.648437-10.921875-.867187-13.570312 3.980469l-21.15625 38.703125c-2.652344 4.84375-.867188 10.921875 3.976562 13.570312zm0 0"/><path d="m93.277344 98.484375c1.277344 4.359375 5.265625 7.191406 9.59375 7.191406.929687 0 1.878906-.132812 2.816406-.40625 5.296875-1.554687 8.335938-7.109375 6.78125-12.410156l-12.40625-42.328125c-1.550781-5.300781-7.113281-8.335938-12.40625-6.785156-5.300781 1.554687-8.335938 7.109375-6.785156 12.410156zm0 0"/><path d="m186.148438 344.246094c11.0625-7.542969 16.5625-21.628906 12.597656-35.15625l-47.460938-161.941406c-2.386718-8.136719-7.796875-14.855469-15.234375-18.921876-7.4375-4.066406-16.015625-4.992187-24.15625-2.609374l-.207031.0625c-.007812.003906-.011719.003906-.015625.003906-.003906.003906-.011719.003906-.015625.007812l-.214844.0625c-16.792968 4.921875-26.453125 22.589844-21.53125 39.382813l.0625.207031c0 .007812.003906.015625.003906.023438l6.988282 23.84375s0 .003906.003906.003906l40.40625 137.863281c2.382812 8.136719 7.792969 14.855469 15.230469 18.925781 4.488281 2.449219 9.382812 3.746094 14.351562 3.875l45.410157 154.933594c1.277343 4.359375 5.265624 7.191406 9.589843 7.191406.933594 0 1.878907-.132812 2.816407-.40625 5.300781-1.554687 8.335937-7.109375 6.785156-12.410156zm-76.980469-184.519532c-1.851563-6.332031 1.792969-12.988281 8.121093-14.847656l.011719-.003906c6.332031-1.851562 13 1.789062 14.855469 8.125l4.175781 14.246094-22.984375 6.738281zm47.398437 161.726563-37.59375-128.277344 22.988282-6.734375 37.59375 128.273438c1.820312 6.210937-1.75 12.746094-7.96875 14.566406l-.449219.132812c-3.007813.882813-6.183594.539063-8.9375-.964843-2.75-1.503907-4.75-3.988281-5.632813-6.996094zm0 0"/><path d="m34.070312 42.925781c1.574219 3.851563 5.558594 6.378907 9.71875 6.164063 4.136719-.214844 7.734376-3.007813 9.023438-6.929688 1.304688-3.964844-.117188-8.457031-3.425781-10.992187-3.367188-2.574219-8.109375-2.730469-11.636719-.382813-3.917969 2.605469-5.488281 7.800782-3.679688 12.140625zm0 0"/><path d="m432.644531 39.476562c3.496094 2.328126 8.128907 2.195313 11.503907-.285156 3.367187-2.46875 4.8125-6.949218 3.605468-10.925781-1.207031-3.988281-4.867187-6.855469-9.027344-7.082031-4.292968-.234375-8.382812 2.433594-9.890624 6.457031-1.601563 4.269531-.027344 9.324219 3.808593 11.835937zm0 0"/><path d="m245.96875 305.152344c2.351562-3.527344 2.191406-8.269532-.386719-11.636719-2.421875-3.160156-6.671875-4.609375-10.519531-3.574219-4.042969 1.089844-7.019531 4.675782-7.378906 8.839844-.359375 4.167969 2.054687 8.199219 5.847656 9.921875 4.40625 2 9.738281.457031 12.4375-3.550781zm0 0"/><path d="m19.238281 291.773438c-1.632812-3.921876-5.703125-6.445313-9.945312-6.136719-4.148438.300781-7.757813 3.222656-8.898438 7.222656-1.140625 4.007813.378907 8.449219 3.789063 10.871094 3.371094 2.394531 7.917968 2.460937 11.367187.183593 3.941407-2.609374 5.472657-7.785156 3.6875-12.140624zm0 0"/></svg>