<svg height="512pt" viewBox="0 -23 512 512" width="512pt" xmlns="http://www.w3.org/2000/svg"><path d="m505.476562 42.082031-111.898437-41.46875c-3.003906-1.113281-6.601563-.7031248-9.214844 1.191407l-99.761719 69.953124-10.195312 2.785157h-36.386719l-10.894531-2.976563-99.347656-69.667968c-2.671875-1.9375005-6.257813-2.441407-9.355469-1.285157l-111.898437 41.46875c-3.917969 1.453125-6.523438 5.195313-6.523438 9.375v404.8125c0 5.523438 4.476562 10 10 10h492c5.523438 0 10-4.476562 10-10v-404.8125c0-4.179687-2.601562-7.921875-6.523438-9.375zm-163.824218 14.097657 38.449218-26.960938v8.566406 19.546875 20.9375 13.007813c0 9.980468-.222656 19.957031-.675781 29.925781-.074219 1.644531-.15625 3.289063-.246093 4.933594-3.136719 57.242187-13.941407 106.628906-27.488282 147.699219-.242187.730468-.476562 1.472656-.722656 2.199218-.226562.683594-.460938 1.34375-.6875 2.019532-26.0625 76.457031-62.964844 127.421874-84.28125 152.542968v-296.988281h8.40625l84.78125 23.148437c4.335938 1.1875 9.078125-.777343 11.308594-4.675781.957031-1.667969 1.320312-3.507812 1.324218-5.410156.003907-2.257813 0-4.515625 0-6.773437 0-9.75 0-19.5 0-29.25 0-11.042969 0-22.082032 0-33.125 0-5.484376.078126-10.976563 0-16.460938-.066406-4.375-2.84375-8.261719-7.058593-9.570312-2.585938-.804688-4.980469-.261719-7.476563.417968-4.824218 1.316406-9.648437 2.636719-14.476562 3.953125-.382813.105469-.769532.210938-1.15625.316407zm-114.972656 36v23.792968l-66.070313 18.042969v-59.878906zm125.140624-18.042969v59.878906l-66.074218-18.042969v-23.796875zm-86.074218 39.472656h-19.066406v-19.066406h19.066406zm-245.746094-55.191406 91.894531-34.058594v67.875c0 39.738281 3.621094 78.859375 10.761719 116.269531 1.035156 5.425782 6.265625 8.984375 11.699219 7.949219 5.425781-1.035156 8.984375-6.273437 7.945312-11.695313-6.902343-36.183593-10.40625-74.039062-10.40625-112.523437v-63.015625l38.179688 26.769531c-4.191407-1.144531-8.386719-2.289062-12.582031-3.433593-1.417969-.390626-2.828126-.796876-4.25-1.164063-4.800782-1.230469-9.90625 1.15625-11.851563 5.765625-.945313 2.25-.785156 4.636719-.785156 7.011719v10.394531 32.109375 30.734375 8.351562c0 .445313-.003907.894532 0 1.34375.058593 4.121094 2.558593 7.871094 6.441406 9.351563 1.964844.746094 4.164063.859375 6.195313.304687l84.777343-23.148437h7.980469v297.019531c-6.605469-7.769531-14.699219-18.003906-23.496094-30.699218-.257812-.371094-.542968-.710938-.839844-1.035157-19.050781-27.710937-41.304687-66.851562-58.839843-117.269531-1.8125-5.214844-7.511719-7.976562-12.730469-6.15625-5.214844 1.8125-7.972656 7.511719-6.160156 12.726562 27.953125 80.355469 66.953125 132.878907 88.832031 158.074219h-212.765625zm472 387.851562h-212.808594c6.386719-7.371093 12.460938-15.011719 18.273438-22.84375 7.722656-10.410156 14.980468-21.167969 21.796875-32.191406 7.878906-12.738281 15.171875-25.835937 21.886719-39.222656 6.566406-13.09375 12.574218-26.464844 18.027343-40.058594 5.542969-13.816406 10.511719-27.863281 14.90625-42.089844 4.515625-14.597656 8.421875-29.382812 11.726563-44.300781 3.394531-15.320312 6.175781-30.785156 8.328125-46.332031 2.183593-15.773438 3.753906-31.636719 4.765625-47.527344 1.023437-16.007813 1.199218-32.03125 1.199218-48.066406 0-15.925781 0-31.855469 0-47.78125 0-3.832031 0-7.664063 0-11.496094l91.898438 34.058594zm0 0"/><path d="m298.460938 198.152344c-1.613282-3.9375-5.707032-6.457032-9.949219-6.148438-4.152344.300782-7.738281 3.230469-8.886719 7.222656-1.148438 4.007813.386719 8.445313 3.78125 10.871094 3.355469 2.394532 7.941406 2.46875 11.375.183594 3.914062-2.609375 5.488281-7.785156 3.679688-12.128906zm0 0"/><path d="m298.460938 306.761719c-1.636719-3.929688-5.695313-6.457031-9.949219-6.148438-4.152344.300781-7.738281 3.238281-8.890625 7.230469-1.152344 3.996094.394531 8.460938 3.785156 10.871094 3.371094 2.394531 7.929688 2.464844 11.375.1875 3.941406-2.605469 5.460938-7.796875 3.679688-12.140625zm0 0"/><path d="m410.136719 217.320312c.960937 0 1.9375-.136718 2.902343-.429687l65.117188-19.734375c5.285156-1.601562 8.273438-7.183594 6.671875-12.46875-1.601563-5.289062-7.1875-8.273438-12.472656-6.671875l-65.117188 19.734375c-5.285156 1.601562-8.269531 7.183594-6.671875 12.46875 1.3125 4.320312 5.277344 7.101562 9.570313 7.101562zm0 0"/><path d="m146.390625 256.820312c3.902344-1.597656 6.445313-5.671874 6.15625-9.886718-.28125-4.117188-3.128906-7.710938-7.078125-8.914063-4.019531-1.222656-8.417969.269531-10.929688 3.613281-2.503906 3.332032-2.597656 8.054688-.289062 11.507813 2.613281 3.910156 7.796875 5.492187 12.140625 3.679687zm0 0"/></svg>