<svg height="512pt" viewBox="0 -2 512.0005 512" width="512pt" xmlns="http://www.w3.org/2000/svg"><path d="m509.070312 2.929688c-3.90625-3.90625-10.234374-3.90625-14.140624 0l-67.484376 67.480468c-47.222656-44.484375-108.625-68.898437-173.785156-68.898437-67.753906 0-131.453125 26.386719-179.363281 74.296875s-74.296875 111.609375-74.296875 179.363281c0 67.757813 26.386719 131.457031 74.296875 179.367187 47.910156 47.910157 111.609375 74.296876 179.363281 74.296876s131.457032-26.386719 179.367188-74.296876c47.910156-47.910156 74.292968-111.609374 74.292968-179.367187 0-63.660156-23.292968-123.734375-65.847656-170.503906l67.597656-67.597657c3.90625-3.90625 3.90625-10.238281 0-14.140624zm-21.746093 252.242187c0 62.414063-24.304688 121.09375-68.4375 165.226563-44.132813 44.132812-102.8125 68.4375-165.226563 68.4375-62.414062 0-121.089844-24.304688-165.222656-68.4375-44.132812-44.132813-68.4375-102.8125-68.4375-165.226563 0-62.410156 24.304688-121.089844 68.4375-165.222656 44.132812-44.132813 102.808594-68.4375 165.222656-68.4375 59.820313 0 116.195313 22.339843 159.636719 63.050781l-50.105469 50.101562-8.449218-8.445312c-1.875-1.875-4.417969-2.929688-7.070313-2.929688s-5.195313 1.054688-7.070313 2.929688l-32.460937 32.460938c-16.207031-9.160157-34.929687-14.226563-53.5625-14.230469-19.078125-.003907-37.972656 4.605469-54.6875 13.890625-8.988281 4.992187-17.296875 11.214844-24.574219 18.488281-20.925781 20.925781-32.449218 48.75-32.449218 78.34375 0 29.597656 11.523437 57.417969 32.449218 78.347656 20.929688 20.925781 48.75 32.449219 78.347656 32.449219 29.59375 0 57.414063-11.523438 78.34375-32.449219 12.980469-12.984375 22.546876-29.082031 27.871094-46.640625 5.292969-17.464844 6.113282-36.417968 2.308594-54.269531-2.054688-9.640625-5.324219-19.015625-9.820312-27.792969l33.414062-33.417968c2.199219-2.195313 3.160156-5.160157 2.882812-8.03125-.027343-.316407-.074218-.636719-.136718-.949219-.179688-.945313-.5-1.871094-.960938-2.742188-.457031-.871093-1.050781-1.6875-1.785156-2.421875l-8.445312-8.449218 49.976562-49.976563c38.785156 42.976563 60.011719 98.027344 60.011719 156.34375zm-206.992188-63.515625c.226563 2.285156 1.253907 4.46875 2.878907 6.09375l8.449218 8.445312-9.589844 9.59375c-3.90625 3.902344-3.90625 10.234376 0 14.140626 1.953126 1.953124 4.511719 2.929687 7.070313 2.929687s5.117187-.976563 7.070313-2.929687l9.589843-9.589844 8.449219 8.449218c3.851562 3.851563 10.292969 3.847657 14.144531 0l8.921875-8.921874c5.496094 12.953124 7.914063 27.128906 7.015625 41.179687-.894531 13.933594-5.089843 27.667969-12.128906 39.726563-3.957031 6.773437-8.792969 13.054687-14.339844 18.601562-17.148437 17.148438-39.949219 26.59375-64.203125 26.59375-6.0625 0-12.03125-.589844-17.851562-1.742188-17.445313-3.460937-33.488282-11.988281-46.347656-24.851562-22.128907-22.125-30.425782-52.921875-24.894532-81.550781 3.320313-17.179688 11.617188-33.574219 24.890625-46.851563 17.523438-17.519531 40.84375-26.558594 64.316407-26.558594 13.65625 0 27.265624 3.109376 39.546874 9.082032l-10.109374 10.113281c-2.097657 2.097656-3.167969 5.09375-2.878907 8.046875zm52.554688 4.355469-11.566407 11.5625-8.445312-8.445313v-.003906h-.003906l-8.445313-8.449219 43.246094-43.246093 8.445313 8.445312s0 0 .003906.003906c0 0 .003906.003906.003906.003906l8.445312 8.445313zm0 0"/><path d="m230.730469 232.242188c-6.125 6.125-9.5 14.269531-9.5 22.929687 0 8.664063 3.375 16.808594 9.5 22.933594 6.320312 6.320312 14.625 9.484375 22.929687 9.484375 8.304688 0 16.609375-3.164063 22.933594-9.484375 6.125-6.125 9.496094-14.269531 9.496094-22.933594 0-8.660156-3.371094-16.804687-9.496094-22.929687-12.644531-12.644532-33.21875-12.644532-45.863281 0zm31.71875 31.71875c-4.84375 4.847656-12.730469 4.847656-17.578125 0-2.347656-2.347657-3.640625-5.46875-3.640625-8.789063s1.292969-6.441406 3.640625-8.789063c2.425781-2.421874 5.605468-3.632812 8.789062-3.632812s6.367188 1.210938 8.789063 3.632812c2.351562 2.347657 3.644531 5.46875 3.644531 8.789063s-1.292969 6.441406-3.644531 8.789063zm0 0"/><path d="m298.503906 437.867188c-5.367187 1.308593-8.660156 6.71875-7.355468 12.082031 1.113281 4.570312 5.203124 7.636719 9.710937 7.636719.78125 0 1.578125-.089844 2.371094-.285157 36.761719-8.945312 70.488281-27.972656 97.539062-55.019531 39.292969-39.292969 60.933594-91.539062 60.929688-147.105469 0-5.523437-4.476563-10-10-10-5.519531 0-10 4.476563-10 10 0 50.226563-19.558594 97.445313-55.074219 132.964844-24.453125 24.453125-54.925781 41.648437-88.121094 49.726563zm0 0"/><path d="m253.660156 116.316406c5.523438 0 10-4.476562 10-10 0-5.519531-4.476562-10-10-10-42.429687 0-82.320312 16.523438-112.324218 46.527344-30.003907 30.003906-46.527344 69.898438-46.527344 112.328125 0 5.523437 4.476562 10 10 10 5.519531 0 10-4.476563 10-10 0-37.089844 14.441406-71.957031 40.667968-98.183594 26.226563-26.226562 61.09375-40.671875 98.183594-40.671875zm0 0"/><path d="m253.660156 414.027344c42.433594 0 82.324219-16.523438 112.328125-46.527344 30.003907-30.003906 46.527344-69.894531 46.527344-112.328125 0-5.519531-4.476563-10-10-10s-10 4.480469-10 10c0 37.089844-14.441406 71.960937-40.667969 98.1875-26.226562 26.226563-61.097656 40.667969-98.1875 40.667969-5.523437 0-10 4.480468-10 10 0 5.523437 4.476563 10 10 10zm0 0"/><path d="m263 449.390625c-1.636719-3.992187-5.832031-6.519531-10.128906-6.132813-4.175782.378907-7.738282 3.414063-8.792969 7.464844-1.027344 3.972656.574219 8.316406 3.9375 10.667969 3.285156 2.296875 7.714844 2.402344 11.105469.261719 4.050781-2.554688 5.722656-7.839844 3.878906-12.261719zm0 0"/><path d="m208.992188 72.167969c5.363281-1.308594 8.65625-6.714844 7.351562-12.082031-1.308594-5.367188-6.714844-8.664063-12.082031-7.351563-36.765625 8.949219-70.492188 27.976563-97.539063 55.019531-39.292968 39.296875-60.933594 91.539063-60.933594 147.109375 0 5.523438 4.480469 10 10 10 5.523438 0 10-4.476562 10-10 0-50.226562 19.5625-97.449219 55.078126-132.964843 24.453124-24.453126 54.925781-41.648438 88.125-49.730469zm0 0"/><path d="m244.488281 60.640625c1.601563 3.902344 5.667969 6.433594 9.871094 6.160156 4.128906-.265625 7.722656-3.128906 8.929687-7.078125 1.222657-4-.265624-8.507812-3.65625-10.964844-3.277343-2.378906-7.730468-2.539062-11.179687-.429687-4.113281 2.519531-5.8125 7.875-3.964844 12.3125zm0 0"/></svg>