<svg height="512pt" viewBox="-84 0 512 512" width="512pt" xmlns="http://www.w3.org/2000/svg"><path d="m320.96875 5.570312c-1.683594-3.410156-5.160156-5.570312-8.964844-5.570312h-280.230468c-3.804688 0-7.28125 2.160156-8.964844 5.570312-14.921875 30.210938-22.808594 64.703126-22.808594 99.753907 0 8.042969.421875 16.199219 1.253906 24.238281 9.988282 96.441406 78.179688 170.070312 160.636719 175.613281v186.824219h-71.714844c-5.523437 0-10 4.476562-10 10s4.476563 10 10 10h163.429688c5.523437 0 10-4.476562 10-10s-4.476563-10-10-10h-71.714844v-186.824219c82.457031-5.542969 150.644531-79.171875 160.632813-175.613281.832031-8.039062 1.253906-16.191406 1.253906-24.238281 0-35.050781-7.886719-69.542969-22.808594-99.753907zm-282.867188 14.429688h267.574219c11.859375 26.109375 18.101563 55.472656 18.101563 85.324219 0 4.378906-.136719 8.796875-.410156 13.207031h-25.078126c.300782-4.367188.457032-8.769531.457032-13.207031 0-18.214844-2.589844-36.101563-7.699219-53.164063-1.582031-5.289062-7.160156-8.292968-12.449219-6.710937-5.289062 1.585937-8.292968 7.160156-6.710937 12.449219 4.554687 15.199218 6.859375 31.15625 6.859375 47.425781 0 4.441406-.171875 8.847656-.507813 13.207031h-257.828125c-.273437-4.410156-.410156-8.828125-.410156-13.207031 0-29.851563 6.242188-59.214844 18.101562-85.324219zm133.789063 265.523438c-73.449219 0-136.046875-62.449219-149.308594-146.992188h252.90625c-4.984375 24.851562-15.578125 47.460938-31.03125 65.617188-9.667969 11.355468-22.082031 21.164062-34.953125 27.617187-4.941406 2.472656-6.9375 8.480469-4.460937 13.417969 1.753906 3.5 5.28125 5.523437 8.949219 5.523437 1.503906 0 3.035156-.34375 4.472656-1.0625 15.21875-7.628906 29.855468-19.179687 41.222656-32.535156 18.484375-21.714844 30.863281-48.871094 36.148438-78.578125h25.359374c-13.261718 84.542969-75.859374 146.992188-149.304687 146.992188zm0 0"/><path d="m181.078125 246.675781c-1.636719-3.996093-5.828125-6.527343-10.125-6.136719-4.136719.375-7.683594 3.363282-8.765625 7.367188-1.066406 3.960938.492188 8.335938 3.839844 10.710938 3.425781 2.433593 8.042968 2.472656 11.507812.09375 3.828125-2.625 5.328125-7.753907 3.542969-12.035157zm0 0"/></svg>