<?xml version="1.0" encoding="UTF-8" standalone="no"?>
<!DOCTYPE svg PUBLIC "-//W3C//DTD SVG 1.1//EN"
 "http://www.w3.org/Graphics/SVG/1.1/DTD/svg11.dtd">
<!-- Generated by graphviz version 2.40.1 (20161225.0304)
 -->
<!-- Title: dependencies Pages: 1 -->
<svg width="698pt" height="284pt"
 viewBox="0.00 0.00 698.00 284.00" xmlns="http://www.w3.org/2000/svg" xmlns:xlink="http://www.w3.org/1999/xlink">
<g id="graph0" class="graph" transform="scale(1 1) rotate(0) translate(4 280)">
<title>dependencies</title>
<polygon fill="#ffffff" stroke="transparent" points="-4,4 -4,-280 694,-280 694,4 -4,4"/>
<text text-anchor="start" x="324.0091" y="-42.4" font-family="sans-serif" font-weight="bold" font-size="14.00" fill="#000000">Legend</text>
<polygon fill="#ffffb3" stroke="transparent" points="111,-10 111,-30 131,-30 131,-10 111,-10"/>
<text text-anchor="start" x="134.629" y="-15.4" font-family="sans-serif" font-size="14.00" fill="#000000"> &#160;Declarations</text>
<polygon fill="#8dd3c7" stroke="transparent" points="224,-10 224,-30 244,-30 244,-10 224,-10"/>
<text text-anchor="start" x="247.7251" y="-15.4" font-family="sans-serif" font-size="14.00" fill="#000000"> &#160;Module</text>
<polygon fill="#80b1d3" stroke="transparent" points="310,-10 310,-30 330,-30 330,-10 310,-10"/>
<text text-anchor="start" x="333.7812" y="-15.4" font-family="sans-serif" font-size="14.00" fill="#000000"> &#160;Bootstrap</text>
<polygon fill="#fdb462" stroke="transparent" points="407,-10 407,-30 427,-30 427,-10 407,-10"/>
<text text-anchor="start" x="430.6732" y="-15.4" font-family="sans-serif" font-size="14.00" fill="#000000"> &#160;Providers</text>
<polygon fill="#fb8072" stroke="transparent" points="503,-10 503,-30 523,-30 523,-10 503,-10"/>
<text text-anchor="start" x="526.7258" y="-15.4" font-family="sans-serif" font-size="14.00" fill="#000000"> &#160;Exports</text>
<g id="clust1" class="cluster">
<title>cluster_GraphQLModule</title>
<polygon fill="none" stroke="#000000" stroke-dasharray="1,5" points="8,-70 8,-268 682,-268 682,-70 8,-70"/>
</g>
<g id="clust4" class="cluster">
<title>cluster_GraphQLModule_exports</title>
<polygon fill="none" stroke="#000000" points="154,-208 154,-260 544,-260 544,-208 154,-208"/>
</g>
<g id="clust6" class="cluster">
<title>cluster_GraphQLModule_providers</title>
<polygon fill="none" stroke="#000000" points="16,-78 16,-130 674,-130 674,-78 16,-78"/>
</g>
<!-- HttpClientModule  -->
<g id="node1" class="node">
<title>HttpClientModule </title>
<polygon fill="#fb8072" stroke="#000000" points="536.1607,-252 413.8393,-252 413.8393,-216 536.1607,-216 536.1607,-252"/>
<text text-anchor="middle" x="475" y="-229.8" font-family="Times,serif" font-size="14.00" fill="#000000">HttpClientModule </text>
</g>
<!-- ApolloModule  -->
<g id="node2" class="node">
<title>ApolloModule </title>
<polygon fill="#fb8072" stroke="#000000" points="395.9376,-252 294.0624,-252 294.0624,-216 395.9376,-216 395.9376,-252"/>
<text text-anchor="middle" x="345" y="-229.8" font-family="Times,serif" font-size="14.00" fill="#000000">ApolloModule </text>
</g>
<!-- HttpLinkModule  -->
<g id="node3" class="node">
<title>HttpLinkModule </title>
<polygon fill="#fb8072" stroke="#000000" points="276.3814,-252 161.6186,-252 161.6186,-216 276.3814,-216 276.3814,-252"/>
<text text-anchor="middle" x="219" y="-229.8" font-family="Times,serif" font-size="14.00" fill="#000000">HttpLinkModule </text>
</g>
<!-- GraphQLModule -->
<g id="node4" class="node">
<title>GraphQLModule</title>
<polygon fill="#8dd3c7" stroke="#000000" points="401.691,-187 398.691,-191 377.691,-191 374.691,-187 288.309,-187 288.309,-151 401.691,-151 401.691,-187"/>
<text text-anchor="middle" x="345" y="-164.8" font-family="Times,serif" font-size="14.00" fill="#000000">GraphQLModule</text>
</g>
<!-- GraphQLModule&#45;&gt;HttpClientModule  -->
<g id="edge1" class="edge">
<title>GraphQLModule&#45;&gt;HttpClientModule </title>
<path fill="none" stroke="#000000" stroke-dasharray="5,2" d="M401.6417,-169C436.674,-169 475,-169 475,-169 475,-169 475,-205.8939 475,-205.8939"/>
<polygon fill="#000000" stroke="#000000" points="471.5001,-205.8938 475,-215.8939 478.5001,-205.8939 471.5001,-205.8938"/>
</g>
<!-- GraphQLModule&#45;&gt;ApolloModule  -->
<g id="edge2" class="edge">
<title>GraphQLModule&#45;&gt;ApolloModule </title>
<path fill="none" stroke="#000000" stroke-dasharray="5,2" d="M345,-187.1061C345,-187.1061 345,-205.991 345,-205.991"/>
<polygon fill="#000000" stroke="#000000" points="341.5001,-205.9909 345,-215.991 348.5001,-205.991 341.5001,-205.9909"/>
</g>
<!-- GraphQLModule&#45;&gt;HttpLinkModule  -->
<g id="edge3" class="edge">
<title>GraphQLModule&#45;&gt;HttpLinkModule </title>
<path fill="none" stroke="#000000" stroke-dasharray="5,2" d="M288.2662,-169C254.8225,-169 219,-169 219,-169 219,-169 219,-205.8939 219,-205.8939"/>
<polygon fill="#000000" stroke="#000000" points="215.5001,-205.8938 219,-215.8939 222.5001,-205.8939 215.5001,-205.8938"/>
</g>
<!-- { provide: APOLLO_OPTIONS, useFactory: provideApollo, deps: [HttpLink] } -->
<g id="node5" class="node">
<title>{ provide: APOLLO_OPTIONS, useFactory: provideApollo, deps: [HttpLink] }</title>
<ellipse fill="#fdb462" stroke="#000000" cx="345" cy="-104" rx="321.4701" ry="18"/>
<text text-anchor="middle" x="345" y="-99.8" font-family="Times,serif" font-size="14.00" fill="#000000">{ provide: APOLLO_OPTIONS, useFactory: provideApollo, deps: [HttpLink] }</text>
</g>
<!-- { provide: APOLLO_OPTIONS, useFactory: provideApollo, deps: [HttpLink] }&#45;&gt;GraphQLModule -->
<g id="edge4" class="edge">
<title>{ provide: APOLLO_OPTIONS, useFactory: provideApollo, deps: [HttpLink] }&#45;&gt;GraphQLModule</title>
<path fill="none" stroke="#000000" d="M345,-122.1061C345,-122.1061 345,-140.991 345,-140.991"/>
<polygon fill="#000000" stroke="#000000" points="341.5001,-140.9909 345,-150.991 348.5001,-140.991 341.5001,-140.9909"/>
</g>
</g>
</svg>
