<?xml version="1.0" encoding="UTF-8" standalone="no"?>
<!DOCTYPE svg PUBLIC "-//W3C//DTD SVG 1.1//EN"
 "http://www.w3.org/Graphics/SVG/1.1/DTD/svg11.dtd">
<!-- Generated by graphviz version 2.40.1 (20161225.0304)
 -->
<!-- Title: dependencies Pages: 1 -->
<svg width="898pt" height="284pt"
 viewBox="0.00 0.00 898.00 284.00" xmlns="http://www.w3.org/2000/svg" xmlns:xlink="http://www.w3.org/1999/xlink">
<g id="graph0" class="graph" transform="scale(1 1) rotate(0) translate(4 280)">
<title>dependencies</title>
<polygon fill="#ffffff" stroke="transparent" points="-4,4 -4,-280 894,-280 894,4 -4,4"/>
<text text-anchor="start" x="424.0091" y="-42.4" font-family="sans-serif" font-weight="bold" font-size="14.00" fill="#000000">Legend</text>
<polygon fill="#ffffb3" stroke="transparent" points="211,-10 211,-30 231,-30 231,-10 211,-10"/>
<text text-anchor="start" x="234.629" y="-15.4" font-family="sans-serif" font-size="14.00" fill="#000000"> &#160;Declarations</text>
<polygon fill="#8dd3c7" stroke="transparent" points="324,-10 324,-30 344,-30 344,-10 324,-10"/>
<text text-anchor="start" x="347.7251" y="-15.4" font-family="sans-serif" font-size="14.00" fill="#000000"> &#160;Module</text>
<polygon fill="#80b1d3" stroke="transparent" points="410,-10 410,-30 430,-30 430,-10 410,-10"/>
<text text-anchor="start" x="433.7812" y="-15.4" font-family="sans-serif" font-size="14.00" fill="#000000"> &#160;Bootstrap</text>
<polygon fill="#fdb462" stroke="transparent" points="507,-10 507,-30 527,-30 527,-10 507,-10"/>
<text text-anchor="start" x="530.6732" y="-15.4" font-family="sans-serif" font-size="14.00" fill="#000000"> &#160;Providers</text>
<polygon fill="#fb8072" stroke="transparent" points="603,-10 603,-30 623,-30 623,-10 603,-10"/>
<text text-anchor="start" x="626.7258" y="-15.4" font-family="sans-serif" font-size="14.00" fill="#000000"> &#160;Exports</text>
<g id="clust1" class="cluster">
<title>cluster_MainNavModule</title>
<polygon fill="none" stroke="#000000" stroke-dasharray="1,5" points="8,-70 8,-268 882,-268 882,-70 8,-70"/>
</g>
<g id="clust2" class="cluster">
<title>cluster_MainNavModule_declarations</title>
<polygon fill="none" stroke="#000000" points="724,-78 724,-130 874,-130 874,-78 724,-78"/>
</g>
<g id="clust4" class="cluster">
<title>cluster_MainNavModule_imports</title>
<polygon fill="none" stroke="#000000" points="16,-78 16,-130 716,-130 716,-78 16,-78"/>
</g>
<g id="clust5" class="cluster">
<title>cluster_MainNavModule_exports</title>
<polygon fill="none" stroke="#000000" points="381,-208 381,-260 535,-260 535,-208 381,-208"/>
</g>
<!-- MainNavComponent -->
<g id="node1" class="node">
<title>MainNavComponent</title>
<polygon fill="#ffffb3" stroke="#000000" points="866.2036,-122 731.7964,-122 731.7964,-86 866.2036,-86 866.2036,-122"/>
<text text-anchor="middle" x="799" y="-99.8" font-family="Times,serif" font-size="14.00" fill="#000000">MainNavComponent</text>
</g>
<!-- MainNavModule -->
<g id="node2" class="node">
<title>MainNavModule</title>
<polygon fill="#8dd3c7" stroke="#000000" points="514.4216,-187 511.4216,-191 490.4216,-191 487.4216,-187 401.5784,-187 401.5784,-151 514.4216,-151 514.4216,-187"/>
<text text-anchor="middle" x="458" y="-164.8" font-family="Times,serif" font-size="14.00" fill="#000000">MainNavModule</text>
</g>
<!-- MainNavComponent&#45;&gt;MainNavModule -->
<g id="edge1" class="edge">
<title>MainNavComponent&#45;&gt;MainNavModule</title>
<path fill="none" stroke="#000000" d="M799,-122.2843C799,-143.3211 799,-175 799,-175 799,-175 524.3092,-175 524.3092,-175"/>
<polygon fill="#000000" stroke="#000000" points="524.3092,-171.5001 514.3092,-175 524.3092,-178.5001 524.3092,-171.5001"/>
</g>
<!-- MainNavComponent  -->
<g id="node8" class="node">
<title>MainNavComponent </title>
<polygon fill="#fb8072" stroke="#000000" points="526.7037,-252 389.2963,-252 389.2963,-216 526.7037,-216 526.7037,-252"/>
<text text-anchor="middle" x="458" y="-229.8" font-family="Times,serif" font-size="14.00" fill="#000000">MainNavComponent </text>
</g>
<!-- MainNavModule&#45;&gt;MainNavComponent  -->
<g id="edge7" class="edge">
<title>MainNavModule&#45;&gt;MainNavComponent </title>
<path fill="none" stroke="#000000" stroke-dasharray="5,2" d="M458,-187.1061C458,-187.1061 458,-205.991 458,-205.991"/>
<polygon fill="#000000" stroke="#000000" points="454.5001,-205.9909 458,-215.991 461.5001,-205.991 454.5001,-205.9909"/>
</g>
<!-- CommonModule -->
<g id="node3" class="node">
<title>CommonModule</title>
<polygon fill="#8dd3c7" stroke="#000000" points="707.6681,-122 704.6681,-126 683.6681,-126 680.6681,-122 596.3319,-122 596.3319,-86 707.6681,-86 707.6681,-122"/>
<text text-anchor="middle" x="652" y="-99.8" font-family="Times,serif" font-size="14.00" fill="#000000">CommonModule</text>
</g>
<!-- CommonModule&#45;&gt;MainNavModule -->
<g id="edge2" class="edge">
<title>CommonModule&#45;&gt;MainNavModule</title>
<path fill="none" stroke="#000000" d="M652,-122.0225C652,-139.3734 652,-163 652,-163 652,-163 524.3734,-163 524.3734,-163"/>
<polygon fill="#000000" stroke="#000000" points="524.3735,-159.5001 514.3734,-163 524.3734,-166.5001 524.3735,-159.5001"/>
</g>
<!-- IonicModule -->
<g id="node4" class="node">
<title>IonicModule</title>
<polygon fill="#8dd3c7" stroke="#000000" points="578.3162,-122 575.3162,-126 554.3162,-126 551.3162,-122 489.6838,-122 489.6838,-86 578.3162,-86 578.3162,-122"/>
<text text-anchor="middle" x="534" y="-99.8" font-family="Times,serif" font-size="14.00" fill="#000000">IonicModule</text>
</g>
<!-- IonicModule&#45;&gt;MainNavModule -->
<g id="edge3" class="edge">
<title>IonicModule&#45;&gt;MainNavModule</title>
<path fill="none" stroke="#000000" d="M502.0263,-122.1061C502.0263,-122.1061 502.0263,-140.991 502.0263,-140.991"/>
<polygon fill="#000000" stroke="#000000" points="498.5264,-140.9909 502.0263,-150.991 505.5264,-140.991 498.5264,-140.9909"/>
</g>
<!-- NgZorroAntdMobileModule -->
<g id="node5" class="node">
<title>NgZorroAntdMobileModule</title>
<polygon fill="#8dd3c7" stroke="#000000" points="471.4678,-122 468.4678,-126 447.4678,-126 444.4678,-122 294.5322,-122 294.5322,-86 471.4678,-86 471.4678,-122"/>
<text text-anchor="middle" x="383" y="-99.8" font-family="Times,serif" font-size="14.00" fill="#000000">NgZorroAntdMobileModule</text>
</g>
<!-- NgZorroAntdMobileModule&#45;&gt;MainNavModule -->
<g id="edge4" class="edge">
<title>NgZorroAntdMobileModule&#45;&gt;MainNavModule</title>
<path fill="none" stroke="#000000" d="M436.6368,-122.1061C436.6368,-122.1061 436.6368,-140.991 436.6368,-140.991"/>
<polygon fill="#000000" stroke="#000000" points="433.1368,-140.9909 436.6368,-150.991 440.1368,-140.991 433.1368,-140.9909"/>
</g>
<!-- NgZorroAntdModule -->
<g id="node6" class="node">
<title>NgZorroAntdModule</title>
<polygon fill="#8dd3c7" stroke="#000000" points="276.0282,-122 273.0282,-126 252.0282,-126 249.0282,-122 139.9718,-122 139.9718,-86 276.0282,-86 276.0282,-122"/>
<text text-anchor="middle" x="208" y="-99.8" font-family="Times,serif" font-size="14.00" fill="#000000">NgZorroAntdModule</text>
</g>
<!-- NgZorroAntdModule&#45;&gt;MainNavModule -->
<g id="edge5" class="edge">
<title>NgZorroAntdModule&#45;&gt;MainNavModule</title>
<path fill="none" stroke="#000000" d="M208,-122.0225C208,-139.3734 208,-163 208,-163 208,-163 391.5834,-163 391.5834,-163"/>
<polygon fill="#000000" stroke="#000000" points="391.5834,-166.5001 401.5834,-163 391.5834,-159.5001 391.5834,-166.5001"/>
</g>
<!-- SharedModule -->
<g id="node7" class="node">
<title>SharedModule</title>
<polygon fill="#8dd3c7" stroke="#000000" points="122.4231,-122 119.4231,-126 98.4231,-126 95.4231,-122 23.5769,-122 23.5769,-86 122.4231,-86 122.4231,-122"/>
<text text-anchor="middle" x="73" y="-99.8" font-family="Times,serif" font-size="14.00" fill="#000000">SharedModule</text>
</g>
<!-- SharedModule&#45;&gt;MainNavModule -->
<g id="edge6" class="edge">
<title>SharedModule&#45;&gt;MainNavModule</title>
<path fill="none" stroke="#000000" d="M73,-122.2843C73,-143.3211 73,-175 73,-175 73,-175 391.6054,-175 391.6054,-175"/>
<polygon fill="#000000" stroke="#000000" points="391.6054,-178.5001 401.6054,-175 391.6053,-171.5001 391.6054,-178.5001"/>
</g>
</g>
</svg>
