<?xml version="1.0" encoding="UTF-8" standalone="no"?>
<!DOCTYPE svg PUBLIC "-//W3C//DTD SVG 1.1//EN"
 "http://www.w3.org/Graphics/SVG/1.1/DTD/svg11.dtd">
<!-- Generated by graphviz version 2.40.1 (20161225.0304)
 -->
<!-- Title: dependencies Pages: 1 -->
<svg width="3620pt" height="284pt"
 viewBox="0.00 0.00 3620.00 284.00" xmlns="http://www.w3.org/2000/svg" xmlns:xlink="http://www.w3.org/1999/xlink">
<g id="graph0" class="graph" transform="scale(1 1) rotate(0) translate(4 280)">
<title>dependencies</title>
<polygon fill="#ffffff" stroke="transparent" points="-4,4 -4,-280 3616,-280 3616,4 -4,4"/>
<text text-anchor="start" x="1785.0091" y="-42.4" font-family="sans-serif" font-weight="bold" font-size="14.00" fill="#000000">Legend</text>
<polygon fill="#ffffb3" stroke="transparent" points="1572,-10 1572,-30 1592,-30 1592,-10 1572,-10"/>
<text text-anchor="start" x="1595.629" y="-15.4" font-family="sans-serif" font-size="14.00" fill="#000000"> &#160;Declarations</text>
<polygon fill="#8dd3c7" stroke="transparent" points="1685,-10 1685,-30 1705,-30 1705,-10 1685,-10"/>
<text text-anchor="start" x="1708.7251" y="-15.4" font-family="sans-serif" font-size="14.00" fill="#000000"> &#160;Module</text>
<polygon fill="#80b1d3" stroke="transparent" points="1771,-10 1771,-30 1791,-30 1791,-10 1771,-10"/>
<text text-anchor="start" x="1794.7812" y="-15.4" font-family="sans-serif" font-size="14.00" fill="#000000"> &#160;Bootstrap</text>
<polygon fill="#fdb462" stroke="transparent" points="1868,-10 1868,-30 1888,-30 1888,-10 1868,-10"/>
<text text-anchor="start" x="1891.6732" y="-15.4" font-family="sans-serif" font-size="14.00" fill="#000000"> &#160;Providers</text>
<polygon fill="#fb8072" stroke="transparent" points="1964,-10 1964,-30 1984,-30 1984,-10 1964,-10"/>
<text text-anchor="start" x="1987.7258" y="-15.4" font-family="sans-serif" font-size="14.00" fill="#000000"> &#160;Exports</text>
<g id="clust1" class="cluster">
<title>cluster_AppModule</title>
<polygon fill="none" stroke="#000000" stroke-dasharray="1,5" points="8,-70 8,-268 3604,-268 3604,-70 8,-70"/>
</g>
<g id="clust2" class="cluster">
<title>cluster_AppModule_declarations</title>
<polygon fill="none" stroke="#000000" points="3474,-78 3474,-130 3596,-130 3596,-78 3474,-78"/>
</g>
<g id="clust4" class="cluster">
<title>cluster_AppModule_imports</title>
<polygon fill="none" stroke="#000000" points="1385,-78 1385,-130 3466,-130 3466,-78 1385,-78"/>
</g>
<g id="clust6" class="cluster">
<title>cluster_AppModule_bootstrap</title>
<polygon fill="none" stroke="#000000" points="2054,-208 2054,-260 2178,-260 2178,-208 2054,-208"/>
</g>
<g id="clust7" class="cluster">
<title>cluster_AppModule_providers</title>
<polygon fill="none" stroke="#000000" points="16,-78 16,-130 1377,-130 1377,-78 16,-78"/>
</g>
<!-- AppComponent -->
<g id="node1" class="node">
<title>AppComponent</title>
<polygon fill="#ffffb3" stroke="#000000" points="3587.9399,-122 3482.0601,-122 3482.0601,-86 3587.9399,-86 3587.9399,-122"/>
<text text-anchor="middle" x="3535" y="-99.8" font-family="Times,serif" font-size="14.00" fill="#000000">AppComponent</text>
</g>
<!-- AppModule -->
<g id="node2" class="node">
<title>AppModule</title>
<polygon fill="#8dd3c7" stroke="#000000" points="2157.6571,-187 2154.6571,-191 2133.6571,-191 2130.6571,-187 2074.3429,-187 2074.3429,-151 2157.6571,-151 2157.6571,-187"/>
<text text-anchor="middle" x="2116" y="-164.8" font-family="Times,serif" font-size="14.00" fill="#000000">AppModule</text>
</g>
<!-- AppComponent&#45;&gt;AppModule -->
<g id="edge1" class="edge">
<title>AppComponent&#45;&gt;AppModule</title>
<path fill="none" stroke="#000000" d="M3535,-122.1532C3535,-145.7566 3535,-184 3535,-184 3535,-184 2167.6995,-184 2167.6995,-184"/>
<polygon fill="#000000" stroke="#000000" points="2167.6995,-180.5001 2157.6995,-184 2167.6995,-187.5001 2167.6995,-180.5001"/>
</g>
<!-- AppComponent  -->
<g id="node16" class="node">
<title>AppComponent </title>
<polygon fill="#80b1d3" stroke="#000000" points="2170.439,-252 2061.561,-252 2061.561,-216 2170.439,-216 2170.439,-252"/>
<text text-anchor="middle" x="2116" y="-229.8" font-family="Times,serif" font-size="14.00" fill="#000000">AppComponent </text>
</g>
<!-- AppModule&#45;&gt;AppComponent  -->
<g id="edge15" class="edge">
<title>AppModule&#45;&gt;AppComponent </title>
<path fill="none" stroke="#000000" stroke-dasharray="1,5" d="M2116,-187.1061C2116,-187.1061 2116,-205.991 2116,-205.991"/>
<polygon fill="#000000" stroke="#000000" points="2112.5001,-205.9909 2116,-215.991 2119.5001,-205.991 2112.5001,-205.9909"/>
</g>
<!-- BrowserModule -->
<g id="node3" class="node">
<title>BrowserModule</title>
<polygon fill="#8dd3c7" stroke="#000000" points="3458.4734,-122 3455.4734,-126 3434.4734,-126 3431.4734,-122 3351.5266,-122 3351.5266,-86 3458.4734,-86 3458.4734,-122"/>
<text text-anchor="middle" x="3405" y="-99.8" font-family="Times,serif" font-size="14.00" fill="#000000">BrowserModule</text>
</g>
<!-- BrowserModule&#45;&gt;AppModule -->
<g id="edge2" class="edge">
<title>BrowserModule&#45;&gt;AppModule</title>
<path fill="none" stroke="#000000" d="M3405,-122.0109C3405,-144.4852 3405,-180 3405,-180 3405,-180 2167.7902,-180 2167.7902,-180"/>
<polygon fill="#000000" stroke="#000000" points="2167.7903,-176.5001 2157.7902,-180 2167.7902,-183.5001 2167.7903,-176.5001"/>
</g>
<!-- IonicModule.forRoot(args) -->
<g id="node4" class="node">
<title>IonicModule.forRoot(args)</title>
<polygon fill="#8dd3c7" stroke="#000000" points="3334.005,-122 3331.005,-126 3310.005,-126 3307.005,-122 3165.995,-122 3165.995,-86 3334.005,-86 3334.005,-122"/>
<text text-anchor="middle" x="3250" y="-99.8" font-family="Times,serif" font-size="14.00" fill="#000000">IonicModule.forRoot(args)</text>
</g>
<!-- IonicModule.forRoot(args)&#45;&gt;AppModule -->
<g id="edge3" class="edge">
<title>IonicModule.forRoot(args)&#45;&gt;AppModule</title>
<path fill="none" stroke="#000000" d="M3250,-122.0449C3250,-143.6623 3250,-177 3250,-177 3250,-177 2167.7045,-177 2167.7045,-177"/>
<polygon fill="#000000" stroke="#000000" points="2167.7046,-173.5001 2157.7045,-177 2167.7045,-180.5001 2167.7046,-173.5001"/>
</g>
<!-- AppRoutingModule -->
<g id="node5" class="node">
<title>AppRoutingModule</title>
<polygon fill="#8dd3c7" stroke="#000000" points="3148.2744,-122 3145.2744,-126 3124.2744,-126 3121.2744,-122 3019.7256,-122 3019.7256,-86 3148.2744,-86 3148.2744,-122"/>
<text text-anchor="middle" x="3084" y="-99.8" font-family="Times,serif" font-size="14.00" fill="#000000">AppRoutingModule</text>
</g>
<!-- AppRoutingModule&#45;&gt;AppModule -->
<g id="edge4" class="edge">
<title>AppRoutingModule&#45;&gt;AppModule</title>
<path fill="none" stroke="#000000" d="M3084,-122.1289C3084,-142.5724 3084,-173 3084,-173 3084,-173 2167.9044,-173 2167.9044,-173"/>
<polygon fill="#000000" stroke="#000000" points="2167.9045,-169.5001 2157.9044,-173 2167.9044,-176.5001 2167.9045,-169.5001"/>
</g>
<!-- BrowserAnimationsModule -->
<g id="node6" class="node">
<title>BrowserAnimationsModule</title>
<polygon fill="#8dd3c7" stroke="#000000" points="3001.3019,-122 2998.3019,-126 2977.3019,-126 2974.3019,-122 2828.6981,-122 2828.6981,-86 3001.3019,-86 3001.3019,-122"/>
<text text-anchor="middle" x="2915" y="-99.8" font-family="Times,serif" font-size="14.00" fill="#000000">BrowserAnimationsModule</text>
</g>
<!-- BrowserAnimationsModule&#45;&gt;AppModule -->
<g id="edge5" class="edge">
<title>BrowserAnimationsModule&#45;&gt;AppModule</title>
<path fill="none" stroke="#000000" d="M2915,-122.1061C2915,-141.3391 2915,-169 2915,-169 2915,-169 2167.8327,-169 2167.8327,-169"/>
<polygon fill="#000000" stroke="#000000" points="2167.8328,-165.5001 2157.8327,-169 2167.8327,-172.5001 2167.8328,-165.5001"/>
</g>
<!-- FormsModule -->
<g id="node7" class="node">
<title>FormsModule</title>
<polygon fill="#8dd3c7" stroke="#000000" points="2810.8288,-122 2807.8288,-126 2786.8288,-126 2783.8288,-122 2715.1712,-122 2715.1712,-86 2810.8288,-86 2810.8288,-122"/>
<text text-anchor="middle" x="2763" y="-99.8" font-family="Times,serif" font-size="14.00" fill="#000000">FormsModule</text>
</g>
<!-- FormsModule&#45;&gt;AppModule -->
<g id="edge6" class="edge">
<title>FormsModule&#45;&gt;AppModule</title>
<path fill="none" stroke="#000000" d="M2763,-122.2667C2763,-140.5552 2763,-166 2763,-166 2763,-166 2167.953,-166 2167.953,-166"/>
<polygon fill="#000000" stroke="#000000" points="2167.953,-162.5001 2157.953,-166 2167.9529,-169.5001 2167.953,-162.5001"/>
</g>
<!-- HttpClientModule -->
<g id="node8" class="node">
<title>HttpClientModule</title>
<polygon fill="#8dd3c7" stroke="#000000" points="2697.1611,-122 2694.1611,-126 2673.1611,-126 2670.1611,-122 2578.8389,-122 2578.8389,-86 2697.1611,-86 2697.1611,-122"/>
<text text-anchor="middle" x="2638" y="-99.8" font-family="Times,serif" font-size="14.00" fill="#000000">HttpClientModule</text>
</g>
<!-- HttpClientModule&#45;&gt;AppModule -->
<g id="edge7" class="edge">
<title>HttpClientModule&#45;&gt;AppModule</title>
<path fill="none" stroke="#000000" d="M2638,-122.0336C2638,-139.0597 2638,-162 2638,-162 2638,-162 2167.8351,-162 2167.8351,-162"/>
<polygon fill="#000000" stroke="#000000" points="2167.8351,-158.5001 2157.8351,-162 2167.835,-165.5001 2167.8351,-158.5001"/>
</g>
<!-- NgZorroAntdMobileModule -->
<g id="node9" class="node">
<title>NgZorroAntdMobileModule</title>
<polygon fill="#8dd3c7" stroke="#000000" points="2560.4678,-122 2557.4678,-126 2536.4678,-126 2533.4678,-122 2383.5322,-122 2383.5322,-86 2560.4678,-86 2560.4678,-122"/>
<text text-anchor="middle" x="2472" y="-99.8" font-family="Times,serif" font-size="14.00" fill="#000000">NgZorroAntdMobileModule</text>
</g>
<!-- NgZorroAntdMobileModule&#45;&gt;AppModule -->
<g id="edge8" class="edge">
<title>NgZorroAntdMobileModule&#45;&gt;AppModule</title>
<path fill="none" stroke="#000000" d="M2472,-122.0091C2472,-138.0494 2472,-159 2472,-159 2472,-159 2167.8846,-159 2167.8846,-159"/>
<polygon fill="#000000" stroke="#000000" points="2167.8846,-155.5001 2157.8846,-159 2167.8845,-162.5001 2167.8846,-155.5001"/>
</g>
<!-- GraphQLModule -->
<g id="node10" class="node">
<title>GraphQLModule</title>
<polygon fill="#8dd3c7" stroke="#000000" points="2365.691,-122 2362.691,-126 2341.691,-126 2338.691,-122 2252.309,-122 2252.309,-86 2365.691,-86 2365.691,-122"/>
<text text-anchor="middle" x="2309" y="-99.8" font-family="Times,serif" font-size="14.00" fill="#000000">GraphQLModule</text>
</g>
<!-- GraphQLModule&#45;&gt;AppModule -->
<g id="edge9" class="edge">
<title>GraphQLModule&#45;&gt;AppModule</title>
<path fill="none" stroke="#000000" d="M2309,-122.1243C2309,-136.7832 2309,-155 2309,-155 2309,-155 2167.8781,-155 2167.8781,-155"/>
<polygon fill="#000000" stroke="#000000" points="2167.8782,-151.5001 2157.8781,-155 2167.8781,-158.5001 2167.8782,-151.5001"/>
</g>
<!-- SharedModule -->
<g id="node11" class="node">
<title>SharedModule</title>
<polygon fill="#8dd3c7" stroke="#000000" points="2234.4231,-122 2231.4231,-126 2210.4231,-126 2207.4231,-122 2135.5769,-122 2135.5769,-86 2234.4231,-86 2234.4231,-122"/>
<text text-anchor="middle" x="2185" y="-99.8" font-family="Times,serif" font-size="14.00" fill="#000000">SharedModule</text>
</g>
<!-- SharedModule&#45;&gt;AppModule -->
<g id="edge10" class="edge">
<title>SharedModule&#45;&gt;AppModule</title>
<path fill="none" stroke="#000000" d="M2146.8085,-122.1061C2146.8085,-122.1061 2146.8085,-140.991 2146.8085,-140.991"/>
<polygon fill="#000000" stroke="#000000" points="2143.3086,-140.9909 2146.8085,-150.991 2150.3086,-140.991 2143.3086,-140.9909"/>
</g>
<!-- FontAwesomeModule -->
<g id="node12" class="node">
<title>FontAwesomeModule</title>
<polygon fill="#8dd3c7" stroke="#000000" points="2117.7007,-122 2114.7007,-126 2093.7007,-126 2090.7007,-122 1976.2993,-122 1976.2993,-86 2117.7007,-86 2117.7007,-122"/>
<text text-anchor="middle" x="2047" y="-99.8" font-family="Times,serif" font-size="14.00" fill="#000000">FontAwesomeModule</text>
</g>
<!-- FontAwesomeModule&#45;&gt;AppModule -->
<g id="edge11" class="edge">
<title>FontAwesomeModule&#45;&gt;AppModule</title>
<path fill="none" stroke="#000000" d="M2095.8861,-122.1061C2095.8861,-122.1061 2095.8861,-140.991 2095.8861,-140.991"/>
<polygon fill="#000000" stroke="#000000" points="2092.3861,-140.9909 2095.8861,-150.991 2099.3861,-140.991 2092.3861,-140.9909"/>
</g>
<!-- NgZorroAntdModule -->
<g id="node13" class="node">
<title>NgZorroAntdModule</title>
<polygon fill="#8dd3c7" stroke="#000000" points="1958.0282,-122 1955.0282,-126 1934.0282,-126 1931.0282,-122 1821.9718,-122 1821.9718,-86 1958.0282,-86 1958.0282,-122"/>
<text text-anchor="middle" x="1890" y="-99.8" font-family="Times,serif" font-size="14.00" fill="#000000">NgZorroAntdModule</text>
</g>
<!-- NgZorroAntdModule&#45;&gt;AppModule -->
<g id="edge12" class="edge">
<title>NgZorroAntdModule&#45;&gt;AppModule</title>
<path fill="none" stroke="#000000" d="M1890,-122.1243C1890,-136.7832 1890,-155 1890,-155 1890,-155 2064.2847,-155 2064.2847,-155"/>
<polygon fill="#000000" stroke="#000000" points="2064.2848,-158.5001 2074.2847,-155 2064.2847,-151.5001 2064.2848,-158.5001"/>
</g>
<!-- AngularFireModule.initializeApp(args) -->
<g id="node14" class="node">
<title>AngularFireModule.initializeApp(args)</title>
<polygon fill="#8dd3c7" stroke="#000000" points="1803.7057,-122 1800.7057,-126 1779.7057,-126 1776.7057,-122 1566.2943,-122 1566.2943,-86 1803.7057,-86 1803.7057,-122"/>
<text text-anchor="middle" x="1685" y="-99.8" font-family="Times,serif" font-size="14.00" fill="#000000">AngularFireModule.initializeApp(args)</text>
</g>
<!-- AngularFireModule.initializeApp(args)&#45;&gt;AppModule -->
<g id="edge13" class="edge">
<title>AngularFireModule.initializeApp(args)&#45;&gt;AppModule</title>
<path fill="none" stroke="#000000" d="M1685,-122.0091C1685,-138.0494 1685,-159 1685,-159 1685,-159 2064.2823,-159 2064.2823,-159"/>
<polygon fill="#000000" stroke="#000000" points="2064.2823,-162.5001 2074.2823,-159 2064.2823,-155.5001 2064.2823,-162.5001"/>
</g>
<!-- AngularFirestoreModule -->
<g id="node15" class="node">
<title>AngularFirestoreModule</title>
<polygon fill="#8dd3c7" stroke="#000000" points="1548.6811,-122 1545.6811,-126 1524.6811,-126 1521.6811,-122 1393.3189,-122 1393.3189,-86 1548.6811,-86 1548.6811,-122"/>
<text text-anchor="middle" x="1471" y="-99.8" font-family="Times,serif" font-size="14.00" fill="#000000">AngularFirestoreModule</text>
</g>
<!-- AngularFirestoreModule&#45;&gt;AppModule -->
<g id="edge14" class="edge">
<title>AngularFirestoreModule&#45;&gt;AppModule</title>
<path fill="none" stroke="#000000" d="M1471,-122.0336C1471,-139.0597 1471,-162 1471,-162 1471,-162 2064.1767,-162 2064.1767,-162"/>
<polygon fill="#000000" stroke="#000000" points="2064.1768,-165.5001 2074.1767,-162 2064.1767,-158.5001 2064.1768,-165.5001"/>
</g>
<!-- StatusBar -->
<g id="node17" class="node">
<title>StatusBar</title>
<ellipse fill="#fdb462" stroke="#000000" cx="1320" cy="-104" rx="48.6694" ry="18"/>
<text text-anchor="middle" x="1320" y="-99.8" font-family="Times,serif" font-size="14.00" fill="#000000">StatusBar</text>
</g>
<!-- StatusBar&#45;&gt;AppModule -->
<g id="edge16" class="edge">
<title>StatusBar&#45;&gt;AppModule</title>
<path fill="none" stroke="#000000" d="M1320,-122.2667C1320,-140.5552 1320,-166 1320,-166 1320,-166 2064.3243,-166 2064.3243,-166"/>
<polygon fill="#000000" stroke="#000000" points="2064.3244,-169.5001 2074.3243,-166 2064.3243,-162.5001 2064.3244,-169.5001"/>
</g>
<!-- SplashScreen -->
<g id="node18" class="node">
<title>SplashScreen</title>
<ellipse fill="#fdb462" stroke="#000000" cx="1190" cy="-104" rx="63.1189" ry="18"/>
<text text-anchor="middle" x="1190" y="-99.8" font-family="Times,serif" font-size="14.00" fill="#000000">SplashScreen</text>
</g>
<!-- SplashScreen&#45;&gt;AppModule -->
<g id="edge17" class="edge">
<title>SplashScreen&#45;&gt;AppModule</title>
<path fill="none" stroke="#000000" d="M1190,-122.1061C1190,-141.3391 1190,-169 1190,-169 1190,-169 2064.1096,-169 2064.1096,-169"/>
<polygon fill="#000000" stroke="#000000" points="2064.1096,-172.5001 2074.1096,-169 2064.1096,-165.5001 2064.1096,-172.5001"/>
</g>
<!-- { provide: RouteReuseStrategy, useClass: IonicRouteStrategy } -->
<g id="node19" class="node">
<title>{ provide: RouteReuseStrategy, useClass: IonicRouteStrategy }</title>
<ellipse fill="#fdb462" stroke="#000000" cx="852" cy="-104" rx="257.2723" ry="18"/>
<text text-anchor="middle" x="852" y="-99.8" font-family="Times,serif" font-size="14.00" fill="#000000">{ provide: RouteReuseStrategy, useClass: IonicRouteStrategy }</text>
</g>
<!-- { provide: RouteReuseStrategy, useClass: IonicRouteStrategy }&#45;&gt;AppModule -->
<g id="edge18" class="edge">
<title>{ provide: RouteReuseStrategy, useClass: IonicRouteStrategy }&#45;&gt;AppModule</title>
<path fill="none" stroke="#000000" d="M852,-122.1289C852,-142.5724 852,-173 852,-173 852,-173 2064.3045,-173 2064.3045,-173"/>
<polygon fill="#000000" stroke="#000000" points="2064.3045,-176.5001 2074.3045,-173 2064.3044,-169.5001 2064.3045,-176.5001"/>
</g>
<!-- { provide: NZ_I18N, useValue: en_US } -->
<g id="node20" class="node">
<title>{ provide: NZ_I18N, useValue: en_US }</title>
<ellipse fill="#fdb462" stroke="#000000" cx="407" cy="-104" rx="169.3208" ry="18"/>
<text text-anchor="middle" x="407" y="-99.8" font-family="Times,serif" font-size="14.00" fill="#000000">{ provide: NZ_I18N, useValue: en_US }</text>
</g>
<!-- { provide: NZ_I18N, useValue: en_US }&#45;&gt;AppModule -->
<g id="edge19" class="edge">
<title>{ provide: NZ_I18N, useValue: en_US }&#45;&gt;AppModule</title>
<path fill="none" stroke="#000000" d="M407,-122.0449C407,-143.6623 407,-177 407,-177 407,-177 2064.1792,-177 2064.1792,-177"/>
<polygon fill="#000000" stroke="#000000" points="2064.1792,-180.5001 2074.1792,-177 2064.1792,-173.5001 2064.1792,-180.5001"/>
</g>
<!-- FCM -->
<g id="node21" class="node">
<title>FCM</title>
<ellipse fill="#fdb462" stroke="#000000" cx="188" cy="-104" rx="31.3583" ry="18"/>
<text text-anchor="middle" x="188" y="-99.8" font-family="Times,serif" font-size="14.00" fill="#000000">FCM</text>
</g>
<!-- FCM&#45;&gt;AppModule -->
<g id="edge20" class="edge">
<title>FCM&#45;&gt;AppModule</title>
<path fill="none" stroke="#000000" d="M188,-122.0109C188,-144.4852 188,-180 188,-180 188,-180 2063.9379,-180 2063.9379,-180"/>
<polygon fill="#000000" stroke="#000000" points="2063.938,-183.5001 2073.9379,-180 2063.9379,-176.5001 2063.938,-183.5001"/>
</g>
<!-- FcmService -->
<g id="node22" class="node">
<title>FcmService</title>
<ellipse fill="#fdb462" stroke="#000000" cx="81" cy="-104" rx="57.3185" ry="18"/>
<text text-anchor="middle" x="81" y="-99.8" font-family="Times,serif" font-size="14.00" fill="#000000">FcmService</text>
</g>
<!-- FcmService&#45;&gt;AppModule -->
<g id="edge21" class="edge">
<title>FcmService&#45;&gt;AppModule</title>
<path fill="none" stroke="#000000" d="M81,-122.1532C81,-145.7566 81,-184 81,-184 81,-184 2063.9632,-184 2063.9632,-184"/>
<polygon fill="#000000" stroke="#000000" points="2063.9633,-187.5001 2073.9632,-184 2063.9632,-180.5001 2063.9633,-187.5001"/>
</g>
</g>
</svg>
